<svg width="80" height="161" viewBox="0 0 80 161" fill="none" xmlns="http://www.w3.org/2000/svg">
<path fill-rule="evenodd" clip-rule="evenodd" d="M34.8442 60.4699C41.4707 44.8151 47.8826 34.9197 36.6663 20.2493C33.3313 15.8866 31.1412 12.2377 28.9792 7.23585C28.4144 5.92677 28.7057 4.35743 27.7678 3.09731C24.6552 -1.09276 18.0797 -0.190841 13.8094 1.211C0.103954 5.70516 -1.2326 19.3422 2.44484 31.6805C4.4944 38.5609 8.33284 41.2667 14.1263 45.4027C16.2908 46.9462 34.7317 59.7303 33.5945 61.7455C33.1192 62.5907 34.0034 64.6291 34.7241 63.3922C36.5692 60.238 36.1398 58.6042 33.9165 56.0479C32.3806 54.2853 28.1128 53.6153 25.8818 52.0588C23.8553 50.6415 22.2478 48.9176 20.3797 47.3508C13.0223 41.1765 5.7364 39.115 3.29584 28.23C0.893621 17.5203 6.05073 1.48931 19.194 2.57677C26.4722 3.18235 27.1494 10.5652 30.1803 15.5181C32.856 19.8937 37.479 23.1896 39.7994 27.7842C45.4216 38.914 37.9338 49.6443 34.1491 59.8772C33.96 60.3952 34.5324 61.2043 34.8442 60.4699Z" fill="#F2E9DD"/>
<path fill-rule="evenodd" clip-rule="evenodd" d="M35.4954 60.0295C35.7944 51.5154 34.6495 43.9598 27.8926 38.2957C23.8344 34.8942 21.6826 33.5851 19.881 28.3772C18.9942 25.8131 15.8176 17.3351 17.1644 14.704C17.3305 14.3793 17.0366 13.5392 16.7095 14.0417C13.8754 18.4122 17.4174 27.5783 19.5232 32.0982C20.7498 34.7267 22.4288 36.2394 24.5423 38.0329C27.4352 40.4913 30.9542 42.9445 32.6255 46.5548C34.5064 50.616 34.4911 55.7183 35.0047 60.1455C35.0558 60.599 35.4826 60.3903 35.4954 60.0295Z" fill="#F2E9DD"/>
<path fill-rule="evenodd" clip-rule="evenodd" d="M36.6689 49.5745C36.6101 49.5642 36.7379 48.9096 36.7557 47.8222C36.7762 46.7373 36.6101 45.2221 36.1143 43.5806C35.1687 40.2615 32.7691 36.7079 30.7527 34.1439C28.7134 31.5051 26.9041 29.0673 25.8767 27.1295C24.8239 25.2045 24.4737 23.8903 24.5632 23.8594C24.6859 23.8104 25.1919 25.0061 26.3163 26.8099C27.4203 28.6267 29.2347 30.9717 31.292 33.6491C33.3109 36.2234 35.7131 39.96 36.5564 43.4259C36.9985 45.137 37.0905 46.7167 36.9909 47.8247C36.8912 48.938 36.6689 49.5745 36.6689 49.5745Z" fill="#F2E9DD"/>
<path fill-rule="evenodd" clip-rule="evenodd" d="M37.6219 43.2588C37.512 43.2588 37.5785 41.4035 37.0955 39.0559C36.6662 36.7031 35.6439 33.9149 34.5323 31.959C32.3652 27.8798 29.5055 25.4832 29.6869 25.2848C29.7713 25.1173 32.889 27.3128 35.1507 31.5699C36.2956 33.5928 37.2539 36.5253 37.5504 38.958C37.7242 40.1717 37.742 41.254 37.7344 42.0245C37.6935 42.795 37.6526 43.2588 37.6219 43.2588Z" fill="#F2E9DD"/>
<path fill-rule="evenodd" clip-rule="evenodd" d="M40.4102 37.2801C40.2773 37.3703 38.2558 34.7032 37.0675 32.9973C35.8511 31.2553 35.0793 29.7478 35.2607 29.6215C35.4524 29.4927 36.4542 30.8043 37.6553 32.5695C38.8283 34.2883 40.5201 37.2054 40.4102 37.2801Z" fill="#F2E9DD"/>
<path fill-rule="evenodd" clip-rule="evenodd" d="M32.58 55.8213C32.5161 55.8161 32.6209 55.1461 32.5263 54.0535C32.4343 52.9609 32.0127 51.4714 31.1847 49.9614C29.5414 46.8768 26.2397 44.0757 23.6764 41.9909C21.0749 39.834 18.9052 37.5792 17.8293 35.6027C16.7279 33.6391 16.6052 32.2244 16.6844 32.2167C16.825 32.178 17.1163 33.4794 18.2663 35.2729C19.3857 37.0922 21.494 39.2182 24.0956 41.3879C26.6281 43.4624 30.004 46.449 31.5833 49.714C32.3832 51.3194 32.7461 52.8965 32.7563 54.0277C32.7742 55.1642 32.58 55.8213 32.58 55.8213Z" fill="#F2E9DD"/>
<path fill-rule="evenodd" clip-rule="evenodd" d="M16.2118 2.0767C16.3574 1.93497 18.3099 4.17947 19.0842 5.88282C19.9429 7.57586 20.1192 9.1014 19.9122 9.14778C19.6797 9.21221 19.2427 7.85674 18.4351 6.21524C18.0543 5.41124 17.5202 4.37532 17.0398 3.55586C16.567 2.73124 16.1581 2.12051 16.2118 2.0767Z" fill="#F2E9DD"/>
<path fill-rule="evenodd" clip-rule="evenodd" d="M20.0937 2.11548C20.2522 2.08714 20.886 4.50687 21.2028 6.02725C21.5223 7.58113 21.5504 8.85156 21.3332 8.89279C21.1057 8.93402 20.7888 7.7409 20.4898 6.17413C20.196 4.65117 19.966 2.13867 20.0937 2.11548Z" fill="#F2E9DD"/>
<path fill-rule="evenodd" clip-rule="evenodd" d="M14.2795 3.96583C14.3996 3.96583 14.9056 6.99114 15.5623 8.76149C16.1501 10.5885 16.6919 12.0239 16.4875 12.1321C16.2958 12.2378 15.4729 10.9132 14.8723 8.99599C14.2105 7.13545 14.1057 3.96068 14.2795 3.96583Z" fill="#F2E9DD"/>
<path fill-rule="evenodd" clip-rule="evenodd" d="M12.4805 6.58911C12.4319 6.60714 12.3655 6.23864 11.9438 5.90622C11.5861 5.5738 10.6584 5.35991 10.1371 5.75161C9.99395 5.79541 10.3083 6.33657 10.4309 6.77464C10.6022 7.22561 10.7734 7.6843 10.9472 8.13784C11.3152 9.04491 11.6755 9.93395 11.9898 10.7045C13.3162 13.8406 14.4611 16.2964 14.2592 16.4072C14.0675 16.518 12.6671 14.2245 11.3331 11.0163C11.0059 10.2355 10.6609 9.32064 10.3492 8.38522L9.9045 6.97564L9.70261 6.28761L9.5825 5.86499C9.56717 5.77995 9.52372 5.68461 9.5365 5.60988L9.75372 5.45011C10.8194 4.79814 11.6781 5.33672 12.0972 5.73099C12.5265 6.18453 12.4984 6.59941 12.4805 6.58911Z" fill="#F2E9DD"/>
<path fill-rule="evenodd" clip-rule="evenodd" d="M36.1425 53.7595C35.3043 54.0404 35.0308 43.0833 30.0884 38.4011C28.1334 35.752 26.4288 33.3452 25.2354 31.5825C24.0394 29.8225 23.357 28.7067 23.4439 28.6397C23.5385 28.5701 24.3563 29.5545 25.6417 31.2218C26.9144 32.9277 28.6598 35.2701 30.6353 37.9166C31.5834 39.218 32.6925 40.7486 33.5486 42.4752C34.4379 44.194 34.8673 46.1396 35.11 47.83C35.4934 51.2496 36.1425 53.7595 36.1425 53.7595Z" fill="#F2E9DD"/>
<path fill-rule="evenodd" clip-rule="evenodd" d="M36.5562 53.3629C36.4565 53.332 37.4685 51.2112 37.5784 48.2219C37.7701 45.243 36.9804 41.6044 35.9454 38.9914C33.832 33.6443 31.4246 29.6707 31.6981 29.5264C31.7952 29.4697 32.429 30.4077 33.3694 32.0131C34.3022 33.6237 35.5672 35.9094 36.6073 38.6822C37.6628 41.3596 38.386 45.1683 38.0435 48.2297C37.9004 49.7552 37.5554 51.072 37.2155 51.9714C36.8731 52.8707 36.5562 53.3629 36.5562 53.3629Z" fill="#F2E9DD"/>
<path fill-rule="evenodd" clip-rule="evenodd" d="M38.5909 45.2324C38.55 45.2272 38.6011 44.5701 38.7008 43.4878C38.7928 42.408 38.9385 40.898 38.9359 39.192C38.9333 37.4887 38.7596 35.5792 38.1743 33.8114C37.5866 32.0514 36.6103 30.4717 35.7006 29.1369C33.8299 26.4388 32.0461 23.9315 31.4532 21.7746C31.1133 20.7181 31.0622 19.8136 31.0725 19.2054C31.1261 18.5947 31.1823 18.2674 31.236 18.2725C31.4098 18.27 31.2053 19.5945 31.949 21.553C32.6058 23.5424 34.3563 25.9106 36.2679 28.6756C37.1802 30.0285 38.1897 31.6855 38.7723 33.5666C39.3499 35.4426 39.4675 37.432 39.4036 39.1714C39.332 40.916 39.1046 42.4312 38.9333 43.511C38.8362 44.0418 38.7621 44.4696 38.7059 44.7762C38.6471 45.0726 38.6062 45.2349 38.5909 45.2324Z" fill="#F2E9DD"/>
<path fill-rule="evenodd" clip-rule="evenodd" d="M6.76081 9.68896C6.81704 9.70958 6.42348 10.6656 5.98648 12.3045C5.56226 13.9435 5.16359 16.2936 5.19681 18.971C5.24281 21.6407 5.7207 24.63 6.78892 27.3744C7.81881 30.1343 9.41348 32.6004 11.026 34.5305C14.3253 38.4938 18.1407 41.2202 20.8394 43.1787C23.5713 45.1165 25.286 46.2632 25.2221 46.3689C25.1915 46.4178 24.7391 46.1911 23.9367 45.735C23.1394 45.2737 21.9919 44.5882 20.5991 43.6734C17.8417 41.8335 13.9496 39.1587 10.5303 35.0768C8.87681 33.1003 7.24126 30.5414 6.21137 27.681C5.14826 24.8387 4.71126 21.7515 4.73426 19.02C4.76237 16.2782 5.25304 13.8945 5.75904 12.2556C6.27781 10.6115 6.76081 9.68896 6.76081 9.68896Z" fill="#F2E9DD"/>
<path fill-rule="evenodd" clip-rule="evenodd" d="M78.4378 156.829C78.1091 147.144 75.9256 133.171 66.2682 127.666C59.4204 123.764 50.1387 125.234 42.61 124.821C36.3987 124.479 29.8561 122.452 24.6935 126.802C17.603 132.778 20.6761 142.478 27.2317 147.514C33.5291 152.35 42.0726 152.875 49.4343 155.37C52.2726 156.335 55.0665 157.696 58.0561 158.159C62.8795 158.909 75.1456 153.984 77.9813 160.389C78.5891 161.762 79.6691 160.173 79.2726 159.213C76.5569 152.624 71.7778 155.086 65.8091 155.57C58.8935 156.133 53.3213 154.207 46.9378 152.279C41.9787 150.782 34.5908 150.243 30.683 146.921C25.8361 145.328 25.5439 141.683 29.8039 135.985C27.8265 128.983 29.0395 125.854 33.4535 126.597C35.9578 125.994 40.2465 127.313 42.6778 127.478C47.89 127.833 53.3291 126.911 58.4448 128.21C72.2239 131.706 76.1448 144.636 77.7178 156.994C77.7961 157.612 78.4587 157.369 78.4378 156.829Z" fill="#F2E9DD"/>
<path fill-rule="evenodd" clip-rule="evenodd" d="M79.5698 154.691C75.6516 149.445 71.4176 145.933 65.6394 142.63C62.895 141.062 60.1194 139.947 57.1455 138.878C54.542 137.938 49.695 136.494 47.5063 134.873C46.8072 134.356 46.7185 135.696 46.9272 136.059C47.9524 137.827 48.182 137.262 50.1046 138.037C53.3342 139.339 56.4437 140.783 59.7046 142.055C67.2333 144.989 74.042 149.3 79.0611 155.487C79.4942 156.021 79.8489 155.064 79.5698 154.691Z" fill="#F2E9DD"/>
<path fill-rule="evenodd" clip-rule="evenodd" d="M76.1972 147.296C76.1632 147.327 75.6389 146.845 74.7728 146.055C73.8989 145.27 72.665 144.196 71.1989 143.05C68.2772 140.748 64.3458 138.321 61.1606 136.788C57.9311 135.235 54.8632 133.956 52.6693 133.426C51.5528 133.219 50.6163 133.338 50.0998 133.657C49.5676 133.963 49.4137 134.318 49.3485 134.278C49.3119 134.272 49.3563 133.865 49.9041 133.416C50.4441 132.96 51.5006 132.735 52.698 132.889C55.098 133.315 58.1032 134.518 61.4345 136.114C64.6641 137.675 68.6111 140.233 71.4754 142.676C72.9154 143.889 74.1076 145.034 74.9345 145.883C75.7511 146.739 76.1972 147.296 76.1972 147.296Z" fill="#F2E9DD"/>
<path fill-rule="evenodd" clip-rule="evenodd" d="M74.9294 153.135C74.9136 153.173 74.3919 153.009 73.5284 152.71C72.6832 152.368 71.5223 151.838 70.2858 151.099C67.7893 149.652 64.9927 147.476 62.7571 145.986C60.4901 144.439 58.3354 143.266 56.6658 142.675C55.0014 142.075 53.9058 141.918 53.9241 141.773C53.9267 141.697 55.0484 141.662 56.8014 142.156C58.5571 142.635 60.8319 143.777 63.138 145.366C65.4075 146.888 68.1284 149.148 70.5206 150.698C71.7023 151.491 72.8136 152.082 73.6197 152.497C74.4414 152.867 74.9397 153.105 74.9294 153.135Z" fill="#F2E9DD"/>
<path fill-rule="evenodd" clip-rule="evenodd" d="M21.0615 138.627C20.9832 138.445 25.7571 136.666 28.8798 136.048C32.0467 135.344 34.6371 135.301 34.6554 135.506C34.6815 135.747 32.2137 136.071 29.0676 136.747C27.5311 137.064 25.5302 137.515 23.9206 137.931C22.3085 138.336 21.085 138.693 21.0615 138.627Z" fill="#F2E9DD"/>
<path fill-rule="evenodd" clip-rule="evenodd" d="M20.0889 133.434C20.0733 133.274 23.9811 132.74 26.4203 132.489C28.909 132.233 30.902 132.256 30.9229 132.474C30.9411 132.702 29.0185 132.97 26.5116 133.203C24.0698 133.434 20.102 133.561 20.0889 133.434Z" fill="#F2E9DD"/>
<path fill-rule="evenodd" clip-rule="evenodd" d="M25.9219 131.025C25.9115 130.865 28.4341 130.508 30.0098 130.369C31.6193 130.224 32.908 130.336 32.9237 130.554C32.9393 130.784 31.695 130.964 30.075 131.086C28.4993 131.205 25.9298 131.154 25.9219 131.025Z" fill="#F2E9DD"/>
<path fill-rule="evenodd" clip-rule="evenodd" d="M75.2398 154.982C75.2318 155.023 74.8014 154.962 74.0944 154.836C73.3901 154.701 72.4092 154.491 71.311 154.21C69.1066 153.66 66.4223 152.811 64.4136 152.034C60.2892 150.476 57.3153 148.644 57.4197 148.467C57.537 148.251 60.5579 149.774 64.651 151.35C66.6362 152.13 69.2657 153.077 71.4257 153.764C72.4953 154.096 73.4449 154.392 74.1466 154.61C74.8353 154.815 75.2475 154.952 75.2398 154.982Z" fill="#F2E9DD"/>
<path fill-rule="evenodd" clip-rule="evenodd" d="M40.2724 148.829C40.3011 148.748 41.4098 149.044 42.8785 149.333C44.3419 149.632 46.1654 149.906 47.5689 150.04C50.4332 150.346 52.7263 150.42 52.7368 150.65C52.7498 150.866 50.4593 151.094 47.5089 150.759C44.608 150.536 40.1993 148.996 40.2724 148.829Z" fill="#F2E9DD"/>
<path fill-rule="evenodd" clip-rule="evenodd" d="M21.9023 136.104C21.9023 136.104 22.2023 135.61 23.0136 135.109C23.8223 134.61 25.158 134.26 26.6554 134.209C28.1528 134.128 29.8171 134.235 31.4163 134.116C33.0232 134.04 34.4528 133.378 35.9163 133.092C38.9528 132.583 41.5223 133.763 43.1397 134.572C44.7884 135.438 45.7041 136.104 45.6545 136.19C45.5945 136.299 44.5954 135.803 42.9363 135.073C41.3032 134.389 38.8563 133.35 36.1015 133.794C34.8076 134.012 33.2241 134.711 31.5076 134.749C29.825 134.832 28.1632 134.66 26.6945 134.668C25.2232 134.65 23.9528 134.901 23.1363 135.306C22.3197 135.717 21.9415 136.145 21.9023 136.104Z" fill="#F2E9DD"/>
</svg>
