<svg width="119" height="266" viewBox="0 0 119 266" fill="none" xmlns="http://www.w3.org/2000/svg">
<path fill-rule="evenodd" clip-rule="evenodd" d="M57.9019 265.59C56.6026 246.438 54.0111 226.883 54.5811 207.672C55.278 184.063 52.7257 160.585 55.0357 137.059C56.2726 124.44 58.5988 112.216 62.6949 100.11C66.4957 88.8744 71.3811 78.196 74.6972 66.7551C77.6603 56.5272 77.0834 49.014 77.2588 38.5458C77.3972 30.0622 81.8326 23.8266 80.7757 14.8994C80.6649 13.9684 79.6265 14.3034 79.7026 15.149C80.538 24.3441 75.1749 31.624 75.8834 40.9601C76.9334 54.8291 73.9057 68.7744 68.5472 81.7031C60.3295 101.533 55.6957 120.917 52.9657 142.116C51.5119 153.414 52.3588 164.97 53.2011 176.291C53.9834 186.791 53.5703 197.193 53.4295 207.7C53.1665 227.123 55.7257 246.329 57.3895 265.602C57.4311 266.073 57.9342 266.076 57.9019 265.59Z" fill="#F2E9DD"/>
<path fill-rule="evenodd" clip-rule="evenodd" d="M60.3507 263.853C62.3399 244.608 58.6546 225.866 58.6361 206.505C58.6292 197.44 59.4438 187.972 58.4607 178.925C57.0461 165.885 59.393 154.761 59.8753 141.996C60.3346 129.83 59.4992 119.796 64.8623 108.279C68.2684 100.962 71.0907 93.0768 72.833 85.1245C75.293 73.894 77.8615 62.8066 79.1492 51.3866C80.2846 41.295 79.1123 32.6404 78.6899 22.4888C78.6438 21.4122 77.5107 21.4306 77.5338 22.5188C77.753 33.121 79.133 43.7347 77.6123 54.3207C75.9276 66.0526 73.7399 78.4985 70.1884 89.8307C67.4676 98.5084 63.1569 106.544 60.4569 115.113C56.9215 126.341 59.73 135.966 58.1907 147.227C56.9746 156.117 55.0915 163.82 56.1599 172.767C57.3484 182.72 57.3484 192.551 57.4315 202.624C57.5169 212.773 57.2307 222.327 58.5692 232.4C59.9861 243.05 60.4546 252.994 59.8384 263.76C59.8153 264.151 60.3046 264.303 60.3507 263.853Z" fill="#F2E9DD"/>
<path fill-rule="evenodd" clip-rule="evenodd" d="M55.4444 118.387C61.4282 104.351 67.2182 95.4795 57.0898 82.3267C54.0782 78.4153 52.1006 75.1439 50.1483 70.6595C49.6383 69.4858 49.9013 68.0788 49.0544 66.9491C46.2436 63.1924 40.3059 64.0011 36.4498 65.2579C24.0736 69.2871 22.8667 81.5135 26.1875 92.5754C28.0383 98.744 31.5044 101.17 36.7359 104.878C38.6906 106.262 55.3429 117.724 54.3159 119.53C53.8867 120.288 54.6852 122.115 55.3359 121.007C57.0021 118.179 56.6144 116.714 54.6067 114.422C53.2198 112.842 49.3659 112.241 47.3513 110.846C45.5213 109.575 44.0698 108.029 42.3829 106.625C35.739 101.089 29.1598 99.2407 26.9559 89.4819C24.7867 79.8801 29.4436 65.5074 41.3121 66.4824C47.8844 67.0253 48.4959 73.6444 51.2329 78.0849C53.649 82.0079 57.8236 84.9628 59.919 89.0822C64.9959 99.0605 58.2344 108.681 54.8167 117.855C54.6459 118.32 55.1629 119.045 55.4444 118.387Z" fill="#F2E9DD"/>
<path fill-rule="evenodd" clip-rule="evenodd" d="M56.0329 117.991C56.3029 110.358 55.2691 103.584 49.1675 98.5059C45.5029 95.4562 43.5599 94.2826 41.9329 89.6134C41.1322 87.3146 38.2637 79.7135 39.4799 77.3547C39.6299 77.0636 39.3645 76.3104 39.0691 76.7609C36.5099 80.6793 39.7083 88.8972 41.6099 92.9495C42.7175 95.306 44.2337 96.6622 46.1422 98.2702C48.7545 100.474 51.9322 102.674 53.4414 105.911C55.1399 109.552 55.126 114.126 55.5899 118.095C55.636 118.502 56.0214 118.315 56.0329 117.991Z" fill="#F2E9DD"/>
<path fill-rule="evenodd" clip-rule="evenodd" d="M55.424 134.522C62.7994 129.476 63.8355 119.306 69.8124 113.258C74.7255 108.283 84.5355 104.654 91.4932 106.911C97.6455 108.907 102.988 116.649 99.1363 123.185C94.904 130.373 87.7963 126.475 81.9624 126.168C77.5547 125.937 71.6286 126.725 67.3547 128.03C63.5332 129.192 58.2624 131.634 58.4886 136.245C58.5486 137.451 59.7601 137.419 59.7763 136.213C59.8824 129.183 77.6586 128.053 82.0155 128.367C87.6601 128.771 91.3086 131.329 96.5609 127.979C102.667 124.084 104.336 118.181 100.477 111.733C94.9294 102.459 82.4563 102.829 73.904 107.465C63.5447 113.08 62.4601 125.493 55.1124 133.769C54.8955 134.014 55.0017 134.811 55.424 134.522Z" fill="#F2E9DD"/>
<path fill-rule="evenodd" clip-rule="evenodd" d="M55.8041 175.688C57.4471 175.466 58.3864 174.637 59.8748 173.951C63.3848 172.333 67.361 171.76 71.2264 171.749C76.7764 171.735 80.7225 171.241 85.0933 167.41C88.5433 164.383 90.8371 160.53 92.2794 156.207C92.9348 154.236 93.7656 152.178 94.4371 150.411C95.0487 148.8 95.1664 150.581 95.4548 148.146C95.4964 147.807 95.4318 147.086 94.991 146.987C94.661 146.91 94.331 146.836 93.9987 146.76C93.5256 146.654 93.4195 147.451 93.6595 147.724C92.9833 146.95 91.6287 151.991 91.4879 152.36C89.0302 158.753 87.7379 164.705 80.861 168.2C76.1833 170.58 71.1848 169.404 66.1933 170.291C61.8941 171.056 59.6025 173.283 55.6979 174.768C55.3841 174.891 55.4164 175.741 55.8041 175.688Z" fill="#F2E9DD"/>
<path fill-rule="evenodd" clip-rule="evenodd" d="M56.5679 157.355C64.0079 159.301 66.1333 152.115 72.2579 149.017C76.2571 146.996 81.5094 145.695 85.9148 144.852C88.0748 144.438 91.4094 143.562 93.5002 144.782C97.9217 147.368 95.5264 149.135 96.1287 151.965C97.9102 160.306 95.2148 166.738 88.4971 171.467C83.1502 175.23 79.6102 173.334 73.7556 172.705C67.5064 172.037 62.1687 171.34 56.9648 174.921C56.4756 175.256 56.7548 176.831 57.4333 176.466C67.3956 171.109 77.6994 179.565 87.1471 174.674C94.0841 171.083 98.6856 163.605 98.3556 155.923C98.0094 147.834 97.8479 141.407 88.2202 142.322C83.231 142.795 77.3233 144.706 72.8118 146.674C68.6602 148.486 60.4656 157.265 56.7017 156.489C56.2748 156.401 56.2056 157.26 56.5679 157.355Z" fill="#F2E9DD"/>
<path fill-rule="evenodd" clip-rule="evenodd" d="M56.6539 170.808C55.5277 166.444 66.42 162.919 68.8616 162.325C73.2162 161.269 77.2246 159.809 81.1777 157.679C81.3993 157.559 81.4154 156.967 81.097 156.972C77.9377 156.997 74.7508 159.374 71.7093 160.255C67.8554 161.375 64.4562 161.87 61.0223 164.166C59.0539 165.483 54.96 168.242 56.1785 171.132C56.3654 171.575 56.7393 171.136 56.6539 170.808Z" fill="#F2E9DD"/>
<path fill-rule="evenodd" clip-rule="evenodd" d="M51.6941 166.25C51.4033 157.417 49.4718 144.674 40.9287 139.653C34.871 136.095 26.6603 137.435 20.0003 137.059C14.5057 136.747 8.71796 134.898 4.15104 138.865C-2.12127 144.315 0.59719 153.162 6.39642 157.755C11.9672 162.165 19.5249 162.643 26.0372 164.919C28.548 165.799 31.0195 167.04 33.6641 167.463C37.931 168.147 48.7818 163.655 51.2903 169.496C51.828 170.748 52.7833 169.3 52.4326 168.424C50.0303 162.415 45.8026 164.66 40.5226 165.102C34.4049 165.615 29.4757 163.859 23.8287 162.1C19.4418 160.735 12.9064 160.243 9.4495 157.214C5.16181 155.761 4.90334 152.436 8.6718 147.24C6.92257 140.855 7.99565 138.001 11.9003 138.678C14.1157 138.128 17.9095 139.332 20.0603 139.482C24.671 139.806 29.4826 138.965 34.008 140.15C46.1972 143.338 49.6657 155.13 51.0572 166.4C51.1264 166.964 51.7126 166.742 51.6941 166.25Z" fill="#F2E9DD"/>
<path fill-rule="evenodd" clip-rule="evenodd" d="M52.6962 164.3C49.2301 159.515 45.4847 156.313 40.3731 153.301C37.9455 151.871 35.4901 150.854 32.8593 149.879C30.5562 149.022 26.2685 147.705 24.3324 146.226C23.7139 145.755 23.6355 146.977 23.8201 147.308C24.727 148.92 24.9301 148.405 26.6308 149.112C29.4878 150.3 32.2385 151.616 35.1232 152.776C41.7832 155.452 47.8062 159.384 52.2462 165.026C52.6293 165.513 52.9431 164.64 52.6962 164.3Z" fill="#F2E9DD"/>
<path fill-rule="evenodd" clip-rule="evenodd" d="M66.8997 81.1391C66.7451 73.4203 66.9389 67.8338 63.0043 60.9583C56.8382 50.1828 46.2782 42.7666 48.1635 28.3015C49.7282 16.2693 61.0128 20.1091 64.8666 29.7062C66.6251 34.0797 65.4089 39.8486 67.3243 44.1921C68.0558 45.8463 69.2997 45.9387 70.2389 47.2048C74.4828 52.9391 76.2458 56.2706 75.2605 64.5023C74.5935 70.0633 73.2182 75.1022 68.7412 79.1522C68.1666 79.6721 68.6051 81.4834 69.422 80.8087C77.3258 74.2566 80.7758 57.5135 74.5935 48.7573C72.9574 46.4424 71.0097 45.2456 69.5558 42.7112C66.8328 37.9634 67.3635 32.4347 65.8935 27.2734C64.5389 22.5257 62.0974 19.5892 57.0158 18.2331C45.8766 15.2573 46.0358 23.9396 47.042 32.146C47.9005 39.1555 49.0958 46.8698 53.4389 52.678C56.0997 56.2359 59.5866 58.4469 61.8805 62.4577C65.2935 68.4253 65.372 74.7256 66.1335 81.317C66.2097 82.0009 66.9112 81.7259 66.8997 81.1391Z" fill="#F2E9DD"/>
<path fill-rule="evenodd" clip-rule="evenodd" d="M69.962 83.7386C74.1528 76.6158 78.542 62.7837 86.4851 59.3251C89.4805 58.0175 93.6943 58.5027 96.9481 57.8304C98.9997 57.4076 101.047 56.257 103.128 56.0468C104.57 55.7048 106.05 55.7811 107.561 56.2732C115.361 55.3028 117.648 60.4757 114.429 71.7941C107.365 78.4941 98.3628 72.8245 90.4405 73.5684C83.3512 74.2338 78.1982 78.2515 71.9558 80.5711C71.192 80.8553 71.432 82.759 72.3458 82.454C78.4312 80.4255 84.5305 74.8437 91.5551 75.4953C93.3182 75.6593 97.292 78.3139 99.5882 78.4964C102.794 78.7482 105.528 77.6693 108.551 76.6828C116.753 74.0074 120.722 68.4949 116.598 60.1199C115.047 56.964 112.292 53.0641 108.662 52.1885C104.716 51.2366 95.5151 55.6147 91.4212 56.2963C78.212 58.498 74.9605 72.1707 69.4335 82.9762C69.2397 83.3574 69.6182 84.3254 69.962 83.7386Z" fill="#F2E9DD"/>
<path fill-rule="evenodd" clip-rule="evenodd" d="M77.4319 61.2863C80.1388 58.5509 80.5519 54.5563 81.2973 50.8852C82.9173 42.933 86.7619 38.6657 94.4811 36.7505C97.0634 36.1105 99.5581 35.4983 102.223 36.0227C105.773 36.7227 105.219 36.9053 106.407 40.7982C107.933 45.7724 107.434 44.6126 104.367 47.3965C102.431 49.1524 100.834 51.8925 98.2588 52.8189C97.6473 53.0384 97.7327 54.6903 98.4573 54.5725C101.725 54.0388 103.742 50.504 106.123 48.4246C108.032 46.7635 110.296 45.3842 110.815 42.6973C111.796 37.603 107.441 34.9369 103.317 34.149C97.2065 32.98 89.245 34.856 84.5996 39.449C82.5965 41.4312 81.5188 43.7508 80.785 46.4401C79.3819 51.5829 78.175 56.8551 76.8804 62.0326C76.758 62.527 77.3234 63.1138 77.605 62.4715C77.688 62.2821 77.7711 62.0903 77.8542 61.8986C77.9511 61.6791 77.7504 60.9652 77.4319 61.2863Z" fill="#F2E9DD"/>
<path fill-rule="evenodd" clip-rule="evenodd" d="M77.2749 48.5773C77.3649 48.5773 77.3603 48.374 77.2703 48.374C77.1803 48.374 77.1849 48.5773 77.2749 48.5773Z" fill="#F2E9DD"/>
<path fill-rule="evenodd" clip-rule="evenodd" d="M78.6416 24.5936C79.6247 20.4326 80.1947 13.7188 77.4809 9.97602C74.6517 6.06922 69.0163 4.61601 65.4278 8.11157C61.7309 11.7088 61.417 17.1219 63.6532 21.5924C66.0093 26.3078 69.4432 29.9466 71.2916 35.101C72.9532 39.7379 76.4124 43.8341 77.474 48.5657C77.6955 49.5545 78.5609 48.9284 78.4224 48.1383C77.8547 44.9131 76.897 43.3212 75.5032 40.5604C73.3755 36.3486 72.3255 31.8712 70.0709 27.768C68.894 25.6217 67.1147 23.8312 65.9332 21.7334C63.7686 17.8959 63.607 2.81857 73.2624 9.18357C77.6286 12.0599 78.7409 19.4045 78.3186 24.4665C78.2978 24.7299 78.5632 24.9263 78.6416 24.5936Z" fill="#F2E9DD"/>
<path fill-rule="evenodd" clip-rule="evenodd" d="M77.6923 21.9436C77.8654 17.785 79.3608 15.604 80.8308 12.3811C81.8323 9.68719 83.3762 7.35375 85.4623 5.37609C88.8062 5.10116 92.1523 4.82392 95.4962 4.54899C97.3908 6.15237 99.1377 7.90592 100.737 9.81195C100.255 13.9636 99.7723 18.1176 99.29 22.2693C97.5316 25.1134 91.5731 27.3221 88.5431 28.8053C81.6454 32.1807 77.0185 37.6308 76.19 45.5437C76.0908 46.5002 77.1685 47.2349 77.3693 46.0058C79.8062 31.081 93.9754 32.1784 101.932 22.505C106.167 17.3575 105.013 12.083 100.926 7.17123C96.6385 2.01454 91.7831 -1.76287 85.7623 2.7192C80.3946 6.71609 76.7023 15.4284 76.9331 21.9621C76.9608 22.6783 77.66 22.6459 77.6923 21.9436Z" fill="#F2E9DD"/>
<path fill-rule="evenodd" clip-rule="evenodd" d="M77.603 45.2066C78.2283 42.7115 79.3545 41.1011 79.816 38.5598C80.4668 34.9903 81.9483 31.2776 82.1145 27.6249C82.216 25.407 81.1107 23.0065 82.4007 21.1074C83.2083 19.9199 87.5814 16.4659 88.786 17.5264C89.1691 17.866 89.3791 17.1359 89.3191 16.8703C88.4514 13.1506 81.7568 18.9519 80.9191 20.4605C80.5499 21.1305 80.4045 21.9114 80.3122 22.6715C79.9291 25.7997 80.753 28.9372 80.0699 32.1994C79.1676 36.5267 77.933 40.6067 77.033 44.8601C76.9522 45.2413 77.4668 45.7473 77.603 45.2066Z" fill="#F2E9DD"/>
<path fill-rule="evenodd" clip-rule="evenodd" d="M77.7828 62.6841C78.9251 62.3398 79.2367 61.6467 80.0213 60.8058C80.889 59.877 81.9921 59.2093 82.8621 58.2759C83.8728 57.1878 84.6275 56.0349 85.7675 55.0669C86.8867 54.115 88.2113 53.3988 89.2336 52.3499C89.4574 52.1212 89.4298 51.2063 88.9498 51.405C86.7574 52.3153 84.7313 54.2698 83.2405 56.0788C82.3751 57.1277 81.5305 57.9895 80.5267 58.8928C79.4721 59.84 78.8236 61.2309 77.6444 62.0187C77.4275 62.1643 77.4344 62.7904 77.7828 62.6841Z" fill="#F2E9DD"/>
<path fill-rule="evenodd" clip-rule="evenodd" d="M71.444 72.5099C70.6109 67.6259 71.3955 62.7372 69.8194 57.8415C68.1071 52.5208 62.9932 49.2817 60.9648 44.1528C60.614 43.2656 59.9032 44.1597 60.0371 44.7812C60.974 49.224 64.9455 51.8647 67.2302 55.6028C70.4263 60.8334 69.7248 66.9951 71.0032 72.7109C71.1048 73.1707 71.5063 72.8773 71.444 72.5099Z" fill="#F2E9DD"/>
<path fill-rule="evenodd" clip-rule="evenodd" d="M76.0862 73.9864C76.677 75.6961 79.347 73.9033 80.2147 73.4111C83.4039 71.6021 86.8124 70.5625 90.0754 68.9175C90.3939 68.7581 90.35 68.0789 89.9739 68.0257C88.467 67.8201 87.2993 68.6819 85.917 69.1994C84.4977 69.7308 83.1293 70.2067 81.8208 70.9968C81.2162 71.3619 77.0647 74.4254 76.497 73.4781C76.2408 73.0507 76.0031 73.7462 76.0862 73.9864Z" fill="#F2E9DD"/>
<path fill-rule="evenodd" clip-rule="evenodd" d="M73.9682 32.2477C73.7236 30.8107 73.2898 29.2836 73.3336 27.8257C73.3636 26.9293 73.599 26.1646 73.3175 25.3005C73.2228 25.021 72.9344 25.0695 72.8421 25.3121C71.9628 27.6063 72.8513 30.2562 73.3175 32.5388C73.4559 33.2181 74.0605 32.7861 73.9682 32.2477Z" fill="#F2E9DD"/>
<path fill-rule="evenodd" clip-rule="evenodd" d="M59.7737 131.38C59.7599 131.368 59.8614 131.218 60.0599 130.95C60.2699 130.68 60.5653 130.296 60.9299 129.825C61.7145 128.906 62.8476 127.646 64.2991 126.39C67.1514 123.814 71.2937 121.337 74.7276 120.087C78.2076 118.728 81.5399 118.155 83.9376 118.005C85.1399 117.948 86.1068 117.927 86.776 117.987C87.4453 118.024 87.8099 118.07 87.8077 118.119C87.8422 118.412 81.9599 117.968 75.0276 120.674C71.6468 121.884 67.5137 124.232 64.5968 126.688C63.1129 127.884 61.9314 129.088 61.0937 129.957C60.6922 130.4 60.3691 130.761 60.1429 131.015C59.9145 131.257 59.7852 131.389 59.7737 131.38Z" fill="#F2E9DD"/>
<path fill-rule="evenodd" clip-rule="evenodd" d="M62.5428 127.921C62.5428 127.921 62.2013 127.309 62.1736 126.168C62.1298 125.033 62.619 123.439 63.6667 121.982C65.7505 119.003 69.489 116.55 72.2744 114.709C75.189 112.872 78.1082 111.7 80.3005 111.257C81.3944 111.024 82.2921 110.94 82.9128 110.92C83.5336 110.915 83.8728 110.936 83.8752 110.987C83.8844 111.118 82.5528 111.164 80.4644 111.719C78.3736 112.257 75.5721 113.426 72.6759 115.233C69.9113 117.04 66.1382 119.412 64.0244 122.203C62.9559 123.578 62.4159 125.068 62.3859 126.163C62.3351 127.261 62.5982 127.91 62.5428 127.921Z" fill="#F2E9DD"/>
<path fill-rule="evenodd" clip-rule="evenodd" d="M63.4401 125.579C63.4585 125.629 62.7039 125.955 61.5501 126.417L60.4932 126.84L61.4301 126.172C63.2209 124.899 66.1355 122.912 68.2516 121.512C71.6209 119.283 74.4016 117.689 74.5101 117.857C74.6255 118.031 72.0432 119.814 68.6416 122.041C66.5139 123.435 63.4955 125.301 61.5962 126.429L61.4486 126.128C62.637 125.763 63.4262 125.539 63.4401 125.579Z" fill="#F2E9DD"/>
<path fill-rule="evenodd" clip-rule="evenodd" d="M64.9732 122.536C64.9571 122.504 65.2871 122.277 65.8478 121.928C66.4109 121.584 67.2094 121.122 68.1348 120.637C69.9809 119.655 72.3509 118.59 74.2132 117.899C78.014 116.453 81.2078 115.921 81.2471 116.104C81.2978 116.321 78.2655 117.086 74.474 118.502C72.6278 119.174 70.2371 120.14 68.3355 121.006C67.3986 121.441 66.5655 121.827 65.9517 122.111C65.3563 122.4 64.9894 122.561 64.9732 122.536Z" fill="#F2E9DD"/>
<path fill-rule="evenodd" clip-rule="evenodd" d="M77.6465 72.6627C77.6465 72.6627 77.4803 72.6718 77.2565 72.4962C77.0049 72.3368 76.8572 71.8632 77.0003 71.3595C77.1388 70.8605 77.4526 70.3176 77.9257 69.8162C78.4057 69.2941 79.1003 68.9637 79.758 68.5479C82.4488 66.9168 85.8895 65.0431 88.7165 63.9872C91.5919 62.8898 94.3657 62.4185 96.3595 62.4254C98.358 62.4231 99.5488 62.7535 99.535 62.8228C99.5165 62.9545 98.3419 62.7997 96.4219 62.9106C94.5019 63.0169 91.8457 63.5113 89.0003 64.5856C86.2218 65.6022 82.7511 67.3742 79.9888 68.899C79.2988 69.2987 78.6134 69.5852 78.1611 70.0311C77.6926 70.4724 77.3626 70.9668 77.2057 71.4127C76.8365 72.4131 77.7319 72.6533 77.6465 72.6627Z" fill="#F2E9DD"/>
<path fill-rule="evenodd" clip-rule="evenodd" d="M77.2522 76.0982C77.2268 76.0705 77.5984 75.7008 78.2307 75.1048C78.8814 74.5272 79.8091 73.7393 80.9376 72.9469C83.1737 71.3297 86.2245 69.724 88.7007 68.8391C91.2114 67.8988 93.5837 67.409 95.2984 67.2057C97.0199 67.0024 98.0814 67.0486 98.0885 67.1318C98.1207 67.3859 93.9599 67.58 88.973 69.4398C86.5384 70.2923 83.4876 71.7825 81.1937 73.2819C80.0353 74.0143 79.0684 74.742 78.3714 75.2619C77.693 75.8025 77.2707 76.1213 77.2522 76.0982Z" fill="#F2E9DD"/>
<path fill-rule="evenodd" clip-rule="evenodd" d="M80.3371 70.1307C80.1478 70.0798 80.8955 67.9751 81.874 66.9539C82.7947 65.8634 83.8817 65.4337 83.9694 65.6024C84.0871 65.7872 83.2378 66.3833 82.3678 67.3836C81.4563 68.2985 80.4086 70.1422 80.3371 70.1307Z" fill="#F2E9DD"/>
<path fill-rule="evenodd" clip-rule="evenodd" d="M79.1193 60.9123C79.087 60.8938 79.3108 60.3948 79.7078 59.5769C80.1278 58.7706 80.737 57.657 81.5401 56.4579C83.107 54.0367 85.4585 51.3082 87.517 49.4922C89.5893 47.6047 91.687 46.2 93.2678 45.3244C94.8485 44.4464 95.8916 44.0606 95.9262 44.1369C96.0531 44.3587 92.1162 46.2069 87.9947 49.9474C85.9593 51.7217 83.5639 54.3417 81.8977 56.6751C81.0485 57.8303 80.377 58.9046 79.8947 59.6739C79.4354 60.4548 79.1447 60.9261 79.1193 60.9123Z" fill="#F2E9DD"/>
<path fill-rule="evenodd" clip-rule="evenodd" d="M79.9727 58.537C79.9404 58.5278 80.0235 58.1489 80.1873 57.5251C80.365 56.9083 80.6396 56.0488 81.0296 55.1062C81.7865 53.2048 83.0281 50.9776 84.1842 49.4135C86.5058 46.1559 89.1619 44.3377 89.2565 44.4832C89.4135 44.6634 87.0366 46.5926 84.7381 49.7716C83.5958 51.2941 82.2896 53.4289 81.4219 55.2587C80.5289 57.0769 80.0442 58.5601 79.9727 58.537Z" fill="#F2E9DD"/>
<path fill-rule="evenodd" clip-rule="evenodd" d="M84.3162 59.8054C84.2816 59.7915 84.367 59.4588 84.5285 58.9136C84.7108 58.373 84.9901 57.6244 85.4008 56.8158C86.1878 55.1847 87.5124 53.3341 88.7401 52.1166C91.2162 49.5428 93.9439 48.554 93.9901 48.718C94.1055 48.9306 91.6455 50.0858 89.2293 52.5578C88.0293 53.7246 86.6654 55.4573 85.777 57.0029C84.8562 58.5301 84.3878 59.8308 84.3162 59.8054Z" fill="#F2E9DD"/>
<path fill-rule="evenodd" clip-rule="evenodd" d="M80.2776 36.8268C80.2406 36.8244 80.2545 36.3207 80.3076 35.4798C80.3953 34.648 80.5568 33.479 80.926 32.1945C81.6022 29.6046 83.1437 26.6057 84.7591 24.6327C86.3606 22.5742 88.1976 21.0863 89.6214 20.2061C91.0499 19.3235 92.0306 18.9931 92.063 19.0601C92.213 19.2866 88.463 20.9454 85.3037 25.0023C83.7206 26.9061 82.126 29.7801 81.3345 32.2938C80.4714 34.7913 80.3699 36.8406 80.2776 36.8268Z" fill="#F2E9DD"/>
<path fill-rule="evenodd" clip-rule="evenodd" d="M83.1872 34.8583C83.0095 34.7867 84.9341 30.5634 86.6418 28.223C88.3057 25.7879 90.0503 24.21 90.1865 24.3416C90.348 24.4918 88.8549 26.183 87.1934 28.5788C86.3742 29.7363 85.3472 31.2865 84.5718 32.5803C83.7895 33.8672 83.2426 34.8861 83.1872 34.8583Z" fill="#F2E9DD"/>
<path fill-rule="evenodd" clip-rule="evenodd" d="M66.3342 74.1507C66.2857 74.1507 66.2719 73.3051 66.145 71.912C66.0226 70.5188 65.7896 68.5804 65.328 66.4226C64.458 62.0837 62.3857 56.9802 60.1703 53.4384C57.9065 49.8366 55.765 46.5005 55.1857 43.6865C54.8719 42.3049 54.858 41.1428 54.978 40.3665C55.0911 39.5902 55.2411 39.1813 55.2803 39.1926C55.4419 39.2044 54.9319 40.8794 55.645 43.5063C56.2819 46.1562 58.3888 49.3607 60.6873 53.0295C62.9442 56.629 64.9703 61.8781 65.7296 66.3001C66.1403 68.5042 66.3042 70.4749 66.355 71.8865C66.4103 73.2982 66.3342 74.1507 66.3342 74.1507Z" fill="#F2E9DD"/>
<path fill-rule="evenodd" clip-rule="evenodd" d="M59.8381 41.9213C59.9189 41.8936 60.3896 43.2913 61.2181 45.0241C62.0212 46.7661 63.205 48.8223 64.2412 50.3079C66.3112 53.376 68.3719 55.4923 68.2173 55.6517C68.0973 55.7903 65.8381 53.8681 63.7173 50.7029C62.6627 49.1827 61.5389 47.0272 60.8396 45.2043C60.4796 44.2987 60.2212 43.4762 60.0481 42.887C59.8912 42.291 59.8081 41.9282 59.8381 41.9213Z" fill="#F2E9DD"/>
<path fill-rule="evenodd" clip-rule="evenodd" d="M57.0921 108.618C57.039 108.609 57.1544 108.022 57.1705 107.047C57.189 106.075 57.039 104.716 56.5913 103.244C55.7374 100.269 53.5705 97.0827 51.7498 94.7839C49.9082 92.4181 48.2744 90.2325 47.3467 88.4951C46.3959 86.7693 46.0798 85.591 46.1605 85.5633C46.2713 85.5194 46.7282 86.5914 47.7436 88.2087C48.7405 89.8375 50.379 91.9399 52.2367 94.3403C54.0598 96.6483 56.229 99.9983 56.9905 103.106C57.3898 104.64 57.4728 106.056 57.3828 107.05C57.2928 108.048 57.0921 108.618 57.0921 108.618Z" fill="#F2E9DD"/>
<path fill-rule="evenodd" clip-rule="evenodd" d="M57.9531 102.956C57.8538 102.956 57.9139 101.292 57.4777 99.1875C57.09 97.0781 56.1669 94.5783 55.1631 92.8248C53.2062 89.1675 50.6239 87.0189 50.7877 86.841C50.8639 86.6908 53.6792 88.6592 55.7215 92.4759C56.7554 94.2896 57.6208 96.9187 57.8885 99.0997C58.0454 100.188 58.0615 101.158 58.0546 101.849C58.0177 102.54 57.9808 102.956 57.9531 102.956Z" fill="#F2E9DD"/>
<path fill-rule="evenodd" clip-rule="evenodd" d="M60.4707 97.5959C60.3507 97.6767 58.5253 95.2855 57.4522 93.7561C56.3538 92.1943 55.6568 90.8427 55.8207 90.7295C55.9938 90.614 56.8984 91.79 57.983 93.3725C59.0422 94.9135 60.5699 97.5289 60.4707 97.5959Z" fill="#F2E9DD"/>
<path fill-rule="evenodd" clip-rule="evenodd" d="M53.3997 114.219C53.342 114.214 53.4366 113.613 53.3512 112.634C53.2681 111.654 52.8874 110.319 52.1397 108.965C50.6558 106.199 47.6743 103.688 45.3597 101.819C43.0105 99.8853 41.0512 97.8638 40.0797 96.0917C39.0851 94.3312 38.9743 93.0629 39.0458 93.0559C39.1728 93.0213 39.4358 94.188 40.4743 95.796C41.4851 97.4271 43.3889 99.3331 45.7381 101.278C48.0251 103.138 51.0735 105.816 52.4997 108.743C53.222 110.183 53.5497 111.596 53.5589 112.611C53.5751 113.63 53.3997 114.219 53.3997 114.219Z" fill="#F2E9DD"/>
<path fill-rule="evenodd" clip-rule="evenodd" d="M49.7124 157.556C49.6824 157.584 49.2185 157.145 48.4524 156.424C47.6793 155.708 46.5878 154.728 45.2908 153.684C42.7062 151.584 39.2285 149.371 36.4108 147.973C33.5539 146.557 30.8401 145.39 28.8993 144.907C27.9116 144.718 27.0831 144.826 26.6262 145.117C26.1555 145.397 26.0193 145.72 25.9616 145.683C25.9293 145.679 25.9685 145.307 26.4531 144.898C26.9308 144.482 27.8655 144.276 28.9247 144.417C31.0478 144.805 33.7062 145.903 36.6531 147.358C39.5101 148.781 43.0016 151.115 45.5355 153.342C46.8093 154.449 47.8639 155.493 48.5955 156.267C49.3178 157.048 49.7124 157.556 49.7124 157.556Z" fill="#F2E9DD"/>
<path fill-rule="evenodd" clip-rule="evenodd" d="M48.5907 162.881C48.5767 162.916 48.1151 162.766 47.3513 162.493C46.6036 162.181 45.5767 161.699 44.4828 161.024C42.2744 159.705 39.8005 157.72 37.8228 156.362C35.8174 154.95 33.9113 153.88 32.4344 153.342C30.9621 152.795 29.9928 152.651 30.009 152.52C30.0113 152.45 31.0036 152.418 32.5544 152.868C34.1074 153.305 36.1198 154.347 38.1598 155.796C40.1674 157.184 42.5744 159.245 44.6905 160.659C45.7359 161.382 46.719 161.92 47.4321 162.299C48.159 162.637 48.5998 162.854 48.5907 162.881Z" fill="#F2E9DD"/>
<path fill-rule="evenodd" clip-rule="evenodd" d="M57.7431 166.552C57.7154 166.529 57.99 166.18 58.4677 165.617C58.9639 165.072 59.6816 164.328 60.5839 163.581C62.3608 162.05 64.8854 160.543 66.9716 159.739C71.2293 157.974 74.9677 158.191 74.9377 158.351C74.9631 158.603 71.4208 158.64 67.2531 160.333C65.2154 161.105 62.6977 162.486 60.8631 163.896C58.9939 165.27 57.8008 166.61 57.7431 166.552Z" fill="#F2E9DD"/>
<path fill-rule="evenodd" clip-rule="evenodd" d="M57.371 162.831C57.3433 162.808 57.6294 162.45 58.1233 161.87C58.6333 161.308 59.3718 160.541 60.2902 159.76C62.1064 158.166 64.6679 156.561 66.7841 155.66C68.9325 154.701 70.991 154.181 72.4841 153.957C73.9841 153.733 74.9164 153.761 74.9233 153.846C74.9625 154.096 71.3279 154.359 67.0887 156.244C65.0141 157.111 62.4525 158.596 60.5741 160.072C59.6187 160.796 58.8387 161.505 58.2756 162.013C57.7333 162.542 57.3918 162.852 57.371 162.831Z" fill="#F2E9DD"/>
<path fill-rule="evenodd" clip-rule="evenodd" d="M62.9441 157.143C62.891 157.006 65.658 155.775 67.4049 155.08C69.1864 154.368 70.6726 153.998 70.7418 154.185C70.818 154.38 69.4564 154.989 67.6541 155.687C65.9003 156.364 62.9857 157.251 62.9441 157.143Z" fill="#F2E9DD"/>
<path fill-rule="evenodd" clip-rule="evenodd" d="M55.9915 168.459C55.943 168.32 62.5084 165.809 66.6161 164.316C70.8092 162.791 74.1992 161.779 74.2661 161.967C74.3353 162.165 71.1023 163.406 66.8746 164.922C62.7576 166.396 56.0307 168.57 55.9915 168.459Z" fill="#F2E9DD"/>
<path fill-rule="evenodd" clip-rule="evenodd" d="M73.1301 151.836C73.107 151.693 75.2739 151.12 76.6355 150.836C78.027 150.547 79.1647 150.519 79.1993 150.715C79.2385 150.921 78.1701 151.208 76.767 151.478C75.4008 151.744 73.1531 151.954 73.1301 151.836Z" fill="#F2E9DD"/>
<path fill-rule="evenodd" clip-rule="evenodd" d="M0.939317 149.65C0.870086 149.484 5.09316 147.862 7.85547 147.298C10.657 146.656 12.9485 146.617 12.9647 146.804C12.9878 147.023 10.8047 147.319 8.02163 147.936C6.66239 148.225 4.89239 148.636 3.46855 149.015C2.04239 149.384 0.960086 149.71 0.939317 149.65Z" fill="#F2E9DD"/>
<path fill-rule="evenodd" clip-rule="evenodd" d="M0.0781662 144.914C0.0643615 144.768 3.52128 144.281 5.67898 144.052C7.88052 143.819 9.64359 143.84 9.66205 144.038C9.67821 144.246 7.97744 144.491 5.75975 144.704C3.59975 144.914 0.0897461 145.03 0.0781662 144.914Z" fill="#F2E9DD"/>
<path fill-rule="evenodd" clip-rule="evenodd" d="M5.23831 142.717C5.22911 142.571 7.46065 142.245 8.85449 142.118C10.2783 141.987 11.4183 142.088 11.4322 142.287C11.446 142.497 10.3453 142.661 8.91218 142.772C7.51834 142.881 5.24526 142.835 5.23831 142.717Z" fill="#F2E9DD"/>
<path fill-rule="evenodd" clip-rule="evenodd" d="M38.6185 66.0341C38.7501 65.907 40.5132 67.9193 41.2124 69.4464C41.9878 70.9643 42.147 72.3321 41.9601 72.3736C41.7501 72.4314 41.3555 71.2162 40.6262 69.7445C40.2824 69.0236 39.8001 68.0949 39.3662 67.3602C38.9393 66.6209 38.5701 66.0733 38.6185 66.0341Z" fill="#F2E9DD"/>
<path fill-rule="evenodd" clip-rule="evenodd" d="M42.1244 66.0691C42.2675 66.0437 42.8398 68.2131 43.1259 69.5762C43.4144 70.9693 43.4398 72.1083 43.2436 72.1453C43.0383 72.1822 42.7521 71.1125 42.4821 69.7079C42.2167 68.3424 42.009 66.0899 42.1244 66.0691Z" fill="#F2E9DD"/>
<path fill-rule="evenodd" clip-rule="evenodd" d="M36.8748 67.7275C36.9832 67.7275 37.4402 70.4399 38.0332 72.0271C38.564 73.6651 39.0532 74.952 38.8686 75.049C38.6955 75.1438 37.9525 73.9562 37.4102 72.2373C36.8125 70.5693 36.7179 67.7229 36.8748 67.7275Z" fill="#F2E9DD"/>
<path fill-rule="evenodd" clip-rule="evenodd" d="M52.474 22.3433C52.5617 22.3456 52.5594 23.8173 52.8386 25.7094C53.0879 27.6039 53.6509 29.9004 54.2648 31.5962C55.4509 35.0871 57.0063 37.5938 56.8148 37.7163C56.674 37.8272 54.874 35.4545 53.6533 31.8411C53.0325 30.1014 52.5502 27.7148 52.4232 25.7695C52.3471 24.7992 52.354 23.9397 52.3725 23.3252C52.4094 22.7129 52.4463 22.3433 52.474 22.3433Z" fill="#F2E9DD"/>
<path fill-rule="evenodd" clip-rule="evenodd" d="M54.8369 22.4033C54.9223 22.438 54.5923 23.2535 54.5346 24.3694C54.4377 25.4761 54.6408 26.8461 55.0054 27.8142C55.6746 29.8403 56.9485 31.044 56.7961 31.208C56.7085 31.3744 55.1277 30.2816 54.3892 28.0429C53.9992 26.9871 53.8838 25.4807 54.1169 24.3255C54.2161 23.7433 54.3938 23.2535 54.5369 22.9162C54.7008 22.5835 54.8092 22.3918 54.8369 22.4033Z" fill="#F2E9DD"/>
<path fill-rule="evenodd" clip-rule="evenodd" d="M56.6905 23.6234C56.7944 23.6604 56.6328 25.4116 56.8267 26.4628C56.9513 27.5372 57.099 28.3989 56.9051 28.4728C56.7205 28.5468 56.2936 27.7174 56.1736 26.5345C55.9867 25.3654 56.5451 23.5657 56.6905 23.6234Z" fill="#F2E9DD"/>
<path fill-rule="evenodd" clip-rule="evenodd" d="M68.1228 9.68281C68.2058 9.7036 68.0535 10.466 68.1228 11.4525C68.1643 12.439 68.4435 13.6266 68.8105 14.4698C69.5028 16.2234 70.562 17.3324 70.4143 17.4941C70.3081 17.6512 68.9628 16.6624 68.2081 14.7286C67.8158 13.8114 67.6128 12.4968 67.7028 11.4572C67.7651 10.4106 68.0789 9.66895 68.1228 9.68281Z" fill="#F2E9DD"/>
<path fill-rule="evenodd" clip-rule="evenodd" d="M69.1248 11.5862C69.2678 11.5608 69.7963 13.4853 70.0524 14.6982C70.3132 15.9343 70.3178 16.9508 70.1217 16.9878C69.9163 17.0247 69.6532 16.0752 69.4086 14.8276C69.1732 13.6124 69.0094 11.607 69.1248 11.5862Z" fill="#F2E9DD"/>
<path fill-rule="evenodd" clip-rule="evenodd" d="M98.9002 10.3851C98.9186 10.4683 98.074 10.6693 97.0656 11.1475C96.0456 11.6026 94.8917 12.3512 94.1071 13.042C92.4663 14.4051 91.534 15.8583 91.3425 15.7474C91.1717 15.6758 91.9032 14.0077 93.6756 12.5476C94.5109 11.8221 95.7963 11.1128 96.9017 10.7594C98.0048 10.3828 98.8956 10.3389 98.9002 10.3851Z" fill="#F2E9DD"/>
<path fill-rule="evenodd" clip-rule="evenodd" d="M98.6418 8.94323C98.6487 9.02409 97.871 9.13961 96.9041 9.44457C95.9326 9.73336 94.7902 10.2301 93.971 10.7037C92.2749 11.6371 91.1049 12.6652 90.9502 12.515C90.8049 12.3926 91.8225 11.1219 93.6433 10.1354C94.5133 9.64095 95.7618 9.20892 96.7979 9.03795C97.8364 8.8485 98.6395 8.89471 98.6418 8.94323Z" fill="#F2E9DD"/>
<path fill-rule="evenodd" clip-rule="evenodd" d="M94.777 6.87528C94.7723 6.9908 93.3093 7.33273 92.5085 7.7717C91.6754 8.15984 91.0016 8.48791 90.87 8.32849C90.7408 8.17601 91.2993 7.58918 92.2431 7.17101C93.1547 6.70432 94.7885 6.72511 94.777 6.87528Z" fill="#F2E9DD"/>
<path fill-rule="evenodd" clip-rule="evenodd" d="M106.777 38.2362C106.821 38.3748 104.968 39.1557 103.793 39.5693C102.593 39.9944 101.58 40.133 101.518 39.9435C101.455 39.7448 102.367 39.3567 103.581 38.9478C104.76 38.5527 106.74 38.123 106.777 38.2362Z" fill="#F2E9DD"/>
<path fill-rule="evenodd" clip-rule="evenodd" d="M105.627 39.724C105.69 39.8557 103.897 40.8653 102.752 41.4267C101.584 41.9974 100.571 42.2608 100.488 42.0806C100.403 41.8911 101.284 41.3898 102.468 40.833C103.622 40.2901 105.581 39.6154 105.627 39.724Z" fill="#F2E9DD"/>
<path fill-rule="evenodd" clip-rule="evenodd" d="M107.218 67.6443C107.213 67.5842 108.231 67.4525 109.565 67.6235C110.896 67.7667 112.512 68.2473 113.656 68.8226C116.049 69.957 117.339 71.6966 117.192 71.7983C117.03 71.967 115.657 70.523 113.384 69.421C112.297 68.8619 110.783 68.3074 109.505 68.0394C108.231 67.746 107.218 67.7159 107.218 67.6443Z" fill="#F2E9DD"/>
<path fill-rule="evenodd" clip-rule="evenodd" d="M110.181 65.1495C110.188 64.9693 112.574 65.131 113.975 65.6832C115.419 66.1799 116.351 66.9908 116.245 67.1479C116.132 67.3351 115.133 66.7967 113.758 66.3023C112.447 65.7594 110.183 65.235 110.181 65.1495Z" fill="#F2E9DD"/>
<path fill-rule="evenodd" clip-rule="evenodd" d="M112.59 63.0006C112.705 62.9082 113.864 64.1234 114.524 64.9251C115.197 65.743 115.567 66.5169 115.41 66.6371C115.244 66.7641 114.671 66.1681 114.009 65.334C113.365 64.5208 112.497 63.0699 112.59 63.0006Z" fill="#F2E9DD"/>
<path fill-rule="evenodd" clip-rule="evenodd" d="M106.359 70.3729C106.468 70.2759 107.555 71.2509 108.176 71.907C108.808 72.5747 109.156 73.2401 109.006 73.3718C108.852 73.5081 108.314 73.0321 107.689 72.346C107.082 71.6783 106.269 70.4515 106.359 70.3729Z" fill="#F2E9DD"/>
<path fill-rule="evenodd" clip-rule="evenodd" d="M93.207 116.929C93.2047 116.869 94.0932 116.769 95.2401 116.996C96.3917 117.194 97.7578 117.751 98.6832 118.38C100.64 119.632 101.432 121.385 101.266 121.45C101.074 121.584 100.153 120.124 98.3324 118.936C97.4717 118.336 96.2301 117.724 95.1501 117.405C94.0817 117.06 93.2047 117 93.207 116.929Z" fill="#F2E9DD"/>
<path fill-rule="evenodd" clip-rule="evenodd" d="M95.6376 114.928C95.7276 114.815 97.3499 115.898 98.3099 116.631C99.2883 117.377 99.9391 118.13 99.8122 118.285C99.6807 118.449 98.8822 117.918 97.9083 117.151C96.9599 116.402 95.5637 115.021 95.6376 114.928Z" fill="#F2E9DD"/>
<path fill-rule="evenodd" clip-rule="evenodd" d="M95.7223 114.868C95.5908 114.928 95.0093 114.066 94.7139 113.498C94.4139 112.92 94.3654 112.377 94.5454 112.294C94.737 112.209 95.0254 112.632 95.3093 113.223C95.5862 113.798 95.8285 114.819 95.7223 114.868Z" fill="#F2E9DD"/>
<path fill-rule="evenodd" clip-rule="evenodd" d="M81.2146 169.122C81.2631 169.05 81.9623 169.471 82.9546 169.785C83.94 170.125 85.2092 170.335 86.1808 170.337C88.1677 170.404 89.7092 169.924 89.7854 170.129C89.8731 170.293 88.3362 171.076 86.1762 170.996C85.1354 170.984 83.79 170.658 82.8069 170.178C81.81 169.723 81.1892 169.156 81.2146 169.122Z" fill="#F2E9DD"/>
<path fill-rule="evenodd" clip-rule="evenodd" d="M87.0923 164.677C87.1708 164.635 87.4431 165.12 88.0223 165.472C88.5739 165.848 89.3839 166.056 89.9954 166.04C91.2669 166.088 92.0954 165.43 92.2477 165.578C92.4346 165.675 91.5693 166.758 89.9885 166.696C89.2546 166.708 88.3131 166.345 87.7639 165.804C87.1846 165.282 87.0531 164.684 87.0923 164.677Z" fill="#F2E9DD"/>
<path fill-rule="evenodd" clip-rule="evenodd" d="M91.412 160.329C91.4882 160.29 92.9028 161.251 93.9366 161.327C94.9451 161.521 95.7805 161.454 95.8358 161.657C95.9028 161.842 94.9982 162.212 93.812 161.971C93.2397 161.874 92.5428 161.537 92.0812 161.147C91.6082 160.765 91.3751 160.363 91.412 160.329Z" fill="#F2E9DD"/>
<path fill-rule="evenodd" clip-rule="evenodd" d="M35.2494 70.0794C35.2056 70.0956 35.1456 69.7652 34.7648 69.4672C34.4417 69.1691 33.604 68.9774 33.1333 69.3286C33.004 69.3678 33.2879 69.853 33.3987 70.2458C33.5533 70.6501 33.7079 71.0613 33.8648 71.4679C34.1971 72.2812 34.5225 73.0782 34.8063 73.769C36.004 76.5807 37.0379 78.7825 36.8556 78.8818C36.6825 78.9812 35.4179 76.925 34.2133 74.0486C33.9179 73.3486 33.6063 72.5284 33.3248 71.6897L32.9233 70.426L32.741 69.8091L32.6325 69.4302C32.6187 69.354 32.5794 69.2685 32.591 69.2015L32.7871 69.0582C33.7494 68.4737 34.5248 68.9566 34.9033 69.3101C35.291 69.7167 35.2656 70.0887 35.2494 70.0794Z" fill="#F2E9DD"/>
<path fill-rule="evenodd" clip-rule="evenodd" d="M56.6162 112.371C55.8593 112.622 55.6123 102.799 51.1493 98.6009C49.3839 96.2258 47.8447 94.068 46.767 92.4877C45.687 90.9097 45.0708 89.9094 45.1493 89.8493C45.2347 89.7869 45.9731 90.6695 47.1339 92.1643C48.2831 93.6937 49.8593 95.7938 51.6431 98.1665C52.4993 99.3333 53.5008 100.706 54.2739 102.254C55.077 103.795 55.4647 105.539 55.6839 107.054C56.03 110.12 56.6162 112.371 56.6162 112.371Z" fill="#F2E9DD"/>
<path fill-rule="evenodd" clip-rule="evenodd" d="M62.0624 129.694C62.0509 129.68 62.1524 129.569 62.3509 129.375C62.547 129.178 62.8401 128.903 63.2255 128.58C63.9916 127.931 65.1132 127.076 66.4839 126.253C69.1978 124.56 72.9847 123.201 76.0009 122.753C79.077 122.296 81.8186 122.266 83.7501 121.915C85.6909 121.61 86.8193 121.15 86.8655 121.258C86.907 121.337 85.8363 121.954 83.8886 122.386C81.9501 122.862 79.1809 122.959 76.1601 123.393C73.2155 123.814 69.4701 125.04 66.717 126.602C65.3301 127.36 64.1716 128.148 63.3639 128.742C62.5516 129.331 62.0878 129.724 62.0624 129.694Z" fill="#F2E9DD"/>
<path fill-rule="evenodd" clip-rule="evenodd" d="M48.8649 164.566C48.8579 164.603 48.4771 164.547 47.8518 164.432C47.2287 164.309 46.361 164.118 45.3894 163.861C43.4394 163.36 41.0648 162.586 39.2879 161.877C35.6395 160.456 33.0087 158.785 33.101 158.624C33.2048 158.427 35.8771 159.816 39.4979 161.253C41.2541 161.964 43.5802 162.828 45.491 163.455C46.4371 163.757 47.2771 164.028 47.8979 164.226C48.5071 164.413 48.8718 164.538 48.8649 164.566Z" fill="#F2E9DD"/>
<path fill-rule="evenodd" clip-rule="evenodd" d="M55.4332 173.756C55.4078 173.728 55.6917 173.407 56.1786 172.89C56.6747 172.381 57.3786 171.684 58.2163 170.931C59.8824 169.415 62.084 167.694 63.8632 166.506C67.484 164.041 70.724 162.747 70.7978 162.914C70.8994 163.119 67.8717 164.603 64.2624 167.031C62.4948 168.195 60.2471 169.824 58.5047 171.238C57.6463 171.947 56.8847 172.578 56.3286 173.04C55.7886 173.504 55.454 173.777 55.4332 173.756Z" fill="#F2E9DD"/>
<path fill-rule="evenodd" clip-rule="evenodd" d="M68.5865 76.6225C68.5519 76.6179 68.5796 76.0703 68.6535 75.1739C68.7042 74.2729 68.785 73.0184 68.785 71.5929C68.8219 68.7442 68.5219 65.2302 68.035 62.5825C67.1258 57.1486 65.4942 53.0639 65.7158 52.9784C65.7988 52.9438 66.295 53.9072 66.9042 55.5822C67.5088 57.2572 68.2081 59.6507 68.6719 62.4208C69.1635 65.1101 69.3735 68.698 69.205 71.579C69.1404 73.023 68.9881 74.2868 68.8635 75.1878C68.7181 76.0865 68.6165 76.6271 68.5865 76.6225Z" fill="#F2E9DD"/>
<path fill-rule="evenodd" clip-rule="evenodd" d="M73.4908 66.3274C73.4008 66.3066 74.0654 64.9527 73.7077 63.1322C73.4146 61.3209 72.2908 59.3016 71.3815 57.8091C69.4938 54.7318 68.1692 52.1835 68.34 52.0795C68.5177 51.9755 70.0408 54.3298 71.9262 57.4441C72.84 58.9597 73.9315 61.1129 74.1231 63.0582C74.2292 64.0193 74.1 64.8834 73.9062 65.4564C73.7215 66.0363 73.4908 66.3274 73.4908 66.3274Z" fill="#F2E9DD"/>
<path fill-rule="evenodd" clip-rule="evenodd" d="M78.5442 68.5941C78.5189 68.5663 78.8765 68.199 79.4858 67.6075C80.1158 67.0346 81.0112 66.2537 82.1027 65.4589C84.265 63.8417 87.2142 62.2152 89.6142 61.2957C92.0512 60.3184 94.3542 59.7801 96.025 59.5375C97.7004 59.2949 98.7412 59.3088 98.7504 59.3943C98.7896 59.6438 94.7327 59.9626 89.8981 61.8894C87.5373 62.7789 84.5812 64.2899 82.3612 65.7916C81.2419 66.524 80.305 67.2471 79.6312 67.7647C78.9735 68.3007 78.5627 68.6149 78.5442 68.5941Z" fill="#F2E9DD"/>
<path fill-rule="evenodd" clip-rule="evenodd" d="M77.0443 64.1372C77.012 64.1164 77.3258 63.6359 77.8681 62.8457C78.4635 62.0972 79.3473 61.0806 80.522 60.1126C82.8273 58.1095 86.1181 56.2751 88.5458 54.7965C91.045 53.3086 93.1843 51.8439 94.5758 50.5986C95.972 49.3649 96.685 48.45 96.7912 48.5309C96.8512 48.5655 96.2812 49.5821 94.9404 50.9244C93.6089 52.2782 91.4673 53.8354 88.9312 55.3302C86.4781 56.8181 83.1597 58.5485 80.8081 60.4199C79.6058 61.3232 78.685 62.2774 78.0343 62.9728C77.7389 63.3355 77.4989 63.629 77.3258 63.8369C77.155 64.0402 77.0558 64.1465 77.0443 64.1372Z" fill="#F2E9DD"/>
<path fill-rule="evenodd" clip-rule="evenodd" d="M77.4556 66.6626C77.4417 66.6511 77.5271 66.4963 77.6979 66.2236C77.8802 65.9441 78.134 65.5559 78.4502 65.0731C79.1079 64.1074 80.0356 62.7627 81.2171 61.3303C82.394 59.8979 83.8432 58.3754 85.514 57.1417C87.1617 55.8641 89.0979 55.0577 90.7686 54.5703C94.2533 53.5676 97.0571 52.1998 98.9102 50.8183C100.77 49.4829 101.749 48.4455 101.834 48.5264C101.899 48.5795 101.059 49.7255 99.2471 51.1764C97.4817 52.655 94.5025 54.2029 91.0732 55.1594C89.384 55.6584 87.5263 56.3723 85.8994 57.5829C84.2471 58.7404 82.7771 60.1959 81.5586 61.5775C80.3332 62.9568 79.3456 64.2622 78.6279 65.1886C78.2725 65.6484 77.9863 66.018 77.7832 66.2791C77.5825 66.5355 77.4671 66.6695 77.4556 66.6626Z" fill="#F2E9DD"/>
<path fill-rule="evenodd" clip-rule="evenodd" d="M76.3519 62.4556C76.1811 62.3863 78.2073 57.5554 79.9358 54.783C81.625 51.9158 83.3881 49.9335 83.5334 50.0514C83.7088 50.1854 82.2111 52.2601 80.5127 55.0972C79.6727 56.4741 78.6158 58.297 77.8081 59.8033C76.9888 61.3051 76.4096 62.481 76.3519 62.4556Z" fill="#F2E9DD"/>
<path fill-rule="evenodd" clip-rule="evenodd" d="M82.6178 44.2774C82.5832 44.2682 82.6455 43.9609 82.7794 43.4503C82.9455 42.9536 83.2178 42.2605 83.6747 41.5559C84.5424 40.1119 86.1578 38.6841 87.6163 37.9979C90.6255 36.4223 93.4086 37.2286 93.3001 37.3811C93.2978 37.6329 90.7547 37.1246 87.9324 38.5732C86.5594 39.2039 84.9694 40.4677 84.0278 41.78C83.0286 43.0668 82.7009 44.3075 82.6178 44.2774Z" fill="#F2E9DD"/>
<path fill-rule="evenodd" clip-rule="evenodd" d="M81.6247 35.2096C81.6247 35.2096 81.5001 34.729 81.5532 33.9135C81.6017 33.1003 81.8878 31.9728 82.4809 30.8176C83.644 28.468 86.1017 26.2755 88.0494 24.8708C90.0363 23.3991 91.804 22.1192 92.9393 21.0333C94.0909 19.9636 94.6678 19.1735 94.7601 19.2359C94.8409 19.2821 94.4047 20.1693 93.3155 21.3498C92.2401 22.5443 90.4724 23.9097 88.4809 25.3698C86.5286 26.7653 84.1032 28.7892 82.8593 30.9978C82.2317 32.0814 81.8809 33.1465 81.7632 33.932C81.6409 34.7175 81.6686 35.2096 81.6247 35.2096Z" fill="#F2E9DD"/>
<path fill-rule="evenodd" clip-rule="evenodd" d="M80.0255 31.7558C79.9886 31.7511 80.0117 31.2637 80.074 30.4527C80.1778 29.6464 80.3601 28.519 80.7547 27.2852C81.484 24.7993 83.0947 21.9483 84.7517 20.1185C86.3947 18.201 88.2594 16.861 89.6901 16.1009C91.1278 15.3384 92.0994 15.0912 92.1271 15.1605C92.2609 15.3939 88.5155 16.7408 85.2755 20.5159C83.6555 22.2787 82.0009 24.9934 81.1609 27.3984C80.2494 29.7873 80.1178 31.7696 80.0255 31.7558Z" fill="#F2E9DD"/>
<path fill-rule="evenodd" clip-rule="evenodd" d="M85.5595 29.6461C85.5364 29.6161 85.961 29.2441 86.681 28.6457C87.4149 28.0496 88.4233 27.2318 89.5656 26.3053C91.841 24.4224 94.8456 22.283 96.8026 20.3469C98.8379 18.3878 99.9479 16.0543 100.146 14.2638C100.391 12.471 99.9156 11.3805 100.045 11.3458C100.098 11.2973 100.758 12.3508 100.638 14.2684C100.562 16.1652 99.438 18.7343 97.3056 20.772C95.2587 22.789 92.2079 24.829 89.8426 26.6218C88.6426 27.4882 87.5833 28.2529 86.8149 28.8097C86.4341 29.0731 86.1249 29.288 85.908 29.4405C85.691 29.5837 85.5664 29.6576 85.5595 29.6461Z" fill="#F2E9DD"/>
<path fill-rule="evenodd" clip-rule="evenodd" d="M91.4097 1.46913C91.4559 1.55693 89.7182 2.33089 87.7613 3.81875C85.7767 5.26272 83.6397 7.44138 82.3082 9.33586C79.4651 13.1456 78.459 16.8607 78.2259 16.7798C78.1451 16.759 78.2905 15.8256 78.8213 14.3678C79.3497 12.9146 80.2982 10.9462 81.7543 8.98238C83.1251 7.03707 85.4005 4.8561 87.5028 3.48838C88.539 2.78372 89.5243 2.27544 90.2328 1.93351C90.9574 1.61931 91.3959 1.44141 91.4097 1.46913Z" fill="#F2E9DD"/>
<path fill-rule="evenodd" clip-rule="evenodd" d="M79.7954 17.6856C79.7377 17.6763 79.8024 16.7453 80.2201 15.597C80.6124 14.4419 81.3785 13.1111 82.1424 12.2309C83.6793 10.3641 85.5393 9.68255 85.5993 9.85351C85.7147 10.0545 84.12 10.8955 82.6524 12.6421C81.9208 13.4692 81.1085 14.6775 80.6124 15.7472C80.0885 16.8077 79.8647 17.7018 79.7954 17.6856Z" fill="#F2E9DD"/>
<path fill-rule="evenodd" clip-rule="evenodd" d="M78.3801 21.7149C78.2186 21.6363 80.0417 18.1593 81.5855 16.2555C83.0971 14.271 84.6547 13.0257 84.784 13.1643C84.9386 13.3191 83.6232 14.7007 82.114 16.6437C81.3709 17.584 80.4271 18.8362 79.6978 19.8828C78.9617 20.9224 78.4355 21.7472 78.3801 21.7149Z" fill="#F2E9DD"/>
<path fill-rule="evenodd" clip-rule="evenodd" d="M80.1989 20.9823C80.012 20.9408 80.6951 18.4687 81.6274 17.1518C82.5043 15.7702 83.6051 15.0286 83.7251 15.1718C83.8774 15.3312 83.0304 16.2022 82.1812 17.5053C81.7589 18.1314 81.242 18.9793 80.8751 19.7024C80.4989 20.4186 80.2589 20.9985 80.1989 20.9823Z" fill="#F2E9DD"/>
<path fill-rule="evenodd" clip-rule="evenodd" d="M65.9306 11.1244C66.0114 11.1752 65.3768 12.1063 65.0191 13.4971C64.6152 14.8671 64.5414 16.6507 64.7837 17.963C65.1714 20.6961 66.5975 22.4705 66.4106 22.6045C66.3114 22.757 64.5621 21.0496 64.1375 18.0878C63.8837 16.6808 64.0683 14.7747 64.6152 13.3793C64.8691 12.6723 65.2014 12.1017 65.4529 11.7066C65.7298 11.3254 65.9075 11.1082 65.9306 11.1244Z" fill="#F2E9DD"/>
<path fill-rule="evenodd" clip-rule="evenodd" d="M49.0338 23.854C49.1169 23.8587 49.1123 24.829 49.2738 26.0743C49.4146 27.3242 49.7376 28.8375 50.093 29.9649C50.7761 32.2752 51.6415 34.0011 51.4569 34.1097C51.2976 34.2159 50.1738 32.5941 49.4699 30.1705C49.1076 28.9992 48.8699 27.405 48.8538 26.1159C48.8215 24.8244 48.9853 23.8494 49.0338 23.854Z" fill="#F2E9DD"/>
<path fill-rule="evenodd" clip-rule="evenodd" d="M66.4632 79.7969C66.4171 79.7946 66.454 78.9698 66.4425 77.6044C66.4355 76.2413 66.3779 74.3376 66.2025 72.1867C65.8679 67.8802 64.9955 62.6033 64.3402 58.5556C64.0102 56.4994 63.604 54.5657 62.7825 53.0247C61.9817 51.4837 60.7379 50.4186 59.8494 49.3836C58.9286 48.3739 58.3355 47.3712 58.1625 46.6065C57.9779 45.8441 58.0771 45.4144 58.1094 45.4187C58.2063 45.3936 58.1855 47.1425 60.1655 49.007C61.0563 49.9727 62.3579 51.0054 63.2809 52.6481C64.2017 54.2722 64.6448 56.2869 64.9748 58.3708C65.6232 62.4254 66.4055 67.76 66.6179 72.1197C66.7309 74.296 66.7194 76.2228 66.6525 77.5975C66.5925 78.9721 66.4632 79.7969 66.4632 79.7969Z" fill="#F2E9DD"/>
<path fill-rule="evenodd" clip-rule="evenodd" d="M62.252 40.5186C62.2981 40.5095 62.4781 41.2396 62.8427 42.4248C63.2004 43.61 63.805 45.2341 64.615 47.02C66.2166 50.6011 68.7827 54.7366 70.6912 57.948C72.5789 61.2356 74.4504 64.1928 74.8843 66.7411C75.1173 67.9957 74.9304 69.063 74.6281 69.703C74.3235 70.3499 74.0143 70.6063 73.9912 70.5832C73.8527 70.544 74.9766 69.2733 74.4158 66.889C73.9404 64.5509 72.062 61.6584 70.1627 58.343C68.2681 55.134 65.755 50.9037 64.2435 47.2187C63.482 45.3843 62.935 43.7116 62.6443 42.4918C62.3443 41.2719 62.252 40.5186 62.252 40.5186Z" fill="#F2E9DD"/>
<path fill-rule="evenodd" clip-rule="evenodd" d="M56.9902 112.014C56.9002 111.987 57.814 110.085 57.9132 107.405C58.0863 104.735 57.3732 101.472 56.4386 99.1297C54.5302 94.3357 52.3563 90.7732 52.6032 90.6438C52.6909 90.593 53.2632 91.4339 54.1125 92.8733C54.9548 94.3172 56.0971 96.3665 57.0363 98.8524C57.9894 101.253 58.6425 104.668 58.3332 107.412C58.204 108.78 57.8925 109.961 57.5856 110.767C57.2763 111.573 56.9902 112.014 56.9902 112.014Z" fill="#F2E9DD"/>
<path fill-rule="evenodd" clip-rule="evenodd" d="M58.8274 104.726C58.7905 104.721 58.8366 104.132 58.9266 103.162C59.0097 102.193 59.1412 100.84 59.1389 99.3102C59.1366 97.783 58.9797 96.0711 58.4512 94.4862C57.9205 92.9082 57.0389 91.492 56.2174 90.2952C54.5282 87.8763 52.9174 85.6283 52.382 83.6945C52.0751 82.7473 52.0289 81.9364 52.0382 81.3911C52.0866 80.8436 52.1374 80.5502 52.1859 80.5547C52.3428 80.5525 52.1582 81.74 52.8297 83.4959C53.4228 85.2794 55.0036 87.4027 56.7297 89.8817C57.5536 91.0946 58.4651 92.5801 58.9912 94.2667C59.5128 95.9486 59.6189 97.7322 59.5612 99.2917C59.4966 100.856 59.2912 102.214 59.1366 103.182C59.0489 103.658 58.982 104.042 58.9312 104.317C58.8782 104.582 58.8412 104.728 58.8274 104.726Z" fill="#F2E9DD"/>
<path fill-rule="evenodd" clip-rule="evenodd" d="M30.0847 72.8589C30.1355 72.8774 29.7801 73.7345 29.3855 75.2039C29.0024 76.6733 28.6424 78.7803 28.6724 81.1808C28.7139 83.5743 29.1455 86.2543 30.1101 88.7148C31.0401 91.1892 32.4801 93.4002 33.9362 95.1306C36.9155 98.6839 40.3608 101.128 42.7978 102.884C45.2647 104.622 46.8131 105.65 46.7555 105.744C46.7278 105.788 46.3193 105.585 45.5947 105.176C44.8747 104.762 43.8385 104.148 42.5808 103.328C40.0908 101.678 36.5762 99.28 33.4885 95.6204C31.9955 93.8484 30.5185 91.5542 29.5885 88.9897C28.6285 86.4414 28.2339 83.6736 28.2547 81.2246C28.2801 78.7664 28.7231 76.6294 29.1801 75.16C29.6485 73.686 30.0847 72.8589 30.0847 72.8589Z" fill="#F2E9DD"/>
<path fill-rule="evenodd" clip-rule="evenodd" d="M17.9324 158.954C17.9578 158.88 18.9386 159.15 20.2378 159.414C21.5324 159.686 23.1455 159.936 24.387 160.058C26.9209 160.338 28.9494 160.405 28.9586 160.615C28.9701 160.811 26.944 161.019 24.334 160.714C21.7678 160.511 17.8678 159.106 17.9324 158.954Z" fill="#F2E9DD"/>
<path fill-rule="evenodd" clip-rule="evenodd" d="M91.6934 109.54C91.6611 109.584 90.9134 108.903 89.4364 108.196C87.9734 107.505 85.698 106.86 83.1388 107.184C80.5749 107.47 77.9764 108.91 75.8026 110.733C73.6126 112.562 71.688 114.674 69.9549 116.43C66.438 120.034 63.5418 123.493 61.8434 126.256C60.1218 129.003 59.4503 130.902 59.3303 130.856C59.2841 130.837 59.4157 130.364 59.7203 129.516C60.048 128.679 60.5718 127.476 61.3864 126.066C62.988 123.225 65.8564 119.676 69.4172 116.044C71.1595 114.286 73.1049 112.186 75.3711 110.333C77.6188 108.487 80.358 107.018 83.0464 106.77C85.7211 106.491 88.0495 107.23 89.5172 108.002C90.9988 108.787 91.6934 109.54 91.6934 109.54Z" fill="#F2E9DD"/>
<path fill-rule="evenodd" clip-rule="evenodd" d="M94.1211 123.409C94.1211 123.409 93.6572 123.915 92.6649 124.447C91.6795 124.987 90.1542 125.456 88.3934 125.667C86.6326 125.895 84.6549 125.902 82.7234 126.009C80.7872 126.106 78.8788 126.263 77.2242 126.434C73.8549 126.785 70.8249 127.21 68.6857 127.593C66.5372 127.982 65.4595 128.843 65.3972 128.758C65.3142 128.698 66.3411 127.654 68.5265 127.129C70.6726 126.619 73.6703 126.138 77.0949 125.784C78.7611 125.618 80.6903 125.484 82.6449 125.426C84.6042 125.362 86.5749 125.413 88.3172 125.251C90.0595 125.11 91.5642 124.724 92.5634 124.262C93.5695 123.805 94.0957 123.372 94.1211 123.409Z" fill="#F2E9DD"/>
<path fill-rule="evenodd" clip-rule="evenodd" d="M56.8889 165.407C56.8635 165.381 57.2351 164.989 57.872 164.353C58.5181 163.736 59.4435 162.889 60.5581 162.004C62.7643 160.206 65.7389 158.286 68.1597 157.078C70.6174 155.812 72.9482 154.952 74.6605 154.456C76.3728 153.957 77.4528 153.79 77.4758 153.876C77.5474 154.112 73.3958 155.135 68.5035 157.639C66.1082 158.822 63.1105 160.636 60.8328 162.32C59.6835 163.152 58.7143 163.942 58.0174 164.506C57.332 165.086 56.9097 165.428 56.8889 165.407Z" fill="#F2E9DD"/>
<path fill-rule="evenodd" clip-rule="evenodd" d="M59.2014 160.659C59.1875 160.647 59.296 160.477 59.5106 160.176C59.7345 159.874 60.0483 159.444 60.4406 158.912C61.2506 157.852 62.3952 156.376 63.8537 154.832C65.3098 153.294 67.1214 151.697 69.1914 150.537C71.2521 149.366 73.4652 148.583 75.3944 148.019C79.3568 146.91 82.9337 146.178 85.516 145.598C88.0983 145.041 89.6929 144.755 89.716 144.852C89.7414 144.953 88.2183 145.397 85.6868 146.058C83.1668 146.744 79.5945 147.541 75.6529 148.629C73.7445 149.179 71.5637 149.916 69.5329 151.016C67.4952 152.102 65.6721 153.615 64.1791 155.098C62.6837 156.584 61.4814 158.016 60.6137 159.035C60.1844 159.543 59.836 159.95 59.5937 160.239C59.3514 160.518 59.2129 160.666 59.2014 160.659Z" fill="#F2E9DD"/>
<path fill-rule="evenodd" clip-rule="evenodd" d="M90.4178 156.574C90.5032 156.715 87.9071 158.367 86.1532 159.146C84.3786 159.975 82.8509 160.305 82.7886 160.121C82.7194 159.92 84.1063 159.356 85.8694 158.552C86.7094 158.178 87.8194 157.681 88.7725 157.256C89.6863 156.844 90.3855 156.523 90.4178 156.574Z" fill="#F2E9DD"/>
<path fill-rule="evenodd" clip-rule="evenodd" d="M90.8284 153.428C90.9461 153.552 89.0861 155.251 87.7038 156.011C86.3238 156.831 85.0615 157.108 84.9969 156.928C84.9207 156.727 86.0192 156.225 87.3692 155.447C88.7077 154.735 90.7661 153.361 90.8284 153.428Z" fill="#F2E9DD"/>
<path fill-rule="evenodd" clip-rule="evenodd" d="M93.584 150.609C93.644 150.743 91.3894 151.991 89.954 152.7C88.4909 153.423 87.2425 153.809 87.1594 153.629C87.0694 153.439 88.1794 152.82 89.6632 152.111C91.1056 151.42 93.5332 150.505 93.584 150.609Z" fill="#F2E9DD"/>
<path fill-rule="evenodd" clip-rule="evenodd" d="M91.9871 149.502C92.0402 149.639 91.3202 150.114 90.8448 150.339C90.3579 150.57 89.8986 150.56 89.8248 150.376C89.7486 150.181 90.1017 149.943 90.5979 149.731C91.0802 149.523 91.9433 149.394 91.9871 149.502Z" fill="#F2E9DD"/>
<path fill-rule="evenodd" clip-rule="evenodd" d="M1.68164 147.349C1.68164 147.349 1.94703 146.899 2.66472 146.441C3.3801 145.986 4.56164 145.667 5.88626 145.621C7.21087 145.547 8.68318 145.644 10.0978 145.536C11.5193 145.466 12.7839 144.863 14.0786 144.602C16.7647 144.138 19.0378 145.214 20.4686 145.951C21.927 146.742 22.737 147.349 22.6932 147.428C22.6401 147.527 21.7563 147.074 20.2886 146.409C18.8439 145.785 16.6793 144.838 14.2424 145.242C13.0978 145.441 11.697 146.079 10.1786 146.113C8.6901 146.189 7.2201 146.032 5.92087 146.039C4.61933 146.023 3.49549 146.252 2.77318 146.621C2.05087 146.996 1.71626 147.386 1.68164 147.349Z" fill="#F2E9DD"/>
<path fill-rule="evenodd" clip-rule="evenodd" d="M70.0478 83.7222C70.0478 83.7222 69.7847 87.2755 67.357 92.5546C65.0701 97.8245 60.5147 104.728 59.0955 113.828C57.4616 122.811 57.5032 133.09 57.0463 143.172C56.6563 153.27 56.2709 163.249 55.9386 171.91C55.4401 189.608 54.7593 205.463 54.7916 216.895C54.7847 222.613 54.9209 227.222 55.0409 230.404C55.1055 231.989 55.1563 233.218 55.1932 234.061C55.2255 234.897 55.2047 235.339 55.2047 235.339C55.1793 235.341 55.1263 234.913 55.0478 234.096C54.967 233.278 54.8678 232.067 54.7686 230.503C54.5678 227.375 54.3578 222.823 54.3047 217.156C54.1501 205.817 54.7593 190.042 55.2716 172.236C55.627 163.565 56.0378 153.559 56.4532 143.426C56.9586 133.304 56.9609 122.998 58.6547 113.911C59.4716 109.376 60.8609 105.22 62.564 101.704C64.2416 98.178 65.947 95.1491 67.1447 92.5107C68.3793 89.8908 69.1132 87.6821 69.5147 86.1365C69.7201 85.3648 69.8447 84.7595 69.9163 84.346C69.997 83.9347 70.0478 83.7222 70.0478 83.7222Z" fill="#F2E9DD"/>
</svg>
