<svg width="232" height="310" viewBox="0 0 232 310" fill="none" xmlns="http://www.w3.org/2000/svg">
<path fill-rule="evenodd" clip-rule="evenodd" d="M69.3952 55.1036C64.8083 53.4407 60.2514 52.6454 55.7424 50.48C52.6322 48.9868 51.6754 47.5636 47.8128 47.7706C41.1517 48.1298 29.5611 53.9899 24.6686 58.5263C15.0299 67.4659 7.51282 78.5364 16.6946 90.674C20.131 95.2213 23.4191 102.728 29.0739 105.151C36.7325 108.435 43.5125 101.132 49.4431 97.6831C60.7119 91.1219 73.8005 75.8194 68.4249 61.9716C68.2521 61.5242 67.8248 61.7136 67.9607 62.154C72.9818 78.2477 54.0256 91.034 42.9676 97.8397C38.2684 100.732 33.1368 106.881 26.8732 101.965C26.0504 101.319 20.7414 93.7489 20.0496 92.4848C16.6746 89.6208 15.9877 85.5848 17.9825 80.369C14.586 74.4579 15.0653 70.4391 19.4243 68.3043C19.5494 68.0588 21.2287 66.4337 21.5408 66.1463C26.9716 61.146 30.3379 57.8244 37.124 54.7483C44.8986 51.2198 48.6362 51.1106 57.2657 54.2916C61.4309 55.8259 65.1498 56.0086 69.423 57.242C70.6423 57.5965 70.2599 55.4179 69.3952 55.1036Z" fill="#F2E9DD"/>
<path fill-rule="evenodd" clip-rule="evenodd" d="M69.345 57.6518C69.4988 56.5581 69.7056 55.589 70.2096 54.5885C70.2373 54.5337 70.1575 54.4019 70.1072 54.4789C69.5209 55.4241 69.3339 56.4374 69.1647 57.5264C69.147 57.636 69.3207 57.8084 69.345 57.6518Z" fill="#F2E9DD"/>
<path fill-rule="evenodd" clip-rule="evenodd" d="M38.1711 104.17C39.7191 110.149 40.8933 115.147 48.0786 114.388C56.2803 113.519 60.6301 105.789 64.8459 99.6501C67.9745 95.0951 68.7289 90.5967 71.1583 85.9234C72.4141 83.508 74.4092 81.8001 75.0812 78.8838C76.9126 70.9138 70.2464 63.9773 68.8347 56.6265C68.6501 55.6755 67.4219 55.417 67.592 56.6068C68.308 61.6652 71.3146 65.0812 72.5713 69.9597C75.153 79.9933 71.2793 79.717 68.0441 86.6217C65.6733 91.6749 64.8729 94.8929 61.5642 99.573C60.3141 101.338 58.8316 103.854 57.5602 105.349C51.8644 112.04 43.2215 113.625 39.6456 103.908C39.2648 102.872 37.8412 102.892 38.1711 104.17Z" fill="#F2E9DD"/>
<path fill-rule="evenodd" clip-rule="evenodd" d="M20.8675 61.5083C12.4945 50.9038 25.2132 44.7729 32.9944 42.4742C40.7594 40.1781 46.2054 40.6506 53.3082 44.7856C59.7412 48.5305 65.1332 52.5585 68.7813 59.3236C69.1917 60.0879 69.7435 59.2997 69.4188 58.6924C63.6604 47.8837 51.5021 37.5467 38.5321 38.7524C32.0937 39.3516 21.5234 41.6892 18.2789 47.7083C15.3429 53.153 16.6001 58.227 20.3407 62.5584C21.0124 63.3425 21.2886 62.0422 20.8675 61.5083Z" fill="#F2E9DD"/>
<path fill-rule="evenodd" clip-rule="evenodd" d="M64.9975 49.7322C69.6761 48.2649 72.9397 50.0512 77.4569 50.971C78.5671 51.1978 79.8982 51.0028 80.9428 51.3397C86.1439 53.0116 84.4608 58.2629 84.1418 62.4179C84.0331 63.8553 84.3366 65.3492 84.247 66.7177C83.9028 72.0354 76.7492 73.0097 72.7905 74.5121C72.1652 74.7509 72.7098 76.1176 73.3515 75.914C76.8536 74.7903 84.4908 73.4821 85.8489 69.2884C86.5834 67.0217 86.3613 64.1281 86.9356 61.7903C87.4117 59.8632 87.7869 58.4506 87.332 56.419C86.4494 52.4659 84.3613 49.4541 80.4128 48.7353C74.7834 47.713 69.8571 46.0695 64.4705 48.4035C63.8855 48.6582 64.3921 49.9224 64.9975 49.7322Z" fill="#F2E9DD"/>
<path fill-rule="evenodd" clip-rule="evenodd" d="M120.764 85.4343C118.282 83.571 115.792 84.4359 112.829 84.3299C108.027 84.1578 104.601 82.7302 99.7664 83.5174C90.8106 84.9713 83.5363 88.5443 80.4466 97.3035C80.3621 97.5477 80.6737 98.1564 80.9009 97.7975C83.7325 93.3114 86.0826 90.7099 91.0813 88.8287C94.9298 87.3809 99.4829 86.0563 103.597 86.0547C106.265 86.0504 108.748 87.1856 111.396 87.2573C114.505 87.3402 117.499 85.9758 120.635 86.9172C121.535 87.1876 121.168 85.7375 120.764 85.4343Z" fill="#F2E9DD"/>
<path fill-rule="evenodd" clip-rule="evenodd" d="M76.7023 105.739C77.9736 114.488 85.2128 118.806 93.5109 115.282C98.1883 113.293 102.817 111.22 105.64 106.905C107.732 103.709 109.214 100.043 111.25 96.7994C114.465 91.6804 118.077 90.2343 123.537 88.4498C124.064 88.2785 123.608 87.0951 123.069 87.2709C114.703 90.0269 111.98 92.595 107.572 100.178C104.642 105.212 102.237 108.305 96.7961 111.575C89.6699 115.862 78.8879 116.287 77.1301 105.745C77.0733 105.416 76.6409 105.333 76.7023 105.739Z" fill="#F2E9DD"/>
<path fill-rule="evenodd" clip-rule="evenodd" d="M87.8311 116.263C87.3351 122.217 85.2265 127.135 92.3991 130.496C98.346 133.281 107.909 132.89 112.027 127.542C114.582 124.226 113.932 123.575 117.795 121.085C121.259 118.849 123.681 119.688 127.114 118.175C129.875 116.959 130.938 115.967 131.809 112.977C132.637 110.13 131.941 106.458 131.239 103.659C130.024 98.8273 122.168 89.737 127.038 86.5271C127.512 86.214 126.931 85.1285 126.4 85.2704C114.003 88.5771 143.993 110.374 120.727 117.118C114.843 118.822 114.87 117.989 111.493 123.281C109.11 127.014 106.487 128.556 101.822 128.803C97.1273 129.051 96.0547 128.028 92.5782 124.594C88.0427 120.118 89.4728 120.902 88.8773 116.465C88.7918 115.827 87.9088 115.389 87.8311 116.263Z" fill="#F2E9DD"/>
<path fill-rule="evenodd" clip-rule="evenodd" d="M85.999 66.3973C107.606 63.0254 126.219 83.5869 137.395 100.086C142.642 107.83 150.484 116.891 153.697 125.482C157.888 136.701 161.889 150.338 164.997 161.875C165.278 162.911 166.728 163.258 166.419 161.897C164.204 152.167 159.967 143.166 157.386 133.523C156.535 130.358 155.699 124.136 153.969 120.682C149.332 111.418 140.866 101.774 134.509 93.3572C123.625 78.9535 105.545 58.8366 85.5943 65.0469C85.0414 65.2215 85.4764 66.4778 85.999 66.3973Z" fill="#F2E9DD"/>
<path fill-rule="evenodd" clip-rule="evenodd" d="M83.22 49.4929C83.0454 49.568 82.8658 49.6483 82.6912 49.7234C82.1224 49.9755 82.4312 50.8358 82.7162 51.1695C85.4487 54.3645 88.5387 54.5264 92.4564 55.902C99.3141 58.312 106.343 61.3416 112.451 65.2551C118.882 69.3748 123.24 75.6296 129.29 79.9219C131.878 81.7562 138.261 84.2187 139.247 86.5167C139.534 87.1995 140.51 87.2394 140.267 86.3341C137.798 77.0858 134.526 69.1412 142.723 60.1355C142.074 60.8465 150.638 51.0079 152.196 56.9761C153.662 62.5665 148.714 61.5592 145.534 64.949C142.667 68.0067 142.181 71.1286 142.124 74.9531C142.017 81.7445 141.201 88.7336 141.35 95.7048C141.366 96.4405 142.502 97.1827 142.497 96.1239C142.464 89.8819 144.015 83.2278 144.434 77.1031C145.093 67.5807 147.232 68.8984 153.1 63.1148C157.626 58.6557 153.886 64.4846 156.607 60.5816C156.805 60.2991 156.59 59.7849 156.394 59.5724C154.737 57.7947 152.681 56.0924 151.693 53.8637C151.612 53.6811 151.415 53.373 151.167 53.3965C144.495 54.0137 136.656 61.2285 135.475 67.8968C134.584 72.9059 138.704 77.7623 137.973 82.4239C137.5 85.4344 141.046 83.8276 138.487 83.699C131.324 83.3448 122.306 70.0276 117.403 66.0515C114.074 63.3489 110.01 61.3101 106.231 59.3821C103.62 58.0506 86.2433 49.1509 83.9567 50.9429C84.4378 50.5654 83.839 49.2188 83.22 49.4929Z" fill="#F2E9DD"/>
<path fill-rule="evenodd" clip-rule="evenodd" d="M140.805 92.3198C140.593 92.22 140.378 92.1212 140.162 92.0195C139.741 91.8186 139.577 92.4218 139.655 92.7054C143.748 107.629 155.378 120.057 161.399 134.156C164.42 141.219 164.881 150.522 172.533 154.093C173.169 154.393 173.425 153.484 173.305 153.048C170.395 142.721 164.696 127.17 177.701 120.858C178.314 120.558 177.786 119.237 177.133 119.438C173.401 120.578 169.949 124.038 168.502 127.716C165.631 135.01 171.363 140.649 169.747 147.025C168.74 151 166.363 142.833 165.274 140.312C163.557 136.339 162.511 132.168 160.442 128.329C157.926 123.664 154.736 119.337 152.189 114.67C150.644 111.837 143.288 93.9805 140.94 93.5536C141.58 93.6697 141.138 92.4778 140.805 92.3198Z" fill="#F2E9DD"/>
<path fill-rule="evenodd" clip-rule="evenodd" d="M167.907 170.953C160.878 164.851 151.49 155.886 141.829 156.28C138.326 156.422 135.228 158.2 131.385 158.042C128.542 157.926 125.953 157.043 123.028 157.355C120.672 157.608 117.951 158.174 115.944 159.423C111.511 162.182 107.396 168.528 107.027 173.734C106.765 177.505 107.548 179.747 110.862 181.79C112.502 182.798 114.747 183.291 116.652 183.216C119.943 183.087 125.119 178.02 127.36 178.215C131.68 178.594 134.029 184.447 139.7 184.304C148.539 184.081 153.878 174.81 160.909 170.867C161.694 170.429 160.956 168.578 160.155 168.981C151.673 173.249 138.827 192.945 128.653 176.077C128.466 175.766 128.093 175.52 127.759 175.767C125.905 177.179 123.985 178.498 122.001 179.725C116.211 183.444 112.191 179.941 109.942 169.221C110.716 166.923 113.694 163.721 115.685 162.399C122.303 158.009 129.999 161.227 137.205 160.772C143.085 160.4 145.999 159.134 151.994 161.892C154.046 162.834 156.794 164.869 158.474 165.901C161.517 167.769 164.932 169.482 167.769 171.636C168.175 171.945 168.149 171.162 167.907 170.953Z" fill="#F2E9DD"/>
<path fill-rule="evenodd" clip-rule="evenodd" d="M116.679 180.738C113.754 185.979 109.672 189.889 112.276 196.327C114.852 202.69 120.75 205.113 126.945 203.478C135.414 201.24 147.717 201.205 154.93 195.355C162.565 189.167 154.783 177.444 161.735 170.671C162.434 169.993 161.348 167.962 160.523 168.735C158.401 170.72 157.193 174.236 156.696 177.098C156.358 179.081 156.938 181.182 156.728 183.152C155.636 193.309 152.518 194.238 145.862 196.435C141.191 197.979 135.736 198.574 130.819 199.426C123.447 200.698 112.761 195.599 115.246 186.246C115.668 184.655 117.129 183.293 117.675 181.618C117.835 181.133 117.064 180.053 116.679 180.738Z" fill="#F2E9DD"/>
<path fill-rule="evenodd" clip-rule="evenodd" d="M129.368 204.303C138.908 213.881 153.248 214.814 162.033 203.434C164.566 200.15 167.37 195.572 167.371 191.291C167.366 183.096 158.148 175.832 167.067 168.604C167.762 168.038 166.779 166.164 165.947 166.816C161.008 170.68 159.811 176.52 162.186 182.065C165.785 190.465 165.034 198.007 157.795 204.546C149.174 212.332 138.038 210.276 129.721 203.255C129.12 202.747 129.024 203.957 129.368 204.303Z" fill="#F2E9DD"/>
<path fill-rule="evenodd" clip-rule="evenodd" d="M164.296 172.69C167.081 171.891 169.944 174.512 172.535 172.587C174.675 171.001 174.166 167.891 173.449 165.688C172.616 163.145 170.992 160.95 168.588 159.686C166.919 158.804 165.371 160.923 164.962 162.448C164.892 162.704 165.074 163.11 165.34 163.197C166.868 163.701 166.933 161.257 168.255 161.316C168.736 161.344 169.827 162.398 170.204 162.749C171.297 163.761 171.95 165.153 172.311 166.588C173.13 169.843 171.547 171.941 168.197 171.254C166.453 170.899 165.491 170.665 163.766 171.363C163.176 171.602 163.688 172.864 164.296 172.69Z" fill="#F2E9DD"/>
<path fill-rule="evenodd" clip-rule="evenodd" d="M169.889 170.544C174.742 185.018 180.496 196.388 187.098 209.832C195.717 227.383 203.373 250.83 200.192 270.364C200.12 270.826 200.827 271.659 201.016 270.94C205.382 254.314 198.467 237.546 193.789 221.768C188.501 203.927 177.325 187.716 170.564 170.273C170.317 169.634 169.677 169.905 169.889 170.544Z" fill="#F2E9DD"/>
<path fill-rule="evenodd" clip-rule="evenodd" d="M169.509 153.203C174.099 161.703 179.515 168.914 182.672 178.316C185.763 187.512 187.445 196.767 190.872 205.924C198.094 225.204 210.035 241.368 197.987 262.298C197.807 262.609 198.308 263.487 198.6 263.101C207.851 250.848 205.528 232.814 198.992 219.66C192.731 207.061 189.161 194.898 185.181 181.326C181.885 170.078 175.935 162.361 170.177 152.544C169.713 151.755 169.169 152.574 169.509 153.203Z" fill="#F2E9DD"/>
<path fill-rule="evenodd" clip-rule="evenodd" d="M177.38 120.009C182.305 118.965 172.801 137.078 172.701 139.185C172.379 146.046 173.369 152.314 174.297 159.147C174.396 159.859 175.594 160.414 175.511 159.384C175.088 154.172 175.145 149.256 174.932 144.138C174.795 140.808 174.426 138.59 175.936 135.27C177.414 132.028 178.961 129.676 180.001 126.17C180.763 123.618 181.352 117.506 177.012 119.091C176.592 119.244 176.962 120.095 177.38 120.009Z" fill="#F2E9DD"/>
<path fill-rule="evenodd" clip-rule="evenodd" d="M175.128 157.473C178.13 152.217 186.395 146.577 186.257 139.736C186.225 138.337 185.761 137.012 184.969 135.865C183.727 134.08 182.008 132.775 180.803 130.85C179.877 129.36 175.445 122.508 177.194 120.96C177.586 120.612 177.109 119.482 176.556 119.704C176.39 119.772 176.226 119.84 176.061 119.904C175.775 120.021 175.769 120.394 175.804 120.645C176.643 126.471 179.272 130.127 182.242 135.036C185.567 140.531 184.75 143.02 180.707 147.894C178.213 150.895 176.312 153.245 174.522 156.819C174.35 157.161 174.867 157.934 175.128 157.473Z" fill="#F2E9DD"/>
<path fill-rule="evenodd" clip-rule="evenodd" d="M141.329 90.9106C140.926 91.4545 140.504 91.9818 140.058 92.4905C139.727 92.8844 140.095 94.035 140.719 93.8004C144.363 92.4215 145.431 88.047 147.903 85.4791C150.517 82.766 154.365 80.5565 155.459 76.6598C156.188 74.0624 154.986 72.3214 154.005 69.953C152.185 65.5647 152.351 62.9015 153.762 58.5645C153.781 58.513 154.305 55.9569 154.388 55.8748C154.692 55.5663 154.333 54.618 153.849 54.8112C153.691 54.8766 153.53 54.94 153.369 55.0065C153.249 55.0542 153.159 55.1978 153.142 55.3205C152.748 58.1064 150.721 60.3683 150.446 63.2439C150.102 66.8417 152.011 68.2863 153.223 71.482C155.624 77.807 149.832 80.2156 146.406 84.0606C144.034 86.7219 143.081 90.3258 140.058 92.4905C140.341 92.8659 140.625 93.2414 140.911 93.6158C141.098 92.8805 141.409 92.2093 141.849 91.5928C142.002 91.3301 141.582 90.5865 141.329 90.9106Z" fill="#F2E9DD"/>
<path fill-rule="evenodd" clip-rule="evenodd" d="M65.9398 57.7683C65.9383 57.7929 65.6923 57.8051 65.2465 57.8057C64.7882 57.8006 64.1435 57.7925 63.3471 57.7824C61.7319 57.7944 59.4858 57.8173 56.9476 58.0514C51.8676 58.4456 45.6813 59.7615 41.1366 61.3679C31.7551 64.4591 25.3037 69.0759 25.1211 68.7695C25.0551 68.6738 26.5469 67.4409 29.2759 65.787C31.9999 64.1383 35.9891 62.1166 40.7543 60.5314C45.3695 58.9023 51.7019 57.6935 56.86 57.4729C59.4416 57.3188 61.7167 57.4019 63.3413 57.4893C64.147 57.5613 64.7903 57.6213 65.2489 57.6641C65.6983 57.7102 65.9419 57.7469 65.9398 57.7683Z" fill="#F2E9DD"/>
<path fill-rule="evenodd" clip-rule="evenodd" d="M64.8095 60.2989C64.8111 60.3499 64.0244 60.4494 62.7266 60.5771C61.4269 60.7364 59.6128 60.9526 57.5813 61.3318C53.5106 62.0417 48.5822 63.4369 44.9535 64.8855C37.4762 67.7168 32.1726 71.2832 31.9932 71.003C31.9235 70.8984 33.1445 69.9067 35.3448 68.5484C37.5432 67.1942 40.7464 65.5052 44.5573 64.0576C48.2425 62.5948 53.2974 61.3003 57.4553 60.7607C59.5272 60.4626 61.371 60.3452 62.6904 60.285C63.3397 60.2777 63.8688 60.2702 64.2443 60.2649C64.6118 60.2659 64.8087 60.2787 64.8095 60.2989Z" fill="#F2E9DD"/>
<path fill-rule="evenodd" clip-rule="evenodd" d="M65.7133 59.9531C65.7468 60.0712 63.3664 60.796 60.4059 62.1308C57.4327 63.4221 53.9202 65.3598 51.3839 67.0795C46.1451 70.5155 42.5814 74.027 42.357 73.8013C42.1655 73.6458 45.4473 69.8646 50.831 66.3475C53.4164 64.6026 57.071 62.7428 60.157 61.5983C61.6948 61.0074 63.0825 60.5855 64.0811 60.3079C65.0905 60.0503 65.7018 59.9128 65.7133 59.9531Z" fill="#F2E9DD"/>
<path fill-rule="evenodd" clip-rule="evenodd" d="M63.2994 61.7785C63.521 61.9504 57.943 68.5431 53.7701 71.9476C49.6228 75.5417 45.8095 77.6767 45.6759 77.4551C45.5013 77.1972 48.9953 74.8305 53.136 71.2834C55.1688 69.5753 57.7469 67.2462 59.7524 65.2702C60.7366 64.2874 61.6122 63.41 62.2554 62.7664C62.8764 62.1276 63.2679 61.749 63.2994 61.7785Z" fill="#F2E9DD"/>
<path fill-rule="evenodd" clip-rule="evenodd" d="M66.4428 59.5319C66.4902 59.5486 66.2367 60.3085 65.7857 61.5536C65.2996 62.7877 64.5882 64.4966 63.6236 66.3647C61.7462 70.1296 58.8359 74.487 56.2139 77.512C53.5811 80.6372 50.8455 83.0968 48.7615 84.7037C46.6714 86.313 45.2586 87.1115 45.1912 87.0129C44.9741 86.733 50.2242 83.1796 55.4691 76.9747C58.0656 74.0106 61.0616 69.7828 63.0882 66.1238C64.1268 64.3073 64.9292 62.6401 65.5104 61.4498C65.7878 60.856 66.0079 60.3762 66.1684 60.0318C66.3274 59.7017 66.4233 59.5254 66.4428 59.5319Z" fill="#F2E9DD"/>
<path fill-rule="evenodd" clip-rule="evenodd" d="M55.3275 48.4917C55.2836 48.5492 54.4446 47.9061 52.9425 47.0386C51.4404 46.1712 49.2449 45.1181 46.6118 44.3748C41.3683 42.746 34.367 43.0392 29.6051 45.0591C24.6749 46.9492 20.955 50.0485 18.6929 52.5727C16.3977 55.1093 15.3919 56.996 15.2393 56.9085C15.175 56.8739 15.3839 56.3915 15.8196 55.5399C16.3011 54.7195 17.0111 53.5156 18.1252 52.1894C20.2948 49.5175 24.0479 46.2206 29.1806 44.2382C31.6597 43.2708 34.7041 42.588 37.8161 42.5221C40.9247 42.4471 44.0685 42.9392 46.7351 43.8005C49.4103 44.6482 51.6126 45.8121 53.0805 46.7815C54.5555 47.7517 55.3275 48.4917 55.3275 48.4917Z" fill="#F2E9DD"/>
<path fill-rule="evenodd" clip-rule="evenodd" d="M52.0566 47.3777C52.0301 47.5283 48.9912 46.7364 44.9317 46.8105C40.8881 46.7791 35.9301 47.715 32.377 49.1082C24.9715 51.7446 20.4579 56.2847 20.2386 55.9987C20.1616 55.9208 21.1518 54.723 23.1541 53.136C25.1525 51.5573 28.2048 49.6462 31.9928 48.2758C35.6394 46.8479 40.779 46.0129 44.9071 46.2258C49.0529 46.3291 52.0566 47.3777 52.0566 47.3777Z" fill="#F2E9DD"/>
<path fill-rule="evenodd" clip-rule="evenodd" d="M68.1677 63.045C68.1952 63.0452 68.1949 63.3405 68.1772 63.8757C68.1455 64.4195 68.1032 65.1938 68.0497 66.1507C67.9118 68.0829 67.6692 70.7782 67.2182 73.8185C66.3885 79.8998 64.3699 87.3556 61.5234 92.5234C58.7363 97.8512 55.0013 101.9 51.8975 104.218C50.3666 105.41 48.9868 106.159 48.0428 106.667C47.0696 107.124 46.5179 107.339 46.4881 107.278C46.3963 107.113 48.5034 106.132 51.407 103.737C54.3159 101.375 57.8863 97.4284 60.6603 92.1947C63.4755 87.1552 65.6235 79.8265 66.6335 73.7779C67.1737 70.756 67.5154 68.0686 67.7542 66.1402C67.8687 65.1812 67.967 64.4101 68.0334 63.8672C68.1 63.3345 68.1474 63.0458 68.1677 63.045Z" fill="#F2E9DD"/>
<path fill-rule="evenodd" clip-rule="evenodd" d="M62.7595 82.3822C62.808 82.402 62.5585 83.0986 62.1153 84.2447C61.6432 85.3775 60.9496 86.9494 60.0277 88.6643C58.2233 92.1172 55.4649 96.1162 53.0066 98.8883C50.5362 101.758 47.9791 104.014 46.0352 105.49C44.083 106.962 42.7718 107.692 42.7044 107.593C42.4926 107.318 47.3452 104.026 52.2715 98.3405C54.7082 95.6211 57.5463 91.7539 59.4999 88.4069C60.4969 86.7465 61.2796 85.2205 61.8427 84.1295C62.378 83.0283 62.7223 82.3651 62.7595 82.3822Z" fill="#F2E9DD"/>
<path fill-rule="evenodd" clip-rule="evenodd" d="M69.5032 53.6187C69.4541 53.551 69.9 53.1248 70.6785 52.994C71.4446 52.83 72.4577 53.0173 73.1131 53.4058C74.5715 54.1831 74.6931 55.6861 74.4069 55.6824C74.1106 55.7717 73.7687 54.8035 72.6592 54.1989C72.1477 53.884 71.3873 53.6099 70.7235 53.578C70.0616 53.5145 69.5458 53.7058 69.5032 53.6187Z" fill="#F2E9DD"/>
<path fill-rule="evenodd" clip-rule="evenodd" d="M70.083 55.2468C70.0056 54.9735 72.4675 54.6166 73.9066 55.3049C75.3966 55.8713 76.0896 57.0182 75.8823 57.1809C75.6635 57.396 74.8489 56.6614 73.5624 56.1533C72.3596 55.5285 70.1226 55.3351 70.083 55.2468Z" fill="#F2E9DD"/>
<path fill-rule="evenodd" clip-rule="evenodd" d="M71.4503 58.7487C71.5316 58.5607 72.9752 58.9281 73.8259 59.2511C74.7033 59.5813 75.2799 60.1089 75.1682 60.3631C75.0509 60.6298 74.3394 60.4508 73.4693 60.0938C72.6259 59.7441 71.382 58.8976 71.4503 58.7487Z" fill="#F2E9DD"/>
<path fill-rule="evenodd" clip-rule="evenodd" d="M123.271 86.7605C123.294 86.776 123.171 87.0001 122.933 87.3939C122.681 87.7964 122.327 88.3601 121.889 89.0579C120.982 90.4618 119.696 92.4077 118.17 94.5735C115.144 98.9154 111.048 104.083 107.382 107.567C103.686 111.176 99.8302 113.835 96.8476 115.332C95.344 116.061 94.1215 116.614 93.2318 116.889C92.3533 117.195 91.864 117.328 91.8394 117.262C91.7681 117.079 93.6279 116.375 96.4531 114.768C99.2828 113.173 102.999 110.545 106.673 106.979C110.309 103.561 114.493 98.5114 117.671 94.2643C119.241 92.1408 120.633 90.2616 121.637 88.9044C122.132 88.2332 122.534 87.6964 122.814 87.3144C123.096 86.9455 123.256 86.7488 123.271 86.7605Z" fill="#F2E9DD"/>
<path fill-rule="evenodd" clip-rule="evenodd" d="M121.66 93.7701C121.705 93.791 121.385 94.5002 120.821 95.6533C120.233 96.7981 119.377 98.3754 118.274 100.092C116.114 103.55 112.935 107.516 110.171 110.24C107.39 113.06 104.582 115.258 102.46 116.68C100.335 118.103 98.9241 118.795 98.8627 118.694C98.6668 118.406 103.928 115.243 109.473 109.644C112.212 106.971 115.461 103.14 117.767 99.7996C118.942 98.1384 119.883 96.6122 120.562 95.5194C120.889 94.976 121.152 94.5385 121.343 94.2206C121.531 93.9211 121.645 93.7584 121.66 93.7701Z" fill="#F2E9DD"/>
<path fill-rule="evenodd" clip-rule="evenodd" d="M124.749 90.8493C124.797 90.8589 124.738 91.3853 124.599 92.2504C124.44 93.1161 124.193 94.3198 123.81 95.6563C123.078 98.3445 121.793 101.57 120.539 103.906C118.039 108.743 114.935 111.809 114.765 111.636C114.509 111.428 117.216 108.262 119.706 103.522C120.955 101.236 122.345 98.1184 123.246 95.505C124.178 92.9008 124.651 90.8271 124.749 90.8493Z" fill="#F2E9DD"/>
<path fill-rule="evenodd" clip-rule="evenodd" d="M113.333 89.8689C113.335 89.9198 112.623 90.0463 111.445 90.219C110.252 90.4073 108.615 90.6645 106.762 90.9532C103.044 91.5597 98.4765 92.4744 95.0071 93.2976C87.9072 94.9352 82.3577 96.571 82.2627 96.287C82.1728 96.0354 87.5318 94.0618 94.7315 92.425C98.2355 91.6027 102.874 90.8129 106.652 90.3795C108.538 90.1538 110.208 90.0117 111.402 89.9261C112.604 89.8545 113.326 89.8305 113.333 89.8689Z" fill="#F2E9DD"/>
<path fill-rule="evenodd" clip-rule="evenodd" d="M109.557 87.6068C109.534 87.7287 107.762 87.3458 105.419 87.3118C103.081 87.2348 100.204 87.5536 98.0727 88.1001C93.6801 89.1078 90.5524 90.9542 90.3896 90.6816C90.2325 90.4893 93.2172 88.2668 97.8243 87.2174C100.036 86.658 103.049 86.464 105.436 86.7287C106.633 86.8376 107.67 87.0535 108.404 87.2277C109.137 87.4263 109.566 87.5658 109.557 87.6068Z" fill="#F2E9DD"/>
<path fill-rule="evenodd" clip-rule="evenodd" d="M109.157 92.0184C109.178 92.1307 107.127 92.5412 104.499 93.2722C101.866 93.981 98.6665 95.0335 96.2628 95.973C91.3422 97.8424 87.5878 99.7015 87.4426 99.4396C87.3097 99.2108 90.8577 97.0266 95.8937 95.135C98.3339 94.1923 101.632 93.2505 104.342 92.7093C105.695 92.4269 106.898 92.2382 107.759 92.125C108.627 92.0228 109.152 91.9758 109.157 92.0184Z" fill="#F2E9DD"/>
<path fill-rule="evenodd" clip-rule="evenodd" d="M158.975 175.783C158.998 175.874 157.707 175.642 156.061 176.699C154.375 177.667 152.761 179.913 150.341 181.899C147.943 183.863 144.82 185.714 141.324 186.252C139.592 186.524 137.795 186.442 136.156 185.982C134.508 185.536 133.094 184.732 131.804 184.074C126.656 180.955 120.901 182.09 117.724 183.999C114.405 185.886 113.257 188.127 113.084 187.975C113.039 187.947 113.264 187.397 113.908 186.534C114.544 185.666 115.632 184.494 117.301 183.459C118.949 182.416 121.186 181.518 123.821 181.285C126.439 181.025 129.486 181.69 132.121 183.208C133.43 183.88 134.787 184.66 136.299 185.109C137.805 185.563 139.47 185.676 141.113 185.462C144.43 185.042 147.525 183.328 149.934 181.477C152.354 179.629 154.083 177.388 155.895 176.455C156.768 175.949 157.58 175.771 158.126 175.734C158.68 175.693 158.975 175.783 158.975 175.783Z" fill="#F2E9DD"/>
<path fill-rule="evenodd" clip-rule="evenodd" d="M155.429 177.657C155.429 177.657 155.358 178.744 154.516 180.306C153.665 181.85 151.905 183.728 149.394 185.01C146.917 186.343 143.767 187.045 140.697 187.178C137.615 187.353 134.592 187.197 131.996 187.247C126.683 187.171 122.04 188.577 119.343 190.641C116.608 192.675 115.946 194.843 115.769 194.733C115.719 194.721 115.806 194.187 116.248 193.323C116.679 192.46 117.504 191.279 118.865 190.156C121.543 187.848 126.443 186.244 131.877 186.333C137.101 186.253 144.122 187.106 149.089 184.509C151.565 183.35 153.336 181.619 154.256 180.169C155.163 178.7 155.357 177.632 155.429 177.657Z" fill="#F2E9DD"/>
<path fill-rule="evenodd" clip-rule="evenodd" d="M154.812 179.705C154.812 179.705 154.941 180.33 154.719 181.353C154.507 182.372 153.791 183.716 152.595 184.877C150.216 187.272 146.016 188.456 142.943 188.525C139.792 188.718 137.018 188.686 135.047 188.961C133.071 189.202 131.897 189.6 131.841 189.456C131.785 189.343 132.883 188.713 134.885 188.3C136.88 187.852 139.715 187.789 142.826 187.617C145.85 187.556 149.774 186.599 152.181 184.464C153.37 183.432 154.132 182.23 154.438 181.279C154.744 180.328 154.748 179.698 154.812 179.705Z" fill="#F2E9DD"/>
<path fill-rule="evenodd" clip-rule="evenodd" d="M155.974 182.45C156.016 182.479 155.654 183.004 155.019 183.854C154.352 184.675 153.368 185.795 152.09 186.894C149.586 189.154 145.87 191.246 142.796 192.201C139.675 193.252 136.699 193.535 134.589 193.463C132.465 193.389 131.203 193.04 131.221 192.93C131.223 192.566 136.315 193.416 142.453 191.35C145.44 190.448 149.11 188.545 151.694 186.464C154.339 184.443 155.88 182.364 155.974 182.45Z" fill="#F2E9DD"/>
<path fill-rule="evenodd" clip-rule="evenodd" d="M161.369 177.466C161.419 177.471 161.362 178.426 161.231 179.999C161.086 181.587 160.885 183.776 160.655 186.254C160.529 187.498 160.397 188.817 160.262 190.165C160.116 191.5 160.053 192.941 159.485 194.315C158.262 197.133 155.391 198.404 153.252 199.29C148.703 200.994 144.596 202.376 141.618 203.357C138.639 204.328 136.793 204.848 136.751 204.716C136.704 204.579 138.44 203.846 141.326 202.738C144.249 201.654 148.272 200.165 152.827 198.476C154.947 197.614 157.595 196.454 158.711 194.06C159.253 192.884 159.366 191.496 159.548 190.145C159.73 188.794 159.903 187.476 160.069 186.231C160.413 183.752 160.716 181.563 160.938 179.977C161.059 179.201 161.156 178.575 161.229 178.132C161.301 177.697 161.351 177.462 161.369 177.466Z" fill="#F2E9DD"/>
<path fill-rule="evenodd" clip-rule="evenodd" d="M160.361 181.955C160.361 181.955 160.858 182.612 161.356 183.872C161.856 185.125 162.325 186.994 162.342 189.157C162.379 191.312 161.917 193.749 160.918 195.939C159.926 198.143 158.359 200.032 156.727 201.314C153.384 203.985 149.445 204.783 146.758 204.681C144.02 204.598 142.485 203.835 142.531 203.746C142.575 203.569 144.11 204.074 146.695 204.001C149.238 203.947 152.913 203.14 156.101 200.643C157.648 199.448 159.155 197.719 160.156 195.652C161.167 193.595 161.697 191.277 161.755 189.185C161.833 187.09 161.482 185.247 161.084 183.98C160.684 182.707 160.309 181.981 160.361 181.955Z" fill="#F2E9DD"/>
<path fill-rule="evenodd" clip-rule="evenodd" d="M124.6 166.332C124.579 166.127 131.655 165.127 136.061 164.608C140.565 164.078 144.163 163.945 144.194 164.221C144.225 164.509 140.739 165.009 136.204 165.513C131.788 166.004 124.616 166.494 124.6 166.332Z" fill="#F2E9DD"/>
<path fill-rule="evenodd" clip-rule="evenodd" d="M129.069 170.194C129.015 170.132 129.771 169.378 131.023 168.773C132.256 168.137 133.964 167.71 135.299 167.682C138.075 167.544 140.017 168.801 139.871 169.01C139.752 169.308 137.892 168.494 135.342 168.596C134.111 168.606 132.505 168.865 131.26 169.31C130.001 169.718 129.127 170.276 129.069 170.194Z" fill="#F2E9DD"/>
<path fill-rule="evenodd" clip-rule="evenodd" d="M133.98 172.462C133.932 172.39 134.832 171.624 136.213 170.916C137.576 170.187 139.423 169.568 140.885 169.328C143.89 168.769 146.284 169.46 146.223 169.703C146.182 170.02 143.922 169.725 141.056 170.225C139.664 170.439 137.868 170.899 136.461 171.445C135.052 171.968 134.03 172.542 133.98 172.462Z" fill="#F2E9DD"/>
<path fill-rule="evenodd" clip-rule="evenodd" d="M164.961 152.507C165.079 152.508 165.094 153.532 165.439 154.784C165.746 156.047 166.403 157.506 167.08 158.508C168.394 160.605 169.994 161.821 169.828 162.078C169.714 162.316 167.754 161.333 166.314 159.015C165.591 157.917 165.008 156.269 164.866 154.904C164.683 153.534 164.896 152.497 164.961 152.507Z" fill="#F2E9DD"/>
<path fill-rule="evenodd" clip-rule="evenodd" d="M172.606 172.242C172.791 172.159 181.784 192.104 187.281 204.541C192.891 217.244 197.075 227.425 196.82 227.534C196.555 227.652 192.115 217.827 186.496 205.034C181.023 192.571 172.455 172.308 172.606 172.242Z" fill="#F2E9DD"/>
<path fill-rule="evenodd" clip-rule="evenodd" d="M75.6302 67.4379C75.6723 67.3296 77.1568 66.6967 77.5922 65.835C78.1333 65.092 78.348 64.3568 78.6376 64.342C78.9183 64.3032 79.0904 65.3687 78.3242 66.3839C77.9813 66.875 77.3052 67.3282 76.7022 67.4695C76.0949 67.6363 75.6284 67.5072 75.6302 67.4379Z" fill="#F2E9DD"/>
<path fill-rule="evenodd" clip-rule="evenodd" d="M72.965 68.4849C72.8307 68.3356 74.0522 66.9009 74.879 66.0863C75.7237 65.2547 76.5884 64.8105 76.7744 65.0161C76.968 65.2327 76.3697 65.9419 75.4991 66.7591C74.6543 67.5529 73.078 68.6044 72.965 68.4849Z" fill="#F2E9DD"/>
<path fill-rule="evenodd" clip-rule="evenodd" d="M82.3213 60.6079C82.3213 60.6079 84.1741 60.0615 87.3538 59.7062C90.5232 59.3512 95.0327 59.3711 100.025 60.3311C105.001 61.3039 110.405 63.3296 115.154 66.3638C119.95 69.3496 123.884 73.4139 126.853 77.1835C132.826 84.9811 137.533 92.3424 141.142 97.5325C142.88 100.146 144.282 102.262 145.269 103.746C146.222 105.226 146.722 106.056 146.665 106.095C146.605 106.137 146.011 105.397 144.981 104.007C143.954 102.589 142.489 100.562 140.666 98.0351C136.972 93.0036 132.176 85.6891 126.255 77.9029C123.32 74.1618 119.527 70.1243 114.842 67.1318C110.216 64.069 104.906 61.9914 99.9925 60.9198C95.0679 59.873 90.5832 59.7443 87.4051 59.9927C85.8191 60.1483 84.5455 60.2671 83.6795 60.4303C82.8065 60.5653 82.3213 60.6079 82.3213 60.6079Z" fill="#F2E9DD"/>
<path fill-rule="evenodd" clip-rule="evenodd" d="M144 81.6783C143.903 81.6011 144.992 80.2258 146.115 78.2476C147.269 76.2887 148.418 73.7242 149.075 71.6851C150.506 67.547 150.875 64.0563 151.184 64.0827C151.439 64.0772 151.45 67.6428 149.954 71.946C149.266 74.0411 147.953 76.6356 146.618 78.5414C145.966 79.504 145.317 80.2975 144.839 80.849C144.343 81.39 144.03 81.7048 144 81.6783Z" fill="#F2E9DD"/>
<path fill-rule="evenodd" clip-rule="evenodd" d="M150.962 80.3356C150.88 80.3658 150.501 79.7134 150.394 78.7303C150.256 77.7553 150.434 76.505 150.815 75.636C151.558 73.7712 153.119 73.0584 153.229 73.2991C153.417 73.5484 152.319 74.3914 151.659 75.9887C151.317 76.7404 151.028 77.8019 150.977 78.7027C150.9 79.6034 151.052 80.3091 150.962 80.3356Z" fill="#F2E9DD"/>
<path fill-rule="evenodd" clip-rule="evenodd" d="M176.474 149.464C176.372 149.429 176.826 147.85 177.305 145.764C177.803 143.681 178.305 141.085 178.607 139.086C179.263 135.008 179.607 131.743 179.9 131.755C180.174 131.763 180.206 135.033 179.517 139.198C178.959 143.294 176.685 149.55 176.474 149.464Z" fill="#F2E9DD"/>
<path fill-rule="evenodd" clip-rule="evenodd" d="M179.896 145.088C179.703 145.029 179.96 143.3 180.223 142.251C180.49 141.184 180.976 140.421 181.241 140.497C181.52 140.583 181.396 141.435 181.102 142.502C180.815 143.542 180.054 145.136 179.896 145.088Z" fill="#F2E9DD"/>
<path fill-rule="evenodd" clip-rule="evenodd" d="M113.027 177.774C112.95 177.778 112.902 176.677 113.501 175.387C114.044 174.084 115.248 172.714 116.405 172.004C118.801 170.395 121.232 170.972 121.122 171.222C121.119 171.546 119.045 171.358 116.914 172.766C115.865 173.388 114.692 174.517 114.023 175.647C113.309 176.756 113.131 177.794 113.027 177.774Z" fill="#F2E9DD"/>
<path fill-rule="evenodd" clip-rule="evenodd" d="M110.062 174.044C110.042 173.917 112.047 172.669 112.807 171.453C113.683 170.326 114.194 169.281 114.479 169.354C114.747 169.412 114.561 170.724 113.527 172.017C112.596 173.41 110.107 174.295 110.062 174.044Z" fill="#F2E9DD"/>
<path fill-rule="evenodd" clip-rule="evenodd" d="M79.2567 104.902C79.3444 104.815 79.9535 105.402 80.9572 105.675C81.936 105.992 83.224 105.967 84.1228 105.689C86.0314 105.228 87.0001 103.908 87.2568 104.063C87.5379 104.127 86.6827 106.013 84.361 106.572C83.2975 106.888 81.7815 106.76 80.7474 106.22C79.6782 105.724 79.2046 104.928 79.2567 104.902Z" fill="#F2E9DD"/>
<path fill-rule="evenodd" clip-rule="evenodd" d="M79.9362 106.717C79.9874 106.605 81.028 107.098 82.4793 107.236C83.9168 107.42 85.7056 107.21 86.9774 106.762C89.6337 105.949 91.2016 104.283 91.4295 104.49C91.6626 104.609 90.2399 106.723 87.2741 107.627C85.8752 108.111 83.8918 108.195 82.3906 107.811C80.8678 107.48 79.901 106.76 79.9362 106.717Z" fill="#F2E9DD"/>
<path fill-rule="evenodd" clip-rule="evenodd" d="M16.0069 93.3525C16.0047 93.2264 17.3068 93.1657 18.8955 92.6658C20.4988 92.2051 22.3409 91.2782 23.5843 90.3469C26.2005 88.5185 27.6065 86.3323 27.8737 86.4975C28.1129 86.5873 26.9715 89.1079 24.1372 91.0789C22.7979 92.0664 20.7662 92.9263 19.0498 93.2299C18.1962 93.3988 17.429 93.4396 16.8814 93.4436C16.3351 93.4231 16.0083 93.3932 16.0069 93.3525Z" fill="#F2E9DD"/>
<path fill-rule="evenodd" clip-rule="evenodd" d="M20.37 97.1512C20.3369 97.0434 21.3528 96.646 22.5968 95.9753C23.8535 95.3205 25.3124 94.3779 26.355 93.5621C28.516 91.9404 30.0361 90.3949 30.2662 90.5807C30.4814 90.7446 29.2175 92.583 26.9177 94.2837C24.7437 96.0922 20.4181 97.4011 20.37 97.1512Z" fill="#F2E9DD"/>
<path fill-rule="evenodd" clip-rule="evenodd" d="M21.9306 98.5359C21.9573 98.423 25.089 98.0957 26.7483 97.12C28.4963 96.3001 29.7203 95.3348 29.9338 95.5405C30.1373 95.719 29.0875 97.0523 27.1465 97.9437C25.2696 98.9899 21.8762 98.7964 21.9306 98.5359Z" fill="#F2E9DD"/>
<path fill-rule="evenodd" clip-rule="evenodd" d="M159.445 168.706C159.465 168.815 158.229 169.146 156.658 169.694C155.079 170.229 153.173 170.994 151.753 171.661C148.84 172.985 146.602 174.213 146.44 173.971C146.284 173.744 148.329 172.19 151.355 170.837C154.27 169.399 159.416 168.479 159.445 168.706Z" fill="#F2E9DD"/>
<path fill-rule="evenodd" clip-rule="evenodd" d="M156.395 175.007C156.435 175.04 156.139 175.493 155.625 176.226C155.091 176.949 154.318 177.939 153.368 178.995C151.49 181.137 148.872 183.525 146.681 185.124C142.238 188.464 138.034 189.944 137.955 189.712C137.815 189.418 141.702 187.677 146.102 184.412C148.259 182.864 150.931 180.613 152.928 178.613C153.937 177.624 154.78 176.704 155.39 176.045C155.987 175.378 156.362 174.984 156.395 175.007Z" fill="#F2E9DD"/>
<path fill-rule="evenodd" clip-rule="evenodd" d="M155.256 174.381C155.324 174.435 154.557 175.677 153.257 177.086C151.974 178.513 150.15 180.061 148.61 181.044C145.484 183.127 142.509 183.739 142.452 183.492C142.347 183.191 145.04 182.282 148.091 180.293C149.588 179.353 151.444 177.961 152.83 176.685C154.234 175.427 155.179 174.321 155.256 174.381Z" fill="#F2E9DD"/>
<path fill-rule="evenodd" clip-rule="evenodd" d="M155.966 174.767C156.057 174.809 155.365 176.627 154.407 178.994C153.408 181.379 152.194 184.27 151.265 186.482C150.337 188.745 149.17 190.836 147.743 191.818C146.308 192.844 145.129 192.55 145.176 192.457C145.155 192.27 146.168 192.299 147.289 191.306C148.447 190.348 149.458 188.439 150.412 186.153C151.389 183.94 152.74 181.078 153.866 178.776C154.432 177.646 154.934 176.639 155.31 175.896C155.685 175.176 155.928 174.75 155.966 174.767Z" fill="#F2E9DD"/>
<path fill-rule="evenodd" clip-rule="evenodd" d="M156.256 174.845C156.302 174.848 156.365 175.426 156.415 176.385C156.459 177.344 156.498 178.689 156.417 180.219C156.301 183.258 155.409 187.163 153.383 189.49C151.438 191.879 148.712 193.079 146.718 193.142C144.691 193.221 143.616 192.476 143.673 192.4C143.728 192.222 144.813 192.688 146.611 192.464C148.388 192.269 150.812 191.143 152.646 188.946C154.51 186.875 155.541 183.187 155.831 180.196C156.15 177.187 156.149 174.843 156.256 174.845Z" fill="#F2E9DD"/>
<path fill-rule="evenodd" clip-rule="evenodd" d="M152.01 185.911C152.092 185.911 152.151 186.912 151.721 188.139C151.329 189.376 150.422 190.763 149.492 191.595C147.601 193.415 145.383 193.514 145.389 193.254C145.309 192.944 147.153 192.541 148.862 190.933C149.71 190.193 150.644 189.019 151.175 187.926C151.743 186.847 151.912 185.896 152.01 185.911Z" fill="#F2E9DD"/>
<path fill-rule="evenodd" clip-rule="evenodd" d="M118.586 91.738C118.602 91.8179 117.841 91.8941 116.774 92.448C115.696 92.9849 114.455 94.1524 113.416 95.7561C112.353 97.3413 111.438 99.2974 110.415 101.191C109.403 103.107 108.115 104.862 106.841 106.23C104.254 109.053 101.249 110.861 98.9899 111.792C96.7213 112.753 95.2076 112.937 95.1816 112.83C95.0072 112.517 100.988 111.174 106.125 105.658C107.358 104.339 108.637 102.691 109.679 100.846C110.742 99.0028 111.739 97.0441 112.918 95.4499C114.063 93.8375 115.459 92.6608 116.636 92.1868C117.808 91.6936 118.586 91.738 118.586 91.738Z" fill="#F2E9DD"/>
<path fill-rule="evenodd" clip-rule="evenodd" d="M119.773 93.1892C120 93.2631 118.635 97.514 117.348 99.9824C116.096 102.53 114.643 104.274 114.419 104.124C114.166 103.96 115.263 102.087 116.522 99.5884C117.123 98.3943 117.913 96.8243 118.588 95.4791C119.226 94.1748 119.694 93.1603 119.773 93.1892Z" fill="#F2E9DD"/>
<path fill-rule="evenodd" clip-rule="evenodd" d="M120.921 94.2121C121.086 94.3257 120.173 96.1096 119.518 97.1558C118.851 98.2268 118.083 98.9132 117.854 98.7579C117.611 98.5939 118.06 97.7134 118.755 96.6527C119.435 95.6179 120.783 94.1189 120.921 94.2121Z" fill="#F2E9DD"/>
<path fill-rule="evenodd" clip-rule="evenodd" d="M65.4906 60.3038C65.5447 60.3387 65.162 60.8891 64.7939 61.9043C64.4186 62.9188 64.1568 64.4061 63.964 66.1252C63.7614 67.8274 63.5121 69.8386 62.6159 71.623C61.7667 73.4139 60.534 74.9385 59.4207 76.165C57.1072 78.6431 54.9226 80.6546 53.6265 82.3504C52.3175 84.0304 51.7935 85.2545 51.6378 85.1955C51.5257 85.1616 51.8354 83.8316 53.0455 81.996C54.2379 80.1499 56.4154 78.0175 58.7072 75.592C59.8043 74.3957 61.0095 72.9635 61.8623 71.312C62.7595 69.6784 63.0901 67.7846 63.3808 66.0703C63.6663 64.3511 64.0303 62.8156 64.5197 61.8035C64.9986 60.7815 65.4906 60.3038 65.4906 60.3038Z" fill="#F2E9DD"/>
<path fill-rule="evenodd" clip-rule="evenodd" d="M57.9259 69.2394C58.073 69.377 56.8413 71.0524 55.9973 72.0244C55.1397 73.0152 54.2462 73.604 54.0454 73.4142C53.8311 73.2156 54.4324 72.3851 55.319 71.4075C56.184 70.4551 57.805 69.1263 57.9259 69.2394Z" fill="#F2E9DD"/>
<path fill-rule="evenodd" clip-rule="evenodd" d="M61.3719 63.8733C61.607 64.0539 58.0302 68.0852 55.0558 69.7065C52.1396 71.5123 49.42 72.0162 49.3629 71.7697C49.2653 71.4695 51.7261 70.6564 54.5619 68.9389C55.9547 68.1237 57.7014 66.9302 59.0279 65.8341C60.3682 64.757 61.3006 63.8105 61.3719 63.8733Z" fill="#F2E9DD"/>
<path fill-rule="evenodd" clip-rule="evenodd" d="M67.7441 60.865C67.796 60.8663 67.8132 61.5602 67.8091 62.7151C67.7621 63.8653 67.652 65.4748 67.3267 67.2808C66.7362 70.898 65.2303 75.2392 63.547 78.2971C61.8845 81.4572 59.8811 83.9851 58.2839 85.6278C56.6756 87.278 55.5148 88.0895 55.4416 88.0033C55.1778 87.7545 59.4147 84.1615 62.7078 77.9218C64.3734 74.9459 65.9847 70.7408 66.7466 67.1973C67.1558 65.4322 67.3663 63.8438 67.5154 62.7004C67.6207 61.5595 67.7023 60.8633 67.7441 60.865Z" fill="#F2E9DD"/>
<path fill-rule="evenodd" clip-rule="evenodd" d="M65.6156 64.3625C65.8491 64.372 65.757 66.7609 65.2835 68.186C64.8569 69.6451 64.0582 70.6004 63.8236 70.4676C63.5575 70.3329 63.9807 69.2904 64.4119 67.9085C64.8828 66.5874 65.477 64.3589 65.6156 64.3625Z" fill="#F2E9DD"/>
<path fill-rule="evenodd" clip-rule="evenodd" d="M70.8977 66.5398C70.8977 66.5398 71.3923 67.3553 71.7416 68.8802C72.0797 70.4025 72.1169 72.6404 71.5473 75.0554C70.4608 79.9447 67.1562 85.1726 64.9043 89.1862C62.5557 93.2907 60.3812 96.9393 58.7681 99.5387C57.1561 102.141 56.1037 103.698 55.9812 103.627C55.8556 103.557 56.6873 101.913 58.1458 99.258C59.651 96.599 61.7235 92.9437 64.067 88.8068C66.3476 84.7688 69.7319 79.6726 70.9718 74.9565C71.6195 72.6224 71.6814 70.4575 71.4537 68.9458C71.2147 67.4315 70.8313 66.5644 70.8977 66.5398Z" fill="#F2E9DD"/>
<path fill-rule="evenodd" clip-rule="evenodd" d="M60.0714 53.5843C59.9672 53.6641 58.4949 51.7112 56.1549 49.5652C53.8553 47.3802 50.6761 45.0717 48.0454 43.641C42.7321 40.593 37.9354 39.4748 38.0194 39.1553C38.0349 38.9196 42.9565 39.662 48.4475 42.8191C51.1375 44.2896 54.3308 46.7748 56.5466 49.1316C57.6726 50.2896 58.56 51.4056 59.1766 52.217C59.7664 53.0487 60.1062 53.5577 60.0714 53.5843Z" fill="#F2E9DD"/>
<path fill-rule="evenodd" clip-rule="evenodd" d="M62.5835 54.7604C62.5274 54.8498 60.798 53.8229 58.5217 52.5149C56.2472 51.2027 53.41 49.6221 51.2213 48.4394C46.7644 46.0075 43.2348 44.0589 43.3555 43.8013C43.4803 43.5457 47.1219 45.13 51.6253 47.6134C53.8177 48.8153 56.6115 50.5287 58.8112 52.0094C59.9097 52.7416 60.8638 53.4175 61.5411 53.9112C62.2092 54.4083 62.6058 54.7281 62.5835 54.7604Z" fill="#F2E9DD"/>
<path fill-rule="evenodd" clip-rule="evenodd" d="M73.8815 70.7642C73.8823 70.6369 74.8783 70.6485 76.0076 70.1405C77.1499 69.686 78.3486 68.7266 79.0255 67.813C80.5274 65.9963 80.6544 64.0441 80.9579 64.0483C81.2211 63.9713 81.4924 66.2666 79.7518 68.3744C78.9739 69.4043 77.515 70.3744 76.2022 70.693C74.8964 71.0674 73.8639 70.8187 73.8815 70.7642Z" fill="#F2E9DD"/>
<path fill-rule="evenodd" clip-rule="evenodd" d="M70.417 50.1872C70.4063 50.1122 71.6107 49.8715 73.177 50.1625C74.7477 50.4004 76.6013 51.2165 77.8027 52.1611C80.3843 54.0425 81.0668 56.6418 80.8166 56.6797C80.5213 56.827 79.6218 54.6514 77.2664 52.8989C76.168 52.019 74.5168 51.1382 73.0598 50.7346C71.6123 50.2828 70.4185 50.293 70.417 50.1872Z" fill="#F2E9DD"/>
<path fill-rule="evenodd" clip-rule="evenodd" d="M145.545 85.3824C145.44 85.3767 145.459 83.4576 145.533 80.9451C145.645 78.3977 145.78 75.3099 145.883 72.9512C145.969 71.7386 146.053 70.5954 146.127 69.5451C146.188 68.534 146.338 67.4689 146.74 66.7295C147.092 65.9673 147.706 65.4306 148.233 65.3795C148.746 65.3298 148.964 65.5374 148.942 65.5799C148.93 65.7045 147.874 65.4749 147.378 66.97C146.84 68.2852 147.041 70.538 146.801 72.9644C146.651 75.3441 146.376 78.4528 146.12 80.9643C145.981 82.2 145.857 83.2998 145.765 84.1164C145.665 84.909 145.585 85.3882 145.545 85.3824Z" fill="#F2E9DD"/>
<path fill-rule="evenodd" clip-rule="evenodd" d="M147.376 82.4823C147.128 82.4437 148.214 76.247 149.514 72.545C150.742 68.7396 152.326 65.9691 152.56 66.0845C152.841 66.2106 151.641 69.0375 150.392 72.803C149.769 74.6301 148.998 77.0376 148.427 79.0066C147.85 80.9748 147.464 82.4977 147.376 82.4823Z" fill="#F2E9DD"/>
<path fill-rule="evenodd" clip-rule="evenodd" d="M149.474 79.5349C149.269 79.5009 149.334 77.6231 149.477 76.4718C149.622 75.299 150.022 74.4161 150.292 74.46C150.581 74.5074 150.554 75.4339 150.38 76.6108C150.211 77.7578 149.634 79.5611 149.474 79.5349Z" fill="#F2E9DD"/>
<path fill-rule="evenodd" clip-rule="evenodd" d="M141.766 84.4012C141.718 84.4567 140.857 83.681 140.294 82.2904C139.686 80.9299 139.476 79.0205 139.725 77.61C140.134 74.6057 142.217 73.0405 142.339 73.2768C142.585 73.4875 141.026 75.0475 140.629 77.7347C140.387 79.0085 140.439 80.747 140.841 82.0808C141.198 83.4415 141.857 84.3401 141.766 84.4012Z" fill="#F2E9DD"/>
<path fill-rule="evenodd" clip-rule="evenodd" d="M175.251 150.071C175.168 150.078 174.94 148.426 175.087 146.243C175.199 144.063 175.739 141.384 176.443 139.424C177.811 135.358 180.114 132.77 180.299 132.935C180.567 133.12 178.675 135.765 177.316 139.695C176.62 141.586 175.96 144.155 175.669 146.285C175.345 148.409 175.351 150.072 175.251 150.071Z" fill="#F2E9DD"/>
<path fill-rule="evenodd" clip-rule="evenodd" d="M175.865 152.661C175.77 152.608 176.403 151.309 177.126 149.575C177.866 147.842 178.679 145.666 179.226 143.977C180.378 140.539 181.144 137.756 181.433 137.814C181.704 137.861 181.306 140.72 180.104 144.242C179.035 147.727 176.052 152.785 175.865 152.661Z" fill="#F2E9DD"/>
<path fill-rule="evenodd" clip-rule="evenodd" d="M179.435 149.333C179.236 149.297 179.243 147.928 179.35 147.096C179.461 146.248 179.831 145.627 180.105 145.68C180.388 145.732 180.389 146.408 180.25 147.256C180.118 148.084 179.595 149.366 179.435 149.333Z" fill="#F2E9DD"/>
<path fill-rule="evenodd" clip-rule="evenodd" d="M105.117 123.123C105.102 123.008 105.965 122.829 106.971 122.349C107.99 121.896 109.127 121.131 109.884 120.424C111.472 119.033 112.338 117.548 112.614 117.672C112.865 117.757 112.284 119.558 110.496 121.104C109.659 121.871 108.326 122.588 107.18 122.893C106.035 123.232 105.121 123.19 105.117 123.123Z" fill="#F2E9DD"/>
<path fill-rule="evenodd" clip-rule="evenodd" d="M108.042 120.006C108.061 119.899 110.421 119.13 111.413 117.994C112.514 116.992 113.144 115.951 113.419 116.055C113.68 116.13 113.336 117.507 112.027 118.669C111.417 119.245 110.419 119.763 109.565 119.949C108.712 120.166 108.044 120.077 108.042 120.006Z" fill="#F2E9DD"/>
<path fill-rule="evenodd" clip-rule="evenodd" d="M108.959 117.012C108.941 116.882 112.027 115.624 113.579 114.296C115.234 113.068 116.415 111.903 116.65 112.083C116.87 112.242 115.932 113.719 114.128 115.027C112.423 116.435 108.989 117.252 108.959 117.012Z" fill="#F2E9DD"/>
</svg>
