<svg width="117" height="122" viewBox="0 0 117 122" fill="none" xmlns="http://www.w3.org/2000/svg">
<path fill-rule="evenodd" clip-rule="evenodd" d="M10.7252 55.3711C10.7366 53.8466 10.3937 53.5671 10.2046 55.2133C10.0153 56.8887 10.0458 58.8675 10.4095 60.5387C11.0328 63.3763 12.5583 64.7613 15.5891 64.8144C22.5928 64.9353 24.236 54.6647 25.0384 49.673C25.1839 48.7804 24.2557 48.5258 24.0808 49.4473C23.2388 53.883 22.7642 60.2831 18.1899 62.7236C16.9637 63.3779 15.1101 63.3519 13.8181 62.805C11.7858 61.9455 11.4119 60.1548 11.2653 58.2017C11.1334 56.462 11.4749 54.7069 11.2112 52.9693C11.1772 52.7363 11.0041 52.6448 10.8137 52.7876C9.94293 53.4494 10.4271 54.4358 10.4633 55.4148C10.4737 55.6636 10.7218 55.5798 10.7252 55.3711Z" fill="#F2E9DD"/>
<path fill-rule="evenodd" clip-rule="evenodd" d="M13.4095 50.788C13.3146 50.7511 13.218 50.7112 13.1208 50.6737C13.0549 50.9634 12.9867 51.2526 12.9179 51.544C15.1835 52.0966 17.2208 51.1302 19.2807 50.2819C21.4823 49.3755 22.4091 48.7503 23.3976 46.5478C23.4549 46.4215 23.3831 46.0909 23.2015 46.2652C22.5375 46.9079 22.1237 47.8036 21.3277 48.3096C20.6852 48.7216 19.8388 48.9269 19.1381 49.2263C17.1443 50.0725 15.329 50.7849 13.1208 50.6737C12.6861 50.6527 12.5327 51.5384 12.9978 51.5454C13.0976 51.5446 13.1986 51.5491 13.3008 51.549C13.6175 51.5561 13.688 50.8948 13.4095 50.788Z" fill="#F2E9DD"/>
<path fill-rule="evenodd" clip-rule="evenodd" d="M21.8619 49.3673C26.1551 46.3175 28.6196 43.2117 30.5787 38.4002C33.3996 31.4799 36.7709 24.7617 39.4684 17.8019C41.3345 12.9831 41.9072 4.74495 36.187 3.05169C29.0321 0.930208 26.3987 7.02979 24.4956 12.2043C20.1648 23.9949 13.9629 36.2082 14.0686 49.1596C14.0766 50.3676 15.2628 49.9319 15.302 48.953C15.6856 39.7811 18.8371 27.3756 22.329 18.9471C24.3017 14.1952 27.7811 3.17862 34.1939 3.79322C41.8632 4.53129 37.8465 18.2018 36.0215 22.1738C31.8631 31.2176 29.0112 41.8425 21.7062 48.7249C21.5349 48.8873 21.5426 49.5933 21.8619 49.3673Z" fill="#F2E9DD"/>
<path fill-rule="evenodd" clip-rule="evenodd" d="M26.1199 9.43944C26.9675 5.96022 24.9973 2.04982 21.1547 1.17564C15.6245 -0.0806875 10.7695 8.13813 9.38693 12.2134C7.19832 18.6678 10.7147 25.7373 9.98105 32.7105C9.61388 36.2031 8.33909 40.2845 9.78198 43.7089C10.8632 46.2739 13.8213 48.0305 14.2501 50.8587C14.4338 52.0736 15.6214 51.0365 15.4971 50.1806C15.1658 47.8918 14.1973 47.7267 13.4491 45.8236C11.1623 40.0058 10.6902 38.321 11.3425 32.8516C11.5606 31.001 11.8079 29.197 11.77 27.321C11.6901 23.6313 9.37474 18.9754 10.0323 15.3857C9.90199 16.0898 12.3877 10.3975 13.1643 9.63066C13.2074 9.54934 13.2522 9.4709 13.2941 9.39415C14.6328 4.63017 18.68 4.63689 25.434 9.42116C25.3824 10.0192 25.9992 9.93901 26.1199 9.43944Z" fill="#F2E9DD"/>
<path fill-rule="evenodd" clip-rule="evenodd" d="M9.57316 8.08889C9.70349 8.01816 9.83323 7.94972 9.96356 7.87899C10.3184 7.68417 10.5409 6.79461 10.0305 6.65402C3.30096 4.77517 0.240632 18.6199 0.901503 22.8414C1.55884 27.0205 5.04036 31.038 6.68502 34.9097C8.60192 39.4153 8.46337 45.7765 10.5225 50.1657C11.5523 52.3688 10.243 51.5714 12.3728 52.7097C13.0606 53.0745 13.5714 51.6024 12.9944 51.2788C9.63408 49.405 11.3064 42.0874 10.2547 38.7944C9.57904 36.6788 8.08144 34.7213 7.09111 32.7769C6.11868 30.8664 4.73499 28.51 3.99747 26.4635C0.960445 18.0331 4.09452 13.5552 9.27718 7.27589C9.08983 7.49982 9.11384 8.33926 9.57316 8.08889Z" fill="#F2E9DD"/>
<path fill-rule="evenodd" clip-rule="evenodd" d="M23.4799 7.27412C23.4969 7.28345 23.4134 7.51014 23.2498 7.91324C23.0786 8.32655 22.8343 8.90834 22.5319 9.63819C21.9321 11.1065 21.0943 13.151 20.24 15.5102C18.4967 20.2124 16.7308 26.1658 15.6863 30.7995C14.5792 35.5241 13.8415 39.8116 13.3747 42.9127C12.9057 46.0133 12.6726 47.9306 12.5562 47.9198C12.5038 47.9158 12.5061 47.4413 12.5514 46.5785C12.5886 45.7186 12.7032 44.4695 12.8718 42.9203C13.2216 39.8202 13.8881 35.5166 15.014 30.7385C16.0691 26.0734 17.9444 20.0926 19.8262 15.3998C20.7479 13.0435 21.6603 11.0112 22.3278 9.56298C22.6791 8.85077 22.9559 8.27502 23.1526 7.87568C23.3503 7.4815 23.4668 7.26829 23.4799 7.27412Z" fill="#F2E9DD"/>
<path fill-rule="evenodd" clip-rule="evenodd" d="M21.1052 3.89831C21.1833 3.95297 20.0782 5.49398 18.9994 7.70695C17.8837 9.90298 16.8481 12.7704 16.3276 15.0341C15.1686 19.6501 15.2591 23.4668 15.0211 23.4656C14.8484 23.4936 14.4691 19.6745 15.669 14.9206C16.2055 12.605 17.3609 9.69825 18.6109 7.52757C19.2198 6.43436 19.8427 5.52021 20.3017 4.87997C20.7817 4.25251 21.0802 3.8822 21.1052 3.89831Z" fill="#F2E9DD"/>
<path fill-rule="evenodd" clip-rule="evenodd" d="M8.6028 9.98931C8.64357 10.0194 8.32063 10.4833 7.92577 11.3157C7.52923 12.1452 7.10502 13.3694 6.90282 14.8051C6.43259 17.6959 7.13038 21.3009 8.23608 23.8187C9.3038 26.4167 10.6249 28.5936 11.5467 30.1766C12.4839 31.7563 13.0383 32.744 12.952 32.8043C12.8669 32.86 12.1823 31.9894 11.1507 30.4825C10.1351 28.97 8.74073 26.8129 7.63406 24.1219C6.50059 21.5335 5.85915 17.7313 6.47349 14.7637C6.75095 13.2819 7.25695 12.0424 7.731 11.2234C8.20277 10.4038 8.6028 9.98931 8.6028 9.98931Z" fill="#F2E9DD"/>
<path fill-rule="evenodd" clip-rule="evenodd" d="M34.7403 5.64141C34.799 5.70545 34.1723 6.33601 33.5648 7.30291C32.9392 8.25533 32.3664 9.54555 32.0927 10.5752C31.4662 12.6675 31.543 14.4319 31.3184 14.4536C31.1341 14.4981 30.7637 12.6571 31.4451 10.4013C31.7458 9.30554 32.4508 7.97433 33.213 7.05758C33.9577 6.12407 34.711 5.60453 34.7403 5.64141Z" fill="#F2E9DD"/>
<path fill-rule="evenodd" clip-rule="evenodd" d="M36.3181 6.93514C36.444 7.01186 35.3289 9.14958 34.5712 10.4403C33.7944 11.7576 33.0041 12.6889 32.8329 12.5809C32.6503 12.4699 33.1989 11.4121 33.9962 10.1001C34.7709 8.81873 36.2161 6.86953 36.3181 6.93514Z" fill="#F2E9DD"/>
<path fill-rule="evenodd" clip-rule="evenodd" d="M18.6622 49.1118C18.6293 49.0983 18.7826 48.6413 19.0567 47.8992C19.3212 47.1375 19.6846 46.0996 20.0922 44.9295C20.8913 42.5582 21.7249 39.5796 22.2403 37.2707C23.3358 32.5626 23.8319 28.7529 24.0526 28.7739C24.2443 28.785 24.0318 32.5884 22.9006 37.3773C22.3713 39.7119 21.4342 42.7048 20.5024 45.0536C20.0439 46.2324 19.5934 47.25 19.2585 47.9738C18.9122 48.6946 18.6907 49.124 18.6622 49.1118Z" fill="#F2E9DD"/>
<path fill-rule="evenodd" clip-rule="evenodd" d="M21.3012 46.7825C21.2309 46.7447 21.705 45.7576 22.2171 44.4296C22.7457 43.1035 23.2974 41.4375 23.6391 40.1381C24.3749 37.4969 24.7658 35.3479 24.9813 35.3701C25.1786 35.3875 25.0635 37.5793 24.291 40.2961C23.6356 42.9923 21.4508 46.8801 21.3012 46.7825Z" fill="#F2E9DD"/>
<path fill-rule="evenodd" clip-rule="evenodd" d="M15.765 53.7098C15.8081 53.7869 14.8348 54.1247 14.1705 55.1694C13.4576 56.1672 13.3062 57.7623 13.8712 58.7187C14.3803 59.7213 15.2588 60.3429 15.932 60.6332C16.6126 60.9327 17.106 60.9616 17.1076 61.0765C17.1232 61.1659 16.6094 61.3265 15.7904 61.1102C14.9873 60.9078 13.8956 60.255 13.2804 59.0346C12.5901 57.8507 12.9123 55.9274 13.8187 54.924C14.6849 53.842 15.7804 53.6603 15.765 53.7098Z" fill="#F2E9DD"/>
<path fill-rule="evenodd" clip-rule="evenodd" d="M18.9536 51.3046C19.0285 51.3437 18.6286 52.2235 18.2668 53.4226C17.8869 54.617 17.5674 56.1293 17.4372 57.2988C17.1266 59.6806 17.2279 61.6024 17.0119 61.6288C16.8186 61.6612 16.4331 59.7286 16.7713 57.2321C16.9157 56.0176 17.3474 54.4664 17.8619 53.2877C18.36 52.0973 18.9088 51.2808 18.9536 51.3046Z" fill="#F2E9DD"/>
<path fill-rule="evenodd" clip-rule="evenodd" d="M20.0265 52.9417C20.168 52.9957 19.7756 54.4987 19.4581 55.4073C19.1359 56.3342 18.687 56.9917 18.4972 56.9177C18.2982 56.8414 18.4901 56.0973 18.8311 55.1729C19.1656 54.2736 19.9134 52.9 20.0265 52.9417Z" fill="#F2E9DD"/>
<path fill-rule="evenodd" clip-rule="evenodd" d="M16.1093 48.3746C15.9636 48.3366 17.0967 43.3728 17.873 40.3061C18.6661 37.1756 19.4966 34.7492 19.6923 34.8004C19.8989 34.8567 19.345 37.3042 18.5261 40.4499C17.7293 43.5111 16.2231 48.4043 16.1093 48.3746Z" fill="#F2E9DD"/>
<path fill-rule="evenodd" clip-rule="evenodd" d="M36.032 16.7488C36.066 16.7772 35.7252 17.2534 35.1777 18.0557C34.6314 18.8534 33.8807 19.9778 33.0953 21.2905C31.5031 23.9053 29.86 27.3206 28.8477 30.0333C27.7946 32.7816 27.1179 35.3919 26.1904 37.1279C25.297 38.8825 24.3613 39.6906 24.3066 39.6301C24.2088 39.5485 24.9693 38.6752 25.722 36.9568C26.5144 35.2538 27.1189 32.6685 28.2036 29.8456C29.2374 27.0971 30.9949 23.663 32.7186 21.0849C33.5699 19.7895 34.3905 18.6955 35.0027 17.9345C35.6108 17.1699 36.032 16.7488 36.032 16.7488Z" fill="#F2E9DD"/>
<path fill-rule="evenodd" clip-rule="evenodd" d="M72.7941 77.5996C73.6754 76.9216 74.3433 76.0297 75.1853 75.3193C76.1716 74.4886 77.6034 74.1148 78.8642 74.0993C81.0168 74.0714 83.1321 75.3234 83.4472 77.5558C83.5984 78.6273 85.2666 77.5634 85.137 76.7436C84.7081 73.9999 82.2685 72.416 79.5552 72.4709C76.2812 72.539 73.9256 74.3845 72.3346 77.1636C72.1151 77.55 72.3961 77.9012 72.7941 77.5996Z" fill="#F2E9DD"/>
<path fill-rule="evenodd" clip-rule="evenodd" d="M73.6503 75.5373C71.19 77.8286 68.1119 82.3444 70.8827 85.4346C72.373 87.0952 74.838 87.3735 76.9418 86.8855C78.5219 86.5174 80.9792 85.5229 81.3783 83.7693C81.4361 83.517 81.2314 83.3014 80.9736 83.3811C79.6224 83.7974 78.7019 84.9414 77.2461 85.2947C75.3444 85.7552 73.1057 85.4354 71.9259 83.7688C70.0764 81.1453 72.8531 78.1047 74.3615 75.9781C74.8007 75.3554 74.0995 75.1197 73.6503 75.5373Z" fill="#F2E9DD"/>
<path fill-rule="evenodd" clip-rule="evenodd" d="M86.0496 78.5367C86.9751 76.9133 96.5203 84.0181 97.299 84.7671C99.4816 86.8636 100.853 89.5134 102.714 91.8556C106.94 97.1914 117.219 102.871 110.749 110.891C110.251 111.507 110.811 112.1 111.367 111.479C116.828 105.361 116.862 102.527 111.009 97.6169C102.164 90.1959 98.6936 79.7735 86.4544 76.733C85.8901 76.5927 85.1351 77.237 85.2083 77.8331C85.2418 78.0966 85.2736 78.3585 85.3071 78.6221C85.358 79.0494 85.9161 78.7723 86.0496 78.5367Z" fill="#F2E9DD"/>
<path fill-rule="evenodd" clip-rule="evenodd" d="M81.9984 79.5992C83.7799 82.7992 80.364 86.1227 82.623 89.3447C83.4898 90.5827 85.9174 91.1545 87.1475 91.7739C91.2189 93.8291 94.1448 95.5867 96.6251 99.4208C100.712 105.739 101.289 113.702 110.509 112.845C111.044 112.796 111.825 111.607 111.03 111.618C101.457 111.762 101.186 100.862 95.9655 95.289C94.3124 93.5279 92.3693 92.4728 90.5793 90.944C89.8819 90.503 89.1035 90.2283 88.2458 90.1214C84.62 87.9971 83.1501 85.3636 83.8359 82.2211C82.8441 80.377 84.775 80.2733 82.5929 78.9753C82.3307 78.817 81.8579 79.3469 81.9984 79.5992Z" fill="#F2E9DD"/>
<path fill-rule="evenodd" clip-rule="evenodd" d="M77.0397 86.4296C77.1627 89.7449 77.9853 91.7748 78.8794 94.8976C79.9683 98.7068 79.3584 102.856 80.7502 106.554C83.1597 112.934 90.3191 115.561 96.0426 118.118C103.473 121.441 108.744 119.305 111.664 111.201C112.022 110.208 110.709 110.464 110.45 111.17C108.247 117.2 104.478 119.222 99.0493 117.04C95.0269 115.421 91.7677 114.385 88.0142 111.77C82.3788 107.841 82.7008 103.341 81.4052 97.3207C80.5575 93.3766 78.534 90.0596 78.1021 85.919C78.0282 85.2281 77.019 85.9313 77.0397 86.4296Z" fill="#F2E9DD"/>
<path fill-rule="evenodd" clip-rule="evenodd" d="M84.7848 80.2906C84.7848 80.2906 85.7068 80.3573 87.1438 80.8181C88.5861 81.2737 90.5082 82.1927 92.4618 83.5719C96.3758 86.3406 100.437 90.6016 103.741 93.6409C107.065 96.8076 110.003 99.6861 112.094 101.792C114.183 103.896 115.427 105.229 115.354 105.306C115.277 105.386 113.937 104.21 111.781 102.214C109.638 100.184 106.672 97.3799 103.323 94.2082C100.017 91.1569 96.0107 86.8006 92.232 83.9549C90.3426 82.5355 88.4831 81.5573 87.0795 81.0324C85.6794 80.5006 84.774 80.339 84.7848 80.2906Z" fill="#F2E9DD"/>
<path fill-rule="evenodd" clip-rule="evenodd" d="M86.6177 83.3989C86.639 83.3366 87.6918 83.6005 88.9791 84.1936C90.2736 84.766 91.7819 85.6815 92.8304 86.5265C95.0187 88.2246 96.1614 90.1433 96.0017 90.2516C95.8104 90.4014 94.5184 88.7512 92.409 87.0836C91.3983 86.2589 89.9924 85.2787 88.7819 84.5919C87.5784 83.8912 86.5911 83.4664 86.6177 83.3989Z" fill="#F2E9DD"/>
<path fill-rule="evenodd" clip-rule="evenodd" d="M83.3721 82.8749C83.475 82.7586 85.7455 84.5146 87.1048 85.6641C88.4897 86.8393 89.4425 87.937 89.3012 88.0951C89.1564 88.2601 88.0338 87.4001 86.6544 86.199C85.3074 85.0338 83.29 82.9705 83.3721 82.8749Z" fill="#F2E9DD"/>
<path fill-rule="evenodd" clip-rule="evenodd" d="M79.8848 85.7609C79.8848 85.7609 80.7999 86.1622 82.0375 87.2351C83.289 88.2941 84.728 90.081 86.2173 92.1763C87.7189 94.2456 89.388 96.6325 91.6861 98.2245C92.8091 99.0328 94.1125 99.5826 95.3231 100.252C96.5462 100.892 97.6446 101.756 98.4557 102.708C100.166 104.631 101.129 106.865 102.058 108.785C102.959 110.727 103.788 112.446 104.698 113.741C106.493 116.398 108.545 116.99 108.448 117.137C108.434 117.179 107.958 117.05 107.148 116.653C106.361 116.223 105.302 115.409 104.322 114.11C103.329 112.823 102.44 111.098 101.513 109.173C100.568 107.268 99.5971 105.089 97.9967 103.241C97.2317 102.328 96.2447 101.535 95.0684 100.882C93.9008 100.214 92.5787 99.6382 91.389 98.777C88.9765 97.0705 87.3308 94.585 85.8779 92.474C84.4375 90.33 83.0798 88.5165 81.896 87.4104C80.7244 86.2921 79.8533 85.806 79.8848 85.7609Z" fill="#F2E9DD"/>
<path fill-rule="evenodd" clip-rule="evenodd" d="M80.7194 88.1102C80.7695 88.1012 80.9196 88.7605 81.2935 89.8111C81.6691 90.8566 82.3133 92.2758 83.2692 93.7425C85.1392 96.7245 88.4118 99.6485 91.2167 101.428C94.0501 103.291 96.7954 104.659 98.7528 105.676C100.722 106.681 101.921 107.328 101.874 107.427C101.828 107.524 100.58 107.054 98.5719 106.164C96.5685 105.264 93.7846 103.956 90.8793 102.044C88.0282 100.233 84.7107 97.1384 82.9078 94.0075C81.9854 92.4664 81.3953 90.983 81.0857 89.8921C80.7778 88.7996 80.7194 88.1102 80.7194 88.1102Z" fill="#F2E9DD"/>
<path fill-rule="evenodd" clip-rule="evenodd" d="M75.1957 77.6855C75.1338 77.6722 75.1373 77.3238 75.4339 76.9903C75.7099 76.65 76.2384 76.4026 76.6629 76.3853C77.607 76.3034 78.0334 77.1105 77.8221 77.1984C77.6412 77.3448 77.2875 77.0252 76.6782 77.0767C76.3919 77.0825 76.003 77.1598 75.7203 77.3225C75.4238 77.4715 75.261 77.7091 75.1957 77.6855Z" fill="#F2E9DD"/>
<path fill-rule="evenodd" clip-rule="evenodd" d="M79.9268 86.6918C79.9854 86.6948 79.7443 87.6763 79.9089 89.2805C80.0633 90.8745 80.7584 93.0555 82.1858 95.1375C85.0418 99.3376 90.5185 102.763 93.88 106.267C97.4544 109.703 100.275 113.153 102.159 115.735C103.107 117.025 103.813 118.106 104.288 118.861C104.751 119.621 104.983 120.056 104.94 120.082C104.839 120.155 103.743 118.579 101.79 116.11C99.8423 113.639 97.0139 110.279 93.462 106.834C91.7409 105.145 89.6626 103.309 87.505 101.475C85.3612 99.6368 83.2451 97.6208 81.8396 95.4248C80.4185 93.2411 79.7727 90.9631 79.6878 89.3168C79.5944 87.6586 79.9268 86.6918 79.9268 86.6918Z" fill="#F2E9DD"/>
<path fill-rule="evenodd" clip-rule="evenodd" d="M78.7425 73.8727C78.8074 73.9308 78.5958 74.224 78.6071 74.6326C78.5927 75.0294 78.7759 75.4952 78.9938 75.7694C79.3946 76.3801 79.9608 76.4944 79.9948 76.7132C80.0838 76.9418 79.0181 77.104 78.4155 76.1656C78.1196 75.761 77.9921 75.0688 78.1715 74.5586C78.3287 74.033 78.7205 73.8263 78.7425 73.8727Z" fill="#F2E9DD"/>
<path fill-rule="evenodd" clip-rule="evenodd" d="M77.0414 79.1795C77.0297 78.9761 78.5466 79.0499 79.3131 79.6438C80.1251 80.1718 80.3498 80.9684 80.1643 81.0579C79.9682 81.1819 79.5803 80.6677 78.9106 80.2128C78.3053 79.7072 77.0526 79.2639 77.0414 79.1795Z" fill="#F2E9DD"/>
<path fill-rule="evenodd" clip-rule="evenodd" d="M83.9375 97.7325C84.0626 97.6418 85.1525 98.828 85.7618 99.6129C86.3866 100.413 86.7029 101.18 86.5327 101.305C86.3554 101.434 85.8147 100.854 85.204 100.033C84.6085 99.2377 83.8368 97.8058 83.9375 97.7325Z" fill="#F2E9DD"/>
</svg>
