<svg width="148" height="290" viewBox="0 0 148 290" fill="none" xmlns="http://www.w3.org/2000/svg">
<path fill-rule="evenodd" clip-rule="evenodd" d="M39.8449 2.59213C42.3266 23.937 43.4715 45.9874 48.0173 67.0154C53.6002 92.8592 55.5886 119.219 62.9256 144.643C66.8587 158.281 71.9071 171.262 78.8748 183.752C85.3405 195.345 92.8834 206.103 98.859 218.021C104.199 228.675 105.099 237.062 107.428 248.548C109.311 257.857 115.453 263.817 116.114 273.858C116.183 274.906 114.974 274.748 114.885 273.802C113.926 263.511 106.552 256.59 105.425 246.17C103.748 230.692 97.5779 215.959 89.0563 202.82C75.9873 182.667 66.9442 162.276 59.6208 139.498C55.7192 127.36 54.291 114.468 52.9057 101.836C51.622 90.1196 49.046 78.7556 46.7473 67.2193C42.4951 45.8949 41.386 24.2351 39.28 2.68372C39.2295 2.15651 39.7814 2.05156 39.8449 2.59213Z" fill="#F2E9DD"/>
<path fill-rule="evenodd" clip-rule="evenodd" d="M42.8876 4.00587C48.9988 24.7831 48.7767 46.1611 52.7071 67.4741C54.5494 77.4538 57.3758 87.7087 58.1426 97.8667C59.2502 112.507 64.097 124.273 67.2313 138.224C70.2181 151.521 71.3483 162.735 79.5869 174.32C84.8197 181.68 89.5275 189.784 93.0632 198.182C98.0558 210.042 103.138 221.722 106.882 234.03C110.188 244.906 110.667 254.67 112.275 265.929C112.444 267.124 111.196 267.334 111 266.132C109.077 254.418 108.426 242.455 104.596 231.113C100.353 218.543 95.4111 205.29 89.1992 193.54C84.4412 184.543 78.0685 176.576 73.3554 167.695C67.1825 156.056 68.3021 144.891 64.3143 132.81C61.1649 123.272 57.5256 115.178 56.8728 105.112C56.1467 93.9151 54.1408 83.0952 52.1765 71.9914C50.1992 60.8031 47.9356 50.3466 47.3497 38.9872C46.7321 26.9761 45.2174 15.9363 42.344 4.21187C42.239 3.78682 42.745 3.51941 42.8876 4.00587Z" fill="#F2E9DD"/>
<path fill-rule="evenodd" clip-rule="evenodd" d="M67.1838 165.112C76.6178 179.342 84.7853 187.928 76.3486 204.466C73.8402 209.384 72.3364 213.388 71.1079 218.721C70.7874 220.116 71.3634 221.611 70.664 223.027C68.3445 227.734 61.6602 228.053 57.1698 227.454C42.7591 225.539 38.9391 212.328 40.3279 199.476C41.1013 192.31 44.4119 188.935 49.3993 183.788C51.263 181.867 67.2077 165.863 65.7115 164.083C65.0856 163.336 65.5893 161.162 66.5302 162.251C68.9366 165.024 68.8098 166.715 67.0731 169.646C65.8728 171.668 61.764 173.113 59.8368 175.059C58.0868 176.83 56.8085 178.827 55.2429 180.717C49.0779 188.162 42.2313 191.535 41.8029 202.725C41.3805 213.735 49.4264 228.606 62.2585 225.117C69.3639 223.182 68.6846 215.772 70.7836 210.327C72.6359 205.518 76.6165 201.416 78.0765 196.455C81.6146 184.439 72.2277 175.227 66.6031 165.825C66.3208 165.348 66.7404 164.445 67.1838 165.112Z" fill="#F2E9DD"/>
<path fill-rule="evenodd" clip-rule="evenodd" d="M67.9105 165.427C69.7646 173.773 70.0117 181.44 64.3487 188.271C60.9474 192.373 59.0535 194.061 58.22 199.531C57.8099 202.224 56.2115 211.174 58.0281 213.523C58.2522 213.813 58.1145 214.696 57.6982 214.26C54.0888 210.468 55.9236 200.772 57.1845 195.925C57.9199 193.106 59.3078 191.304 61.0751 189.146C63.4935 186.188 66.5337 183.121 67.5303 179.251C68.6521 174.898 67.7035 169.866 67.4028 165.403C67.3705 164.946 67.8318 165.073 67.9105 165.427Z" fill="#F2E9DD"/>
<path fill-rule="evenodd" clip-rule="evenodd" d="M63.869 147.357C72.9965 151.41 76.2094 162.392 84.006 167.833C90.4154 172.308 101.927 174.306 109.106 170.405C115.453 166.956 119.739 157.347 114.177 150.937C108.063 143.888 101.054 149.624 94.7118 151.15C89.9195 152.302 83.2521 152.641 78.2932 152.074C73.8602 151.573 67.5748 149.958 66.8821 144.836C66.7019 143.497 68.0387 143.286 68.3026 144.61C69.8537 152.326 89.6017 149.951 94.3213 148.719C100.436 147.125 103.92 143.567 110.371 146.185C117.87 149.229 120.906 155.387 117.986 163.269C113.787 174.606 100.017 176.738 89.6803 173.375C77.1607 169.305 73.4368 155.863 63.6807 148.25C63.3925 148.024 63.3464 147.125 63.869 147.357Z" fill="#F2E9DD"/>
<path fill-rule="evenodd" clip-rule="evenodd" d="M55.8865 101.97C57.7358 101.88 58.9362 102.601 60.7105 103.053C64.8944 104.119 69.3769 103.94 73.6233 103.166C79.7198 102.052 84.1534 101.793 89.7339 105.119C94.1395 107.748 97.4444 111.522 99.91 115.987C101.032 118.022 102.364 120.119 103.462 121.927C104.462 123.575 104.228 121.591 105.041 124.212C105.156 124.578 105.232 125.384 104.769 125.583C104.422 125.734 104.075 125.883 103.725 126.034C103.228 126.248 102.948 125.392 103.156 125.043C102.572 126.033 100.056 120.76 99.8259 120.382C95.823 113.846 93.1897 107.558 84.9258 105.111C79.3043 103.444 74.0562 105.756 68.3947 105.795C63.5183 105.829 60.5478 103.844 55.9576 103.004C55.588 102.933 55.45 101.99 55.8865 101.97Z" fill="#F2E9DD"/>
<path fill-rule="evenodd" clip-rule="evenodd" d="M60.4664 121.993C68.2382 118.337 72.038 125.813 79.3947 127.976C84.1982 129.387 90.2304 129.75 95.2394 129.781C97.6954 129.797 101.535 130.082 103.582 128.313C107.909 124.568 104.918 123.11 105.002 119.872C105.256 110.33 100.984 103.799 92.6437 99.9615C86.0051 96.9076 82.5053 99.7159 76.2055 101.599C69.4803 103.606 63.7621 105.461 57.3178 102.579C56.7123 102.309 56.6974 100.518 57.5168 100.782C69.5482 104.651 79.1359 93.2467 90.5071 96.7068C98.8562 99.2464 105.435 106.541 106.64 115.063C107.91 124.036 109.044 131.143 98.2869 132.096C92.7123 132.591 85.836 131.69 80.4809 130.442C75.553 129.293 64.7642 121.299 60.7901 122.919C60.3393 123.103 60.0879 122.171 60.4664 121.993Z" fill="#F2E9DD"/>
<path fill-rule="evenodd" clip-rule="evenodd" d="M57.8148 107.168C57.4689 112.2 70.1476 113.864 72.9494 114.02C77.9461 114.296 82.6451 115.087 87.4201 116.627C87.6879 116.714 87.8263 117.362 87.4757 117.421C84.0018 118.037 80.0176 116.069 76.4985 115.719C72.0385 115.27 68.2054 115.418 63.9666 113.589C61.5366 112.54 56.4788 110.338 57.2268 106.908C57.3416 106.382 57.8416 106.789 57.8148 107.168Z" fill="#F2E9DD"/>
<path fill-rule="evenodd" clip-rule="evenodd" d="M53.2995 113.194C54.7825 122.975 55.2622 137.395 46.9067 144.659C40.9817 149.809 31.6932 150.005 24.4576 151.775C18.4884 153.237 12.5109 156.449 6.68719 153.013C-1.31166 148.291 -0.13205 138.001 5.29803 131.765C10.5145 125.777 18.715 123.712 25.4008 119.882C27.9779 118.402 30.4384 116.533 33.2558 115.53C37.8011 113.908 50.6313 116.643 52.1937 109.704C52.5285 108.216 53.8731 109.616 53.6666 110.651C52.2552 117.754 47.1552 116.143 41.2679 116.732C34.4463 117.413 29.3925 120.349 23.5512 123.434C19.0131 125.829 11.938 127.701 8.7605 131.739C4.34933 134.211 4.74395 137.923 9.94183 142.875C9.32431 150.259 11.0847 153.181 15.2337 151.641C17.7783 151.796 21.6982 149.699 24.029 149.096C29.0254 147.801 34.4799 147.747 39.2067 145.521C51.9393 139.531 53.3413 125.846 52.5695 113.159C52.5305 112.524 53.2193 112.649 53.2995 113.194Z" fill="#F2E9DD"/>
<path fill-rule="evenodd" clip-rule="evenodd" d="M54.7972 115.137C51.9679 121.109 48.509 125.395 43.5115 129.752C41.1378 131.82 38.6494 133.439 35.9598 135.047C33.6061 136.46 29.1671 138.782 27.343 140.803C26.7601 141.448 26.4246 140.119 26.5599 139.718C27.2266 137.758 27.5547 138.284 29.2778 137.159C32.1722 135.271 34.9237 133.261 37.8543 131.398C44.6207 127.097 50.4314 121.543 54.1551 114.43C54.4762 113.815 54.999 114.713 54.7972 115.137Z" fill="#F2E9DD"/>
<path fill-rule="evenodd" clip-rule="evenodd" d="M87.3616 203.776C88.767 212.303 90.1197 218.412 87.2027 226.781C82.6313 239.896 72.5502 250.208 77.572 265.745C81.7451 278.67 93.3516 272.147 95.6246 260.799C96.6629 255.628 94.1504 249.526 95.3671 244.355C95.8328 242.386 97.1796 242.031 97.9525 240.446C101.442 233.271 102.698 229.245 99.9362 220.385C98.0692 214.4 95.5309 209.134 89.789 205.588C89.052 205.133 89.1638 203.05 90.1984 203.626C100.214 209.229 107.418 226.955 102.417 237.851C101.093 240.732 99.1985 242.445 98.1194 245.531C96.0984 251.311 97.8093 257.288 97.2485 263.268C96.73 268.769 94.6485 272.498 89.346 275.025C77.7228 280.568 76.1259 270.979 75.5561 261.742C75.0683 253.853 74.8066 245.119 78.39 237.842C80.5854 233.384 83.9627 230.241 85.6628 225.359C88.1925 218.096 86.993 211.146 86.4841 203.736C86.4282 202.968 87.2546 203.128 87.3616 203.776Z" fill="#F2E9DD"/>
<path fill-rule="evenodd" clip-rule="evenodd" d="M90.1941 200.292C96.2488 207.279 103.89 221.609 113.317 223.799C116.873 224.629 121.401 223.237 125.11 223.315C127.449 223.362 129.931 224.212 132.26 224.02C133.913 224.102 135.522 223.717 137.081 222.868C145.843 222.348 147.298 216.189 141.454 204.387C132.331 198.451 123.604 206.523 114.754 207.317C106.834 208.028 100.357 204.655 93.0296 203.372C92.1329 203.215 92.008 201.071 93.0735 201.221C100.169 202.215 108.005 207.117 115.584 204.97C117.487 204.43 121.308 200.699 123.792 200.031C127.26 199.102 130.483 199.732 134.003 200.203C143.554 201.478 149.037 206.737 146.218 216.795C145.159 220.584 142.93 225.437 139.123 227.14C134.984 228.991 123.989 226.045 119.355 226.128C104.403 226.394 98.0427 212.007 89.7694 201.239C89.4788 200.859 89.6968 199.716 90.1941 200.292Z" fill="#F2E9DD"/>
<path fill-rule="evenodd" clip-rule="evenodd" d="M102.977 223.483C106.507 225.943 107.776 230.256 109.343 234.145C112.744 242.567 117.836 246.481 126.703 247.018C129.668 247.197 132.532 247.363 135.352 246.243C139.106 244.75 138.461 244.662 138.971 240.135C139.631 234.35 139.32 235.728 135.385 233.288C132.901 231.75 130.588 229.059 127.571 228.564C126.855 228.446 126.612 226.611 127.432 226.593C131.128 226.515 134.064 229.995 137.103 231.799C139.538 233.239 142.305 234.296 143.423 237.148C145.539 242.555 141.302 246.376 136.935 248.083C130.464 250.613 121.34 250.169 115.302 246.06C112.699 244.286 111.042 241.952 109.688 239.141C107.098 233.767 104.697 228.209 102.219 222.774C101.984 222.255 102.485 221.494 102.925 222.144C103.055 222.335 103.185 222.529 103.315 222.724C103.467 222.945 103.392 223.772 102.977 223.483Z" fill="#F2E9DD"/>
<path fill-rule="evenodd" clip-rule="evenodd" d="M105.398 237.503C105.497 237.485 105.534 237.71 105.435 237.728C105.336 237.746 105.3 237.522 105.398 237.503Z" fill="#F2E9DD"/>
<path fill-rule="evenodd" clip-rule="evenodd" d="M111.792 263.623C113.72 268.003 115.716 275.276 113.5 279.948C111.191 284.824 105.3 287.571 100.647 284.454C95.8539 281.247 94.4048 275.353 95.9477 269.977C97.5725 264.308 100.6 259.604 101.578 253.554C102.456 248.112 105.418 242.9 105.618 237.476C105.66 236.342 106.738 236.855 106.747 237.753C106.782 241.419 106.055 243.366 105.088 246.688C103.611 251.757 103.372 256.899 101.734 261.874C100.88 264.476 99.2915 266.809 98.4223 269.358C96.8287 274.022 99.728 290.65 109.03 281.679C113.237 277.624 112.96 269.314 111.463 263.829C111.387 263.543 111.638 263.273 111.792 263.623Z" fill="#F2E9DD"/>
<path fill-rule="evenodd" clip-rule="evenodd" d="M111.291 266.733C112.33 271.275 114.417 273.371 116.688 276.619C118.338 279.38 120.509 281.634 123.203 283.386C126.93 283.008 130.661 282.632 134.388 282.254C136.141 280.103 137.702 277.818 139.069 275.394C137.692 270.923 136.315 266.449 134.938 261.978C132.427 259.205 125.434 257.987 121.805 256.971C113.542 254.66 107.35 249.604 104.826 241.063C104.522 240.03 105.555 239.002 106.026 240.314C111.747 256.245 127.081 252.153 137.791 261.18C143.491 265.984 143.3 272.024 139.815 278.262C136.16 284.811 131.6 289.957 124.074 286.249C117.365 282.943 111.534 274.105 110.454 266.867C110.338 266.073 111.112 265.966 111.291 266.733Z" fill="#F2E9DD"/>
<path fill-rule="evenodd" clip-rule="evenodd" d="M106.446 241.147C107.642 243.766 109.207 245.309 110.232 248.013C111.675 251.809 114.059 255.594 114.987 259.58C115.551 262.001 114.827 264.868 116.631 266.695C117.76 267.838 123.267 270.749 124.373 269.337C124.724 268.885 125.104 269.646 125.092 269.951C124.898 274.221 116.364 269.199 115.137 267.709C114.594 267.047 114.275 266.217 114.019 265.399C112.96 262.034 113.224 258.413 111.809 254.961C109.935 250.382 107.747 246.143 105.891 241.645C105.724 241.242 106.186 240.58 106.446 241.147Z" fill="#F2E9DD"/>
<path fill-rule="evenodd" clip-rule="evenodd" d="M103.077 221.874C104.401 222.02 104.885 222.72 105.918 223.486C107.06 224.331 108.407 224.841 109.553 225.692C110.885 226.684 111.949 227.799 113.398 228.632C114.821 229.452 116.421 229.971 117.758 230.917C118.05 231.123 118.207 232.136 117.639 232.015C115.046 231.459 112.423 229.721 110.417 228.033C109.253 227.055 108.149 226.278 106.863 225.488C105.512 224.66 104.516 223.261 103.06 222.634C102.793 222.518 102.672 221.828 103.077 221.874Z" fill="#F2E9DD"/>
<path fill-rule="evenodd" clip-rule="evenodd" d="M94.1116 212.349C94.1935 217.894 96.0526 223.115 95.321 228.824C94.5267 235.029 89.5729 239.635 88.3923 245.693C88.1882 246.741 87.2253 245.902 87.2455 245.19C87.3676 240.11 91.1893 236.395 92.935 231.815C95.3769 225.408 93.3493 218.769 93.5866 212.217C93.6043 211.691 94.105 211.932 94.1116 212.349Z" fill="#F2E9DD"/>
<path fill-rule="evenodd" clip-rule="evenodd" d="M98.9082 209.779C99.2079 207.777 102.505 209.206 103.558 209.571C107.429 210.913 111.384 211.364 115.302 212.51C115.684 212.621 115.775 213.377 115.373 213.512C113.76 214.045 112.302 213.335 110.679 213.046C109.012 212.75 107.412 212.505 105.815 211.902C105.076 211.623 99.8929 209.096 99.4629 210.254C99.2688 210.777 98.866 210.06 98.9082 209.779Z" fill="#F2E9DD"/>
<path fill-rule="evenodd" clip-rule="evenodd" d="M105.099 256.15C105.124 257.781 104.959 259.551 105.305 261.146C105.52 262.127 105.935 262.921 105.802 263.929C105.755 264.256 105.429 264.261 105.278 264.013C103.844 261.667 104.279 258.569 104.325 255.962C104.339 255.186 105.091 255.539 105.099 256.15Z" fill="#F2E9DD"/>
<path fill-rule="evenodd" clip-rule="evenodd" d="M69.2855 149.93C69.2726 149.945 69.4148 150.09 69.6873 150.345C69.9731 150.599 70.3757 150.961 70.8722 151.406C71.9213 152.258 73.4223 153.413 75.2725 154.501C78.9298 156.756 83.9833 158.639 88.0086 159.315C92.1066 160.102 95.8823 160.055 98.5455 159.732C99.8774 159.551 100.943 159.377 101.666 159.174C102.393 158.997 102.784 158.872 102.772 158.819C102.75 158.489 96.3816 160.175 88.2182 158.609C84.2592 157.964 79.2423 156.222 75.5385 154.113C73.6651 153.098 72.1222 152.013 71.0252 151.228C70.4938 150.821 70.0655 150.49 69.7654 150.256C69.465 150.036 69.2963 149.917 69.2855 149.93Z" fill="#F2E9DD"/>
<path fill-rule="evenodd" clip-rule="evenodd" d="M73.0317 153.172C73.0317 153.172 72.7816 153.916 72.9841 155.178C73.1674 156.435 74.0299 158.09 75.4777 159.481C78.3734 162.335 82.9787 164.275 86.4127 165.734C89.9876 167.163 93.4318 167.858 95.9294 167.9C97.178 167.934 98.1806 167.843 98.8664 167.739C99.5489 167.618 99.9171 167.526 99.9093 167.469C99.8926 167.323 98.4212 167.543 96.015 167.358C93.6095 167.191 90.295 166.474 86.7465 165.075C83.3424 163.65 78.7156 161.806 75.8252 159.165C74.3715 157.869 73.4746 156.339 73.2182 155.14C72.9385 153.942 73.0949 153.174 73.0317 153.172Z" fill="#F2E9DD"/>
<path fill-rule="evenodd" clip-rule="evenodd" d="M74.4954 155.568C74.5053 155.508 73.6103 155.303 72.2492 155.03L71.0024 154.78L72.1674 155.324C74.3933 156.36 77.9989 157.954 80.608 159.064C84.7622 160.832 88.1407 162.021 88.2254 161.813C88.3167 161.599 85.1175 160.161 80.9283 158.402C78.3079 157.302 74.6128 155.862 72.2975 155.008L72.1966 155.368C73.576 155.528 74.4883 155.614 74.4954 155.568Z" fill="#F2E9DD"/>
<path fill-rule="evenodd" clip-rule="evenodd" d="M76.7992 158.605C76.7881 158.644 77.1966 158.826 77.8835 159.096C78.572 159.36 79.543 159.706 80.658 160.052C82.8854 160.757 85.7049 161.447 87.8905 161.828C92.3587 162.646 95.9739 162.581 95.9797 162.372C95.9911 162.122 92.5057 161.898 88.0538 161.111C85.8896 160.747 83.0676 160.171 80.803 159.604C79.6857 159.317 78.6923 159.062 77.9603 158.874C77.2477 158.677 76.8118 158.574 76.7992 158.605Z" fill="#F2E9DD"/>
<path fill-rule="evenodd" clip-rule="evenodd" d="M100.891 210.918C100.891 210.918 100.707 210.942 100.497 211.181C100.253 211.408 100.187 211.959 100.447 212.484C100.701 213.005 101.157 213.539 101.778 213.995C102.412 214.471 103.242 214.694 104.049 215.018C107.336 216.265 111.496 217.627 114.816 218.214C118.197 218.836 121.338 218.79 123.526 218.377C125.721 217.973 126.961 217.367 126.931 217.293C126.884 217.152 125.626 217.561 123.495 217.83C121.366 218.104 118.348 218.101 115.005 217.497C111.747 216.944 107.575 215.7 104.231 214.584C103.391 214.285 102.581 214.109 101.993 213.71C101.389 213.32 100.925 212.843 100.662 212.384C100.052 211.358 100.987 210.911 100.891 210.918Z" fill="#F2E9DD"/>
<path fill-rule="evenodd" clip-rule="evenodd" d="M99.7569 207.218C99.7346 207.254 100.218 207.585 101.034 208.112C101.866 208.616 103.046 209.294 104.446 209.936C107.232 211.261 110.909 212.407 113.808 212.877C116.757 213.401 119.461 213.457 121.385 213.332C123.317 213.205 124.473 212.939 124.464 212.846C124.447 212.559 119.839 213.193 113.984 212.161C111.137 211.718 107.484 210.699 104.659 209.515C103.238 208.945 102.028 208.341 101.156 207.911C100.301 207.454 99.7724 207.189 99.7569 207.218Z" fill="#F2E9DD"/>
<path fill-rule="evenodd" clip-rule="evenodd" d="M104.363 213.157C104.165 213.252 105.416 215.416 106.698 216.341C107.932 217.354 109.213 217.606 109.275 217.402C109.366 217.175 108.312 216.692 107.153 215.768C105.965 214.946 104.439 213.13 104.363 213.157Z" fill="#F2E9DD"/>
<path fill-rule="evenodd" clip-rule="evenodd" d="M104.905 223.552C104.874 223.578 105.221 224.082 105.824 224.902C106.45 225.704 107.346 226.805 108.472 227.961C110.687 230.307 113.825 232.832 116.456 234.412C119.117 236.067 121.706 237.186 123.621 237.828C125.535 238.473 126.759 238.685 126.782 238.594C126.876 238.324 122.176 237.091 116.888 233.813C114.291 232.275 111.126 229.879 108.821 227.65C107.653 226.551 106.696 225.505 106.01 224.757C105.346 223.991 104.931 223.531 104.905 223.552Z" fill="#F2E9DD"/>
<path fill-rule="evenodd" clip-rule="evenodd" d="M106.328 225.992C106.294 226.009 106.463 226.409 106.77 227.062C107.091 227.705 107.568 228.595 108.188 229.553C109.407 231.492 111.225 233.69 112.813 235.177C116.027 238.289 119.314 239.75 119.389 239.571C119.524 239.34 116.521 237.701 113.348 234.67C111.784 233.226 109.914 231.143 108.588 229.305C107.236 227.486 106.401 225.952 106.328 225.992Z" fill="#F2E9DD"/>
<path fill-rule="evenodd" clip-rule="evenodd" d="M110.837 223.712C110.802 223.734 110.964 224.083 111.252 224.65C111.563 225.208 112.022 225.975 112.638 226.781C113.835 228.416 115.667 230.184 117.263 231.274C120.507 233.603 123.704 234.136 123.721 233.946C123.804 233.688 120.868 232.918 117.71 230.689C116.155 229.649 114.304 228.019 113.013 226.499C111.69 225.005 110.91 223.669 110.837 223.712Z" fill="#F2E9DD"/>
<path fill-rule="evenodd" clip-rule="evenodd" d="M111.092 249.825C111.052 249.835 111.17 250.387 111.4 251.302C111.666 252.199 112.082 253.453 112.749 254.792C114.02 257.505 116.325 260.492 118.501 262.334C120.679 264.274 123 265.538 124.743 266.217C126.491 266.897 127.635 267.061 127.657 266.981C127.776 266.701 123.32 265.639 119.023 261.817C116.897 260.044 114.559 257.205 113.177 254.599C111.72 252.026 111.19 249.791 111.092 249.825Z" fill="#F2E9DD"/>
<path fill-rule="evenodd" clip-rule="evenodd" d="M114.689 251.399C114.509 251.514 117.484 255.771 119.836 257.999C122.16 260.341 124.397 261.723 124.52 261.55C124.667 261.352 122.682 259.794 120.369 257.495C119.234 256.388 117.79 254.891 116.674 253.625C115.553 252.368 114.744 251.358 114.689 251.399Z" fill="#F2E9DD"/>
<path fill-rule="evenodd" clip-rule="evenodd" d="M88.1676 211.583C88.1144 211.593 88.2718 212.527 88.4167 214.086C88.5667 215.644 88.7063 217.825 88.6399 220.294C88.57 225.246 87.3361 231.286 85.6265 235.635C83.8758 240.06 82.2053 244.168 82.1435 247.383C82.0808 248.967 82.3028 250.249 82.5929 251.079C82.8755 251.911 83.1236 252.33 83.1644 252.31C83.3394 252.264 82.4376 250.524 82.6845 247.488C82.8431 244.441 84.5025 240.486 86.2775 235.98C88.021 231.558 89.1745 225.369 89.1058 220.347C89.107 217.837 88.8848 215.635 88.6525 214.071C88.4252 212.506 88.1676 211.583 88.1676 211.583Z" fill="#F2E9DD"/>
<path fill-rule="evenodd" clip-rule="evenodd" d="M87.6111 248.379C87.7054 248.393 87.9371 246.759 88.4931 244.683C89.0194 242.602 89.8996 240.098 90.7341 238.252C92.3808 234.454 94.2116 231.705 94.0093 231.561C93.8493 231.433 91.761 234.009 90.0784 237.924C89.2306 239.812 88.4366 242.413 88.0408 244.562C87.8303 245.632 87.7144 246.59 87.6446 247.274C87.5939 247.962 87.5767 248.378 87.6111 248.379Z" fill="#F2E9DD"/>
<path fill-rule="evenodd" clip-rule="evenodd" d="M70.9866 175.527C70.9303 175.548 71.1767 176.171 71.3934 177.241C71.6121 178.307 71.7246 179.833 71.5334 181.544C71.2031 184.993 69.474 188.941 67.944 191.842C66.4048 194.82 65.0569 197.559 64.3929 199.66C63.7011 201.753 63.5944 203.114 63.6888 203.128C63.8194 203.154 64.1023 201.881 64.8871 199.894C65.6493 197.898 67.0193 195.251 68.5691 192.231C70.0998 189.319 71.798 185.191 72 181.615C72.1253 179.846 71.9275 178.27 71.626 177.195C71.3235 176.115 70.9866 175.527 70.9866 175.527Z" fill="#F2E9DD"/>
<path fill-rule="evenodd" clip-rule="evenodd" d="M73.0865 181.586C72.9775 181.606 73.3829 183.424 73.3335 185.83C73.3382 188.23 72.8348 191.17 72.0905 193.304C70.6881 197.728 68.2913 200.618 68.5075 200.781C68.6218 200.93 71.3113 198.191 72.7748 193.574C73.5398 191.368 73.9535 188.298 73.8024 185.843C73.7526 184.613 73.5724 183.542 73.4238 182.783C73.2423 182.03 73.1169 181.58 73.0865 181.586Z" fill="#F2E9DD"/>
<path fill-rule="evenodd" clip-rule="evenodd" d="M76.9447 186.972C76.7965 186.907 75.2802 189.911 74.4141 191.813C73.5268 193.755 73.0374 195.385 73.2404 195.476C73.454 195.568 74.2072 194.089 75.0752 192.127C75.9237 190.215 77.0674 187.025 76.9447 186.972Z" fill="#F2E9DD"/>
<path fill-rule="evenodd" clip-rule="evenodd" d="M65.7897 170.115C65.7273 170.132 65.9538 170.774 66.0599 171.869C66.1686 172.964 66.023 174.512 65.4783 176.154C64.4134 179.5 61.6523 182.871 59.4923 185.399C57.3076 188.006 55.5689 190.63 54.8638 192.778C54.131 194.918 54.2682 196.337 54.3482 196.33C54.4946 196.342 54.5454 195.004 55.3574 193.023C56.1344 191.022 57.8358 188.537 60.0182 185.917C62.1496 183.405 64.9503 179.837 65.9189 176.325C66.4182 174.594 66.4895 172.971 66.2927 171.852C66.1025 170.728 65.7897 170.115 65.7897 170.115Z" fill="#F2E9DD"/>
<path fill-rule="evenodd" clip-rule="evenodd" d="M52.8975 123.167C52.8589 123.143 52.4392 123.72 51.7451 124.67C51.0424 125.615 50.0439 126.916 48.833 128.329C46.4237 131.167 43.057 134.311 40.2485 136.423C37.4007 138.563 34.6591 140.4 32.6268 141.326C31.581 141.736 30.6492 141.785 30.0881 141.558C29.5142 141.346 29.2987 141.017 29.2429 141.07C29.2084 141.081 29.3274 141.483 29.9429 141.834C30.5522 142.195 31.6204 142.231 32.7546 141.86C35.0064 141.001 37.7014 139.252 40.64 137.05C43.4863 134.902 46.8437 131.623 49.1713 128.656C50.3441 127.178 51.289 125.814 51.9342 124.814C52.568 123.807 52.8975 123.167 52.8975 123.167Z" fill="#F2E9DD"/>
<path fill-rule="evenodd" clip-rule="evenodd" d="M50.5792 117.534C50.5568 117.498 50.0807 117.758 49.2976 118.213C48.5404 118.709 47.5114 119.449 46.448 120.414C44.2924 122.316 41.9812 125.004 40.087 126.902C38.1732 128.863 36.2986 130.429 34.7869 131.322C33.2821 132.224 32.2471 132.579 32.2917 132.721C32.3084 132.797 33.4045 132.63 35.0153 131.819C36.6314 131.022 38.6282 129.466 40.5724 127.456C42.4935 125.519 44.7156 122.761 46.7506 120.774C47.7508 119.765 48.7203 118.973 49.4259 118.41C50.1552 117.891 50.5949 117.562 50.5792 117.534Z" fill="#F2E9DD"/>
<path fill-rule="evenodd" clip-rule="evenodd" d="M59.8785 111.63C59.8528 111.661 60.2255 111.989 60.8651 112.513C61.5211 113.012 62.4609 113.684 63.6038 114.322C65.8674 115.646 68.9467 116.79 71.4013 117.251C76.4362 118.327 80.4966 117.327 80.4311 117.157C80.4076 116.875 76.5107 117.555 71.5892 116.54C69.1945 116.105 66.1482 115.097 63.8463 113.919C61.5135 112.787 59.9301 111.555 59.8785 111.63Z" fill="#F2E9DD"/>
<path fill-rule="evenodd" clip-rule="evenodd" d="M60.23 115.802C60.2043 115.833 60.5916 116.169 61.2521 116.707C61.9266 117.221 62.8939 117.915 64.0617 118.587C66.3811 119.972 69.5212 121.218 72.0285 121.779C74.5831 122.397 76.9492 122.55 78.6343 122.493C80.327 122.434 81.3449 122.214 81.3351 122.118C81.3273 121.836 77.2829 122.286 72.2437 121.074C69.789 120.542 66.6735 119.429 64.3097 118.186C63.1132 117.585 62.1121 116.963 61.3901 116.518C60.6867 116.046 60.2486 115.775 60.23 115.802Z" fill="#F2E9DD"/>
<path fill-rule="evenodd" clip-rule="evenodd" d="M67.5106 120.928C67.4801 121.089 70.7694 121.881 72.8293 122.291C74.9306 122.712 76.6377 122.816 76.6756 122.596C76.7196 122.367 75.1002 121.973 72.979 121.571C70.9152 121.183 67.534 120.8 67.5106 120.928Z" fill="#F2E9DD"/>
<path fill-rule="evenodd" clip-rule="evenodd" d="M57.5665 109.889C57.5416 110.051 65.2626 111.479 70.0772 112.285C74.9921 113.11 78.9207 113.534 78.956 113.314C78.9915 113.081 75.1885 112.374 70.2374 111.566C65.4165 110.782 57.587 109.759 57.5665 109.889Z" fill="#F2E9DD"/>
<path fill-rule="evenodd" clip-rule="evenodd" d="M79.7771 124.696C79.781 124.859 82.2771 125.048 83.83 125.084C85.4167 125.118 86.6715 124.917 86.6695 124.694C86.6706 124.46 85.439 124.362 83.8433 124.35C82.2891 124.336 79.7784 124.562 79.7771 124.696Z" fill="#F2E9DD"/>
<path fill-rule="evenodd" clip-rule="evenodd" d="M0.959725 141.796C0.917656 141.994 5.88536 142.919 9.03329 142.977C12.2403 143.114 14.7643 142.691 14.7439 142.481C14.7244 142.235 12.2672 142.354 9.0856 142.242C7.5343 142.2 5.50699 142.108 3.86636 141.981C2.22507 141.864 0.970271 141.726 0.959725 141.796Z" fill="#F2E9DD"/>
<path fill-rule="evenodd" clip-rule="evenodd" d="M0.981129 147.185C0.995672 147.348 4.8907 147.181 7.30642 146.993C9.77123 146.802 11.7028 146.42 11.6825 146.198C11.6578 145.966 9.74046 146.042 7.26216 146.26C4.84767 146.468 0.970271 147.055 0.981129 147.185Z" fill="#F2E9DD"/>
<path fill-rule="evenodd" clip-rule="evenodd" d="M7.09533 148.553C7.11493 148.715 9.63153 148.619 11.1878 148.475C12.778 148.33 14.009 147.986 13.9836 147.765C13.9559 147.53 12.7139 147.574 11.1178 147.744C9.56523 147.908 7.07892 148.421 7.09533 148.553Z" fill="#F2E9DD"/>
<path fill-rule="evenodd" clip-rule="evenodd" d="M59.3932 226.159C59.5635 226.272 61.0887 223.698 61.5448 221.875C62.0864 220.047 61.9821 218.509 61.7684 218.501C61.5261 218.48 61.3408 219.898 60.8404 221.666C60.61 222.53 60.2699 223.65 59.9435 224.547C59.6256 225.448 59.332 226.125 59.3932 226.159Z" fill="#F2E9DD"/>
<path fill-rule="evenodd" clip-rule="evenodd" d="M63.235 225.407C63.3973 225.406 63.5829 222.902 63.619 221.343C63.6514 219.751 63.4469 218.492 63.224 218.492C62.9909 218.493 62.895 219.728 62.8852 221.329C62.8724 222.886 63.1041 225.408 63.235 225.407Z" fill="#F2E9DD"/>
<path fill-rule="evenodd" clip-rule="evenodd" d="M57.1323 224.649C57.2514 224.627 57.1996 221.549 57.5269 219.681C57.7754 217.77 58.05 216.254 57.8275 216.185C57.6181 216.116 57.0446 217.574 56.7999 219.577C56.4841 221.534 56.961 224.686 57.1323 224.649Z" fill="#F2E9DD"/>
<path fill-rule="evenodd" clip-rule="evenodd" d="M83.5213 271.426C83.6171 271.406 83.3143 269.786 83.2347 267.647C83.1218 265.511 83.2714 262.869 83.5994 260.877C84.1894 256.794 85.3856 253.718 85.1503 253.622C84.9731 253.529 83.481 256.507 82.8779 260.732C82.5514 262.773 82.5088 265.498 82.7664 267.665C82.8808 268.749 83.0638 269.693 83.2094 270.366C83.3749 271.032 83.4909 271.432 83.5213 271.426Z" fill="#F2E9DD"/>
<path fill-rule="evenodd" clip-rule="evenodd" d="M86.1036 270.879C86.1903 270.824 85.6616 269.993 85.3705 268.777C85.0383 267.579 84.9817 266.029 85.1845 264.89C85.5058 262.523 86.6588 260.939 86.4581 260.79C86.3279 260.624 84.8153 262.149 84.4613 264.763C84.2486 266.005 84.4293 267.686 84.9209 268.91C85.1486 269.531 85.4437 270.034 85.6696 270.376C85.9174 270.709 86.0756 270.898 86.1036 270.879Z" fill="#F2E9DD"/>
<path fill-rule="evenodd" clip-rule="evenodd" d="M87.8891 269.159C87.9956 269.097 87.4609 267.203 87.4592 266.006C87.3768 264.798 87.3631 263.82 87.1352 263.778C86.9174 263.734 86.6179 264.734 86.7276 266.06C86.7609 267.385 87.7413 269.252 87.8891 269.159Z" fill="#F2E9DD"/>
<path fill-rule="evenodd" clip-rule="evenodd" d="M103.286 282.176C103.373 282.136 103.05 281.328 102.925 280.228C102.769 279.134 102.833 277.77 103.064 276.767C103.467 274.696 104.403 273.26 104.208 273.112C104.06 272.96 102.784 274.323 102.35 276.605C102.107 277.694 102.152 279.182 102.463 280.308C102.745 281.447 103.241 282.2 103.286 282.176Z" fill="#F2E9DD"/>
<path fill-rule="evenodd" clip-rule="evenodd" d="M103.998 279.877C104.16 279.876 104.347 277.65 104.381 276.263C104.415 274.849 104.213 273.729 103.99 273.729C103.757 273.73 103.662 274.828 103.648 276.251C103.637 277.637 103.867 279.877 103.998 279.877Z" fill="#F2E9DD"/>
<path fill-rule="evenodd" clip-rule="evenodd" d="M136.936 275.137C136.939 275.042 135.971 274.993 134.766 274.672C133.553 274.378 132.133 273.789 131.131 273.189C129.051 272.023 127.731 270.613 127.543 270.774C127.371 270.887 128.514 272.575 130.758 273.821C131.823 274.449 133.379 274.968 134.665 275.132C135.953 275.322 136.94 275.189 136.936 275.137Z" fill="#F2E9DD"/>
<path fill-rule="evenodd" clip-rule="evenodd" d="M136.945 276.777C136.937 276.687 136.059 276.718 134.935 276.579C133.81 276.459 132.454 276.145 131.458 275.79C129.405 275.108 127.911 274.215 127.772 274.411C127.637 274.576 129.014 275.767 131.214 276.482C132.27 276.849 133.729 277.071 134.902 277.048C136.08 277.045 136.953 276.831 136.945 276.777Z" fill="#F2E9DD"/>
<path fill-rule="evenodd" clip-rule="evenodd" d="M133.123 279.84C133.095 279.714 131.419 279.635 130.45 279.315C129.456 279.057 128.649 278.834 128.537 279.036C128.426 279.23 129.159 279.762 130.281 280.03C131.377 280.358 133.167 280.003 133.123 279.84Z" fill="#F2E9DD"/>
<path fill-rule="evenodd" clip-rule="evenodd" d="M139.9 242.88C139.92 242.719 137.726 242.236 136.352 242.02C134.947 241.797 133.807 241.85 133.777 242.072C133.749 242.303 134.829 242.545 136.245 242.748C137.621 242.942 139.882 243.012 139.9 242.88Z" fill="#F2E9DD"/>
<path fill-rule="evenodd" clip-rule="evenodd" d="M138.334 241.477C138.376 241.319 136.201 240.573 134.83 240.188C133.431 239.798 132.265 239.714 132.211 239.929C132.155 240.155 133.226 240.528 134.639 240.9C136.017 241.262 138.306 241.606 138.334 241.477Z" fill="#F2E9DD"/>
<path fill-rule="evenodd" clip-rule="evenodd" d="M134.383 210.422C134.39 210.489 135.534 210.427 136.964 209.967C138.397 209.539 140.072 208.681 141.212 207.815C143.608 206.079 144.669 203.902 144.486 203.82C144.274 203.667 143.061 205.536 140.79 207.212C139.711 208.048 138.162 208.967 136.813 209.522C135.474 210.104 134.368 210.343 134.383 210.422Z" fill="#F2E9DD"/>
<path fill-rule="evenodd" clip-rule="evenodd" d="M138.145 212.565C138.189 212.762 140.776 212.098 142.201 211.205C143.686 210.365 144.544 209.282 144.396 209.131C144.233 208.948 143.246 209.744 141.837 210.568C140.508 211.433 138.13 212.471 138.145 212.565Z" fill="#F2E9DD"/>
<path fill-rule="evenodd" clip-rule="evenodd" d="M141.229 214.44C141.375 214.519 142.399 212.945 142.96 211.929C143.533 210.891 143.78 209.964 143.583 209.864C143.375 209.758 142.868 210.53 142.311 211.583C141.77 212.609 141.114 214.383 141.229 214.44Z" fill="#F2E9DD"/>
<path fill-rule="evenodd" clip-rule="evenodd" d="M132.883 207.594C133.022 207.678 134.016 206.384 134.564 205.536C135.122 204.672 135.369 203.869 135.177 203.754C134.98 203.636 134.487 204.269 133.94 205.152C133.41 206.01 132.768 207.526 132.883 207.594Z" fill="#F2E9DD"/>
<path fill-rule="evenodd" clip-rule="evenodd" d="M108.944 159.03C108.954 159.096 109.949 159.025 111.162 158.542C112.386 158.089 113.773 157.198 114.66 156.318C116.553 154.541 117.065 152.45 116.869 152.413C116.631 152.304 115.918 154.099 114.162 155.777C113.339 156.613 112.101 157.539 110.98 158.11C109.877 158.707 108.927 158.951 108.944 159.03Z" fill="#F2E9DD"/>
<path fill-rule="evenodd" clip-rule="evenodd" d="M112.02 160.737C112.142 160.844 113.702 159.321 114.607 158.319C115.529 157.299 116.089 156.337 115.919 156.193C115.741 156.039 114.972 156.787 114.06 157.829C113.171 158.846 111.92 160.651 112.02 160.737Z" fill="#F2E9DD"/>
<path fill-rule="evenodd" clip-rule="evenodd" d="M112.126 160.786C111.969 160.746 111.507 161.813 111.298 162.499C111.087 163.196 111.145 163.803 111.359 163.858C111.587 163.913 111.817 163.389 112.008 162.68C112.195 161.991 112.253 160.818 112.126 160.786Z" fill="#F2E9DD"/>
<path fill-rule="evenodd" clip-rule="evenodd" d="M85.1252 104.025C85.193 104.094 85.8749 103.489 86.9003 102.941C87.9129 102.367 89.2636 101.877 90.3298 101.677C92.4977 101.199 94.2883 101.414 94.3299 101.172C94.3927 100.973 92.5454 100.424 90.1904 100.953C89.05 101.177 87.6393 101.81 86.658 102.539C85.6563 103.243 85.0902 103.992 85.1252 104.025Z" fill="#F2E9DD"/>
<path fill-rule="evenodd" clip-rule="evenodd" d="M92.486 107.721C92.5806 107.75 92.7806 107.161 93.3449 106.656C93.8736 106.13 94.7206 105.736 95.3953 105.629C96.7815 105.317 97.8255 105.873 97.9625 105.679C98.148 105.535 96.9767 104.518 95.2538 104.909C94.4457 105.045 93.486 105.636 92.9933 106.343C92.4638 107.036 92.4415 107.721 92.486 107.721Z" fill="#F2E9DD"/>
<path fill-rule="evenodd" clip-rule="evenodd" d="M98.1162 111.627C98.2079 111.655 99.5649 110.309 100.684 110.014C101.752 109.596 102.683 109.499 102.702 109.264C102.738 109.047 101.669 108.824 100.416 109.33C99.8076 109.554 99.1112 110.067 98.6841 110.59C98.2425 111.106 98.0686 111.596 98.1162 111.627Z" fill="#F2E9DD"/>
<path fill-rule="evenodd" clip-rule="evenodd" d="M54.868 222.391C54.8166 222.382 54.8181 222.758 54.4609 223.164C54.1669 223.558 53.2863 223.939 52.6978 223.649C52.5479 223.632 52.7605 223.04 52.802 222.585C52.8893 222.108 52.9751 221.624 53.0644 221.145C53.2633 220.182 53.458 219.239 53.6286 218.421C54.3699 215.082 55.0558 212.448 54.8353 212.376C54.625 212.302 53.6561 214.822 52.9204 218.234C52.739 219.064 52.5643 220.03 52.4263 221.011L52.2433 222.483L52.169 223.199L52.1272 223.639C52.1276 223.725 52.1019 223.827 52.1283 223.899L52.3729 224.016C53.5487 224.464 54.3015 223.775 54.6449 223.309C54.9876 222.782 54.8839 222.378 54.868 222.391Z" fill="#F2E9DD"/>
<path fill-rule="evenodd" clip-rule="evenodd" d="M69.6986 171.495C68.8161 171.372 70.5496 182.235 66.5059 187.764C65.0522 190.737 63.8025 193.425 62.9418 195.384C62.078 197.341 61.6056 198.567 61.704 198.617C61.8105 198.669 62.4412 197.547 63.4106 195.665C64.3603 193.748 65.6623 191.116 67.1368 188.141C67.8387 186.683 68.6583 184.968 69.1913 183.107C69.7585 181.248 69.8283 179.249 69.7597 177.536C69.5142 174.091 69.6986 171.495 69.6986 171.495Z" fill="#F2E9DD"/>
<path fill-rule="evenodd" clip-rule="evenodd" d="M72.1436 151.32C72.1338 151.338 72.2679 151.439 72.5254 151.612C72.7808 151.788 73.1587 152.031 73.6479 152.309C74.6215 152.867 76.0274 153.58 77.7002 154.206C81.0255 155.518 85.4606 156.242 88.8636 156.121C92.3345 155.999 95.3507 155.474 97.5431 155.467C99.7362 155.408 101.069 155.684 101.098 155.555C101.127 155.46 99.8256 154.999 97.599 154.92C95.3735 154.791 92.3132 155.248 88.9079 155.385C85.589 155.521 81.2264 154.933 77.885 153.775C76.2076 153.223 74.7749 152.592 73.7669 152.103C72.7548 151.62 72.1654 151.282 72.1436 151.32Z" fill="#F2E9DD"/>
<path fill-rule="evenodd" clip-rule="evenodd" d="M50.5368 115.624C50.5215 115.585 50.1148 115.724 49.4517 115.978C48.7926 116.24 47.879 116.627 46.8646 117.107C44.8259 118.056 42.3766 119.391 40.5704 120.534C36.8544 122.84 34.3068 125.214 34.4412 125.374C34.5953 125.569 37.246 123.496 40.9282 121.178C42.7112 120.037 45.0889 118.612 47.0591 117.534C48.0361 117.009 48.9033 116.54 49.5443 116.195C50.175 115.865 50.5499 115.654 50.5368 115.624Z" fill="#F2E9DD"/>
<path fill-rule="evenodd" clip-rule="evenodd" d="M55.8723 104.171C55.8501 104.207 56.2273 104.503 56.8675 104.973C57.5159 105.432 58.4311 106.056 59.5046 106.715C61.6432 108.044 64.4116 109.49 66.6074 110.435C71.0859 112.411 74.9073 113.176 74.9544 112.977C75.024 112.731 71.397 111.714 66.9388 109.776C64.7603 108.855 61.9601 107.519 59.7586 106.318C58.6713 105.712 57.7064 105.173 57.0015 104.777C56.3139 104.376 55.8908 104.144 55.8723 104.171Z" fill="#F2E9DD"/>
<path fill-rule="evenodd" clip-rule="evenodd" d="M90.1357 208.404C90.0986 208.416 90.2407 209.013 90.5047 209.985C90.7443 210.966 91.089 212.331 91.3799 213.9C92.0017 217.028 92.3894 220.956 92.395 223.97C92.5056 230.136 91.5477 234.963 91.8084 235.012C91.9067 235.034 92.2549 233.872 92.582 231.905C92.904 229.938 93.1833 227.161 93.1274 224.018C93.1183 220.958 92.6167 216.966 91.8439 213.829C91.4783 212.253 91.0532 210.893 90.7325 209.927C90.3895 208.967 90.1677 208.393 90.1357 208.404Z" fill="#F2E9DD"/>
<path fill-rule="evenodd" clip-rule="evenodd" d="M97.621 218.738C97.5264 218.779 98.5324 220.134 98.5111 222.21C98.559 224.263 97.7371 226.715 97.0433 228.542C95.5987 232.314 94.6643 235.388 94.873 235.468C95.0893 235.546 96.2812 232.645 97.7158 228.833C98.4099 226.979 99.1689 224.387 98.9823 222.207C98.9027 221.128 98.5845 220.203 98.2548 219.612C97.9337 219.011 97.621 218.738 97.621 218.738Z" fill="#F2E9DD"/>
<path fill-rule="evenodd" clip-rule="evenodd" d="M102.707 215.213C102.685 215.249 103.153 215.581 103.942 216.107C104.751 216.61 105.893 217.287 107.254 217.94C109.958 219.28 113.528 220.469 116.351 220.993C119.226 221.572 121.865 221.696 123.749 221.623C125.638 221.549 126.777 221.322 126.77 221.226C126.762 220.943 122.243 221.418 116.541 220.282C113.768 219.783 110.214 218.722 107.47 217.521C106.092 216.943 104.915 216.337 104.07 215.905C103.238 215.449 102.723 215.187 102.707 215.213Z" fill="#F2E9DD"/>
<path fill-rule="evenodd" clip-rule="evenodd" d="M101.969 220.424C101.938 220.454 102.381 220.919 103.137 221.678C103.944 222.381 105.122 223.32 106.609 224.146C109.549 225.882 113.536 227.231 116.503 228.364C119.551 229.493 122.199 230.67 123.981 231.757C125.765 232.831 126.735 233.692 126.835 233.582C126.894 233.532 126.061 232.529 124.315 231.324C122.576 230.105 119.907 228.827 116.818 227.698C113.821 226.56 109.824 225.331 106.86 223.75C105.356 223 104.15 222.137 103.294 221.504C102.896 221.165 102.572 220.891 102.34 220.698C102.111 220.509 101.98 220.412 101.969 220.424Z" fill="#F2E9DD"/>
<path fill-rule="evenodd" clip-rule="evenodd" d="M101.905 217.562C101.893 217.577 102.018 217.73 102.261 217.995C102.518 218.266 102.876 218.642 103.322 219.109C104.241 220.038 105.534 221.329 107.123 222.665C108.708 224.002 110.61 225.383 112.696 226.4C114.766 227.471 117.056 227.965 118.99 228.161C123.021 228.555 126.378 229.49 128.695 230.633C131.009 231.725 132.295 232.667 132.373 232.561C132.433 232.489 131.277 231.399 128.992 230.171C126.752 228.903 123.165 227.805 119.204 227.451C117.248 227.245 115.062 226.838 113.029 225.836C110.979 224.899 109.068 223.596 107.448 222.323C105.821 221.055 104.47 219.819 103.493 218.945C103.009 218.512 102.62 218.163 102.343 217.917C102.071 217.676 101.917 217.552 101.905 217.562Z" fill="#F2E9DD"/>
<path fill-rule="evenodd" clip-rule="evenodd" d="M101.553 222.417C101.38 222.528 104.59 227.433 107.054 230.132C109.493 232.944 111.834 234.767 111.969 234.608C112.135 234.425 110.067 232.446 107.623 229.669C106.42 228.324 104.887 226.533 103.693 225.04C102.487 223.554 101.611 222.377 101.553 222.417Z" fill="#F2E9DD"/>
<path fill-rule="evenodd" clip-rule="evenodd" d="M112.141 241.149C112.105 241.166 112.236 241.492 112.487 242.026C112.771 242.539 113.211 243.247 113.857 243.929C115.104 245.342 117.169 246.585 118.91 247.043C122.536 248.165 125.427 246.711 125.277 246.565C125.223 246.288 122.534 247.365 119.14 246.345C117.504 245.931 115.5 244.863 114.199 243.611C112.839 242.398 112.226 241.099 112.141 241.149Z" fill="#F2E9DD"/>
<path fill-rule="evenodd" clip-rule="evenodd" d="M112.902 251.331C112.902 251.331 112.863 251.885 113.088 252.772C113.307 253.657 113.851 254.84 114.738 255.991C116.495 258.34 119.641 260.253 122.066 261.403C124.548 262.618 126.75 263.667 128.218 264.631C129.7 265.574 130.495 266.326 130.584 266.239C130.663 266.171 130.003 265.284 128.566 264.206C127.142 263.11 124.922 261.967 122.438 260.766C120.009 259.627 116.933 257.893 115.117 255.715C114.207 254.651 113.604 253.55 113.315 252.709C113.02 251.869 112.95 251.322 112.902 251.331Z" fill="#F2E9DD"/>
<path fill-rule="evenodd" clip-rule="evenodd" d="M111.851 255.458C111.811 255.471 111.936 256.002 112.17 256.882C112.448 257.749 112.878 258.952 113.563 260.23C114.871 262.818 117.222 265.628 119.414 267.304C121.61 269.08 123.93 270.176 125.656 270.721C127.39 271.268 128.508 271.342 128.524 271.26C128.623 270.976 124.236 270.256 119.908 266.76C117.77 265.15 115.399 262.499 113.986 260.023C112.498 257.579 111.949 255.424 111.851 255.458Z" fill="#F2E9DD"/>
<path fill-rule="evenodd" clip-rule="evenodd" d="M118.357 256.654C118.338 256.692 118.88 257.015 119.793 257.527C120.72 258.033 121.994 258.728 123.437 259.515C126.32 261.125 130.055 262.868 132.599 264.6C135.234 266.342 136.929 268.685 137.512 270.615C138.146 272.538 137.847 273.835 137.996 273.847C138.064 273.89 138.574 272.596 138.051 270.51C137.58 268.438 135.822 265.839 133.065 264.03C130.406 262.227 126.64 260.602 123.677 259.111C122.183 258.401 120.864 257.775 119.906 257.319C119.434 257.106 119.051 256.933 118.782 256.809C118.514 256.696 118.362 256.64 118.357 256.654Z" fill="#F2E9DD"/>
<path fill-rule="evenodd" clip-rule="evenodd" d="M130.53 286.476C130.563 286.37 128.497 285.872 126.044 284.633C123.571 283.447 120.78 281.484 118.931 279.67C115.032 276.056 113.17 272.172 112.93 272.308C112.846 272.347 113.196 273.345 114.076 274.842C114.953 276.333 116.396 278.307 118.395 280.172C120.297 282.034 123.241 283.971 125.828 285.049C127.11 285.613 128.295 285.972 129.143 286.204C130.003 286.403 130.52 286.509 130.53 286.476Z" fill="#F2E9DD"/>
<path fill-rule="evenodd" clip-rule="evenodd" d="M114.468 270.992C114.407 271.013 114.668 272.025 115.361 273.204C116.027 274.395 117.14 275.704 118.158 276.518C120.227 278.259 122.408 278.631 122.439 278.431C122.524 278.186 120.602 277.585 118.634 275.961C117.662 275.2 116.524 274.035 115.761 272.959C114.969 271.898 114.541 270.96 114.468 270.992Z" fill="#F2E9DD"/>
<path fill-rule="evenodd" clip-rule="evenodd" d="M112.093 266.845C111.932 266.964 114.643 270.42 116.727 272.201C118.791 274.078 120.755 275.131 120.869 274.952C121.007 274.751 119.281 273.498 117.228 271.666C116.22 270.783 114.928 269.597 113.914 268.593C112.893 267.599 112.147 266.798 112.093 266.845Z" fill="#F2E9DD"/>
<path fill-rule="evenodd" clip-rule="evenodd" d="M114.239 267.28C114.043 267.364 115.297 269.946 116.589 271.206C117.834 272.548 119.194 273.14 119.296 272.958C119.431 272.751 118.324 271.965 117.125 270.704C116.534 270.101 115.793 269.273 115.243 268.551C114.684 267.84 114.302 267.25 114.239 267.28Z" fill="#F2E9DD"/>
<path fill-rule="evenodd" clip-rule="evenodd" d="M100.585 281.035C100.663 280.963 99.7764 280.067 99.0998 278.609C98.3769 277.183 97.9318 275.235 97.9301 273.742C97.7981 270.654 99.0019 268.411 98.7693 268.302C98.6292 268.154 97.057 270.389 97.1952 273.736C97.2036 275.336 97.7952 277.396 98.6805 278.821C99.1035 279.547 99.5848 280.108 99.9416 280.492C100.323 280.855 100.563 281.058 100.585 281.035Z" fill="#F2E9DD"/>
<path fill-rule="evenodd" clip-rule="evenodd" d="M79.4346 270.463C79.5249 270.441 79.3218 269.374 79.2451 267.971C79.1446 266.567 79.1905 264.835 79.3507 263.522C79.6292 260.84 80.2272 258.764 80.0024 258.682C79.8058 258.598 78.9029 260.612 78.6246 263.422C78.4658 264.785 78.5301 266.588 78.7755 268.011C79.0035 269.439 79.3824 270.478 79.4346 270.463Z" fill="#F2E9DD"/>
<path fill-rule="evenodd" clip-rule="evenodd" d="M87.1566 205.342C87.1064 205.354 87.3153 206.254 87.5812 207.76C87.8518 209.261 88.1769 211.368 88.4233 213.771C88.9346 218.58 89.0536 224.565 89.16 229.154C89.2173 231.484 89.1659 233.695 88.5784 235.558C88.0136 237.417 86.8652 238.843 86.101 240.163C85.296 241.462 84.8494 242.686 84.8155 243.563C84.7683 244.44 84.965 244.892 84.9996 244.881C85.1111 244.889 84.7314 242.968 86.5249 240.513C87.3059 239.269 88.5242 237.867 89.2025 235.871C89.882 233.896 89.9574 231.589 89.8945 229.228C89.7791 224.633 89.5495 218.602 88.893 213.761C88.5731 211.342 88.1672 209.224 87.8132 207.724C87.4668 206.224 87.1566 205.342 87.1566 205.342Z" fill="#F2E9DD"/>
<path fill-rule="evenodd" clip-rule="evenodd" d="M90.5478 249.432C90.6004 249.432 90.649 248.592 90.8075 247.213C90.9584 245.836 91.2908 243.925 91.8157 241.795C92.8434 237.527 94.8171 232.453 96.2572 228.53C97.6589 224.527 99.1104 220.892 99.0667 217.998C99.0666 216.57 98.6436 215.433 98.1811 214.791C97.7146 214.141 97.3228 213.921 97.3021 213.951C97.1581 214.023 98.6514 215.193 98.5222 217.931C98.4773 220.601 97.0051 224.167 95.5963 228.203C94.171 232.121 92.2749 237.288 91.3673 241.652C90.9054 243.826 90.6463 245.778 90.5759 247.18C90.4955 248.584 90.5478 249.432 90.5478 249.432Z" fill="#F2E9DD"/>
<path fill-rule="evenodd" clip-rule="evenodd" d="M70.1816 171.811C70.0885 171.859 71.4798 173.766 72.1356 176.696C72.8707 179.6 72.7534 183.336 72.2053 186.104C71.0881 191.769 69.4283 196.133 69.7258 196.225C69.8324 196.263 70.2892 195.221 70.9279 193.464C71.5581 191.703 72.3941 189.215 72.9181 186.288C73.4747 183.452 73.495 179.561 72.5954 176.603C72.1744 175.123 71.5914 173.887 71.0899 173.063C70.5858 172.238 70.1816 171.811 70.1816 171.811Z" fill="#F2E9DD"/>
<path fill-rule="evenodd" clip-rule="evenodd" d="M73.6863 179.459C73.6467 179.472 73.8176 180.111 74.1144 181.161C74.4032 182.209 74.8239 183.673 75.1334 185.357C75.4425 187.038 75.6195 188.954 75.3627 190.806C75.102 192.651 74.4231 194.389 73.7653 195.874C72.4041 198.88 71.0943 201.682 70.9011 203.919C70.7574 205.024 70.8722 205.926 70.9936 206.524C71.1585 207.117 71.2741 207.43 71.3264 207.415C71.4991 207.386 71.0541 206.116 71.4332 204.047C71.7204 201.963 73.0227 199.304 74.4121 196.224C75.0692 194.722 75.7669 192.901 76.0004 190.938C76.2298 188.98 75.9824 186.996 75.6009 185.291C75.2108 183.583 74.708 182.129 74.3408 181.095C74.1474 180.589 73.9956 180.181 73.8838 179.888C73.7713 179.607 73.701 179.454 73.6863 179.459Z" fill="#F2E9DD"/>
<path fill-rule="evenodd" clip-rule="evenodd" d="M48.6312 220.384C48.6832 220.353 48.1181 219.482 47.385 217.945C46.6645 216.406 45.8393 214.16 45.3824 211.512C44.9396 208.869 44.8666 205.832 45.4236 202.927C45.9398 200.015 47.0697 197.288 48.3154 195.087C50.8613 190.569 54.1454 187.178 56.4628 184.749C58.8168 182.335 60.3072 180.888 60.2245 180.795C60.1852 180.753 59.7782 181.06 59.066 181.657C58.3599 182.259 57.3476 183.146 56.1341 184.305C53.7368 186.628 50.3673 189.982 47.7239 194.639C46.4461 196.893 45.2927 199.719 44.7949 202.731C44.2608 205.731 44.3923 208.858 44.9149 211.549C45.4443 214.249 46.3669 216.511 47.1684 218.036C47.9836 219.563 48.6312 220.384 48.6312 220.384Z" fill="#F2E9DD"/>
<path fill-rule="evenodd" clip-rule="evenodd" d="M17.72 128.098C17.763 128.174 18.7847 127.677 20.1574 127.122C21.5232 126.559 23.2434 125.956 24.5816 125.568C27.3066 124.745 29.5201 124.258 29.4874 124.025C29.4599 123.806 27.1928 123.99 24.3894 124.857C21.6134 125.603 17.618 127.943 17.72 128.098Z" fill="#F2E9DD"/>
<path fill-rule="evenodd" clip-rule="evenodd" d="M108.789 167.47C108.744 167.428 108.063 168.33 106.585 169.409C105.12 170.467 102.753 171.64 99.8771 171.805C97.0036 172.012 93.8569 170.956 91.0982 169.392C88.3203 167.824 85.7762 165.892 83.5151 164.312C78.9182 161.061 75.0326 157.844 72.6039 155.148C70.1532 152.475 69.0284 150.522 68.906 150.597C68.8591 150.627 69.1002 151.121 69.6077 151.993C70.1381 152.846 70.9589 154.065 72.1409 155.45C74.4792 158.252 78.3528 161.574 83.0035 164.846C85.2752 166.427 87.8397 168.342 90.7059 169.92C93.5505 171.494 96.8579 172.554 99.8601 172.279C102.854 172.042 105.259 170.754 106.713 169.606C108.18 168.44 108.789 167.47 108.789 167.47Z" fill="#F2E9DD"/>
<path fill-rule="evenodd" clip-rule="evenodd" d="M108.624 151.711C108.624 151.711 108.012 151.249 106.814 150.866C105.622 150.471 103.851 150.266 101.875 150.393C99.895 150.499 97.7221 150.894 95.5797 151.171C93.4341 151.458 91.3066 151.673 89.455 151.822C85.6841 152.121 82.2706 152.27 79.8435 152.284C77.4054 152.294 76.0463 151.565 75.9953 151.671C75.9164 151.754 77.257 152.695 79.7634 152.827C82.224 152.952 85.6134 152.871 89.4456 152.563C91.3089 152.407 93.4545 152.162 95.6124 151.827C97.7767 151.5 99.9302 151.043 101.876 150.866C103.818 150.666 105.549 150.785 106.74 151.09C107.938 151.389 108.604 151.757 108.624 151.711Z" fill="#F2E9DD"/>
<path fill-rule="evenodd" clip-rule="evenodd" d="M59.1753 113.065C59.1526 113.098 59.6407 113.455 60.4696 114.024C61.3049 114.572 62.494 115.317 63.8984 116.064C66.6874 117.593 70.3452 119.101 73.2496 119.938C76.2064 120.831 78.9409 121.303 80.9223 121.501C82.9042 121.701 84.1239 121.665 84.1318 121.566C84.1622 121.292 79.3952 121.011 73.5126 119.25C70.6412 118.436 66.9798 117.05 64.1353 115.659C62.7038 114.978 61.4784 114.306 60.5981 113.827C59.7273 113.328 59.1938 113.038 59.1753 113.065Z" fill="#F2E9DD"/>
<path fill-rule="evenodd" clip-rule="evenodd" d="M62.683 117.82C62.6702 117.836 62.8242 118.002 63.1211 118.289C63.4286 118.576 63.8609 118.985 64.4001 119.49C65.5058 120.493 67.0638 121.885 68.98 123.286C70.8928 124.683 73.2076 126.072 75.717 126.927C78.2187 127.797 80.8083 128.208 83.0416 128.436C87.6183 128.85 91.6951 128.928 94.6487 129.041C97.5975 129.128 99.4068 129.119 99.4123 129.007C99.4195 128.89 97.6567 128.712 94.7423 128.5C91.8355 128.258 87.7506 128.107 83.2009 127.712C80.9933 127.495 78.4485 127.128 75.9944 126.331C73.5355 125.551 71.2251 124.256 69.2831 122.928C67.3381 121.597 65.7257 120.265 64.5651 119.32C63.9901 118.848 63.5245 118.472 63.1996 118.203C62.8765 117.945 62.6943 117.81 62.683 117.82Z" fill="#F2E9DD"/>
<path fill-rule="evenodd" clip-rule="evenodd" d="M97.7903 115.962C97.8553 115.79 94.6678 114.5 92.5832 114C90.4655 113.448 88.7208 113.396 88.6901 113.612C88.6551 113.847 90.2929 114.185 92.3927 114.711C93.3914 114.952 94.7115 115.273 95.8447 115.547C96.932 115.814 97.7652 116.025 97.7903 115.962Z" fill="#F2E9DD"/>
<path fill-rule="evenodd" clip-rule="evenodd" d="M98.8839 119.342C98.9877 119.181 96.599 117.69 94.9262 117.135C93.2436 116.513 91.8011 116.465 91.7669 116.676C91.7243 116.913 93.0327 117.241 94.6738 117.823C96.2886 118.334 98.8292 119.428 98.8839 119.342Z" fill="#F2E9DD"/>
<path fill-rule="evenodd" clip-rule="evenodd" d="M102.484 121.883C102.522 121.724 99.7922 120.81 98.0714 120.321C96.3175 119.823 94.868 119.652 94.8136 119.868C94.7534 120.094 96.0985 120.55 97.8724 121.029C99.597 121.495 102.449 122.008 102.484 121.883Z" fill="#F2E9DD"/>
<path fill-rule="evenodd" clip-rule="evenodd" d="M100.957 123.426C100.987 123.265 100.099 122.888 99.5317 122.738C98.9499 122.582 98.4476 122.686 98.4042 122.905C98.3602 123.134 98.7964 123.324 99.3846 123.457C99.9565 123.587 100.931 123.554 100.957 123.426Z" fill="#F2E9DD"/>
<path fill-rule="evenodd" clip-rule="evenodd" d="M2.24561 144.178C2.24561 144.178 2.62892 144.62 3.51026 144.977C4.38859 145.332 5.75093 145.443 7.21473 145.224C8.68419 145.036 10.2809 144.629 11.8563 144.461C13.4312 144.248 14.9427 144.654 16.4174 144.678C19.4615 144.642 21.7375 142.995 23.1581 141.892C24.5981 140.726 25.3635 139.892 25.2993 139.814C25.2208 139.716 24.3428 140.394 22.8671 141.425C21.4082 142.406 19.2249 143.889 16.4667 143.94C15.1695 143.954 13.5014 143.538 11.8271 143.809C10.1773 144.028 8.59532 144.5 7.16741 144.757C5.74167 145.04 4.46106 145.017 3.59257 144.757C2.72314 144.492 2.27607 144.13 2.24561 144.178Z" fill="#F2E9DD"/>
<path fill-rule="evenodd" clip-rule="evenodd" d="M90.2906 200.292C90.2906 200.292 89.2767 196.435 85.5339 191.119C81.9476 185.784 75.5373 179.113 72.1221 169.386C68.4952 159.831 66.4434 148.51 63.8844 137.506C61.3955 126.47 58.9362 115.566 56.8039 106.1C52.6454 86.7234 48.6625 69.4102 46.3653 56.8215C45.1909 50.5293 44.3998 45.4285 43.8824 41.9026C43.6299 40.145 43.4349 38.7819 43.3033 37.8462C43.1682 36.9191 43.0553 36.4376 43.0553 36.4376C43.027 36.4402 43.0559 36.9215 43.1366 37.8376C43.2149 38.7543 43.3529 40.1069 43.5632 41.8487C43.981 45.3326 44.6792 50.3848 45.7774 56.6333C47.9214 69.1452 51.8093 86.3839 56.0052 105.878C58.1647 115.349 60.6575 126.278 63.1813 137.347C65.8016 148.384 67.9072 159.727 71.6212 169.384C73.4436 174.209 75.817 178.501 78.4044 182.025C80.9659 185.563 83.4564 188.55 85.3098 191.21C87.1999 193.843 88.4564 196.124 89.2126 197.744C89.5956 198.551 89.8559 199.192 90.0189 199.633C90.1915 200.069 90.2906 200.292 90.2906 200.292Z" fill="#F2E9DD"/>
</svg>
