<svg width="151" height="320" viewBox="0 0 151 320" fill="none" xmlns="http://www.w3.org/2000/svg">
<path fill-rule="evenodd" clip-rule="evenodd" d="M36.2981 275.743C35.0234 274.906 34.2271 278.467 34.1424 279.002C33.9317 280.313 34.1649 281.602 35.2168 282.505C36.3896 283.516 37.1444 283.273 38.4382 282.531C39.9012 281.692 41.0705 279.965 42.9705 280.243C44.0674 280.401 44.4059 280.69 44.7496 279.336C45.0364 278.218 44.7151 278.137 43.8065 277.652C42.6614 277.034 41.2415 276.601 39.9893 276.242C39.7699 276.178 36.5278 275.283 36.1824 275.773C36.02 276.004 35.7678 275.814 35.7488 275.586C35.7419 275.503 35.7367 275.422 35.7298 275.34C35.716 275.139 35.7402 274.754 35.9924 274.687C37.8215 274.197 40.0342 275.013 41.7217 275.683C42.7477 276.094 45.2471 276.672 45.6806 277.857C45.8724 278.377 45.5943 278.7 45.4716 279.173C45.3334 279.708 45.2436 280.988 44.6477 281.338C44.4629 281.447 44.3109 281.485 44.1019 281.516C43.2745 281.646 42.9204 280.99 41.872 281.297C41.2053 281.494 40.7113 281.949 40.2104 282.398C39.0254 283.458 37.5383 285.142 35.7954 284.478C34.3722 283.937 33.4032 282.381 33.1907 280.922C32.98 279.48 33.6709 273.7 36.2912 274.748C36.4553 274.815 36.495 275.041 36.5002 275.193C36.5036 275.3 36.5071 275.405 36.5105 275.51C36.5123 275.59 36.4242 275.828 36.2981 275.743Z" fill="#F2E9DD"/>
<path fill-rule="evenodd" clip-rule="evenodd" d="M40.9857 282.976C41.0445 287.891 44.8479 291.533 45.4594 296.251C45.5613 297.024 45.3333 297.846 45.4283 298.595C46.0104 303.158 46.6598 305.079 48.5667 308.92C49.3077 310.411 51.2855 317.932 54.8575 313.713C55.5207 312.929 53.9593 311.295 55.0457 310.337C55.8869 309.597 57.0908 310.325 58.0788 310.337C58.8734 310.905 59.8355 310.877 60.9599 310.256C62.0775 307.074 61.485 304.114 59.1808 301.375C58.103 300.2 56.6504 299.685 55.6658 298.331C55.3048 297.837 55.272 297.14 55.0233 296.589C53.3375 292.829 53.4877 292.151 51.0799 289.258C48.8673 286.6 47.2765 282.98 44.3971 280.985C43.9946 280.705 44.2796 279.588 44.8186 279.961C51.8226 284.79 53.8919 294.208 58.9356 299.982C62.1362 303.648 64.2435 308.939 60.1533 312.796C60.0704 312.874 59.9374 312.895 59.8355 312.852C56.6884 311.53 56.7039 310.244 56.1356 314.251C55.9923 315.269 56.3775 316.008 55.5173 316.84C53.4031 318.89 50.2733 315.865 49.1886 314.217C48.0209 312.444 46.8913 309.205 45.9499 307.139C45.0224 305.113 44.6044 303.187 44.2986 301.019C43.7787 297.311 43.4972 294.297 42.0946 290.763C41.0479 288.119 40.2154 285.807 40.3777 282.961C40.4088 282.393 40.9806 282.405 40.9857 282.976Z" fill="#F2E9DD"/>
<path fill-rule="evenodd" clip-rule="evenodd" d="M51.2492 317.252C46.5545 317.61 45.4905 321.707 41.2258 317.884C37.5951 314.626 36.918 309.973 35.9404 305.432C34.9541 300.856 32.2889 295.117 32.5774 290.535C32.7104 288.404 34.4255 284.271 36.0354 282.916C36.4551 282.562 36.6693 283.489 36.4361 283.755C32.339 288.414 34.7416 295.866 35.9231 301.246C36.9335 305.845 37.5415 313.878 41.7233 316.679C45.5095 319.215 47.7307 315.825 51.2699 316.443C51.6205 316.505 51.6171 317.225 51.2492 317.252Z" fill="#F2E9DD"/>
<path fill-rule="evenodd" clip-rule="evenodd" d="M45.5251 278.494C48.838 280.985 52.6968 282.907 55.0752 286.45C56.0097 287.84 56.6591 289.685 57.4554 291.153C58.6714 293.397 60.2708 294.909 62.0361 296.736C64.2488 299.025 65.1469 299.815 64.9604 303.111C64.8049 305.905 64.6374 308.171 61.7943 309.119C61.2865 309.29 61.2208 308.242 61.6319 308.064C67.7689 305.4 62.3349 298.478 59.896 296.027C58.5574 294.683 57.1842 293.556 56.2411 291.873C54.9785 289.629 54.747 287.705 52.9317 285.574C50.7449 283.004 47.6566 281.459 45.2678 279.121C45.0639 278.922 45.1969 278.248 45.5251 278.494Z" fill="#F2E9DD"/>
<path fill-rule="evenodd" clip-rule="evenodd" d="M55.7093 237.233C55.7179 237.299 55.7266 237.366 55.7352 237.432C55.7542 237.584 55.6212 238.007 55.407 237.796C53.412 235.83 52.9163 232.198 52.8593 229.514C52.8161 227.421 53.5122 225.545 55.768 225.156C58.1257 224.752 61.4438 226.456 62.8585 228.318C63.577 229.264 63.7912 230.206 63.7843 231.376C63.7757 232.867 63.691 233.585 64.4147 234.966C64.8155 235.734 65.3198 236.428 65.7033 237.206C65.8864 237.577 65.5254 238.538 65.1834 237.957C64.4389 236.698 63.2437 235.354 62.9017 233.904C62.7479 233.25 62.9535 232.608 62.9276 231.959C62.8291 229.702 62.2004 228.753 60.2935 227.721C57.7319 226.335 54.2307 225.234 53.7074 229.362C53.5796 230.375 53.8767 231.808 54.0667 232.826C54.3119 234.153 55.4329 235.946 55.3241 237.303C55.3466 237.028 55.6644 236.88 55.7093 237.233Z" fill="#F2E9DD"/>
<path fill-rule="evenodd" clip-rule="evenodd" d="M56.673 236.133C56.5072 236.405 56.3396 236.675 56.1721 236.946C56.0909 236.811 56.0062 236.676 55.9216 236.542C57.8078 236.782 59.8477 236.399 61.6665 236.977C62.1985 237.144 64.3732 237.855 63.8757 238.858C63.5389 239.541 62.2521 238.342 61.7632 238.159C59.8408 237.444 57.7128 238.214 55.8335 237.32C55.6073 237.213 55.6038 236.832 55.7351 236.652C55.9786 236.319 56.2308 236.112 56.5832 235.881C56.7179 235.791 56.7611 236.059 56.673 236.133Z" fill="#F2E9DD"/>
<path fill-rule="evenodd" clip-rule="evenodd" d="M61.1816 237.993C61.1677 241.781 63.7915 245.743 63.9348 249.79C64.0644 253.466 64.6586 257.998 63.6222 261.631C62.3855 265.963 56.9428 272.027 51.8301 268.705C47.2097 265.704 51.1202 256.1 51.723 252.591C52.4416 248.418 52.597 244.266 53.2154 240.105C53.471 238.374 53.6541 236.717 55.4107 236.06C55.7683 235.925 55.884 236.421 55.8996 236.657C55.9065 236.764 55.9134 236.869 55.9203 236.976C55.9548 237.556 55.2881 237.749 55.1707 237.111C53.9063 239.261 53.5246 241.603 54.0289 244.138C54.1861 244.791 54.2828 245.448 54.3191 246.113C54.0514 247.89 53.6679 248.194 53.2897 249.859C52.6851 252.524 52.4053 255.247 51.9096 257.931C51.2566 261.469 48.4326 266.365 54.6197 267.715C63.5203 269.654 63.2508 255.361 63.0349 249.77C62.8708 245.555 60.2402 241.926 60.7515 237.894C60.7998 237.51 61.1833 237.67 61.1816 237.993Z" fill="#F2E9DD"/>
<path fill-rule="evenodd" clip-rule="evenodd" d="M56.8231 271.686C60.1274 271.255 59.0185 274.133 64.3126 274.299C69.3182 274.454 71.2873 271.508 71.1249 267.456C71.0075 264.595 70.6499 262.481 70.8986 259.65C71.308 254.991 71.973 254.133 68.268 250.619C67.2126 249.617 66.3335 249.456 65.4629 248.193C63.7149 245.649 62.2519 241.676 61.8805 238.58C61.7976 237.884 62.6181 237.372 62.7304 238.249C63.0465 240.706 65.532 246.486 67.261 248.509C68.9745 250.509 71.8918 251.57 72.9057 254.309C74.4378 258.444 71.7312 262.633 71.9834 267.12C72.1785 270.626 72.6622 272.112 69.2836 274.178C64.0345 277.39 60.972 274.218 56.5208 271.698C56.2065 271.52 56.2876 270.652 56.6987 270.834C56.7695 270.863 56.8386 270.896 56.9095 270.925C57.1927 271.051 57.1375 271.645 56.8231 271.686Z" fill="#F2E9DD"/>
<path fill-rule="evenodd" clip-rule="evenodd" d="M62.3591 237.339C66.2023 237.698 69.6654 240.829 71.8522 243.926C74.3722 247.497 76.1082 251.254 78.9772 254.633C80.0273 255.871 80.8962 256.471 81.2606 258.126C82.3713 263.181 77.3 272.378 71.5516 270.374C71.0956 270.216 71.2321 269.127 71.7813 269.268C71.9782 269.318 76.2584 267.57 76.3586 267.485C77.9442 266.136 78.4452 264.398 79.2293 262.563C81.1932 257.978 78.288 255.986 75.761 252.486C71.8228 247.029 69.5411 240.076 62.271 238.11C61.9877 238.034 62.0395 237.31 62.3591 237.339Z" fill="#F2E9DD"/>
<path fill-rule="evenodd" clip-rule="evenodd" d="M17.6627 219.981C17.2568 217.544 17.8821 215.335 18.7544 212.947C19.732 210.277 21.2296 208.623 24.3956 209.326C27.0954 209.925 28.6603 212.988 29.2752 215.484C29.574 216.695 29.5826 218.05 29.4427 219.282C29.2527 220.928 29.2804 222.378 29.3754 224.025C29.4134 224.703 28.5497 224.972 28.4789 224.183C28.4219 223.54 27.9417 222.991 27.8744 222.363C27.7863 221.545 28.0799 221.084 28.2388 220.34C28.8399 217.536 28.3476 212.755 25.4234 211.155C24.4354 210.615 22.677 210.316 21.594 210.795C20.2554 211.386 19.6405 213.209 19.1914 214.474C18.5696 216.227 17.9201 218.036 18.0686 219.821C18.0963 220.148 17.7336 220.407 17.6627 219.981Z" fill="#F2E9DD"/>
<path fill-rule="evenodd" clip-rule="evenodd" d="M18.3779 219.453C20.2866 225.113 28.6034 219.505 31.5709 225.022C33.5417 228.682 31.5139 232.06 33.7921 236.424C34.5487 237.872 35.718 238.763 35.946 240.427C36.041 241.127 35.5781 241.862 35.5367 242.554C35.3829 245.11 35.5073 248.529 35.1429 251.02C34.9995 252.003 35.2223 252.423 34.6851 253.175C32.8421 255.765 29.4774 253.945 28.0956 251.903C27.966 251.715 28.1509 251.254 28.3599 251.52C30.1338 254.355 32.0493 253.974 34.1065 250.381C33.9372 249.725 33.8129 249.061 33.7351 248.384C33.9821 247.264 33.9649 245.107 34.0391 243.933C34.7439 242.441 34.8129 240.891 34.2447 239.286C33.4674 238.193 32.7748 237.049 32.165 235.851C31.386 233.925 31.7367 233.522 31.2582 231.457C30.5915 228.589 32.7299 226.796 28.7761 224.282C26.3079 222.713 24.147 224.147 21.6753 223.408C19.5749 222.784 18.3987 221.672 18.0619 219.646C18.0273 219.441 18.276 219.152 18.3779 219.453Z" fill="#F2E9DD"/>
<path fill-rule="evenodd" clip-rule="evenodd" d="M26.6451 223.159C24.4428 224.171 25.1545 232.979 25.4412 234.398C26.1148 237.743 28.001 240.357 28.4535 243.8C28.628 245.126 28.6366 247.126 28.8094 248.289C28.9821 249.454 29.9805 250.784 29.9096 251.967C29.8716 252.648 29.6713 253.649 29.2084 254.152C26.8748 256.688 19.7723 254.781 18.3663 251.785C16.7513 248.348 20.3906 248.81 20.4114 245.074C20.4165 244.43 21.104 244.449 21.1005 245.091C21.0954 245.888 20.9537 246.674 20.8933 247.431C20.8587 247.859 20.0642 248.296 20.0383 248.584C19.8034 251.126 21.2042 253.91 24.22 253.974C26.3186 254.019 28.3188 252.521 28.438 250.643C28.4674 250.187 27.8922 249.19 27.7747 248.695C27.3274 246.813 27.564 244.782 27.1339 242.904C26.0837 238.319 23.9091 235.375 24.1872 230.575C24.3236 228.22 23.8728 224.302 25.702 222.386C25.7832 222.303 25.9006 222.307 26.0008 222.335C26.2219 222.397 26.4413 222.461 26.6624 222.524C26.9025 222.595 26.8334 223.071 26.6451 223.159Z" fill="#F2E9DD"/>
<path fill-rule="evenodd" clip-rule="evenodd" d="M19.4178 221.121C19.0879 223.605 17.2777 225.187 16.3156 227.455C14.7576 231.136 15.5936 234.917 14.4553 238.583C13.9095 240.342 13.1046 240.192 12.2064 241.641C9.69152 245.702 9.51879 249.276 13.6867 251.055C15.6644 251.899 16.8252 252.655 18.4609 250.413C18.8409 249.892 19.1 250.805 18.9134 251.142C15.6575 257.025 7.51343 250.32 8.25443 245.07C8.45479 243.653 9.00579 242.596 9.95752 241.531C10.5655 240.851 11.7383 240.452 12.2928 239.745C13.8663 237.734 13.4034 236.101 13.7592 234.086C14.1082 232.115 14.1928 230.222 14.825 228.316C15.7422 225.548 18.0982 223.607 18.9169 220.895C19.0723 220.381 19.4713 220.707 19.4178 221.121Z" fill="#F2E9DD"/>
<path fill-rule="evenodd" clip-rule="evenodd" d="M19.2315 248.524C22.0228 242.345 19.4215 237.192 18.95 231.048C18.6305 226.889 20.6272 224.865 22.2888 221.306C22.5324 220.787 22.9866 221.294 22.8692 221.7C22.7224 222.21 22.5963 222.733 22.427 223.237C21.1834 226.95 20.7343 224.618 20.6686 230.101C20.6289 233.397 21.1782 235.865 21.3924 239.056C21.6221 242.444 21.2335 245.963 19.7635 249.021C19.4906 249.59 19.0485 248.928 19.2315 248.524Z" fill="#F2E9DD"/>
<path fill-rule="evenodd" clip-rule="evenodd" d="M87.9373 204.724C84.8749 201.266 83.6364 197.7 83.8385 193.124C83.9145 191.393 83.9439 189.777 84.5381 188.153C84.8662 187.258 85.3482 185.268 86.0961 184.624C88.041 182.952 91.2658 184.596 92.5457 186.395C95.1971 190.122 92.6442 195.3 94.5752 199.091C94.862 199.654 94.2643 201.012 93.8204 200.179C91.7702 196.315 94.9673 187.354 89.4832 185.785C86.3051 184.878 85.3084 189.092 84.906 191.643C84.1771 196.28 85.381 200.477 88.2638 204.122C88.4296 204.334 88.1964 205.016 87.9373 204.724Z" fill="#F2E9DD"/>
<path fill-rule="evenodd" clip-rule="evenodd" d="M92.2624 206.098C87.6402 208.951 95.4457 218.184 95.9501 222.739C96.1988 225.003 95.2506 227.402 95.5511 229.611C95.862 231.88 97.2145 235.441 99.7311 236.569C101.662 237.436 104.288 237.96 105.027 235.47C105.208 234.856 105.754 235.23 105.635 235.743C104.146 242.268 94.5856 236.866 94.0207 231.918C93.5354 227.674 95.1676 223.912 93.9672 219.423C93.1087 216.21 90.0497 214.022 89.2776 210.993C88.7007 208.72 89.5316 205.896 92.0344 205.198C92.4696 205.073 92.5577 205.917 92.2624 206.098Z" fill="#F2E9DD"/>
<path fill-rule="evenodd" clip-rule="evenodd" d="M105.066 234.785C106.22 230.206 105.341 226.603 103.199 222.561C102.403 221.061 101.546 219.65 101.137 217.977C100.592 215.768 101.01 213.482 100.608 211.267C100.074 208.351 98.6182 204.425 95.4763 204.618C95.2932 204.628 92.5589 205.726 92.5572 205.729C92.2601 206.609 91.5122 205.724 91.6469 205.113C91.6659 205.02 91.6867 204.927 91.7074 204.835C91.7506 204.633 91.8663 204.356 92.0839 204.288C94.3829 203.577 96.0273 201.772 98.4714 203.236C100.795 204.627 101.385 208.504 101.703 210.839C102.154 214.141 102.093 217.498 103.505 220.644C104.197 222.19 105.633 223.4 106.216 224.994C107.363 228.134 106.593 232.07 105.645 235.178C105.477 235.729 104.966 235.184 105.066 234.785Z" fill="#F2E9DD"/>
<path fill-rule="evenodd" clip-rule="evenodd" d="M105.638 236.495C105.562 236.502 105.488 236.511 105.412 236.518C104.94 236.561 104.973 235.556 105.341 235.42C112.439 232.799 111.518 225.108 108.024 219.834C106.873 218.096 106.454 217.791 105.801 215.522C104.807 212.056 104.623 208.473 102.282 205.472C101.596 204.594 95.8515 200.488 95.1433 202.09C94.8031 202.858 94.1813 202.096 94.3143 201.529C94.3661 201.313 94.4162 201.097 94.4663 200.882C94.5302 200.616 94.6804 200.336 94.9793 200.314C105.517 199.527 105.236 212.615 108.713 218.471C110.849 222.066 113.273 225.498 112.28 229.956C111.936 231.504 111.266 232.9 110.181 234.072C109.827 234.455 109.45 234.818 109.025 235.113C107.45 236.209 106.984 235.65 105.664 235.439C106.129 235.513 106.113 236.45 105.638 236.495Z" fill="#F2E9DD"/>
<path fill-rule="evenodd" clip-rule="evenodd" d="M95.0965 233C94.549 235.53 90.9269 236.241 88.7039 236.205C84.5999 236.138 84.0662 232.659 83.7587 228.903C83.2336 222.52 84.3667 215.138 85.0473 208.775C85.4929 204.613 87.7418 204.314 91.7871 204.878C92.4607 204.973 92.4383 206.464 91.7491 206.42C87.9974 206.188 86.2771 207.595 86.1303 211.461C85.9852 215.261 85.4152 219.051 85.1025 222.837C84.7847 226.698 84.2994 229.625 86.9939 232.666C88.8248 234.728 89.4432 235.004 91.9823 234.155C92.8614 233.86 94.2122 233.618 94.6734 232.717C94.8685 232.338 95.1587 232.707 95.0965 233Z" fill="#F2E9DD"/>
<path fill-rule="evenodd" clip-rule="evenodd" d="M36.6646 178.398C28.3202 181.216 26.8399 190.026 17.0065 190.119C13.0597 190.157 11.1839 187.047 7.90035 185.196C6.23353 184.255 5.49253 185.684 4.51317 182.971C3.09335 179.024 10.0128 177.882 12.6849 177.032C21.3334 174.283 28.2597 173.94 37.0602 176.102C37.15 176.125 37.1293 176.363 37.0308 176.346C30.557 175.143 24.5167 174.78 18.2191 176.691C14.806 177.725 3.89999 178.681 7.80708 183.684C8.30972 184.326 10.6433 185.299 11.2547 185.649C15.3484 188.003 20.5924 189.056 25.0314 186.01C29.6053 182.874 30.5207 178.619 36.5126 177.416C36.998 177.317 37.0688 178.261 36.6646 178.398Z" fill="#F2E9DD"/>
<path fill-rule="evenodd" clip-rule="evenodd" d="M9.19919 178.629C4.19528 181.53 -2.71899 173.954 1.90492 170.278C3.64083 168.899 6.94683 168.956 8.95738 168.878C12.5449 168.738 14.7316 166.541 17.9806 166.17C20.689 165.861 23.5096 168.309 25.7931 169.429C29.2079 171.103 32.1616 173.162 35.4796 174.906C35.8873 175.122 35.7249 176.203 35.262 175.961C31.9336 174.237 28.9816 172.204 25.5513 170.594C22.8118 169.306 21.8446 168.688 18.5316 168.813C15.0754 168.942 15.749 169.839 13.507 170.126C11.0284 170.443 8.26128 169.907 5.79301 170.538C-1.32335 172.354 3.68574 178.895 9.08519 177.887C9.47556 177.814 9.46174 178.477 9.19919 178.629Z" fill="#F2E9DD"/>
<path fill-rule="evenodd" clip-rule="evenodd" d="M5.95752 168.967C5.49807 166.462 4.55843 162.915 6.83498 160.967C8.52252 159.522 12.0375 159.719 13.96 160.171C17.2539 160.944 19.1332 162.687 22.7 162.925C27.8058 163.272 30.9684 163.63 33.3382 168.572C34.2917 170.56 35.6044 174.79 37.4837 175.962C37.9449 176.25 37.7376 177.519 37.2281 177.205C33.9963 175.21 33.7977 171.054 31.9927 168.153C28.6297 162.744 24.3633 165.361 19.5736 164.222C18.0795 163.866 17.1485 162.965 15.7684 162.352C10.521 160.021 5.98516 162.404 6.64325 168.7C6.70025 169.252 6.08879 169.675 5.95752 168.967Z" fill="#F2E9DD"/>
<path fill-rule="evenodd" clip-rule="evenodd" d="M36.6927 177.621C36.6201 177.636 36.5476 177.652 36.475 177.666C36.0311 177.761 35.9586 176.865 36.3351 176.77C40.3804 175.754 44.5967 176.81 48.5901 175.479C51.6906 174.445 55.3593 170.29 50.9133 169.016C48.9736 168.46 46.7281 167.651 44.7003 167.805C42.4669 167.977 41.5688 169.508 39.591 169.862C38.6272 170.034 37.7342 169.599 36.7911 169.641C36.0018 169.675 35.0708 170.096 34.2814 170.065C33.0637 170.02 32.7389 169.953 31.8805 169.049C31.7233 168.883 31.7492 168.165 32.0947 168.345C34.6631 169.675 39.9779 167.734 42.1629 167.042C44.0215 166.453 45.1252 166.286 47.2791 166.634C49.1498 166.936 53.4092 167.333 54.3057 169.28C54.7288 170.197 53.7201 173.303 53.4127 173.924C52.8858 174.991 52.6475 175.227 51.6008 175.809C47.0269 178.346 41.3891 177.59 36.3938 177.681C36.4284 177.378 36.4629 177.077 36.4975 176.774C36.5683 176.793 36.6408 176.812 36.7117 176.831C36.9811 176.903 36.9638 177.564 36.6927 177.621Z" fill="#F2E9DD"/>
<path fill-rule="evenodd" clip-rule="evenodd" d="M112.953 144.184C113.055 144.957 112.941 145.73 113.007 146.5C113.084 147.401 113.618 148.296 114.247 148.93C115.32 150.012 117.021 150.441 118.309 149.492C118.928 149.037 119.232 150.391 118.752 150.733C117.147 151.879 115.114 151.453 113.772 150.079C112.153 148.42 111.898 146.337 112.501 144.172C112.585 143.871 112.905 143.837 112.953 144.184Z" fill="#F2E9DD"/>
<path fill-rule="evenodd" clip-rule="evenodd" d="M112.341 145.63C112.258 143.274 112.989 139.51 115.951 139.355C117.544 139.272 118.929 140.358 119.744 141.643C120.356 142.61 121.093 144.322 120.407 145.388C120.309 145.542 120.097 145.547 120.007 145.38C119.535 144.503 119.649 143.479 119.093 142.582C118.366 141.41 117.074 140.458 115.635 140.697C113.374 141.079 113.238 143.963 112.923 145.764C112.83 146.291 112.357 146.06 112.341 145.63Z" fill="#F2E9DD"/>
<path fill-rule="evenodd" clip-rule="evenodd" d="M120.119 150.298C119.765 151.561 128.179 152.78 128.951 152.795C131.113 152.84 133.146 152.208 135.271 151.972C140.104 151.427 148.167 153.715 148.958 146.532C149.018 145.98 149.6 145.965 149.568 146.548C149.229 152.288 147.813 153.708 142.374 153.235C134.153 152.521 127.129 155.96 119.411 151.392C119.055 151.182 119 150.488 119.339 150.229C119.489 150.115 119.637 150.001 119.788 149.887C120.03 149.701 120.171 150.115 120.119 150.298Z" fill="#F2E9DD"/>
<path fill-rule="evenodd" clip-rule="evenodd" d="M118.612 147.761C121.13 147.06 121.087 143.719 123.857 143.244C124.921 143.061 126.436 143.983 127.371 144.287C130.466 145.289 132.832 145.871 136.024 145.203C141.284 144.102 145.604 140.445 149.825 145.445C150.07 145.735 149.863 146.712 149.468 146.311C144.707 141.489 139.056 146.753 133.601 146.922C131.875 146.974 130.361 146.532 128.683 146.401C128.108 146.273 127.576 146.023 127.089 145.65C124.184 144.903 122.109 145.478 120.866 147.374C119.432 147.795 120.354 148.805 118.596 148.365C118.384 148.313 118.413 147.816 118.612 147.761Z" fill="#F2E9DD"/>
<path fill-rule="evenodd" clip-rule="evenodd" d="M119.563 141.917C121.303 140.337 122.745 139.739 124.776 138.637C127.253 137.29 129.044 134.933 131.618 133.792C136.062 131.828 141.006 134.08 145.189 135.654C150.621 137.696 152.202 141.37 149.576 146.832C149.255 147.502 148.721 146.724 148.948 146.246C150.886 142.166 150.006 139.294 146.162 137.681C143.312 136.486 141.142 135.382 137.924 134.814C133.091 133.963 130.977 136.352 127.277 138.69C124.854 140.223 122.154 140.861 119.841 142.697C119.454 143.003 119.301 142.154 119.563 141.917Z" fill="#F2E9DD"/>
<path fill-rule="evenodd" clip-rule="evenodd" d="M54.3014 120.69C54.5656 119.064 57.2187 118.452 58.566 118.334C61.4834 118.084 64.2263 118.498 66.1418 120.954C67.4079 122.575 66.8224 124.649 66.0019 126.332C65.4941 127.372 65.0934 128.594 64.2988 129.466C63.2227 130.639 61.8409 130.27 60.6836 131.059C60.0135 131.513 59.7129 130.106 60.2207 129.761C61.4747 128.905 62.9757 129.259 64.0259 127.856C64.5475 127.16 64.988 126.064 65.3196 125.248C65.9363 123.738 66.1263 122.854 64.8895 121.553C63.3333 119.915 61.5956 119.827 59.5108 119.781C58.4848 119.762 55.3464 119.881 54.7021 121.063C54.5035 121.425 54.272 120.882 54.3014 120.69Z" fill="#F2E9DD"/>
<path fill-rule="evenodd" clip-rule="evenodd" d="M55.0841 129.726C48.8849 133.093 44.5443 138.1 41.2901 144.206C39.9514 146.717 38.0946 148.753 35.2878 149.69C30.1112 151.42 19.9842 153.251 20.4574 145.407C20.4833 144.943 21.0464 144.701 21.1 145.291C21.6838 151.573 28.9591 149.261 32.6433 148.358C38.4729 146.929 39.3365 143.978 42.209 139.323C45.04 134.734 50.1786 131.214 54.977 129.048C55.2896 128.906 55.3311 129.593 55.0841 129.726Z" fill="#F2E9DD"/>
<path fill-rule="evenodd" clip-rule="evenodd" d="M22.0986 147.357C27.9748 153.139 36.4004 150.928 42.736 147.126C46.8262 144.67 61.9537 136.102 58.4784 129.445C58.2038 128.921 58.7651 127.661 59.1814 128.432C63.1334 135.782 51.8716 142.798 47.1216 145.992C39.4594 151.145 29.3721 155.715 21.9431 147.737C21.8257 147.609 21.9276 147.188 22.0986 147.357Z" fill="#F2E9DD"/>
<path fill-rule="evenodd" clip-rule="evenodd" d="M22.0827 148.451C21.3158 145.654 19.4469 142.057 21.2968 139.237C23.1191 136.46 27.7672 134.9 30.6759 133.47C33.633 132.013 30.1422 136.497 35.7385 130.86C36.5521 130.04 36.9217 128.782 37.7888 127.964C39.1153 126.708 41.2071 125.664 42.9533 125.208C47.8467 123.931 51.0093 127.127 55.8561 126.763C56.3915 126.723 56.3829 127.956 55.825 128.002C53.1961 128.23 51.7935 127.602 49.2164 126.841C46.5651 126.059 44.2453 126.057 41.6959 127.163C36.8388 129.269 38.1792 130.812 35.1703 133.323C29.035 138.443 20.0359 135.986 22.5819 148.148C22.651 148.477 22.2123 148.924 22.0827 148.451Z" fill="#F2E9DD"/>
<path fill-rule="evenodd" clip-rule="evenodd" d="M23.1293 140.368C23.2519 140.264 23.3728 140.161 23.4954 140.057C23.5403 140.019 23.5611 140.121 23.5283 140.15C23.4091 140.262 23.2882 140.371 23.169 140.48C23.1206 140.526 23.0878 140.404 23.1293 140.368Z" fill="#F2E9DD"/>
<path fill-rule="evenodd" clip-rule="evenodd" d="M24.0126 137.833C16.9412 138.143 12.1618 127.609 20.185 125.666C21.895 125.25 23.6758 125.693 25.3668 125.429C28.9077 124.874 30.9183 123.571 34.0066 121.27C36.3696 119.51 36.867 118.454 39.8984 118.246C47.3688 117.736 51.6283 123.873 57.2903 127.543C57.7169 127.823 57.5597 129.059 57.0381 128.757C53.3763 126.622 50.4641 123.079 46.7366 121.167C41.0453 118.248 37.3852 120.193 33.4056 124.211C31.357 126.278 30.4657 126.805 27.5553 127.083C25.7416 127.255 23.852 126.549 22.0246 126.984C14.4349 128.791 17.3402 136.388 24.0351 136.958C24.4237 136.992 24.403 137.817 24.0126 137.833Z" fill="#F2E9DD"/>
<path fill-rule="evenodd" clip-rule="evenodd" d="M21.378 126.622C21.4039 123.451 21.7752 121.063 24.7824 119.221C26.3508 118.26 28.1765 118.346 29.8952 117.948C33.0854 117.204 35.6953 114.96 38.687 114.218C50.0524 111.39 51.6035 123.006 59.682 127.445C60.0758 127.662 59.9082 128.712 59.4695 128.47C53.0821 124.951 51.0111 115.834 43.1986 115.121C39.1568 114.753 36.711 117.551 33.2236 118.717C27.9502 120.483 22.6734 119.453 21.8271 126.727C21.7804 127.127 21.3745 126.962 21.378 126.622Z" fill="#F2E9DD"/>
<path fill-rule="evenodd" clip-rule="evenodd" d="M61.1949 53.7667C60.9202 54.8488 60.6249 54.9834 60.7959 53.7823C60.972 52.5604 61.3607 51.1642 61.9289 50.0476C62.8979 48.1527 64.2383 47.4537 66.4009 47.9766C71.3979 49.1864 70.6603 56.7662 70.3045 60.4508C70.2423 61.11 69.5359 61.1186 69.5825 60.4335C69.807 57.1355 70.6569 52.5138 67.8604 49.9389C67.1108 49.2486 65.7894 48.9241 64.7703 49.0725C63.1674 49.3055 62.5698 50.5049 62.1034 51.8614C61.6871 53.0695 61.6042 54.3759 61.0947 55.5581C61.0273 55.7169 60.8874 55.7497 60.7786 55.6133C60.2829 54.9834 60.8097 54.3742 61.0169 53.6873C61.0705 53.513 61.2311 53.6183 61.1949 53.7667Z" fill="#F2E9DD"/>
<path fill-rule="evenodd" clip-rule="evenodd" d="M62.2525 57.5102C62.1782 57.5188 62.1022 57.5292 62.0262 57.5378C62.0331 57.3203 62.0383 57.1029 62.0435 56.8837C63.7552 56.9113 65.0231 57.9727 66.3289 58.9547C67.7245 60.004 68.2669 60.6183 68.5605 62.3614C68.5778 62.4615 68.4655 62.6824 68.3688 62.5254C68.0164 61.9472 67.8886 61.2362 67.4171 60.7305C67.0371 60.3198 66.474 60.0178 66.0318 59.6761C64.7726 58.7079 63.6153 57.8674 62.0262 57.5378C61.7136 57.4722 61.7689 56.8164 62.1005 56.8975C62.1713 56.9165 62.2439 56.932 62.3164 56.951C62.5427 57.0045 62.4701 57.486 62.2525 57.5102Z" fill="#F2E9DD"/>
<path fill-rule="evenodd" clip-rule="evenodd" d="M67.9926 60.0794C70.4764 63.034 71.6509 65.69 72.1501 69.4609C72.8704 74.8851 74.019 80.2679 74.6443 85.6973C75.0761 89.4561 73.9551 95.398 69.5782 95.5396C64.1027 95.719 63.3635 90.9109 62.9714 86.8932C62.0818 77.7396 59.9417 67.9405 62.4187 58.7851C62.6484 57.9308 63.4101 58.4589 63.2564 59.1596C61.8279 65.728 61.7657 75.0991 62.6829 81.7158C63.2028 85.447 63.6312 93.8949 68.3 94.6456C73.8843 95.5413 73.5665 85.114 73.0068 81.9626C71.7304 74.7867 71.6751 66.7324 67.7628 60.5057C67.6713 60.359 67.8077 59.8602 67.9926 60.0794Z" fill="#F2E9DD"/>
<path fill-rule="evenodd" clip-rule="evenodd" d="M63.612 89.1525C63.5688 91.774 61.4443 94.1798 58.5528 94.0883C54.3918 93.9554 52.4677 87.2351 52.2414 84.0924C51.8838 79.1152 55.6925 74.7575 56.4646 69.6819C56.8515 67.1398 56.7029 64.0127 58.3628 61.8537C59.6065 60.2366 62.0333 59.5394 62.8624 57.6151C63.2182 56.7884 63.8694 57.7428 63.6224 58.3261C62.9626 59.8863 62.244 59.8241 61.3597 61.0339C58.6565 64.7323 58.0088 65.8386 57.4578 69.8338C57.2695 71.1851 57.1106 72.5088 56.7358 73.8308C55.9948 76.4298 53.4868 79.2999 53.2881 81.9645C53.3261 81.4416 54.036 85.9339 54.4454 86.6207C54.4609 86.6863 54.4782 86.7502 54.4938 86.8123C54.5611 90.4348 57.437 91.1786 63.1215 89.0386C63.1958 88.6054 63.6189 88.7763 63.612 89.1525Z" fill="#F2E9DD"/>
<path fill-rule="evenodd" clip-rule="evenodd" d="M51.6086 87.0488C51.6881 87.123 51.7675 87.1955 51.847 87.2697C52.0629 87.4733 52.056 88.1447 51.6673 88.1499C46.5391 88.2361 46.9329 77.8623 48.1852 74.994C49.4271 72.1551 52.645 69.9529 54.5312 67.5144C56.7282 64.6772 57.8095 60.1452 60.0861 57.4167C61.2261 56.0464 60.1482 56.3691 61.8721 55.9566C62.4282 55.8255 62.5181 56.9628 62.0482 57.0853C59.314 57.7912 59.1447 63.2844 57.7871 65.4227C56.9148 66.7964 55.4881 67.9061 54.4241 69.1004C53.3791 70.2739 51.9592 71.6874 51.0559 73.0007C47.3353 78.4111 48.731 82.163 51.2476 87.57C51.1561 87.3767 51.3288 86.7865 51.6086 87.0488Z" fill="#F2E9DD"/>
<path fill-rule="evenodd" clip-rule="evenodd" d="M107.515 93.3447C105.874 91.9503 105.183 90.3936 105.107 88.2587C105.059 86.9437 104.869 84.4689 106.125 83.5732C107.807 82.3755 110.611 84.8796 111.649 86.029C112.416 86.8781 113.158 87.7272 113.566 88.8093C114.145 90.3401 114.164 91.9347 115.095 93.3447C115.333 93.7071 114.981 94.5976 114.585 94.0799C113.732 92.965 113.512 91.6914 113.167 90.366C112.606 88.2208 111.013 86.5105 109.149 85.3629C108.84 85.1713 108.521 84.9435 108.177 84.8192C107.384 84.531 106.826 84.4344 106.332 85.0626C105.816 85.7218 105.912 86.7176 105.907 87.5132C105.897 89.529 106.446 91.0338 107.862 92.506C108.123 92.7769 107.935 93.7019 107.515 93.3447Z" fill="#F2E9DD"/>
<path fill-rule="evenodd" clip-rule="evenodd" d="M108.398 93.5482C108.417 93.4515 108.436 93.3566 108.455 93.2617C108.487 93.1081 108.585 92.9355 108.759 92.9269C112.734 92.7439 115.789 92.6214 118.173 96.3008C118.665 97.0619 118.897 98.339 119.42 99.1847C120.626 101.135 122.329 102.032 124.146 103.318C126.215 104.785 128.333 106.033 130.014 107.947C134.031 112.511 134.226 121.322 127.407 123.413C123.685 124.554 122.118 121.33 118.928 120.633C115.244 119.827 115.375 121.287 113.221 118.151C110.423 114.077 108.68 113.255 108.196 108.074C107.752 103.321 106.927 97.6918 107.391 92.9183C107.445 92.3746 108.013 92.366 107.987 92.9338C107.842 96.0851 108.582 99.4435 108.77 102.609C109.013 106.761 108.974 110.784 111.775 114.054C112.622 115.043 113.848 117.169 114.781 118.02C116.712 119.78 118.386 118.861 120.937 119.496C124.545 120.397 126.436 124.461 130.167 120.705C135.736 115.102 128.032 107.981 123.685 104.935C121.351 103.301 119.489 101.911 117.898 99.6126C117.589 99.1657 117.84 98.4892 117.586 98.0439C116.429 95.0962 114.446 93.7328 111.635 93.9555C110.725 94.097 109.818 94.078 108.915 93.8968C108.74 94.399 108.329 93.8899 108.398 93.5482Z" fill="#F2E9DD"/>
<path fill-rule="evenodd" clip-rule="evenodd" d="M114.416 91.8792C116.758 93.7776 119.221 94.9149 122.05 95.5655C124.028 96.0211 126.196 96.5682 127.982 97.5847C130.453 98.9878 131.141 100.941 131.797 103.523C131.972 104.214 131.954 105.508 132.229 106.165C133.098 108.247 134.419 108.804 134.647 111.099C134.858 113.215 134.397 115.923 132.355 116.826C131.946 117.009 131.859 116.087 132.213 115.918C136.153 114.044 132.397 109.244 131.592 106.581C131.039 104.764 130.951 102.557 129.783 100.986C127.325 97.6865 123.743 97.9868 120.262 96.7943C117.95 96.0004 115.906 94.3626 114.065 92.73C113.766 92.4642 113.992 91.5375 114.416 91.8792Z" fill="#F2E9DD"/>
<path fill-rule="evenodd" clip-rule="evenodd" d="M67.3132 48.4272C66.8745 45.9541 67.3081 45.4018 69.5431 44.2369C72.103 42.9011 73.5953 40.9941 74.4348 38.2277C74.6904 37.3751 76.0342 33.8268 74.9996 33.1572C74.6611 32.9398 74.7785 31.9561 75.1982 32.1942C77.5456 33.5317 75.5281 37.6512 74.9011 39.5393C74.3674 41.1546 73.6402 42.5542 72.3949 43.745C70.7989 45.2689 67.8901 45.747 67.9212 48.3167C67.9264 48.7844 67.4065 48.9535 67.3132 48.4272Z" fill="#F2E9DD"/>
<path fill-rule="evenodd" clip-rule="evenodd" d="M68.5272 47.818C69.7 46.068 70.7934 44.9721 72.4153 43.607C73.1684 42.9702 73.9215 42.3161 74.5934 41.5947C75.1806 40.9648 76.9925 38.8127 76.065 37.7876C75.9406 37.6495 75.9337 37.3458 76.122 37.256C76.2066 37.2163 76.2913 37.1749 76.3742 37.1369C76.5279 37.0627 76.6937 37.2319 76.7283 37.3665C77.1342 38.937 76.5262 40.737 75.4553 41.9122C74.469 42.9943 73.3083 43.9522 72.1821 44.8806C70.9108 45.9265 69.9712 47.2364 68.7517 48.2908C68.503 48.5048 68.427 47.9646 68.5272 47.818Z" fill="#F2E9DD"/>
<path fill-rule="evenodd" clip-rule="evenodd" d="M107.101 84.7933C101.157 81.0362 90.6952 79.4261 91.1961 70.3397C91.2375 69.5562 91.9854 69.5924 92.0234 70.3604C92.1582 72.9474 93.2394 75.9106 95.5332 77.3361C96.7268 78.0782 98.2071 78.6046 99.4662 79.2276C102.302 80.6307 104.833 81.9958 107.363 83.9218C107.629 84.1237 107.46 85.0211 107.101 84.7933Z" fill="#F2E9DD"/>
<path fill-rule="evenodd" clip-rule="evenodd" d="M105.438 83.4781C103.356 80.9705 100.935 79.2119 98.1847 77.4947C96.6388 76.5317 94.7094 74.768 94.0341 73.0421C93.9615 72.8575 94.1256 72.4657 94.326 72.716C95.9479 74.7352 98.0845 76.2246 100.216 77.638C102.389 79.0808 104.142 80.9101 105.707 82.9776C105.843 83.1588 105.641 83.7266 105.438 83.4781Z" fill="#F2E9DD"/>
<path fill-rule="evenodd" clip-rule="evenodd" d="M65.2609 118.912C69.4271 118.961 71.4756 118.671 73.7573 114.722C75.5779 111.576 74.6987 108.42 75.742 105.253C76.3102 103.523 77.7266 101.396 78.7923 99.9096C80.2156 97.9266 84.349 96.5943 84.5821 93.9038C84.6478 93.1306 85.4648 93.1255 85.4233 93.9245C85.3111 96.1387 84.0519 96.8808 82.3971 98.2891C78.3812 101.708 76.7939 105.406 76.2239 110.456C75.5071 116.804 71.7917 121.211 65.2384 119.896C64.8221 119.812 64.8083 118.907 65.2609 118.912Z" fill="#F2E9DD"/>
<path fill-rule="evenodd" clip-rule="evenodd" d="M112.818 141.667C107.92 139.936 104.452 139.4 100.698 135.349C97.5995 132.005 97.8067 127.353 94.6925 123.983C92.0497 121.123 90.813 119.863 89.5866 116.015C89.2602 114.988 87.0406 104.174 87.032 104.171C86.6865 103.996 86.6658 103.052 87.1546 103.083C87.2462 103.087 87.336 103.092 87.4275 103.099C87.6676 103.113 87.7609 103.365 87.8058 103.56C88.6746 107.232 89.0425 110.934 90.2015 114.553C91.0825 117.311 91.2569 118.614 93.4626 121.208C94.4455 122.362 96.1123 123.199 96.9725 124.485C99.0987 127.662 98.394 130.679 101.223 134.077C104.367 137.852 108.942 138.599 113.012 140.735C113.357 140.917 113.278 141.83 112.818 141.667Z" fill="#F2E9DD"/>
<path fill-rule="evenodd" clip-rule="evenodd" d="M54.2538 173.231C53.7701 166.84 65.5035 167.718 69.2811 165.955C73.3764 164.046 77.8742 160.615 81.5343 157.885C87.9494 153.104 88.7215 147.121 86.7248 139.469C86.6211 139.075 87.103 138.466 87.243 139.03C88.2949 143.212 89.1136 146.631 88.3761 151.056C87.7629 154.728 85.3188 156.216 82.4843 158.547C79.0194 161.398 75.0173 164.037 71.1741 166.343C67.1962 168.726 55.3782 168.179 54.4731 173.236C54.4438 173.389 54.2659 173.393 54.2538 173.231Z" fill="#F2E9DD"/>
<path fill-rule="evenodd" clip-rule="evenodd" d="M87.6483 184.966C87.068 181.388 86.2976 177.75 86.3391 174.105C86.3926 169.675 88.1337 166.962 89.1252 162.829C90.3394 157.759 88.8868 153.989 87.98 149.44C87.4791 146.945 88.0923 144.454 87.5879 141.85C87.1353 139.51 86.3477 137.732 85.7691 135.466C85.6015 134.807 86.3961 133.744 86.6569 134.716C87.3305 137.204 89.0423 139.192 89.424 141.769C90.0562 146.025 89.0319 147.433 90.4068 151.877C90.4932 152.155 91.2566 153.251 91.3672 153.91C91.9648 157.432 91.0062 160.415 90.0959 163.735C88.132 170.89 87.6967 177.403 88.1873 184.755C88.2149 185.182 87.7416 185.534 87.6483 184.966Z" fill="#F2E9DD"/>
<path fill-rule="evenodd" clip-rule="evenodd" d="M87.7335 140.753C86.445 129.702 81.4428 120.619 82.9991 109.267C83.8524 103.04 83.5345 96.7619 84.2203 90.549C84.9267 84.1203 87.414 78.0351 87.9443 71.5116C89.0342 58.1055 84.3118 43.6346 76.014 33.4541C69.5246 25.493 70.0014 10.8478 68.4658 1.26439C68.3674 0.655167 69.0427 0.225433 69.2034 0.976166C70.7683 8.26251 71.4246 15.718 73.0638 22.9836C74.2746 28.3509 76.3214 30.9241 79.6499 34.9418C80.7122 36.224 81.429 37.1784 82.1614 38.6885C86.4398 47.4849 89.3364 58.3886 89.1706 68.1894C89.0756 73.8294 87.8873 79.4503 86.5434 84.9021C85.3015 89.9501 85.6055 93.2757 86.3189 98.4255C86.5434 100.048 86.9131 101.018 86.7248 102.69C86.5383 104.347 85.9562 105.047 85.4829 106.561C83.6814 112.332 83.1321 116.762 84.2807 122.708C85.4466 128.745 87.8527 134.495 88.1187 140.682C88.1308 140.975 87.7715 141.089 87.7335 140.753Z" fill="#F2E9DD"/>
<path fill-rule="evenodd" clip-rule="evenodd" d="M56.3156 226.406C56.5453 218.634 53.2807 220.661 51.1113 215.688C50.0663 213.295 50.8781 210.252 51.0975 207.765C51.759 200.229 54.2377 193.847 56.3898 186.842C56.5177 186.431 56.8683 186.847 56.813 187.126C55.1773 195.27 50.8401 202.783 51.7677 211.555C52.4413 217.937 57.9599 219.603 56.7508 226.506C56.6852 226.889 56.3069 226.742 56.3156 226.406Z" fill="#F2E9DD"/>
<path fill-rule="evenodd" clip-rule="evenodd" d="M26.3437 209.258C24.0965 208.409 24.404 205.764 25.0655 203.72C26.3437 199.766 30.3112 198.349 33.8521 196.957C36.678 195.847 39.027 194.924 41.0359 192.444C41.9738 191.286 42.5334 189.655 43.8306 188.825C46.6029 187.052 52.7831 187.175 55.8179 188.348C55.9595 188.402 56.0234 188.623 56.0131 188.759C56.0061 188.851 55.9975 188.944 55.9906 189.035C55.9716 189.282 55.7263 189.505 55.5916 189.189C55.089 188.017 49.5306 189.149 48.572 189.253C44.639 189.684 43.6423 191.755 41.3295 194.375C39.68 196.242 38.1358 197.04 35.9456 197.859C33.0852 198.931 20.844 204.623 26.5371 208.316C26.8498 208.518 26.8204 209.439 26.3437 209.258Z" fill="#F2E9DD"/>
<path fill-rule="evenodd" clip-rule="evenodd" d="M37.1501 274.325C36.5732 267.77 36.1276 262.296 38.7686 256.05C42.2801 247.744 43.7362 244.577 42.2542 235.799C41.603 231.946 41.0123 228.717 40.9898 224.696C40.9449 216.941 41.2904 211.942 45.1146 205.278C49.1149 198.313 51.6592 191.116 57.1675 185.173C57.5906 184.715 57.8739 185.822 57.6286 186.141C53.2448 191.874 50.4829 197.716 47.1873 204.046C44.7777 208.675 42.3958 212.038 42.192 217.456C41.9899 222.885 41.9536 229.794 43.2128 234.988C44.5895 240.668 45.0126 243.488 43.1196 249.402C42.0279 252.805 39.8101 255.765 38.7513 259.143C37.1069 264.374 37.5975 268.935 37.7719 274.214C37.7875 274.682 37.1967 274.877 37.1501 274.325Z" fill="#F2E9DD"/>
<path fill-rule="evenodd" clip-rule="evenodd" d="M55.6372 187.318C56.0259 178.161 66.0579 178.139 71.6128 173.322C74.5284 170.792 76.8343 167.052 78.9001 163.826C80.6222 161.134 83.6622 157.312 83.9075 154.143C83.9679 153.342 84.8039 153.34 84.778 154.165C84.6191 159.51 80.1023 164.084 77.1867 168.441C75.335 171.204 73.4437 173.853 70.6109 175.722C65.4291 179.146 57.3023 179.763 56.1209 187.432C56.0552 187.857 55.6199 187.693 55.6372 187.318Z" fill="#F2E9DD"/>
<path fill-rule="evenodd" clip-rule="evenodd" d="M38.5628 275.98C38.568 276.168 38.5749 276.356 38.5801 276.542C38.5853 276.729 38.3331 277.048 38.1932 276.774C33.7317 267.943 42.3266 256.875 43.85 248.564C46.016 236.738 43.7239 224.016 47.5257 212.529C50.7246 202.85 53.0702 190.5 61.273 183.521C66.574 179.012 72.3638 175.577 77.4178 170.604C81.8138 166.279 82.4079 159.936 86.7417 155.795C87.2409 155.316 87.5138 156.511 87.2443 156.849C84.2026 160.67 83.9107 165.844 80.7152 169.579C77.2762 173.598 72.483 177.524 68.1908 180.627C64.0488 183.625 60.2142 185.927 57.3124 190.302C53.4036 196.19 52.3378 202.885 49.9456 209.381C45.4322 221.639 47.1837 234.284 44.9676 246.991C44.3043 250.79 43.3802 254.367 41.9949 257.945C40.7893 261.06 40.0915 262.078 39.2382 265.064C38.1224 268.969 38.5525 272.038 38.1863 275.969C38.2191 275.622 38.5508 275.626 38.5628 275.98Z" fill="#F2E9DD"/>
<path fill-rule="evenodd" clip-rule="evenodd" d="M87.9075 151.918C87.9597 151.918 87.9579 152.039 87.9058 152.039C87.8519 152.039 87.8536 151.918 87.9075 151.918Z" fill="#F2E9DD"/>
<path fill-rule="evenodd" clip-rule="evenodd" d="M82.1505 155.499C82.432 155.386 82.4268 153.044 82.4787 152.754C83.3786 147.794 84.5479 143.911 83.8208 138.566C83.0366 132.81 81.2903 127.598 80.9207 121.737C80.3697 113.048 80.3956 103.128 82.8293 94.6527C83.0625 93.8415 83.8069 94.3386 83.6342 95.0134C80.9673 105.441 80.7929 118.609 82.5184 129.212C83.2559 133.737 84.9383 137.982 85.0368 142.634C85.1352 147.271 83.5807 151.299 82.6721 155.782C82.6548 155.869 82.5823 156.021 82.4666 156.011C82.3716 155.998 82.2766 155.988 82.1816 155.976C81.9778 155.953 81.9812 155.568 82.1505 155.499Z" fill="#F2E9DD"/>
<path fill-rule="evenodd" clip-rule="evenodd" d="M81.9694 97.1412C81.9728 97.2189 81.9746 97.2983 81.978 97.3759C81.9936 97.785 81.5376 97.9179 81.4512 97.4709C80.6584 93.3842 80.2231 88.8401 80.9728 84.7016C82.0022 79.0151 84.79 74.6471 85.0388 68.498C85.3773 60.1727 83.1318 51.2797 78.4958 44.3264C75.7357 40.1844 72.1015 36.5844 69.5848 32.282C65.0231 24.4917 63.0385 13.802 64.023 4.87099C64.5533 0.0749741 67.2513 -1.9356 71.2845 2.56703C71.5194 2.82935 71.3657 3.72678 70.9511 3.37816C59.729 -6.0154 68.4863 27.4394 69.5417 29.4965C73.6906 37.5836 81.1092 43.6447 83.8711 52.4963C85.9663 59.2201 86.7712 66.4133 85.7608 73.3907C85.3877 75.9759 84.4083 77.933 83.5464 80.3733C81.503 86.1496 82.0195 91.1855 81.4668 97.1291C81.5082 96.6632 81.9521 96.6684 81.9694 97.1412Z" fill="#F2E9DD"/>
<path fill-rule="evenodd" clip-rule="evenodd" d="M37.2653 282.662C37.3188 282.627 37.0563 282.203 36.9112 281.59C36.7471 280.988 36.7212 280.211 36.8197 279.642C36.9751 278.463 37.5227 277.652 37.3931 277.55C37.2998 277.443 36.507 278.221 36.3343 279.566C36.2307 280.204 36.3412 281.067 36.6124 281.687C36.8663 282.319 37.2411 282.686 37.2653 282.662Z" fill="#F2E9DD"/>
<path fill-rule="evenodd" clip-rule="evenodd" d="M40.6593 283.014C40.7094 282.98 40.3916 282.484 40.1325 281.777C39.8579 281.074 39.6644 280.167 39.6247 279.466C39.5021 278.035 39.7715 276.901 39.6161 276.853C39.4865 276.796 38.9943 277.939 39.1342 279.495C39.1843 280.248 39.4675 281.206 39.8441 281.899C40.2068 282.603 40.6317 283.038 40.6593 283.014Z" fill="#F2E9DD"/>
<path fill-rule="evenodd" clip-rule="evenodd" d="M38.566 280.966C38.6075 280.916 37.9684 279.696 37.958 278.857C37.8596 278.03 37.9373 277.355 37.7853 277.311C37.6471 277.261 37.3466 277.966 37.4692 278.914C37.5141 279.882 38.471 281.069 38.566 280.966Z" fill="#F2E9DD"/>
<path fill-rule="evenodd" clip-rule="evenodd" d="M56.9548 235.297C57.0187 235.275 56.687 234.274 56.4988 232.921C56.2846 231.571 56.2431 229.88 56.3796 228.601C56.5955 225.978 57.3486 224 57.1897 223.938C57.074 223.874 56.1119 225.802 55.8908 228.536C55.756 229.857 55.8752 231.602 56.1861 232.964C56.333 233.649 56.523 234.236 56.6698 234.65C56.827 235.061 56.934 235.304 56.9548 235.297Z" fill="#F2E9DD"/>
<path fill-rule="evenodd" clip-rule="evenodd" d="M58.9431 235.448C59.0018 235.429 58.8568 234.828 58.7894 234.032C58.7099 233.239 58.722 232.255 58.8118 231.514C58.9638 229.994 59.3318 228.824 59.1832 228.764C59.0519 228.703 58.475 229.839 58.3248 231.452C58.2367 232.234 58.2988 233.268 58.4785 234.074C58.646 234.885 58.9068 235.46 58.9431 235.448Z" fill="#F2E9DD"/>
<path fill-rule="evenodd" clip-rule="evenodd" d="M90.2672 202.968C90.338 202.956 90.1878 202.504 90.4538 202.034C90.6766 201.558 91.2379 201.152 91.6991 201.011C92.6768 200.617 93.3418 201.195 93.4523 201.099C93.5007 201.064 93.4143 200.818 93.0637 200.609C92.7199 200.395 92.1137 200.329 91.5368 200.547C90.9702 200.731 90.3398 201.292 90.1636 201.913C89.9477 202.542 90.2551 202.997 90.2672 202.968Z" fill="#F2E9DD"/>
<path fill-rule="evenodd" clip-rule="evenodd" d="M89.3433 202.837C89.3969 202.812 89.1741 202.367 89.2932 201.792C89.3813 201.213 89.8529 200.638 90.3434 200.508C91.3798 200.163 92.1605 200.823 92.2434 200.721C92.2987 200.678 92.1916 200.427 91.8271 200.2C91.4731 199.977 90.8461 199.815 90.1862 200.042C89.5057 200.232 88.9651 201.076 88.9823 201.755C88.9512 202.452 89.3209 202.869 89.3433 202.837Z" fill="#F2E9DD"/>
<path fill-rule="evenodd" clip-rule="evenodd" d="M86.4757 201.825C86.5414 201.855 86.8074 201.219 87.4154 200.6C87.9992 199.961 88.9129 199.383 89.6747 199.128C91.2258 198.52 92.5782 198.798 92.6093 198.634C92.6801 198.512 91.2396 197.99 89.514 198.662C88.6832 198.947 87.7263 199.649 87.1822 200.391C86.8989 200.753 86.7158 201.118 86.6036 201.382C86.5051 201.653 86.4567 201.818 86.4757 201.825Z" fill="#F2E9DD"/>
<path fill-rule="evenodd" clip-rule="evenodd" d="M86.4876 199.178C86.5567 199.183 86.574 198.745 86.9004 198.337C87.1941 197.918 87.752 197.575 88.2045 197.462C89.1476 197.154 89.8575 197.582 89.9542 197.461C89.9957 197.412 89.8679 197.209 89.5241 197.045C89.1873 196.881 88.6311 196.815 88.0698 196.991C87.5171 197.136 86.8901 197.625 86.6327 198.172C86.3425 198.715 86.4617 199.192 86.4876 199.178Z" fill="#F2E9DD"/>
<path fill-rule="evenodd" clip-rule="evenodd" d="M85.2372 197.519C85.3063 197.535 85.4082 196.953 85.8729 196.389C86.303 195.809 87.0595 195.303 87.6969 195.105C89.0061 194.61 90.0978 195.044 90.1582 194.893C90.2722 194.786 89.0649 194.064 87.5431 194.639C86.8194 194.868 86.0059 195.514 85.6155 196.209C85.1889 196.893 85.2096 197.526 85.2372 197.519Z" fill="#F2E9DD"/>
<path fill-rule="evenodd" clip-rule="evenodd" d="M85.4637 194.986C85.5328 194.991 85.5725 194.494 85.9059 193.98C86.2133 193.457 86.792 192.96 87.2998 192.727C88.3292 192.18 89.281 192.387 89.3242 192.233C89.4157 192.107 88.3102 191.633 87.0839 192.287C86.4949 192.561 85.88 193.201 85.6295 193.835C85.348 194.461 85.4361 194.993 85.4637 194.986Z" fill="#F2E9DD"/>
<path fill-rule="evenodd" clip-rule="evenodd" d="M86.249 192.468C86.3112 192.556 87.4788 191.897 88.1766 191.443C88.8848 190.979 89.3598 190.483 89.2752 190.363C89.1853 190.235 88.6067 190.556 87.902 191.036C87.2128 191.503 86.1972 192.396 86.249 192.468Z" fill="#F2E9DD"/>
<path fill-rule="evenodd" clip-rule="evenodd" d="M87.355 191.512C87.4362 191.529 88.058 190.34 88.6297 189.757C89.1669 189.13 89.6367 188.658 89.5521 188.528C89.4692 188.404 88.8387 188.74 88.2566 189.441C87.6365 190.1 87.2393 191.488 87.355 191.512Z" fill="#F2E9DD"/>
<path fill-rule="evenodd" clip-rule="evenodd" d="M18.2608 219.05C18.2539 219.159 20.1021 219.406 21.2541 219.503C22.4304 219.601 23.3735 219.525 23.3821 219.377C23.3925 219.221 22.4822 219.097 21.2956 219.012C20.1418 218.931 18.266 218.962 18.2608 219.05Z" fill="#F2E9DD"/>
<path fill-rule="evenodd" clip-rule="evenodd" d="M18.4798 217.67C18.5247 217.72 18.9185 217.384 19.5369 217.187C20.1397 216.966 20.9394 216.904 21.5267 217.001C22.7496 217.14 23.5372 217.784 23.6478 217.663C23.7721 217.586 23.0087 216.676 21.5975 216.516C20.9325 216.412 20.0361 216.562 19.416 216.897C18.7786 217.208 18.4556 217.651 18.4798 217.67Z" fill="#F2E9DD"/>
<path fill-rule="evenodd" clip-rule="evenodd" d="M19.5616 214.453C19.5737 214.56 20.7137 214.565 21.4149 214.512C22.13 214.46 22.6828 214.261 22.6655 214.115C22.6482 213.959 22.0868 213.956 21.3666 214.025C20.667 214.092 19.5529 214.365 19.5616 214.453Z" fill="#F2E9DD"/>
<path fill-rule="evenodd" clip-rule="evenodd" d="M20.0944 213.507C20.1497 213.539 20.3345 213.249 20.7024 213.064C21.0548 212.862 21.5574 212.777 21.9219 212.821C22.6871 212.853 23.15 213.283 23.2778 213.192C23.4263 213.133 22.9582 212.37 21.9547 212.329C21.4918 212.286 20.8821 212.477 20.5245 212.807C20.1445 213.121 20.0616 213.501 20.0944 213.507Z" fill="#F2E9DD"/>
<path fill-rule="evenodd" clip-rule="evenodd" d="M49.0559 315.396C49.0904 315.359 48.4703 314.852 47.6361 313.844C46.7983 312.84 45.8276 311.274 45.0659 309.352C43.4837 305.5 42.9983 300.348 42.5354 296.432C42.0622 292.427 41.2141 288.841 40.0516 286.469C39.5023 285.273 38.8943 284.398 38.4712 283.805C38.0134 283.235 37.744 282.938 37.7163 282.962C37.6265 283.026 38.6732 284.219 39.6941 286.568C40.7529 288.899 41.5543 292.403 42.038 296.419C42.5095 300.309 43.064 305.545 44.7602 309.436C45.5823 311.378 46.6152 312.95 47.5082 313.937C48.3978 314.928 49.0559 315.396 49.0559 315.396Z" fill="#F2E9DD"/>
<path fill-rule="evenodd" clip-rule="evenodd" d="M47.7904 316.327C47.799 316.317 47.666 316.175 47.4155 315.923C47.1685 315.671 46.8093 315.304 46.3861 314.822C45.5345 313.871 44.4429 312.446 43.4756 310.673C42.5015 308.904 41.6983 306.778 41.2526 304.595C40.7966 302.412 40.5911 300.205 40.3838 298.291C40.0142 294.382 39.3699 290.827 38.2023 288.507C37.6271 287.353 37.0208 286.502 36.5493 285.965C36.0622 285.444 35.7824 285.171 35.7547 285.197C35.658 285.278 36.8101 286.336 37.8482 288.609C38.9001 290.877 39.5098 294.332 39.8864 298.267C40.0971 300.182 40.3268 302.407 40.8105 304.628C41.2941 306.851 42.1525 309.017 43.1837 310.796C44.2097 312.58 45.3618 313.994 46.2635 314.922C47.1651 315.854 47.7904 316.327 47.7904 316.327Z" fill="#F2E9DD"/>
<path fill-rule="evenodd" clip-rule="evenodd" d="M37.1292 294.758C37.238 294.734 36.7837 292.062 36.4486 290.414C36.1032 288.733 35.68 287.432 35.5349 287.463C35.3812 287.498 35.6023 288.815 35.9633 290.504C36.3139 292.151 37.0445 294.777 37.1292 294.758Z" fill="#F2E9DD"/>
<path fill-rule="evenodd" clip-rule="evenodd" d="M41.6792 282.061C41.6325 282.115 42.7414 283.068 43.9661 284.522C45.2132 285.957 46.5345 287.905 47.3636 289.498C49.122 292.723 49.8163 295.587 49.9856 295.54C50.053 295.524 49.958 294.805 49.6263 293.659C49.2947 292.515 48.7092 290.949 47.8127 289.296C46.9629 287.674 45.55 285.72 44.2113 284.326C43.5532 283.618 42.9193 283.05 42.4564 282.652C41.9849 282.269 41.693 282.046 41.6792 282.061Z" fill="#F2E9DD"/>
<path fill-rule="evenodd" clip-rule="evenodd" d="M46.4893 283.542C46.5083 283.544 46.5135 283.235 46.2647 282.805C46.1438 282.593 45.9504 282.36 45.6809 282.16C45.4944 281.989 44.8397 281.709 44.4805 281.773C44.5547 281.975 44.6653 282.215 44.8277 282.507C44.9227 282.689 45.0176 282.874 45.1144 283.064C45.3026 283.428 45.4961 283.797 45.6878 284.167C46.0782 284.905 46.4616 285.63 46.7967 286.258C48.1786 288.826 49.4066 290.785 49.5379 290.714C49.6744 290.639 48.6432 288.624 47.2406 286.048C46.89 285.427 46.4893 284.709 46.0817 283.977C45.8727 283.616 45.6619 283.252 45.4564 282.897L45.1593 282.384L45.0332 282.192C45.1127 282.056 45.9296 282.531 46.1317 282.89C46.4081 283.259 46.4599 283.552 46.4893 283.542Z" fill="#F2E9DD"/>
<path fill-rule="evenodd" clip-rule="evenodd" d="M54.6385 311.276C54.6904 311.241 54.186 310.411 53.6592 309.264C53.1185 308.121 52.571 306.661 52.2497 305.512C51.5554 303.18 51.3118 301.252 51.1495 301.266C51.0095 301.27 51.0475 303.225 51.773 305.631C52.1081 306.804 52.7368 308.278 53.3742 309.396C53.6868 309.959 53.9995 310.434 54.2275 310.767C54.4675 311.096 54.6195 311.288 54.6385 311.276Z" fill="#F2E9DD"/>
<path fill-rule="evenodd" clip-rule="evenodd" d="M55.2932 309.228C55.447 309.228 55.2552 307.06 54.6196 305.843C54.053 304.575 53.2015 303.839 53.1013 303.936C52.9735 304.045 53.6195 304.847 54.1705 306.042C54.4503 306.618 54.7612 307.398 54.9512 308.056C55.1533 308.71 55.2431 309.233 55.2932 309.228Z" fill="#F2E9DD"/>
<path fill-rule="evenodd" clip-rule="evenodd" d="M58.4485 237.487C58.338 237.482 57.8388 243.409 57.5849 247.097C57.3241 250.862 57.274 253.857 57.4225 253.865C57.578 253.876 57.825 250.954 58.072 247.164C58.3138 243.472 58.5366 237.494 58.4485 237.487Z" fill="#F2E9DD"/>
<path fill-rule="evenodd" clip-rule="evenodd" d="M59.7446 251.453C59.8534 251.454 60.0503 246.613 60.1177 243.602C60.185 240.528 60.0831 238.09 59.9346 238.088C59.7774 238.086 59.6789 240.473 59.6254 243.566C59.5736 246.579 59.6565 251.451 59.7446 251.453Z" fill="#F2E9DD"/>
<path fill-rule="evenodd" clip-rule="evenodd" d="M66.5036 262.141C66.5313 262.144 66.6056 261.78 66.7127 261.169C66.799 260.558 66.894 259.697 66.8975 258.711C66.9406 256.747 66.5762 254.309 65.9941 252.526C65.4362 250.697 64.6417 249.159 63.968 248.127C63.2927 247.093 62.7676 246.544 62.7192 246.581C62.5551 246.686 64.4067 249.021 65.5157 252.64C66.0943 254.378 66.5278 256.754 66.5848 258.699C66.6297 259.673 66.5883 260.53 66.5572 261.147C66.5037 261.761 66.4812 262.137 66.5036 262.141Z" fill="#F2E9DD"/>
<path fill-rule="evenodd" clip-rule="evenodd" d="M69.0145 260.745C69.0421 260.748 69.0974 260.474 69.1682 260.013C69.2252 259.552 69.2839 258.903 69.2735 258.163C69.277 256.682 68.9765 254.851 68.5222 253.515C67.6482 250.735 66.047 248.997 65.9606 249.09C65.8104 249.192 67.1784 250.947 68.0455 253.643C68.4963 254.939 68.8659 256.706 68.9609 258.163C69.0818 259.618 68.9575 260.739 69.0145 260.745Z" fill="#F2E9DD"/>
<path fill-rule="evenodd" clip-rule="evenodd" d="M63.6221 239.834C63.6221 239.834 63.8587 240.545 64.4546 241.631C65.054 242.713 66.0299 244.151 67.296 245.645C69.8143 248.64 73.3639 251.977 75.2224 255.156C77.2382 258.33 77.7443 261.801 77.3263 264.161C76.929 266.55 75.8857 267.742 75.9928 267.798C76.0135 267.813 76.2864 267.553 76.6405 266.973C76.9981 266.398 77.4264 265.49 77.6752 264.28C78.2089 261.882 77.7581 258.244 75.6784 254.965C73.7733 251.694 70.1356 248.386 67.5568 245.466C66.2562 244.007 65.2405 242.611 64.5963 241.56C64.2767 241.034 64.0366 240.599 63.8777 240.297C63.7223 239.995 63.6307 239.829 63.6221 239.834Z" fill="#F2E9DD"/>
<path fill-rule="evenodd" clip-rule="evenodd" d="M73.528 268.21C73.6679 268.233 74.1429 264.465 74.0013 262.101C73.927 259.69 73.4537 257.824 73.3173 257.85C73.1549 257.876 73.4192 259.709 73.5107 262.099C73.5643 263.262 73.5902 264.788 73.5643 266.024C73.5435 267.258 73.4813 268.203 73.528 268.21Z" fill="#F2E9DD"/>
<path fill-rule="evenodd" clip-rule="evenodd" d="M78.5237 258.28C78.6515 258.211 76.5373 254.673 74.8412 252.74C73.1709 250.722 71.5369 249.425 71.4436 249.53C71.3313 249.651 72.7805 251.049 74.4508 253.038C75.2713 254.003 76.3093 255.296 77.1073 256.376C77.9088 257.451 78.4823 258.306 78.5237 258.28Z" fill="#F2E9DD"/>
<path fill-rule="evenodd" clip-rule="evenodd" d="M53.8841 266.999C53.9446 266.99 53.9014 266.322 53.967 265.459C54.0189 264.594 54.1968 263.542 54.4144 262.76C54.8255 261.151 55.399 259.95 55.259 259.871C55.1399 259.793 54.3678 260.927 53.9411 262.625C53.7218 263.443 53.6095 264.556 53.6527 265.449C53.682 266.341 53.8479 267.004 53.8841 266.999Z" fill="#F2E9DD"/>
<path fill-rule="evenodd" clip-rule="evenodd" d="M55.2997 268.121C55.4068 268.127 55.6538 266.281 55.7505 265.13C55.8507 263.953 55.7747 263.012 55.6261 263.004C55.469 262.995 55.3463 263.903 55.2617 265.088C55.1788 266.241 55.2116 268.115 55.2997 268.121Z" fill="#F2E9DD"/>
<path fill-rule="evenodd" clip-rule="evenodd" d="M31.4827 253.793C31.4827 253.793 31.8057 251.137 31.4119 247.644C31.215 245.897 30.5517 243.994 29.6674 242.278C28.8124 240.554 27.966 238.847 27.7363 237.251C27.4858 235.629 27.8451 234.062 28.2026 232.678C28.5757 231.288 28.9661 230.034 29.163 228.948C29.3634 227.863 29.3962 226.958 29.3115 226.347C29.2425 225.737 29.1267 225.414 29.1025 225.421C28.992 225.433 29.3115 226.736 28.8141 228.826C28.5878 229.868 28.175 231.087 27.7743 232.484C27.3908 233.874 26.9866 235.506 27.2423 237.26C27.4755 238.965 28.3754 240.72 29.2528 242.425C30.1665 244.125 30.8488 245.934 31.0975 247.659C31.3722 249.373 31.4033 250.918 31.4292 252.019C31.4395 252.569 31.4482 253.011 31.4551 253.32C31.462 253.626 31.4706 253.793 31.4827 253.793Z" fill="#F2E9DD"/>
<path fill-rule="evenodd" clip-rule="evenodd" d="M34.2465 246.667C34.2724 246.656 34.136 246.256 33.8907 245.602C33.6575 244.943 33.3276 244.028 32.9994 242.972C32.3275 240.87 31.6815 238.217 31.3326 236.16C30.5657 231.961 30.4638 228.567 30.2928 228.57C30.222 228.572 30.1684 229.407 30.222 230.784C30.2772 232.158 30.4517 234.074 30.8403 236.207C31.1979 238.288 31.9233 240.961 32.6971 243.055C33.0737 244.104 33.4571 245.012 33.7421 245.655C33.8907 245.97 34.0116 246.222 34.098 246.403C34.1843 246.577 34.2361 246.672 34.2465 246.667Z" fill="#F2E9DD"/>
<path fill-rule="evenodd" clip-rule="evenodd" d="M14.3535 250.275C14.3535 250.275 14.9131 249.956 15.6247 249.173C16.3416 248.399 17.1275 247.109 17.6266 245.505C18.131 243.904 18.3521 242.016 18.3055 240.169C18.264 238.322 18.0481 236.516 17.9013 234.954C17.5696 231.776 17.5299 228.886 18.2018 226.948C18.8254 224.987 19.9101 224.174 19.8289 224.109C19.8116 224.086 19.5353 224.249 19.1311 224.67C18.7407 225.092 18.2381 225.795 17.8736 226.782C17.0843 228.76 17.0636 231.732 17.4073 234.94C17.7337 238.058 18.3141 242.19 17.3347 245.388C16.8926 246.974 16.1757 248.267 15.509 249.062C14.8509 249.872 14.3276 250.246 14.3535 250.275Z" fill="#F2E9DD"/>
<path fill-rule="evenodd" clip-rule="evenodd" d="M22.7083 225.367C22.6858 225.353 22.5044 225.648 22.2229 226.149C21.9655 226.66 21.6287 227.393 21.3731 228.27C20.8204 230.009 20.6355 232.312 20.8808 234.039C21.0846 235.81 21.6443 237.332 22.1797 238.343C22.7169 239.356 23.1902 239.886 23.2368 239.855C23.4164 239.767 21.7738 237.493 21.3714 234.012C21.1226 232.343 21.2228 230.106 21.6736 228.366C22.0744 226.613 22.7722 225.396 22.7083 225.367Z" fill="#F2E9DD"/>
<path fill-rule="evenodd" clip-rule="evenodd" d="M89.9824 208.144C89.9824 208.144 89.8218 208.154 89.5592 208.282C89.3018 208.411 88.946 208.672 88.6541 209.117C88.3622 209.559 88.1256 210.171 88.0893 210.889C88.0496 211.606 88.2016 212.393 88.4382 213.185C88.9547 214.757 89.4642 216.498 89.7285 218.29C90.0118 220.072 90.1223 221.857 90.1465 223.405C90.1931 226.57 89.9548 229.411 89.8097 231.458C89.6525 233.508 89.5748 234.768 89.6508 234.776C89.7268 234.785 89.9271 233.565 90.1689 231.54C90.3969 229.516 90.6906 226.681 90.6388 223.458C90.6405 220.328 89.9859 216.196 88.7474 213.119C88.49 212.346 88.3173 211.597 88.3259 210.915C88.3346 210.239 88.5298 209.643 88.7837 209.208C89.3105 208.313 90.0135 208.175 89.9824 208.144Z" fill="#F2E9DD"/>
<path fill-rule="evenodd" clip-rule="evenodd" d="M91.9699 228.244C91.9976 228.249 92.0632 227.983 92.153 227.538C92.2325 227.091 92.3309 226.465 92.3931 225.748C92.5313 224.316 92.514 222.523 92.3569 221.161C92.0736 218.365 91.1979 216.291 91.0752 216.343C90.9094 216.393 91.5675 218.44 91.8663 221.192C92.0304 222.528 92.1219 224.288 92.0805 225.717C92.0563 227.146 91.9181 228.237 91.9699 228.244Z" fill="#F2E9DD"/>
<path fill-rule="evenodd" clip-rule="evenodd" d="M96.3022 204.916C96.278 204.906 96.1381 205.128 95.9222 205.513C95.7236 205.905 95.4645 206.464 95.2537 207.134C94.8098 208.461 94.5991 210.216 94.7062 211.548C94.8496 214.32 96.1053 216.217 96.1986 216.132C96.3713 216.061 95.3556 214.203 95.1967 211.54C95.0845 210.257 95.2088 208.559 95.5526 207.23C95.8652 205.891 96.3557 204.942 96.3022 204.916Z" fill="#F2E9DD"/>
<path fill-rule="evenodd" clip-rule="evenodd" d="M97.313 204.966C97.2042 204.959 96.9227 207.362 96.8052 208.86C96.6843 210.387 96.743 211.609 96.8916 211.618C97.047 211.628 97.1887 210.446 97.294 208.905C97.3994 207.407 97.4011 204.972 97.313 204.966Z" fill="#F2E9DD"/>
<path fill-rule="evenodd" clip-rule="evenodd" d="M106.376 232.807C106.376 232.807 106.882 232.372 107.395 231.406C107.915 230.448 108.316 228.929 108.267 227.198C108.238 225.469 107.773 223.553 107.057 221.795C106.355 220.028 105.518 218.357 104.894 216.873C103.523 213.873 103.098 210.934 103.234 208.818C103.331 206.704 103.738 205.439 103.642 205.415C103.609 205.407 103.472 205.702 103.312 206.271C103.155 206.839 102.961 207.679 102.873 208.746C102.636 210.869 103.016 213.946 104.416 217.006C105.685 219.988 107.874 223.726 107.951 227.179C108.053 228.871 107.716 230.365 107.259 231.328C106.804 232.301 106.343 232.783 106.376 232.807Z" fill="#F2E9DD"/>
<path fill-rule="evenodd" clip-rule="evenodd" d="M34.6714 169.382C34.6507 169.441 35.2449 169.686 35.9341 170.148C36.6284 170.595 37.3971 171.263 37.9032 171.848C38.9706 173.017 39.5302 174.164 39.6822 174.102C39.817 174.061 39.4266 172.775 38.2762 171.527C37.7356 170.911 36.8685 170.257 36.0947 169.881C35.3278 169.484 34.6818 169.347 34.6714 169.382Z" fill="#F2E9DD"/>
<path fill-rule="evenodd" clip-rule="evenodd" d="M38.343 168.94C38.312 168.992 38.8647 169.371 39.5072 169.951C40.1584 170.522 40.8873 171.303 41.3796 171.948C42.4125 173.249 43.0361 174.423 43.1846 174.357C43.3176 174.307 42.8668 173.016 41.7734 171.655C41.2552 170.983 40.44 170.22 39.7076 169.71C38.9839 169.187 38.362 168.907 38.343 168.94Z" fill="#F2E9DD"/>
<path fill-rule="evenodd" clip-rule="evenodd" d="M40.927 168.995C40.9132 169.056 41.4573 169.203 42.1033 169.525C42.7562 169.832 43.4955 170.324 43.9981 170.773C45.05 171.66 45.6701 172.58 45.8117 172.501C45.943 172.444 45.468 171.36 44.3211 170.404C43.7805 169.931 42.9462 169.467 42.2259 169.237C41.5108 168.99 40.9305 168.959 40.927 168.995Z" fill="#F2E9DD"/>
<path fill-rule="evenodd" clip-rule="evenodd" d="M43.1159 166.662C43.0935 166.724 43.6151 166.924 44.1955 167.339C44.7845 167.736 45.408 168.352 45.7949 168.888C46.6206 169.962 46.9401 171.016 47.099 170.98C47.2407 170.968 47.1059 169.779 46.1905 168.598C45.7673 168.02 45.0332 167.408 44.3613 167.073C43.6946 166.719 43.1228 166.629 43.1159 166.662Z" fill="#F2E9DD"/>
<path fill-rule="evenodd" clip-rule="evenodd" d="M31.8216 174.112C31.813 174.066 31.2032 174.247 30.1876 174.19C29.1668 174.157 27.7971 173.75 26.2684 173.211C24.7501 172.69 22.9538 172.053 21.0866 172.241C19.2453 172.431 17.5802 173.12 16.1138 173.565C13.1256 174.544 10.4587 175.457 8.54315 176.143C6.63106 176.829 5.47033 177.288 5.49451 177.358C5.51697 177.433 6.69497 177.101 8.61569 176.504C10.5416 175.881 13.2016 175.022 16.2105 174.052C17.6804 173.598 19.3386 172.897 21.0831 172.68C22.8329 172.457 24.5964 173.016 26.1441 173.499C27.6934 173.995 29.1201 174.366 30.1738 174.349C31.224 174.35 31.8216 174.112 31.8216 174.112Z" fill="#F2E9DD"/>
<path fill-rule="evenodd" clip-rule="evenodd" d="M37.2498 178.199C37.2498 178.199 36.6366 177.992 35.5761 177.849C34.5173 177.706 33.0076 177.643 31.3235 177.895C29.6412 178.137 27.793 178.727 26.1383 179.63C24.4732 180.513 22.9618 181.583 21.618 182.433C18.9217 184.25 16.165 185.292 14.0785 185.344C11.9919 185.423 10.8105 184.743 10.7759 184.85C10.7621 184.875 11.0264 185.07 11.5756 185.278C12.1232 185.492 12.9695 185.701 14.0387 185.708C16.1857 185.76 19.0996 184.733 21.8305 182.881C23.1864 182.02 24.6805 180.936 26.3006 180.035C27.9087 179.121 29.6913 178.498 31.3443 178.211C32.9955 177.909 34.4914 177.916 35.5502 178.004C36.0822 178.046 36.5054 178.102 36.7973 178.146C37.0875 178.19 37.2481 178.209 37.2498 178.199Z" fill="#F2E9DD"/>
<path fill-rule="evenodd" clip-rule="evenodd" d="M28.384 181.733C28.3184 181.678 27.4616 182.964 25.8812 184.155C24.3456 185.392 22.1105 186.447 20.2969 186.85C16.5798 187.831 13.5415 186.937 13.5208 187.13C13.5035 187.183 14.2117 187.477 15.4536 187.649C16.6886 187.82 18.466 187.824 20.3815 187.335C22.2591 186.918 24.5512 185.753 26.0677 184.41C27.6326 183.107 28.384 181.733 28.384 181.733Z" fill="#F2E9DD"/>
<path fill-rule="evenodd" clip-rule="evenodd" d="M32.1445 173.383C32.1548 173.374 32.0546 173.241 31.8612 173.008C31.6608 172.773 31.3758 172.442 31.0235 172.029C30.2997 171.206 29.2772 170.066 28.0128 168.868C26.7467 167.674 25.2215 166.429 23.5115 165.499C21.8154 164.56 19.9568 163.937 18.2848 163.749C16.5817 163.53 14.9166 163.768 13.5296 164.234C12.1357 164.69 10.9595 165.235 9.95419 165.625C7.95228 166.448 6.624 166.569 6.63089 166.655C6.63264 166.683 6.966 166.711 7.56191 166.626C8.15782 166.545 9.01455 166.345 10.0354 165.986C12.0615 165.33 14.8113 163.784 18.1656 164.231C19.7685 164.4 21.5822 164.967 23.2594 165.858C24.9452 166.733 26.4859 167.926 27.7779 169.078C29.0699 170.233 30.1339 171.339 30.9008 172.128C31.2808 172.521 31.5883 172.837 31.8025 173.058C32.0166 173.274 32.1358 173.389 32.1445 173.383Z" fill="#F2E9DD"/>
<path fill-rule="evenodd" clip-rule="evenodd" d="M29.1165 168.85C29.1856 168.766 28.0266 167.658 27.2683 167.012C26.4962 166.353 25.7863 165.951 25.693 166.067C25.5929 166.188 26.1646 166.735 26.9505 167.387C27.7191 168.02 29.0612 168.918 29.1165 168.85Z" fill="#F2E9DD"/>
<path fill-rule="evenodd" clip-rule="evenodd" d="M120.368 148.801C120.368 148.801 120.867 149.226 121.826 149.711C122.785 150.201 124.22 150.7 125.904 150.986C129.281 151.558 133.487 151.463 136.693 151.597C139.973 151.678 142.913 151.711 145.034 151.706C147.153 151.701 148.455 151.658 148.457 151.583C148.459 151.506 147.188 151.423 145.089 151.342C142.98 151.283 140.064 151.2 136.769 151.109C133.556 150.979 129.329 151.149 125.982 150.683C124.31 150.448 122.876 150.01 121.902 149.573C120.926 149.141 120.387 148.772 120.368 148.801Z" fill="#F2E9DD"/>
<path fill-rule="evenodd" clip-rule="evenodd" d="M122.866 148.172C122.845 148.213 123.51 148.605 124.46 148.95C125.403 149.309 126.628 149.604 127.585 149.706C129.549 149.951 131.096 149.568 131.07 149.435C131.05 149.266 129.562 149.442 127.654 149.221C126.726 149.128 125.521 148.916 124.562 148.655C123.6 148.405 122.886 148.125 122.866 148.172Z" fill="#F2E9DD"/>
<path fill-rule="evenodd" clip-rule="evenodd" d="M120.962 146.82C120.955 146.929 122.99 147.186 124.258 147.292C125.551 147.397 126.588 147.326 126.596 147.178C126.607 147.024 125.605 146.893 124.301 146.803C123.031 146.712 120.969 146.732 120.962 146.82Z" fill="#F2E9DD"/>
<path fill-rule="evenodd" clip-rule="evenodd" d="M120.662 143.66C120.662 143.66 121.327 143.916 122.495 143.999C123.662 144.095 125.293 143.925 127.105 143.626C128.91 143.346 130.96 142.993 132.926 143.345C133.902 143.502 134.838 143.876 135.788 144.145C136.729 144.435 137.721 144.553 138.612 144.484C140.448 144.38 142.065 143.752 143.505 143.262C144.942 142.748 146.231 142.307 147.345 142.118C149.596 141.693 150.931 142.418 150.957 142.297C150.971 142.269 150.665 142.097 150.055 141.892C149.44 141.714 148.494 141.591 147.342 141.748C146.189 141.893 144.868 142.306 143.426 142.799C141.985 143.274 140.393 143.871 138.65 143.992C137.802 144.064 136.902 143.968 135.978 143.707C135.05 143.459 134.092 143.087 133.055 142.924C130.974 142.571 128.886 142.986 127.084 143.31C125.272 143.657 123.669 143.881 122.512 143.842C121.355 143.814 120.669 143.622 120.662 143.66Z" fill="#F2E9DD"/>
<path fill-rule="evenodd" clip-rule="evenodd" d="M122.271 142.912C122.292 142.941 122.702 142.689 123.422 142.354C124.14 142.023 125.184 141.64 126.408 141.388C128.861 140.839 131.993 141.015 134.309 141.526C136.682 142.009 138.76 142.694 140.263 143.162C141.765 143.642 142.698 143.916 142.724 143.843C142.75 143.773 141.883 143.386 140.418 142.83C138.952 142.282 136.884 141.548 134.45 141.053C132.094 140.535 128.854 140.421 126.36 141.077C125.115 141.382 124.066 141.824 123.358 142.211C122.65 142.599 122.271 142.912 122.271 142.912Z" fill="#F2E9DD"/>
<path fill-rule="evenodd" clip-rule="evenodd" d="M114.209 145.333C114.171 145.309 113.996 145.483 113.977 145.795C113.945 146.101 114.086 146.486 114.292 146.705C114.727 147.214 115.351 147.026 115.288 146.877C115.271 146.715 114.931 146.698 114.649 146.37C114.508 146.225 114.35 145.994 114.29 145.773C114.216 145.552 114.254 145.353 114.209 145.333Z" fill="#F2E9DD"/>
<path fill-rule="evenodd" clip-rule="evenodd" d="M57.2607 271.48C57.2762 271.518 57.8756 271.316 58.4905 270.773C59.121 270.25 59.7169 269.39 59.9829 268.65C60.596 267.119 60.1435 265.801 60.0191 265.861C59.8447 265.882 60.071 267.069 59.5269 268.469C59.292 269.147 58.8083 269.977 58.278 270.542C57.7633 271.125 57.2348 271.43 57.2607 271.48Z" fill="#F2E9DD"/>
<path fill-rule="evenodd" clip-rule="evenodd" d="M59.5073 272.364C59.5419 272.397 60.0843 271.89 60.6266 271.082C61.1811 270.285 61.7096 269.189 61.9722 268.298C62.5543 266.474 62.3401 264.936 62.2071 264.954C62.0343 264.952 62.0482 266.389 61.5058 268.141C61.2623 268.997 60.8235 270.081 60.3623 270.911C59.915 271.75 59.4676 272.333 59.5073 272.364Z" fill="#F2E9DD"/>
<path fill-rule="evenodd" clip-rule="evenodd" d="M61.4264 273.52C61.5543 273.607 63.0242 271.104 63.4404 269.333C63.9465 267.558 63.8671 266.077 63.7272 266.075C63.5613 266.065 63.4473 267.458 62.9706 269.19C62.7513 270.036 62.3989 271.127 62.05 271.989C61.7097 272.856 61.385 273.496 61.4264 273.52Z" fill="#F2E9DD"/>
<path fill-rule="evenodd" clip-rule="evenodd" d="M64.8038 272.818C64.8798 272.798 64.9092 271.479 65.1769 270.721C65.3911 269.943 65.6243 269.33 65.4913 269.248C65.3669 269.166 64.9299 269.724 64.7037 270.595C64.4238 271.448 64.6864 272.853 64.8038 272.818Z" fill="#F2E9DD"/>
<path fill-rule="evenodd" clip-rule="evenodd" d="M101.256 231.927C101.366 231.934 101.53 231.385 101.579 231.041C101.625 230.689 101.51 230.401 101.361 230.392C101.206 230.382 101.121 230.653 101.086 231.009C101.055 231.354 101.168 231.922 101.256 231.927Z" fill="#F2E9DD"/>
<path fill-rule="evenodd" clip-rule="evenodd" d="M102.349 231.521C102.393 231.622 102.826 231.577 103.073 231.497C103.325 231.416 103.464 231.211 103.405 231.074C103.343 230.931 103.128 230.95 102.88 231.045C102.638 231.138 102.313 231.442 102.349 231.521Z" fill="#F2E9DD"/>
<path fill-rule="evenodd" clip-rule="evenodd" d="M19.3175 251.491C19.3331 251.51 19.5127 251.389 19.7994 251.166C20.0706 250.93 20.4351 250.573 20.7615 250.095C21.4455 249.159 21.9292 247.756 21.9879 246.648C22.2055 244.318 20.9843 242.748 20.9032 242.862C20.7339 242.934 21.6856 244.427 21.4991 246.595C21.4559 247.628 21.0776 248.968 20.5024 249.917C19.9618 250.892 19.2726 251.442 19.3175 251.491Z" fill="#F2E9DD"/>
<path fill-rule="evenodd" clip-rule="evenodd" d="M22.1575 252.074C22.275 252.162 23.3338 250.515 23.5514 249.299C23.8434 248.085 23.6309 247.093 23.491 247.11C23.3252 247.117 23.3355 248.037 23.073 249.186C22.9555 249.746 22.7552 250.47 22.5393 251.045C22.3303 251.622 22.1161 252.048 22.1575 252.074Z" fill="#F2E9DD"/>
<path fill-rule="evenodd" clip-rule="evenodd" d="M24.4648 251.308C24.5736 251.314 24.7498 250.579 24.8033 250.12C24.8603 249.651 24.7481 249.271 24.5995 249.261C24.4441 249.25 24.356 249.613 24.3145 250.086C24.2748 250.546 24.3767 251.301 24.4648 251.308Z" fill="#F2E9DD"/>
<path fill-rule="evenodd" clip-rule="evenodd" d="M20.4424 133.018C20.4424 133.018 20.9744 133.589 22.1835 133.929C23.3787 134.267 25.2045 134.17 27.0129 133.375C28.8404 132.595 30.5072 131.123 32.1585 129.775C32.991 129.103 33.8253 128.453 34.6993 127.94C35.6147 127.492 36.4974 127.058 37.3161 126.656C38.9933 125.838 40.6411 125.141 42.1732 124.744C43.7122 124.338 45.1545 124.347 46.3014 124.653C48.6557 125.26 49.4174 126.779 49.4813 126.68C49.5538 126.722 48.8923 125.072 46.4534 124.316C45.2754 123.942 43.7398 123.888 42.1438 124.276C40.5427 124.656 38.8793 125.35 37.171 126.18C36.3402 126.596 35.4437 127.041 34.5127 127.507C33.6059 128.03 32.7596 128.715 31.927 129.402C30.2775 130.786 28.6642 132.27 26.9145 133.074C25.1768 133.901 23.4098 134.05 22.2301 133.779C21.04 133.504 20.4631 132.976 20.4424 133.018Z" fill="#F2E9DD"/>
<path fill-rule="evenodd" clip-rule="evenodd" d="M18.7249 130.879C18.7146 130.905 18.946 131.017 19.3399 131.192C19.744 131.34 20.3227 131.523 21.0032 131.614C22.3626 131.835 24.1054 131.642 25.3352 131.173C27.9451 130.284 29.1732 128.325 29.0437 128.289C28.9124 128.151 27.6549 129.842 25.1884 130.701C24.0259 131.159 22.3781 131.419 21.0481 131.302C19.7112 131.23 18.7457 130.817 18.7249 130.879Z" fill="#F2E9DD"/>
<path fill-rule="evenodd" clip-rule="evenodd" d="M39.9826 147.813C39.993 147.821 40.1053 147.742 40.3004 147.59C40.4974 147.426 40.7754 147.198 41.1209 146.915C41.8084 146.33 42.7584 145.502 43.7654 144.482C44.7741 143.464 45.8277 142.237 46.6844 140.889C47.5412 139.539 48.201 138.116 48.8625 136.952C49.531 135.76 50.2599 134.683 51.108 133.908C51.9561 133.125 52.8784 132.607 53.7024 132.351C55.3813 131.809 56.4694 132.346 56.485 132.229C56.5385 132.212 55.4607 131.523 53.6419 131.989C52.7541 132.21 51.7609 132.721 50.8437 133.521C49.9144 134.326 49.1458 135.446 48.4601 136.666C47.7864 137.855 47.1456 139.284 46.339 140.623C45.5289 141.961 44.5219 143.2 43.5564 144.246C42.5891 145.297 41.6736 146.166 41.0207 146.793C40.696 147.102 40.4352 147.354 40.2521 147.53C40.0707 147.704 39.9774 147.804 39.9826 147.813Z" fill="#F2E9DD"/>
<path fill-rule="evenodd" clip-rule="evenodd" d="M57.2467 130.058C57.1621 129.991 54.6316 132.919 53.1013 134.776C51.5398 136.669 50.4223 138.268 50.5397 138.362C50.6606 138.461 51.9094 137.018 53.4692 135.101C54.9892 133.235 57.3158 130.115 57.2467 130.058Z" fill="#F2E9DD"/>
<path fill-rule="evenodd" clip-rule="evenodd" d="M55.8098 128.554C55.8081 128.542 55.663 128.542 55.397 128.559C55.1275 128.58 54.7458 128.611 54.2743 128.648C53.3191 128.741 51.9874 128.879 50.4898 129.172C48.9992 129.469 47.3358 129.938 45.8175 130.712C44.2924 131.483 42.9779 132.555 41.9139 133.528C39.7634 135.552 37.9567 137.449 36.6319 138.811C35.3192 140.181 34.5454 141.051 34.5972 141.103C34.6507 141.158 35.5005 140.397 36.8599 139.101C38.2158 137.787 40.0864 135.975 42.2041 133.928C43.2525 132.962 44.5152 131.897 45.9782 131.121C47.4377 130.337 49.0579 129.826 50.5313 129.483C52.0046 129.145 53.3346 128.951 54.2846 128.806C54.7562 128.734 55.1362 128.677 55.4039 128.635C55.6664 128.594 55.8098 128.565 55.8098 128.554Z" fill="#F2E9DD"/>
<path fill-rule="evenodd" clip-rule="evenodd" d="M50.0789 129.084C50.0858 129.057 49.8042 128.983 49.3327 128.881C48.8577 128.8 48.184 128.71 47.4154 128.717C45.8781 128.693 43.9747 129.088 42.6326 129.685C39.8068 130.833 38.3438 132.876 38.4595 132.928C38.589 133.068 40.0883 131.273 42.8001 130.146C44.087 129.563 45.9075 129.107 47.412 129.031C48.9181 128.915 50.0702 129.147 50.0789 129.084Z" fill="#F2E9DD"/>
<path fill-rule="evenodd" clip-rule="evenodd" d="M46.4863 117.777C46.4863 117.777 46.1201 117.22 45.139 116.8C44.1735 116.379 42.6189 116.227 41.0126 116.743C39.401 117.232 37.8327 118.269 36.2522 119.127C34.6666 119.986 32.9894 120.607 31.4987 121.009C28.4518 121.836 25.5828 121.912 23.5533 121.757C21.5134 121.61 20.2836 121.289 20.2609 121.384C20.2525 121.424 20.5461 121.524 21.0937 121.679C21.6412 121.822 22.4513 121.995 23.4721 122.116C25.5068 122.361 28.4294 122.345 31.5678 121.5C33.0913 121.089 34.8065 120.433 36.418 119.534C38.0209 118.63 39.5375 117.572 41.0834 117.05C42.6137 116.503 44.1182 116.588 45.0734 116.943C46.0441 117.296 46.4604 117.815 46.4863 117.777Z" fill="#F2E9DD"/>
<path fill-rule="evenodd" clip-rule="evenodd" d="M55.1252 123.263C55.1839 123.308 55.6658 122.595 56.5744 122C57.457 121.37 58.7335 120.914 59.7387 120.818C61.8166 120.521 63.3729 121.306 63.4385 121.146C63.5439 121.056 61.9617 120.008 59.6955 120.329C58.6143 120.435 57.2618 121.002 56.393 121.743C55.9474 122.096 55.6244 122.485 55.4102 122.768C55.215 123.068 55.1062 123.251 55.1252 123.263Z" fill="#F2E9DD"/>
<path fill-rule="evenodd" clip-rule="evenodd" d="M57.147 124.418C57.2092 124.449 57.4959 123.829 58.1332 123.253C58.7447 122.656 59.6843 122.145 60.4547 121.952C62.03 121.47 63.3341 121.881 63.3807 121.72C63.4688 121.608 62.0904 120.939 60.3303 121.477C59.484 121.696 58.4908 122.324 57.9104 123.032C57.6099 123.374 57.413 123.728 57.2886 123.983C57.1798 124.247 57.1262 124.409 57.147 124.418Z" fill="#F2E9DD"/>
<path fill-rule="evenodd" clip-rule="evenodd" d="M58.9428 126.554C59.0154 126.552 58.9394 125.931 59.2641 125.236C59.5508 124.531 60.2072 123.831 60.8169 123.486C62.0554 122.675 63.2731 122.956 63.3042 122.797C63.3249 122.74 63.0468 122.569 62.5252 122.528C62.0088 122.485 61.2608 122.623 60.5665 123.063C59.8756 123.458 59.1898 124.312 58.9722 125.123C58.8444 125.522 58.8357 125.893 58.8496 126.15C58.8876 126.407 58.9204 126.558 58.9428 126.554Z" fill="#F2E9DD"/>
<path fill-rule="evenodd" clip-rule="evenodd" d="M109.574 90.1327C109.628 90.0775 108.538 88.4915 108.156 87.3749C107.702 86.2669 107.437 85.3453 107.282 85.3695C107.135 85.3902 107.204 86.3825 107.7 87.5544C108.127 88.7417 109.491 90.2242 109.574 90.1327Z" fill="#F2E9DD"/>
<path fill-rule="evenodd" clip-rule="evenodd" d="M112.687 94.2006C112.673 94.2006 112.67 94.3387 112.675 94.589C112.686 94.8444 112.701 95.2051 112.718 95.6521C112.765 96.5547 112.843 97.8162 113.005 99.2418C113.297 102.089 114.109 105.626 115.497 108.035C116.843 110.515 118.755 112.308 120.344 113.198C121.13 113.663 121.831 113.901 122.31 114.056C122.8 114.18 123.072 114.227 123.082 114.191C123.113 114.092 122.047 113.847 120.571 112.907C119.09 111.989 117.285 110.259 115.952 107.843C114.592 105.524 113.708 102.06 113.318 99.2262C113.109 97.8093 112.976 96.5478 112.877 95.6469C112.824 95.1982 112.782 94.8392 112.753 94.5838C112.722 94.3353 112.699 94.1989 112.687 94.2006Z" fill="#F2E9DD"/>
<path fill-rule="evenodd" clip-rule="evenodd" d="M111.735 95.5259C111.757 95.5241 111.654 95.4051 111.761 95.2394C111.854 95.0789 112.177 94.9305 112.421 95.198C112.825 95.7261 113.134 96.7408 113.478 97.7987C113.803 98.8825 114.051 100.125 114.169 101.368C114.284 102.609 114.378 103.898 114.818 104.949C115.711 107.116 117.508 108.323 118.691 109.075C119.922 109.824 120.727 110.175 120.762 110.118C120.805 110.043 120.074 109.588 118.92 108.789C117.808 107.983 116.127 106.799 115.288 104.804C114.873 103.846 114.753 102.614 114.606 101.354C114.457 100.085 114.16 98.8153 113.784 97.7228C113.374 96.6338 113.055 95.6898 112.531 95.0858C112.208 94.7665 111.754 94.9926 111.695 95.1997C111.59 95.4292 111.744 95.5397 111.735 95.5259Z" fill="#F2E9DD"/>
<path fill-rule="evenodd" clip-rule="evenodd" d="M112.836 93.9643C112.81 93.992 113.084 94.2577 113.459 94.7548C113.837 95.2518 114.285 96.0008 114.679 96.9034C115.485 98.7051 116.017 101.116 116.841 102.868C117.646 104.651 118.843 106.062 119.971 106.706C121.097 107.364 121.931 107.334 121.926 107.282C121.95 107.186 121.187 107.089 120.194 106.413C119.194 105.755 118.1 104.424 117.299 102.692C116.496 101.026 115.884 98.5981 114.969 96.7878C114.523 95.88 114.015 95.1344 113.585 94.6616C113.157 94.1835 112.836 93.9643 112.836 93.9643Z" fill="#F2E9DD"/>
<path fill-rule="evenodd" clip-rule="evenodd" d="M110.003 93.6674C109.966 93.6847 110.203 94.1282 110.386 94.9169C110.583 95.7039 110.638 96.8412 110.55 98.1252C110.476 99.4092 110.267 100.854 110.352 102.314C110.416 103.772 110.782 105.185 111.257 106.342C112.215 108.727 113.803 110.482 115.093 111.488C115.746 111.99 116.316 112.332 116.722 112.536C117.135 112.731 117.368 112.822 117.385 112.789C117.433 112.703 116.558 112.261 115.352 111.231C114.169 110.199 112.671 108.504 111.73 106.2C111.267 105.089 110.884 103.734 110.789 102.324C110.668 100.921 110.835 99.4696 110.865 98.1614C110.904 96.855 110.797 95.6814 110.542 94.8841C110.298 94.0851 110.003 93.6674 110.003 93.6674Z" fill="#F2E9DD"/>
<path fill-rule="evenodd" clip-rule="evenodd" d="M118.852 97.9247C118.84 97.9505 119.23 98.168 119.881 98.5097C120.522 98.8721 121.415 99.3795 122.372 100.042C124.305 101.335 126.452 103.264 127.865 104.947C130.844 108.326 132.249 111.666 132.416 111.581C132.473 111.557 132.2 110.711 131.532 109.415C130.865 108.121 129.78 106.386 128.264 104.657C126.821 102.943 124.576 101.022 122.56 99.7902C121.564 99.1569 120.631 98.6909 119.959 98.3716C119.62 98.2284 119.348 98.1127 119.151 98.0299C118.961 97.9522 118.855 97.9143 118.852 97.9247Z" fill="#F2E9DD"/>
<path fill-rule="evenodd" clip-rule="evenodd" d="M123.464 98.1975C123.435 98.2493 124.029 98.6773 124.758 99.2882C125.492 99.894 126.354 100.691 126.979 101.335C128.267 102.636 129.209 103.751 129.337 103.661C129.456 103.579 128.675 102.334 127.338 101C126.074 99.6386 123.524 98.0888 123.464 98.1975Z" fill="#F2E9DD"/>
<path fill-rule="evenodd" clip-rule="evenodd" d="M128.83 120.041C128.885 119.946 127.317 118.843 126.313 118.205C125.287 117.554 124.394 117.171 124.318 117.297C124.237 117.43 125.008 117.975 126.049 118.619C127.06 119.245 128.785 120.115 128.83 120.041Z" fill="#F2E9DD"/>
<path fill-rule="evenodd" clip-rule="evenodd" d="M128.667 121.682C128.726 121.589 127.545 120.661 126.778 120.129C125.995 119.585 125.292 119.285 125.209 119.411C125.125 119.541 125.705 120 126.501 120.535C127.275 121.054 128.619 121.755 128.667 121.682Z" fill="#F2E9DD"/>
<path fill-rule="evenodd" clip-rule="evenodd" d="M61.3354 90.1982C61.3492 90.1948 61.3319 90.0187 61.2904 89.7029C61.2455 89.3785 61.1799 88.9211 61.1004 88.3482C60.9467 87.197 60.7308 85.5938 60.5615 83.7644C60.1954 80.1109 60.0451 75.5668 60.1625 72.0911C60.2524 68.5394 60.5235 65.3656 60.7671 63.0823C61.0089 60.7991 61.1989 59.3978 61.1143 59.3839C61.0763 59.3771 60.9899 59.7136 60.8621 60.3331C60.7291 60.9492 60.5788 61.8553 60.4113 62.984C60.0848 65.2448 59.7601 68.4168 59.6737 72.01C59.558 75.5099 59.7808 80.0936 60.2472 83.7661C60.4648 85.6058 60.736 87.2143 60.9415 88.3637C61.059 88.9332 61.1488 89.3923 61.2144 89.7116C61.2818 90.0274 61.325 90.1999 61.3354 90.1982Z" fill="#F2E9DD"/>
<path fill-rule="evenodd" clip-rule="evenodd" d="M59.0227 92.1503C59.0883 92.126 58.5891 90.8299 58.2333 89.0627C57.8481 87.3007 57.6443 85.0778 57.6944 83.3779C57.7272 79.8935 58.4993 77.2064 58.33 77.1633C58.2126 77.1115 57.2349 79.7468 57.2056 83.3365C57.1572 85.0761 57.4387 87.349 57.9241 89.1179C58.1538 90.005 58.4267 90.7678 58.634 91.3063C58.8586 91.8395 59.0019 92.1571 59.0227 92.1503Z" fill="#F2E9DD"/>
<path fill-rule="evenodd" clip-rule="evenodd" d="M51.2721 85.5234C51.3066 85.5096 51.1632 85.1213 51.0371 84.4586C50.9093 83.7976 50.8351 82.8519 50.9577 81.7974C51.1598 79.6626 52.324 77.2378 53.5762 75.6587C54.8164 74.0158 56.1585 72.7179 57.1068 71.767C58.0654 70.8213 58.6423 70.2242 58.5922 70.1655C58.5421 70.1103 57.8944 70.6004 56.8822 71.4771C55.8804 72.3607 54.49 73.6309 53.2049 75.3326C51.9198 76.9565 50.7591 79.5314 50.6451 81.7474C50.5673 82.8484 50.6969 83.8201 50.8817 84.4879C51.0648 85.1558 51.2721 85.5234 51.2721 85.5234Z" fill="#F2E9DD"/>
<path fill-rule="evenodd" clip-rule="evenodd" d="M69.0302 93.4379C69.0837 93.4033 68.7555 92.8407 68.5033 92.0434C68.2356 91.253 68.0681 90.233 68.0646 89.453C68.0076 87.8549 68.3893 86.6192 68.2339 86.5622C68.1113 86.4967 67.5067 87.7323 67.5723 89.4564C67.5827 90.2883 67.8366 91.3617 68.208 92.1521C68.5638 92.9512 69.0025 93.4586 69.0302 93.4379Z" fill="#F2E9DD"/>
<path fill-rule="evenodd" clip-rule="evenodd" d="M70.3914 92.8131C70.495 92.7821 70.0995 91.0614 69.8006 90.007C69.4932 88.9301 69.1045 88.1241 68.9629 88.169C68.8126 88.2139 69.0061 89.0647 69.3291 90.1416C69.6417 91.1926 70.3067 92.8407 70.3914 92.8131Z" fill="#F2E9DD"/>
<path fill-rule="evenodd" clip-rule="evenodd" d="M65.6725 59.669C65.6466 59.6724 65.6708 60.0245 65.7278 60.6009C65.7744 61.1894 65.84 61.9919 65.9126 62.8962C66.0404 64.7239 66.0801 66.9881 66.0179 68.7191C65.9229 72.257 65.5688 75.0476 65.7295 75.0735C65.8677 75.1011 66.4221 72.3675 66.5068 68.7657C66.5638 67.014 66.4532 64.7204 66.2269 62.8842C66.1198 61.9643 65.9886 61.1601 65.8849 60.5854C65.7727 60.0107 65.6949 59.6655 65.6725 59.669Z" fill="#F2E9DD"/>
<path fill-rule="evenodd" clip-rule="evenodd" d="M67.1148 61.8071C67.0578 61.8209 67.2115 62.6079 67.329 63.6434C67.4585 64.6806 67.5414 65.9629 67.5432 66.9466C67.576 68.9537 67.4551 70.5483 67.6123 70.5725C67.7556 70.5966 68.0803 69.0227 68.0354 66.9552C68.07 64.9239 67.2392 61.7657 67.1148 61.8071Z" fill="#F2E9DD"/>
<path fill-rule="evenodd" clip-rule="evenodd" d="M64.4669 55.8755C64.5118 55.8289 63.883 55.4095 63.6049 54.5466C63.2837 53.7079 63.4719 52.5499 64.0506 51.9769C64.5981 51.3608 65.3374 51.0829 65.8694 51.0018C66.4083 50.9155 66.7641 50.9863 66.7866 50.9052C66.8142 50.8448 66.4791 50.636 65.8573 50.6377C65.2493 50.6325 64.3529 50.8931 63.6896 51.6439C62.9797 52.3549 62.8519 53.7769 63.3096 54.6554C63.7241 55.5821 64.4686 55.9135 64.4669 55.8755Z" fill="#F2E9DD"/>
<path fill-rule="evenodd" clip-rule="evenodd" d="M66.2855 58.1694C66.346 58.1555 66.2251 57.4583 66.1905 56.5419C66.1422 55.6255 66.1957 54.4951 66.3201 53.6426C66.5412 51.8978 66.9695 50.5551 66.821 50.4964C66.6897 50.4377 66.0575 51.7356 65.8347 53.5666C65.7121 54.4537 65.7311 55.6324 65.8779 56.5626C66.0109 57.498 66.2492 58.178 66.2855 58.1694Z" fill="#F2E9DD"/>
<path fill-rule="evenodd" clip-rule="evenodd" d="M67.3513 57.208C67.4619 57.1959 67.4619 56.0586 67.4049 55.3562C67.3479 54.64 67.151 54.0911 67.0024 54.1084C66.847 54.1257 66.8452 54.6883 66.9161 55.4062C66.9869 56.1052 67.2632 57.2166 67.3513 57.208Z" fill="#F2E9DD"/>
<path fill-rule="evenodd" clip-rule="evenodd" d="M77.4991 37.8027C77.5077 37.7924 77.3315 37.6405 77.0051 37.373C76.6717 37.1158 76.214 36.7103 75.6492 36.1977C74.5299 35.1622 73.0997 33.571 71.7887 31.5484C70.4708 29.5327 69.298 27.0889 68.4378 24.5727C67.569 22.0565 67.0249 19.4747 66.6881 17.2156C66.0093 12.5973 65.9436 8.39154 65.8797 5.36966C65.8486 3.86648 65.8262 2.64979 65.8106 1.79206C65.7865 0.949871 65.7554 0.483883 65.7191 0.483883C65.6776 0.483883 65.6396 0.937775 65.6016 1.76789C65.5671 2.598 65.5274 3.80262 65.5135 5.30235C65.4911 8.3018 65.5015 12.5041 66.1889 17.1983C66.5292 19.4799 67.0957 22.0979 68.0008 24.6469C68.9025 27.1942 70.1271 29.6638 71.5037 31.6848C72.8752 33.7143 74.3658 35.2969 75.5317 36.3047C76.7011 37.3161 77.4991 37.8027 77.4991 37.8027Z" fill="#F2E9DD"/>
<path fill-rule="evenodd" clip-rule="evenodd" d="M121.154 143.22C121.185 143.248 121.56 142.642 122.455 141.929C123.339 141.217 124.794 140.481 126.568 140.159C130.134 139.496 134.632 140.518 138.102 140.45C141.645 140.523 144.814 140.214 147.072 139.87C148.203 139.701 149.107 139.517 149.729 139.379C150.347 139.232 150.684 139.132 150.675 139.097C150.661 139.011 149.311 139.247 147.075 139.501C144.842 139.758 141.714 140.019 138.178 139.962C136.454 139.945 134.477 139.822 132.459 139.66C130.447 139.506 128.359 139.455 126.538 139.845C124.716 140.221 123.237 141.029 122.362 141.802C121.476 142.577 121.154 143.22 121.154 143.22Z" fill="#F2E9DD"/>
<path fill-rule="evenodd" clip-rule="evenodd" d="M114.071 148.981C114.133 148.985 114.174 148.734 114.387 148.538C114.58 148.334 114.908 148.194 115.157 148.167C115.668 148.063 116.012 148.287 116.14 148.196C116.301 148.127 115.845 147.518 115.066 147.683C114.711 147.737 114.297 148.016 114.129 148.358C113.943 148.696 114.036 148.993 114.071 148.981Z" fill="#F2E9DD"/>
<path fill-rule="evenodd" clip-rule="evenodd" d="M115.897 145.509C115.788 145.604 116.591 146.32 117.279 146.406C117.956 146.548 118.472 146.265 118.424 146.128C118.387 145.97 117.931 146.032 117.363 145.925C116.802 145.875 115.945 145.473 115.897 145.509Z" fill="#F2E9DD"/>
<path fill-rule="evenodd" clip-rule="evenodd" d="M47.7084 175.172C47.8189 175.179 47.9951 174.445 48.0486 173.986C48.1039 173.515 47.9934 173.134 47.8448 173.127C47.6894 173.116 47.5995 173.477 47.5581 173.95C47.5201 174.412 47.6203 175.167 47.7084 175.172Z" fill="#F2E9DD"/>
<path fill-rule="evenodd" clip-rule="evenodd" d="M47.7239 175.17C47.8137 175.232 48.5375 174.416 48.9399 173.874C49.351 173.323 49.5497 172.797 49.427 172.712C49.2992 172.624 48.9417 173.027 48.5392 173.591C48.1471 174.138 47.6514 175.122 47.7239 175.17Z" fill="#F2E9DD"/>
<path fill-rule="evenodd" clip-rule="evenodd" d="M15.1602 171.042C15.1688 171.111 16.4435 170.969 18.1104 171.021C19.7772 171.051 21.8257 171.304 23.3578 171.656C26.5101 172.323 28.8471 173.399 28.9196 173.242C28.987 173.13 26.7346 171.862 23.4925 171.183C21.9242 170.826 19.8186 170.642 18.1242 170.707C17.2761 170.73 16.5334 170.811 16.0048 170.88C15.4745 170.963 15.1584 171.021 15.1602 171.042Z" fill="#F2E9DD"/>
<path fill-rule="evenodd" clip-rule="evenodd" d="M20.0693 180.013C20.1142 180.078 21.4753 179.053 23.5014 178.19C25.5068 177.284 28.1616 176.606 30.2292 176.438C34.4731 175.973 37.7877 176.967 37.8205 176.778C37.8395 176.722 37.0553 176.407 35.6942 176.147C34.3366 175.89 32.3934 175.717 30.2205 175.947C28.1012 176.119 25.3893 176.887 23.3874 177.899C21.3579 178.867 20.0693 180.013 20.0693 180.013Z" fill="#F2E9DD"/>
<path fill-rule="evenodd" clip-rule="evenodd" d="M20.813 185.782C20.87 185.903 23.8599 184.417 25.5647 183.218C27.3266 182.035 28.5184 180.834 28.4251 180.727C28.3197 180.603 27.0416 181.614 25.3005 182.803C24.4558 183.388 23.3435 184.137 22.4228 184.723C21.5074 185.313 20.7906 185.741 20.813 185.782Z" fill="#F2E9DD"/>
<path fill-rule="evenodd" clip-rule="evenodd" d="M89.3425 204.807C89.4064 204.819 89.4876 204.481 89.7709 204.177C90.0334 203.858 90.4721 203.594 90.8314 203.494C91.562 203.239 92.1683 203.442 92.246 203.304C92.3549 203.188 91.6242 202.691 90.6777 203.028C90.2303 203.161 89.7346 203.563 89.5118 203.998C89.2682 204.426 89.3097 204.811 89.3425 204.807Z" fill="#F2E9DD"/>
<path fill-rule="evenodd" clip-rule="evenodd" d="M92.7045 233.478C92.7874 233.449 92.5197 231.837 92.5456 230.836C92.5249 229.818 92.5197 229 92.3694 228.977C92.2209 228.953 92.0188 229.769 92.0551 230.846C92.0464 231.908 92.6009 233.52 92.7045 233.478Z" fill="#F2E9DD"/>
<path fill-rule="evenodd" clip-rule="evenodd" d="M95.378 204.167C95.2691 204.153 94.8736 206.229 94.6801 207.527C94.485 208.853 94.4832 209.921 94.6318 209.942C94.7872 209.959 94.9841 208.937 95.1672 207.601C95.3434 206.3 95.466 204.179 95.378 204.167Z" fill="#F2E9DD"/>
<path fill-rule="evenodd" clip-rule="evenodd" d="M56.7064 267.185C56.817 267.176 56.8636 266.293 56.8377 265.747C56.8135 265.192 56.6373 264.765 56.4905 264.779C56.3333 264.795 56.3091 265.23 56.3489 265.789C56.3886 266.331 56.6183 267.194 56.7064 267.185Z" fill="#F2E9DD"/>
<path fill-rule="evenodd" clip-rule="evenodd" d="M64.5267 249.842C64.4179 249.842 64.297 254.812 64.2745 257.9C64.2538 261.055 64.392 263.554 64.5405 263.554C64.6977 263.554 64.7599 261.105 64.7651 257.929C64.772 254.838 64.6148 249.842 64.5267 249.842Z" fill="#F2E9DD"/>
<path fill-rule="evenodd" clip-rule="evenodd" d="M24.676 254.24C24.7934 254.286 25.4826 252.505 25.6692 251.325C25.8954 250.129 25.7866 249.157 25.6415 249.154C25.4809 249.147 25.3911 250.065 25.1873 251.233C25.0214 252.376 24.6103 254.214 24.676 254.24Z" fill="#F2E9DD"/>
<path fill-rule="evenodd" clip-rule="evenodd" d="M33.0372 172.959C33.0614 172.949 32.9491 172.63 32.7418 172.117C32.5328 171.601 32.2271 170.887 31.8281 170.098C31.0525 168.519 29.7467 166.657 28.2682 165.72C26.8086 164.731 25.166 164.411 24.0346 164.555C22.8895 164.689 22.3074 165.133 22.3402 165.176C22.3765 165.266 22.9793 164.964 24.0364 164.922C25.0814 164.867 26.5806 165.188 27.9711 166.111C30.8556 167.834 32.9145 173.08 33.0372 172.959Z" fill="#F2E9DD"/>
<path fill-rule="evenodd" clip-rule="evenodd" d="M58.8149 128.855C58.8149 128.855 58.2466 128.96 57.5954 129.616C56.927 130.251 56.3535 131.409 55.7542 132.683C54.5313 135.237 52.8593 138.323 51.2494 140.457C49.6396 142.661 47.864 144.356 46.4321 145.374C45.0071 146.405 44.007 146.858 44.0502 146.948C44.0674 146.983 44.3196 146.895 44.7722 146.703C45.2299 146.52 45.8604 146.18 46.6048 145.699C48.1058 144.741 49.9678 143.048 51.6139 140.791C53.2496 138.611 54.8836 135.451 56.0271 132.838C56.5936 131.526 57.0997 130.382 57.7043 129.728C58.2915 129.057 58.8356 128.889 58.8149 128.855Z" fill="#F2E9DD"/>
<path fill-rule="evenodd" clip-rule="evenodd" d="M57.4745 130.202C57.402 130.209 57.5367 131.076 57.3398 132.177C57.1791 133.28 56.6679 134.57 56.084 135.433C54.951 137.261 53.4016 138.115 53.4931 138.264C53.519 138.395 55.267 137.682 56.4882 135.711C57.1049 134.791 57.5816 133.385 57.6507 132.223C57.7025 131.644 57.6593 131.131 57.6127 130.772C57.5453 130.413 57.4952 130.199 57.4745 130.202Z" fill="#F2E9DD"/>
<path fill-rule="evenodd" clip-rule="evenodd" d="M56.0929 128.758C56.0549 128.741 55.8183 129.262 55.2725 130.016C54.7249 130.77 53.8199 131.719 52.6125 132.567C51.4103 133.416 49.9387 134.179 48.4325 134.812C47.6915 135.147 46.8935 135.371 46.1957 135.87C45.5065 136.386 45.1075 137.073 44.6895 137.627C43.0123 139.967 41.5407 142.085 40.5026 143.631C39.4645 145.174 38.8617 146.145 38.9221 146.187C38.986 146.232 39.6787 145.355 40.7755 143.874C41.8619 142.373 43.3612 140.302 45.0574 137.958C45.4788 137.389 45.8692 136.728 46.4409 136.279C47.0161 135.832 47.8124 135.582 48.5655 135.23C50.082 134.558 51.5675 133.744 52.7766 132.834C53.9891 131.928 54.8804 130.913 55.3969 130.113C55.9133 129.31 56.0929 128.758 56.0929 128.758Z" fill="#F2E9DD"/>
<path fill-rule="evenodd" clip-rule="evenodd" d="M54.5537 125.312C54.5727 125.293 54.317 125.017 53.8818 124.573C53.4344 124.128 52.8212 123.52 52.1303 122.834C50.7174 121.461 48.9849 119.77 47.6031 118.5C46.8846 117.86 46.109 117.311 45.3041 117.005C44.4958 116.693 43.6891 116.671 43.0587 116.809C41.7442 117.097 41.3435 117.951 41.4091 117.949C41.4748 118.024 41.9256 117.351 43.0949 117.173C44.2609 116.93 45.8724 117.544 47.2508 118.845C48.6274 120.089 50.4289 121.719 51.9023 123.051C52.6416 123.696 53.2928 124.268 53.7712 124.685C54.2445 125.091 54.5381 125.327 54.5537 125.312Z" fill="#F2E9DD"/>
<path fill-rule="evenodd" clip-rule="evenodd" d="M22.4954 123.279C22.4815 123.322 23.0757 123.596 23.9255 123.745C24.7667 123.912 25.8463 123.928 26.6581 123.795C28.3387 123.557 29.4545 122.73 29.3751 122.621C29.2956 122.468 28.1815 123.068 26.5907 123.306C25.8255 123.441 24.8013 123.501 23.9704 123.436C23.1379 123.386 22.5109 123.229 22.4954 123.279Z" fill="#F2E9DD"/>
<path fill-rule="evenodd" clip-rule="evenodd" d="M63.7225 59.7192C63.612 59.7192 63.4963 63.4452 63.479 65.7612C63.4617 68.1255 63.6016 69.998 63.7502 69.998C63.9074 69.9963 63.9678 68.1601 63.9695 65.7802C63.9713 63.4641 63.8089 59.7192 63.7225 59.7192Z" fill="#F2E9DD"/>
<path fill-rule="evenodd" clip-rule="evenodd" d="M117.195 114.981C117.252 114.891 115.154 113.985 112.882 112.159C111.766 111.238 110.711 109.945 110.253 108.425C109.782 106.908 109.775 105.299 109.714 103.912C109.6 101.071 109.498 98.5306 109.471 96.696C109.436 94.8632 109.445 93.7363 109.367 93.7311C109.293 93.7277 109.158 94.827 109.106 96.6512C109.046 98.4753 109.098 101.017 109.22 103.877C109.286 105.259 109.305 106.911 109.825 108.516C110.338 110.133 111.487 111.476 112.661 112.387C113.839 113.312 115.003 113.925 115.832 114.351C116.668 114.772 117.195 114.981 117.195 114.981Z" fill="#F2E9DD"/>
<path fill-rule="evenodd" clip-rule="evenodd" d="M128.765 139.743C128.782 139.85 129.932 139.803 130.637 139.717C131.357 139.631 131.905 139.408 131.883 139.261C131.858 139.109 131.292 139.128 130.568 139.232C129.865 139.33 128.751 139.656 128.765 139.743Z" fill="#F2E9DD"/>
<path fill-rule="evenodd" clip-rule="evenodd" d="M85.4896 140.872C85.6175 140.866 85.5035 138.526 85.1615 137.101C84.8506 135.642 84.3134 134.576 84.1786 134.626C84.0266 134.679 84.3583 135.767 84.6796 137.199C84.8281 137.882 85.025 138.782 85.1926 139.555C85.3446 140.3 85.443 140.877 85.4896 140.872Z" fill="#F2E9DD"/>
<path fill-rule="evenodd" clip-rule="evenodd" d="M42.3866 168.248C42.3209 168.334 43.435 169.366 44.1622 169.962C44.9049 170.571 45.5907 170.932 45.6805 170.816C45.7772 170.69 45.2297 170.181 44.4714 169.58C43.7338 168.995 42.4401 168.179 42.3866 168.248Z" fill="#F2E9DD"/>
<path fill-rule="evenodd" clip-rule="evenodd" d="M48.1755 168.951C48.1254 169.023 49.2239 170.15 49.7559 170.958C50.3328 171.752 50.7888 172.394 50.927 172.326C51.0618 172.262 50.775 171.503 50.1532 170.669C49.5728 169.82 48.2377 168.857 48.1755 168.951Z" fill="#F2E9DD"/>
<path fill-rule="evenodd" clip-rule="evenodd" d="M61.1697 234.919C61.1421 234.916 61.0972 235.068 61.0385 235.322C61.0143 235.422 60.9884 235.536 60.9573 235.662C60.921 235.703 60.9417 235.939 60.8536 235.746C60.6844 235.47 60.4996 235.166 60.3182 234.871C60.0902 234.488 59.876 234.105 59.6998 233.767C58.9744 232.393 58.4838 231.254 58.3353 231.3C58.1919 231.344 58.4942 232.564 59.2628 233.989C59.4477 234.334 59.6843 234.721 59.9468 235.099L60.3527 235.649C60.5583 235.903 60.7604 236.153 60.9538 236.393L61.0955 236.561C61.1317 236.578 61.1179 236.424 61.1317 236.369C61.1421 236.219 61.1542 236.072 61.1646 235.934C61.1767 235.715 61.187 235.517 61.1957 235.341C61.2008 235.082 61.1922 234.923 61.1697 234.919Z" fill="#F2E9DD"/>
<path fill-rule="evenodd" clip-rule="evenodd" d="M43.3591 229.017C43.3729 229.019 43.3953 228.882 43.4247 228.634C43.4541 228.382 43.4886 228.018 43.5128 227.562C43.5681 226.653 43.594 225.377 43.5042 223.931C43.4212 222.487 43.2174 220.873 42.8979 219.302C42.5749 217.737 42.2139 216.21 42.1707 214.872C42.0239 212.116 43.3418 209.866 44.2745 208.375C45.2435 206.866 45.8982 205.967 45.8291 205.917C45.7772 205.876 45.0397 206.675 43.993 208.138C42.9963 209.574 41.542 211.887 41.6767 214.838C41.7199 216.244 42.112 217.801 42.4626 219.351C42.8115 220.902 43.0585 222.495 43.1898 223.929C43.328 225.365 43.3573 226.637 43.3573 227.552C43.3539 228.002 43.3504 228.368 43.3487 228.627C43.3452 228.879 43.3487 229.017 43.3591 229.017Z" fill="#F2E9DD"/>
<path fill-rule="evenodd" clip-rule="evenodd" d="M60.1705 183.437C60.2586 183.501 61.4349 182.151 62.1241 181.278C62.8253 180.387 63.2589 179.588 63.1397 179.498C63.0136 179.404 62.4315 180.068 61.7372 180.974C61.0618 181.858 60.1014 183.383 60.1705 183.437Z" fill="#F2E9DD"/>
<path fill-rule="evenodd" clip-rule="evenodd" d="M58.9807 126.19C59.0532 126.271 59.5352 126.023 59.7977 125.824C60.0637 125.624 60.1743 125.35 60.0758 125.236C59.9739 125.12 59.7338 125.241 59.4764 125.455C59.2225 125.664 58.9237 126.125 58.9807 126.19Z" fill="#F2E9DD"/>
<path fill-rule="evenodd" clip-rule="evenodd" d="M72.0083 85.8081C72.0376 85.7943 71.8839 85.3939 71.6438 84.7243C71.4037 84.0582 71.079 83.1227 70.7646 82.0476C70.1186 79.9007 69.5849 77.1774 69.369 75.0684C69.1306 72.9267 69.1341 70.9524 68.7973 69.551C68.4881 68.1428 67.9734 67.3972 67.9233 67.43C67.8386 67.4697 68.2169 68.2291 68.4328 69.5855C68.6798 70.9386 68.6297 72.8818 68.8767 75.0822C69.1013 77.2205 69.7127 79.9783 70.4589 82.1235C70.8234 83.1987 71.2034 84.1254 71.497 84.7778C71.7872 85.4319 72.0083 85.8081 72.0083 85.8081Z" fill="#F2E9DD"/>
<path fill-rule="evenodd" clip-rule="evenodd" d="M48.5175 317.56C48.5296 317.529 48.0425 317.359 47.3084 316.956C46.5709 316.553 45.5967 315.891 44.6519 314.961C42.6983 313.145 41.1196 310.206 40.2992 307.836C38.6272 302.978 38.0952 298.871 37.8792 298.916C37.8067 298.928 37.9069 299.93 38.185 301.567C38.4752 303.201 38.9242 305.484 39.8224 307.957C40.655 310.368 42.3477 313.376 44.4204 315.175C45.4257 316.091 46.4534 316.731 47.229 317.092C48.0062 317.456 48.5175 317.56 48.5175 317.56Z" fill="#F2E9DD"/>
<path fill-rule="evenodd" clip-rule="evenodd" d="M63.5511 305.414C63.5736 305.381 62.9431 304.991 62.0588 304.162C61.1744 303.337 60.0776 302.038 59.1172 300.381C57.1343 297.085 55.8993 292.449 54.4398 289.077C53.723 287.391 52.8921 285.627 51.4222 284.733C50.0456 283.855 48.8037 283.17 47.7587 282.554C46.7189 281.967 45.8777 281.492 45.2749 281.154C44.6841 280.836 44.349 280.674 44.33 280.705C44.2903 280.774 45.5011 281.57 47.5238 282.838C48.536 283.47 49.7416 284.226 51.0923 285.07C52.45 285.89 53.2238 287.489 53.9596 289.205C55.4174 292.52 56.7319 297.19 58.8305 300.512C59.8479 302.178 61.0103 303.474 61.9448 304.273C62.8827 305.075 63.5511 305.414 63.5511 305.414Z" fill="#F2E9DD"/>
<path fill-rule="evenodd" clip-rule="evenodd" d="M63.655 303.719C63.6912 303.679 63.123 303.246 62.382 302.347C61.6392 301.454 60.7342 300.096 59.9707 298.419C58.4058 295.102 57.1121 290.618 54.9271 287.745C52.7818 284.785 49.9767 282.923 47.8539 281.97C46.7882 281.489 45.8831 281.209 45.2561 281.047C44.6239 280.898 44.2698 280.847 44.2612 280.881C44.2335 280.98 45.605 281.276 47.6501 282.277C49.6762 283.275 52.369 285.096 54.4901 287.978C56.6319 290.739 58.0033 295.186 59.6736 298.528C60.4923 300.208 61.4579 301.572 62.2576 302.443C63.0539 303.322 63.655 303.719 63.655 303.719Z" fill="#F2E9DD"/>
</svg>
