<svg width="146" height="277" viewBox="0 0 146 277" fill="none" xmlns="http://www.w3.org/2000/svg">
<path fill-rule="evenodd" clip-rule="evenodd" d="M81.6737 248.822C85.3963 251.976 89.3923 254.306 92.8671 257.904C95.264 260.385 95.6662 262.053 99.3597 263.202C105.73 265.181 118.635 263.717 124.8 261.164C136.945 256.134 147.843 248.368 143.454 233.795C141.813 228.337 141.34 220.156 136.881 215.917C130.842 210.175 121.946 214.665 115.186 215.837C102.339 218.07 84.7464 227.867 84.9716 242.72C84.978 243.199 85.4445 243.17 85.4703 242.71C86.3583 225.875 108.578 220.477 121.312 217.941C126.724 216.863 133.673 212.882 137.837 219.67C138.383 220.561 140.729 229.505 140.938 230.931C143.107 234.79 142.347 238.813 138.663 243.009C139.793 249.733 137.946 253.334 133.117 253.82C132.914 254.007 130.774 254.946 130.382 255.107C123.551 257.907 119.24 259.851 111.808 260.376C103.291 260.981 99.7491 259.784 92.7641 253.801C89.3923 250.914 85.969 249.449 82.3912 246.807C81.3713 246.051 80.9724 248.226 81.6737 248.822Z" fill="#F2E9DD"/>
<path fill-rule="evenodd" clip-rule="evenodd" d="M82.6072 246.45C82.0828 247.422 81.5519 248.259 80.7315 249.022C80.6864 249.064 80.7154 249.215 80.7894 249.16C81.6677 248.478 82.1954 247.593 82.7327 246.63C82.7874 246.534 82.6844 246.312 82.6072 246.45Z" fill="#F2E9DD"/>
<path fill-rule="evenodd" clip-rule="evenodd" d="M128.011 213.674C128.639 207.53 129.276 202.435 122.275 200.649C114.283 198.612 107.516 204.347 101.429 208.637C96.912 211.82 94.6405 215.775 90.7378 219.312C88.7205 221.14 86.256 222.048 84.6119 224.549C80.1236 231.385 83.962 240.206 82.7297 247.589C82.572 248.545 83.6338 249.214 83.888 248.04C84.9754 243.048 83.3442 238.8 83.8622 233.789C84.9304 223.483 88.4663 225.089 93.9005 219.74C97.8804 215.827 99.7497 213.088 104.479 209.85C106.265 208.631 108.53 206.786 110.242 205.827C117.909 201.534 126.563 203.053 126.538 213.407C126.534 214.511 127.876 214.987 128.011 213.674Z" fill="#F2E9DD"/>
<path fill-rule="evenodd" clip-rule="evenodd" d="M129.401 259.69C133.564 272.545 119.508 273.871 111.413 273.32C103.334 272.773 98.3919 270.437 93.1701 264.09C88.4405 258.342 84.7856 252.69 83.7174 245.079C83.5984 244.22 82.8069 244.767 82.9002 245.449C84.541 257.586 92.3464 271.505 104.926 274.884C111.171 276.561 121.895 278.045 127.03 273.53C131.676 269.445 132.261 264.251 130.26 258.889C129.903 257.92 129.192 259.044 129.401 259.69Z" fill="#F2E9DD"/>
<path fill-rule="evenodd" clip-rule="evenodd" d="M83.929 255.388C79.0321 255.137 76.5933 252.327 72.6778 249.894C71.7158 249.295 70.3999 249.015 69.5376 248.336C65.2424 244.96 68.6464 240.622 70.3902 236.837C70.9918 235.527 71.2267 234.021 71.7865 232.769C73.9583 227.903 81.0044 229.476 85.2385 229.444C85.9077 229.438 85.8723 227.967 85.1999 227.935C81.5256 227.771 73.91 226.342 71.1785 229.801C69.7017 231.671 68.9038 234.462 67.5525 236.454C66.436 238.095 65.5931 239.289 65.3132 241.352C64.7662 245.366 65.6767 248.915 69.129 250.962C74.0516 253.878 78.0991 257.132 83.9612 256.817C84.5982 256.781 84.5628 255.42 83.929 255.388Z" fill="#F2E9DD"/>
<path fill-rule="evenodd" clip-rule="evenodd" d="M44.0562 202.522C45.7357 205.132 48.3708 205.187 51.112 206.317C55.5552 208.148 58.2707 210.678 63.0775 211.621C71.98 213.371 80.0428 212.551 85.9853 205.412C86.1494 205.213 86.0689 204.534 85.7311 204.791C81.5163 208.013 78.4083 209.635 73.0675 209.661C68.9556 209.68 64.2261 209.339 60.3684 207.91C57.8653 206.986 55.9316 205.058 53.4735 204.07C50.5875 202.912 47.3058 203.15 44.6933 201.177C43.9436 200.61 43.7828 202.097 44.0562 202.522Z" fill="#F2E9DD"/>
<path fill-rule="evenodd" clip-rule="evenodd" d="M92.4294 198.805C94.2794 190.16 88.9932 183.595 79.9877 184.013C74.9107 184.251 69.8497 184.586 65.7025 187.65C62.6299 189.919 59.9659 192.841 56.9287 195.174C52.1348 198.856 48.2449 198.956 42.5051 198.731C41.9517 198.708 41.9678 199.976 42.5341 199.999C51.3368 200.324 54.7827 198.863 61.5521 193.285C66.05 189.584 69.38 187.521 75.6185 186.346C83.7907 184.805 94.0477 188.155 92.0304 198.65C91.9693 198.979 92.3457 199.207 92.4294 198.805Z" fill="#F2E9DD"/>
<path fill-rule="evenodd" clip-rule="evenodd" d="M85.6541 185.069C88.1894 179.659 91.8766 175.781 86.3201 170.136C81.7128 165.456 72.6108 162.498 66.8903 166.08C63.3415 168.301 63.7244 169.138 59.2361 170.129C55.2112 171.021 53.2325 169.392 49.4874 169.617C46.4759 169.798 45.1343 170.358 43.2779 172.858C41.5115 175.24 40.8873 178.925 40.572 181.793C40.0315 186.746 44.2366 198 38.5547 199.317C38.0013 199.446 38.1686 200.665 38.7156 200.717C51.4886 201.927 30.9488 171.063 55.1082 172.829C61.218 173.277 60.9027 174.049 65.909 170.261C69.4417 167.59 72.4371 167.056 76.8964 168.446C81.3846 169.846 82.0345 171.178 84.1001 175.607C86.7963 181.381 85.7281 180.148 84.7436 184.515C84.602 185.143 85.2777 185.861 85.6541 185.069Z" fill="#F2E9DD"/>
<path fill-rule="evenodd" clip-rule="evenodd" d="M70.0338 232.46C48.6027 228.109 38.3006 202.358 33.5582 183.003C31.3318 173.917 27.1299 162.695 27.1041 153.522C27.0752 141.547 28.0661 127.37 29.1633 115.471C29.2598 114.403 28.0211 113.572 27.8377 114.956C26.5314 124.85 27.3744 134.762 26.4413 144.701C26.1389 147.964 24.7586 154.089 25.1801 157.928C26.3062 168.227 30.891 180.212 33.925 190.315C39.1211 207.604 49.0789 232.753 69.9437 233.867C70.5228 233.895 70.5518 232.566 70.0338 232.46Z" fill="#F2E9DD"/>
<path fill-rule="evenodd" clip-rule="evenodd" d="M66.7612 249.275C66.951 249.266 67.1472 249.253 67.3371 249.243C67.958 249.205 67.9677 248.291 67.8165 247.879C66.3654 243.933 63.5245 242.707 60.3296 240.055C54.7378 235.411 49.2006 230.126 44.8346 224.333C40.237 218.234 38.3258 210.854 34.1465 204.727C32.3576 202.107 27.2291 197.578 27.1036 195.081C27.0714 194.341 26.1705 193.964 26.0837 194.898C25.1828 204.427 25.4885 213.014 14.6716 218.607C15.5274 218.167 4.07672 224.413 4.69124 218.276C5.26072 212.525 9.5495 215.19 13.7096 213.117C17.4611 211.247 19.0022 208.489 20.3857 204.923C22.847 198.592 26.0418 192.323 28.3262 185.735C28.5675 185.04 27.7599 183.949 27.3964 184.943C25.2568 190.807 21.4892 196.507 18.9668 202.104C15.0384 210.803 13.4908 208.824 5.9782 212.206C0.183678 214.813 5.71759 210.648 1.80846 213.361C1.52533 213.558 1.54784 214.115 1.65723 214.382C2.5935 216.625 3.92872 218.936 4.07994 221.369C4.09281 221.568 4.17002 221.926 4.41132 221.99C10.8815 223.731 20.7396 219.692 24.1661 213.851C26.7432 209.464 24.5683 203.478 26.8752 199.361C28.3648 196.703 24.4814 196.977 26.8365 197.987C33.429 200.81 37.2545 216.432 40.4686 221.864C42.65 225.556 45.7516 228.881 48.6247 232.002C50.6098 234.159 63.8076 248.545 66.5745 247.66C65.9922 247.847 66.0855 249.317 66.7612 249.275Z" fill="#F2E9DD"/>
<path fill-rule="evenodd" clip-rule="evenodd" d="M27.6605 189.098C27.8246 189.265 27.9919 189.433 28.1592 189.603C28.4841 189.938 28.8477 189.43 28.8734 189.137C30.2247 173.721 23.642 158.024 22.8987 142.711C22.5223 135.039 25.3247 126.156 19.3918 120.147C18.8995 119.645 18.3429 120.408 18.3043 120.859C17.442 131.553 17.3777 148.115 2.98953 149.512C2.31066 149.579 2.34605 151.002 3.02814 151.041C6.9244 151.269 11.3644 149.225 13.9994 146.281C19.2277 140.439 15.814 133.159 19.5462 127.743C21.8724 124.367 21.2611 132.85 21.4059 135.592C21.6343 139.915 21.1646 144.189 21.7694 148.508C22.5062 153.757 23.9927 158.922 24.7584 164.184C25.2217 167.377 25.9102 186.678 27.9629 187.894C27.4031 187.563 27.4031 188.834 27.6605 189.098Z" fill="#F2E9DD"/>
<path fill-rule="evenodd" clip-rule="evenodd" d="M29.5912 105.948C34.0602 114.113 39.7453 125.783 48.9406 128.773C52.2738 129.857 55.7969 129.268 59.3456 130.752C61.971 131.849 64.0913 133.578 66.9419 134.302C69.2391 134.884 71.9868 135.299 74.3033 134.826C79.419 133.78 85.4837 129.262 87.6394 124.508C89.1966 121.064 89.2417 118.689 86.8447 115.622C85.6575 114.106 83.7238 112.864 81.9124 112.272C78.7819 111.248 72.167 114.2 70.1336 113.237C66.2148 111.38 66.0475 105.075 60.6809 103.238C52.3157 100.373 44.0856 107.209 36.1225 108.461C35.2345 108.6 35.2828 110.592 36.174 110.492C45.6106 109.44 64.5031 95.4396 68.1774 114.792C68.245 115.149 68.5088 115.51 68.9077 115.394C71.1374 114.715 73.396 114.145 75.6836 113.685C82.4047 112.211 84.9561 116.893 83.3377 127.727C81.8127 129.613 77.9068 131.579 75.5806 132.126C67.8492 133.941 61.7523 128.248 54.8381 126.169C49.1948 124.473 46.0224 124.647 41.3604 119.977C39.7646 118.38 37.8953 115.516 36.6791 113.965C34.4752 111.155 31.8691 108.361 29.958 105.355C29.6845 104.924 29.4368 105.668 29.5912 105.948Z" fill="#F2E9DD"/>
<path fill-rule="evenodd" clip-rule="evenodd" d="M81.0241 114.586C85.5896 110.689 90.776 108.442 90.5733 101.5C90.3706 94.6384 85.6829 90.3161 79.306 89.695C70.5869 88.8485 59.0397 84.6035 50.2433 87.5805C40.9322 90.7281 44.1528 104.426 35.2793 108.358C34.388 108.751 34.7001 111.033 35.7426 110.595C38.4226 109.472 40.7778 106.595 42.2385 104.084C43.2455 102.343 43.4321 100.171 44.3137 98.3975C48.8695 89.2541 52.1159 89.4665 59.1201 89.7207C64.0363 89.8977 69.3579 91.2366 74.2644 92.1474C81.6193 93.5184 89.8655 102.015 84.2833 109.919C83.3342 111.265 81.4906 112.034 80.3967 113.415C80.0782 113.814 80.4257 115.095 81.0241 114.586Z" fill="#F2E9DD"/>
<path fill-rule="evenodd" clip-rule="evenodd" d="M77.3213 88.0796C71.7069 75.7821 58.5864 69.9214 46.3925 77.5361C42.8759 79.7343 38.6547 83.0524 37.165 87.0658C34.3208 94.7513 40.4371 104.767 29.5623 108.442C28.7129 108.732 28.9832 110.83 29.9902 110.509C35.9649 108.603 39.118 103.544 38.8188 97.5191C38.3651 88.3917 41.6919 81.5816 50.7521 77.9674C61.5432 73.6644 71.2694 79.4639 76.6263 88.9389C77.0124 89.6244 77.524 88.5237 77.3213 88.0796Z" fill="#F2E9DD"/>
<path fill-rule="evenodd" clip-rule="evenodd" d="M33.5807 105.574C30.6915 105.356 28.9187 101.902 25.8204 102.807C23.2625 103.55 22.6577 106.643 22.5644 108.957C22.4614 111.631 23.2207 114.254 25.0353 116.276C26.2933 117.682 28.4811 116.234 29.3949 114.946C29.5493 114.731 29.5204 114.287 29.3016 114.113C28.0436 113.109 27.1331 115.378 25.9137 114.863C25.4729 114.67 24.8165 113.302 24.5849 112.842C23.9124 111.512 23.7838 109.98 23.9446 108.51C24.3082 105.172 26.5218 103.756 29.4238 105.565C30.936 106.505 31.7565 107.058 33.6161 107.003C34.2532 106.984 34.2113 105.623 33.5807 105.574Z" fill="#F2E9DD"/>
<path fill-rule="evenodd" clip-rule="evenodd" d="M27.5893 105.642C28.0719 90.3836 26.6305 77.7224 25.1151 62.8213C23.1364 43.3693 24.1113 18.7229 33.8857 1.51415C34.1141 1.10542 33.7409 0.0787659 33.313 0.687042C23.4388 14.7578 24.092 32.8838 22.9916 49.304C21.7465 67.8709 26.5886 86.956 26.8621 105.661C26.8718 106.347 27.5667 106.315 27.5893 105.642Z" fill="#F2E9DD"/>
<path fill-rule="evenodd" clip-rule="evenodd" d="M21.9171 122.033C20.5691 112.468 17.9983 103.824 18.3072 93.9111C18.6064 84.2141 20.2473 74.9516 20.2184 65.1741C20.1508 44.586 14.5751 25.2789 33.1491 9.84351C33.4258 9.615 33.2617 8.61729 32.853 8.87798C19.9191 17.1492 15.8266 34.8665 17.3806 49.4715C18.8703 63.4619 17.9887 76.1069 17.001 90.2164C16.1805 101.909 19.0762 111.213 21.0613 122.42C21.2222 123.321 22.0169 122.741 21.9171 122.033Z" fill="#F2E9DD"/>
<path fill-rule="evenodd" clip-rule="evenodd" d="M2.99574 150.42C-1.98478 149.686 13.2238 136.008 14.0507 134.067C16.7372 127.746 17.9888 121.525 19.4945 114.795C19.649 114.094 18.7191 113.157 18.4392 114.152C17.0236 119.185 15.2604 123.775 13.6807 128.647C12.6511 131.817 12.2264 134.025 9.65574 136.613C7.14296 139.139 4.8747 140.806 2.68044 143.732C1.07818 145.859 -1.59869 151.385 3.02148 151.408C3.4687 151.411 3.41722 150.484 2.99574 150.42Z" fill="#F2E9DD"/>
<path fill-rule="evenodd" clip-rule="evenodd" d="M18.1339 116.076C13.4912 119.961 3.78115 122.374 1.53219 128.837C1.07533 130.16 1.04958 131.563 1.39384 132.915C1.93758 135.019 3.09584 136.841 3.55593 139.065C3.90662 140.784 5.67941 148.749 3.50124 149.592C3.01219 149.782 3.06689 151.008 3.6621 150.993C3.84228 150.986 4.01924 150.979 4.19619 150.976C4.50506 150.967 4.64019 150.619 4.69488 150.371C5.93358 144.617 4.73993 140.275 3.6621 134.64C2.45558 128.332 4.08679 126.282 9.57245 123.118C12.9539 121.171 15.5536 119.629 18.475 116.9C18.7549 116.639 18.5393 115.735 18.1339 116.076Z" fill="#F2E9DD"/>
<path fill-rule="evenodd" clip-rule="evenodd" d="M26.6788 190.237C27.2451 189.867 27.8242 189.52 28.4194 189.198C28.8666 188.944 28.9213 187.737 28.2553 187.74C24.3591 187.766 21.8367 191.496 18.6257 193.044C15.2313 194.679 10.8557 195.413 8.47482 198.686C6.88865 200.868 7.40987 202.918 7.50639 205.48C7.68656 210.227 6.60552 212.666 3.77422 216.242C3.73882 216.284 2.35856 218.498 2.25239 218.546C1.85987 218.73 1.8663 219.744 2.38752 219.731C2.55804 219.724 2.73178 219.721 2.90552 219.715C3.03421 219.711 3.16934 219.608 3.22725 219.499C4.56569 217.024 7.25222 215.608 8.51022 213.008C10.0835 209.754 8.79657 207.736 8.77083 204.318C8.71935 197.553 14.9868 197.308 19.5362 194.894C22.686 193.224 24.832 190.176 28.4194 189.198C28.2843 188.747 28.1492 188.297 28.0108 187.846C27.5797 188.47 27.0553 188.992 26.4279 189.417C26.193 189.61 26.3281 190.453 26.6788 190.237Z" fill="#F2E9DD"/>
<path fill-rule="evenodd" clip-rule="evenodd" d="M85.8402 247.525C85.8501 247.502 86.085 247.576 86.5033 247.731C86.9312 247.895 87.5328 248.127 88.276 248.413C89.7947 248.963 91.9085 249.723 94.3698 250.386C99.2699 251.783 105.528 252.7 110.347 252.774C120.218 253.138 127.872 251.052 127.937 251.403C127.966 251.516 126.138 252.153 123.005 252.755C119.877 253.353 115.434 253.862 110.415 253.691C105.521 253.614 99.1637 252.545 94.2507 250.959C91.7766 250.206 89.6724 249.337 88.1795 248.69C87.4492 248.342 86.8668 248.062 86.4518 247.863C86.0464 247.663 85.8308 247.544 85.8402 247.525Z" fill="#F2E9DD"/>
<path fill-rule="evenodd" clip-rule="evenodd" d="M87.7805 245.545C87.7967 245.497 88.5689 245.677 89.8301 246.009C91.1042 246.311 92.8802 246.739 94.9168 247.09C98.9804 247.84 104.086 248.246 107.992 248.149C115.988 248.094 122.2 246.595 122.271 246.92C122.3 247.042 120.81 247.547 118.275 248.056C115.743 248.561 112.152 249.031 108.076 249.063C104.112 249.153 98.9225 248.609 94.8364 247.669C92.7901 247.229 91.0205 246.698 89.7625 246.295C89.1512 246.076 88.6525 245.899 88.2986 245.774C87.9544 245.645 87.7742 245.565 87.7805 245.545Z" fill="#F2E9DD"/>
<path fill-rule="evenodd" clip-rule="evenodd" d="M86.8117 245.555C86.8214 245.433 89.3052 245.581 92.5451 245.359C95.7818 245.182 99.7488 244.586 102.725 243.856C108.832 242.456 113.394 240.402 113.526 240.692C113.651 240.905 109.259 243.309 102.989 244.734C99.958 245.471 95.8847 245.945 92.5933 245.945C90.946 245.964 89.4982 245.877 88.4654 245.79C87.4294 245.681 86.8085 245.597 86.8117 245.555Z" fill="#F2E9DD"/>
<path fill-rule="evenodd" clip-rule="evenodd" d="M89.7108 244.683C89.5628 244.445 97.085 240.203 102.181 238.462C107.32 236.534 111.637 235.858 111.686 236.113C111.76 236.415 107.661 237.419 102.545 239.305C100.045 240.2 96.818 241.487 94.2505 242.643C92.9861 243.222 91.86 243.74 91.0331 244.12C90.2288 244.503 89.7301 244.722 89.7108 244.683Z" fill="#F2E9DD"/>
<path fill-rule="evenodd" clip-rule="evenodd" d="M85.9825 245.697C85.9439 245.665 86.4458 245.04 87.3017 244.03C88.1864 243.042 89.4477 241.687 91.0017 240.271C94.0711 237.393 98.3148 234.32 101.825 232.395C105.38 230.381 108.8 229.026 111.313 228.244C113.832 227.461 115.435 227.204 115.463 227.32C115.57 227.658 109.412 229.164 102.337 233.158C98.8714 235.034 94.5923 237.957 91.4199 240.683C89.8144 242.025 88.4825 243.309 87.5237 244.223C87.0571 244.683 86.6839 245.056 86.4137 245.324C86.1498 245.578 85.9986 245.71 85.9825 245.697Z" fill="#F2E9DD"/>
<path fill-rule="evenodd" clip-rule="evenodd" d="M92.5644 259.912C92.6255 259.874 93.1886 260.768 94.2953 262.104C95.4021 263.44 97.0945 265.19 99.3048 266.803C103.655 270.153 110.321 272.313 115.488 272.075C120.768 272.017 125.334 270.404 128.332 268.824C131.366 267.244 132.965 265.824 133.078 265.96C133.126 266.014 132.762 266.394 132.058 267.041C131.321 267.643 130.237 268.525 128.731 269.381C125.768 271.132 121.103 272.918 115.601 272.992C112.94 273.037 109.848 272.619 106.908 271.598C103.967 270.588 101.19 269.033 98.9895 267.299C96.7759 265.573 95.1158 263.716 94.0766 262.297C93.0309 260.875 92.5644 259.912 92.5644 259.912Z" fill="#F2E9DD"/>
<path fill-rule="evenodd" clip-rule="evenodd" d="M95.2448 262.095C95.322 261.963 97.8959 263.762 101.728 265.104C105.508 266.539 110.482 267.386 114.298 267.315C122.158 267.418 127.969 264.731 128.075 265.075C128.12 265.175 126.775 265.954 124.346 266.745C121.923 267.531 118.397 268.261 114.369 268.229C110.453 268.3 105.344 267.296 101.548 265.661C97.6965 264.122 95.2448 262.095 95.2448 262.095Z" fill="#F2E9DD"/>
<path fill-rule="evenodd" clip-rule="evenodd" d="M85.5868 241.803C85.5611 241.793 85.664 241.516 85.8667 241.02C86.0855 240.522 86.3944 239.81 86.7772 238.932C87.5784 237.168 88.7431 234.725 90.2231 232.031C93.1155 226.618 97.6005 220.329 102.066 216.474C106.532 212.448 111.442 209.95 115.158 208.856C117.008 208.27 118.562 208.048 119.624 207.9C120.695 207.81 121.287 207.8 121.294 207.868C121.322 208.054 119.006 208.241 115.451 209.477C111.902 210.681 107.182 213.14 102.761 217.082C98.3695 220.828 93.8072 226.953 90.7572 232.273C89.1999 234.918 87.9451 237.319 87.0507 239.044C86.6099 239.904 86.2496 240.592 85.9986 241.078C85.7509 241.555 85.6061 241.809 85.5868 241.803Z" fill="#F2E9DD"/>
<path fill-rule="evenodd" clip-rule="evenodd" d="M97.3809 225.553C97.3423 225.518 97.8185 224.951 98.6325 224.031C99.469 223.133 100.666 221.9 102.127 220.613C105.019 218.003 108.996 215.212 112.265 213.468C115.579 211.637 118.761 210.41 121.096 209.702C123.439 209.001 124.922 208.772 124.951 208.888C125.054 209.22 119.359 210.62 112.763 214.237C109.533 215.94 105.527 218.579 102.532 221.038C101.02 222.248 99.7554 223.406 98.8481 224.233C97.9633 225.08 97.4099 225.582 97.3809 225.553Z" fill="#F2E9DD"/>
<path fill-rule="evenodd" clip-rule="evenodd" d="M81.056 250.177C81.0785 250.257 80.5123 250.502 79.7369 250.354C78.9615 250.241 78.0767 249.713 77.5973 249.121C76.5002 247.885 76.9088 246.434 77.1758 246.537C77.4847 246.556 77.4686 247.583 78.2987 248.535C78.6687 249.008 79.2864 249.53 79.8977 249.791C80.4962 250.08 81.0463 250.08 81.056 250.177Z" fill="#F2E9DD"/>
<path fill-rule="evenodd" clip-rule="evenodd" d="M81.0791 248.449C81.0566 248.732 78.6242 248.21 77.5142 247.065C76.3141 246.016 76.0632 244.699 76.3141 244.619C76.5941 244.493 77.1024 245.465 78.132 246.389C79.0425 247.393 81.0727 248.352 81.0791 248.449Z" fill="#F2E9DD"/>
<path fill-rule="evenodd" clip-rule="evenodd" d="M81.014 244.689C80.8724 244.838 79.6466 243.991 78.9613 243.392C78.2535 242.778 77.8963 242.083 78.0894 241.883C78.2921 241.674 78.8969 242.089 79.5887 242.726C80.2579 243.347 81.1298 244.574 81.014 244.689Z" fill="#F2E9DD"/>
<path fill-rule="evenodd" clip-rule="evenodd" d="M42.1673 200.408C42.1512 200.385 42.3443 200.218 42.7046 199.932C43.0811 199.642 43.6087 199.236 44.2618 198.734C45.6003 197.733 47.4825 196.356 49.6671 194.856C54.0138 191.837 59.6506 188.416 64.2998 186.424C69.0197 184.326 73.5594 183.173 76.8765 182.806C78.5399 182.646 79.8784 182.552 80.8082 182.604C81.738 182.623 82.2432 182.668 82.2432 182.739C82.2464 182.935 80.258 182.948 77.0503 183.473C73.8425 183.984 69.4444 185.156 64.7598 187.222C60.1622 189.163 54.4835 192.442 50.0274 195.32C47.8171 196.765 45.8577 198.042 44.4452 198.966C43.7471 199.423 43.184 199.787 42.7883 200.047C42.3958 200.295 42.177 200.424 42.1673 200.408Z" fill="#F2E9DD"/>
<path fill-rule="evenodd" clip-rule="evenodd" d="M46.1156 194.396C46.0802 194.361 46.6272 193.807 47.557 192.922C48.5061 192.053 49.8574 190.872 51.4886 189.646C54.7157 187.155 59.0752 184.541 62.6144 182.948C66.2018 181.271 69.5993 180.187 72.0831 179.591C74.5702 178.996 76.1338 178.838 76.1564 178.954C76.24 179.292 70.2074 180.428 63.0616 183.75C59.5643 185.304 55.1854 187.766 51.8618 190.096C50.1824 191.245 48.7699 192.349 47.7532 193.138C47.2578 193.533 46.8588 193.852 46.5692 194.084C46.2893 194.299 46.1252 194.412 46.1156 194.396Z" fill="#F2E9DD"/>
<path fill-rule="evenodd" clip-rule="evenodd" d="M42.2034 196.06C42.1616 196.034 42.3997 195.561 42.8308 194.798C43.2813 194.042 43.9312 192.999 44.7548 191.879C46.3764 189.613 48.7026 187.035 50.6909 185.281C54.7159 181.616 58.6926 179.82 58.7923 180.042C58.9596 180.325 55.3207 182.353 51.3376 185.932C49.3718 187.64 46.9845 190.08 45.231 192.217C43.4518 194.335 42.2871 196.115 42.2034 196.06Z" fill="#F2E9DD"/>
<path fill-rule="evenodd" clip-rule="evenodd" d="M52.5665 200.948C52.5826 200.9 53.2937 201.029 54.4584 201.277C55.6424 201.515 57.2671 201.843 59.1043 202.216C62.8011 202.94 67.4019 203.671 70.9411 204.106C78.1673 205.039 83.9393 205.435 83.9297 205.734C83.9264 206.001 78.2156 205.988 70.896 205.02C67.3247 204.572 62.7013 203.7 59.0077 202.792C57.161 202.348 55.5458 201.901 54.3972 201.566C53.2454 201.215 52.5601 200.987 52.5665 200.948Z" fill="#F2E9DD"/>
<path fill-rule="evenodd" clip-rule="evenodd" d="M55.3205 204.382C55.3848 204.276 56.9131 205.251 59.0977 206.098C61.263 206.983 64.0718 207.684 66.2596 207.913C70.7285 208.495 74.3031 207.852 74.361 208.164C74.4414 208.399 70.8701 209.445 66.1856 208.827C63.9173 208.582 61.0249 207.717 58.8789 206.638C57.7946 206.12 56.897 205.557 56.2696 205.139C55.6518 204.698 55.2979 204.418 55.3205 204.382Z" fill="#F2E9DD"/>
<path fill-rule="evenodd" clip-rule="evenodd" d="M57.2284 200.385C57.2479 200.273 59.3134 200.601 62.0321 200.829C64.7476 201.08 68.113 201.206 70.6934 201.161C75.957 201.119 80.1235 200.681 80.1686 200.977C80.2136 201.238 76.1275 202.052 70.7481 202.075C68.1323 202.11 64.7122 201.846 61.9839 201.412C60.6165 201.206 59.4228 200.965 58.5767 200.772C57.7273 200.566 57.2189 200.427 57.2284 200.385Z" fill="#F2E9DD"/>
<path fill-rule="evenodd" clip-rule="evenodd" d="M39.6456 104.525C39.6552 104.432 40.7845 105.098 42.6957 104.68C44.6132 104.358 46.9072 102.813 49.8672 101.793C52.7983 100.785 56.3696 100.135 59.8347 100.847C61.5528 101.194 63.2098 101.896 64.5868 102.897C65.9767 103.888 67.0224 105.134 68.0037 106.199C71.7455 110.914 77.5368 111.85 81.1789 111.165C84.9465 110.55 86.8029 108.848 86.9123 109.05C86.9445 109.092 86.5423 109.53 85.6382 110.116C84.7405 110.708 83.312 111.429 81.388 111.818C79.4801 112.224 77.0703 112.288 74.5189 111.59C71.9739 110.923 69.3485 109.24 67.4052 106.9C66.4111 105.816 65.4104 104.612 64.1492 103.666C62.8944 102.716 61.3726 102.031 59.7575 101.661C56.5015 100.901 53.0042 101.432 50.1021 102.33C47.1904 103.222 44.7902 104.722 42.7664 104.966C41.7723 105.137 40.9486 105.021 40.4242 104.866C39.8901 104.712 39.6456 104.525 39.6456 104.525Z" fill="#F2E9DD"/>
<path fill-rule="evenodd" clip-rule="evenodd" d="M43.6221 104.001C43.6221 104.001 44.0661 103.006 45.3981 101.835C46.7333 100.683 49.037 99.5336 51.8361 99.2054C54.6224 98.8159 57.8205 99.2536 60.7451 100.197C63.6954 101.104 66.4753 102.301 68.9269 103.158C73.8817 105.076 78.7239 105.372 81.9702 104.374C85.2423 103.418 86.6161 101.616 86.7448 101.78C86.7866 101.809 86.5196 102.279 85.8053 102.935C85.1007 103.595 83.9167 104.416 82.2501 104.995C78.9362 106.228 73.7852 106.028 68.721 104.055C63.7952 102.314 57.5084 99.0734 51.9487 99.7814C49.2236 100.007 46.9618 101.014 45.5944 102.054C44.2334 103.116 43.68 104.049 43.6221 104.001Z" fill="#F2E9DD"/>
<path fill-rule="evenodd" clip-rule="evenodd" d="M44.9123 102.295C44.9123 102.295 45.0088 101.664 45.5718 100.782C46.1252 99.9004 47.2642 98.8898 48.7892 98.2172C51.8522 96.7979 56.2021 97.1487 59.1074 98.1528C62.1285 99.0668 64.7185 100.061 66.6618 100.489C68.5987 100.95 69.8374 100.985 69.8407 101.139C69.8535 101.265 68.6051 101.474 66.5846 101.165C64.5577 100.892 61.8776 99.9648 58.9015 99.0443C56.0445 98.0498 52.0324 97.5831 49.0338 98.7482C47.5602 99.3018 46.4277 100.164 45.8099 100.95C45.1922 101.735 44.9702 102.324 44.9123 102.295Z" fill="#F2E9DD"/>
<path fill-rule="evenodd" clip-rule="evenodd" d="M44.7765 99.3179C44.7475 99.276 45.2688 98.9091 46.16 98.3331C47.0705 97.7956 48.3832 97.0875 49.9629 96.5018C53.0967 95.2531 57.3082 94.5836 60.5224 94.7574C63.8138 94.8572 66.703 95.6264 68.656 96.4278C70.6218 97.2356 71.6835 98.0016 71.6288 98.0981C71.5002 98.4393 67.0215 95.871 60.5482 95.6747C57.4337 95.4816 53.3315 95.9901 50.1849 97.0425C47.0029 98.0176 44.8344 99.4305 44.7765 99.3179Z" fill="#F2E9DD"/>
<path fill-rule="evenodd" clip-rule="evenodd" d="M37.9852 102.115C37.9401 102.092 38.3262 101.217 38.9954 99.788C39.684 98.3494 40.6331 96.3669 41.7109 94.1236C42.2611 93.0004 42.8434 91.8096 43.4387 90.5931C44.0403 89.3926 44.6001 88.0634 45.6104 86.9724C47.7371 84.7549 50.8708 84.5618 53.1841 84.4749C58.0424 84.4588 62.373 84.5908 65.5067 84.7066C68.6373 84.8321 70.5484 84.9866 70.542 85.125C70.5387 85.2698 68.6566 85.3535 65.5647 85.3889C62.447 85.3889 58.1582 85.3857 53.3 85.3857C51.0124 85.4565 48.1264 85.6239 46.2474 87.4809C45.3305 88.3949 44.7417 89.6565 44.1014 90.8602C43.4612 92.0639 42.8402 93.2386 42.2514 94.3489C41.0674 96.5535 40.0218 98.5006 39.2625 99.9103C38.8796 100.596 38.5707 101.149 38.3487 101.539C38.13 101.922 38.0013 102.125 37.9852 102.115Z" fill="#F2E9DD"/>
<path fill-rule="evenodd" clip-rule="evenodd" d="M40.4913 98.2559C40.4913 98.2559 40.2532 97.4674 40.2242 96.1124C40.192 94.7639 40.4012 92.849 41.1379 90.8149C41.8522 88.7809 43.1327 86.6568 44.8315 84.951C46.5271 83.2292 48.6538 82.003 50.6293 81.369C54.6928 80.0269 58.6631 80.648 61.1469 81.6779C63.6854 82.7078 64.8598 83.9565 64.7858 84.0241C64.6828 84.1754 63.4184 83.168 60.97 82.3377C58.5666 81.5041 54.8408 80.9828 50.9832 82.2154C49.1171 82.7979 47.103 83.8954 45.446 85.4853C43.7826 87.0623 42.4796 89.0513 41.6978 90.992C40.8966 92.9294 40.5846 94.78 40.517 96.106C40.4494 97.4384 40.5492 98.2494 40.4913 98.2559Z" fill="#F2E9DD"/>
<path fill-rule="evenodd" clip-rule="evenodd" d="M68.5887 125.339C68.537 125.538 61.5553 124.016 57.244 122.97C52.8361 121.901 49.4161 120.775 49.4836 120.505C49.5544 120.225 52.997 120.968 57.4241 122.072C61.7354 123.147 68.6303 125.181 68.5887 125.339Z" fill="#F2E9DD"/>
<path fill-rule="evenodd" clip-rule="evenodd" d="M65.7416 120.163C65.7705 120.241 64.7989 120.685 63.4154 120.817C62.0383 120.984 60.2881 120.791 59.0269 120.353C56.3757 119.516 54.9922 117.663 55.2014 117.518C55.4169 117.28 56.8776 118.689 59.3036 119.481C60.4618 119.899 62.0576 120.215 63.38 120.231C64.7023 120.286 65.7158 120.067 65.7416 120.163Z" fill="#F2E9DD"/>
<path fill-rule="evenodd" clip-rule="evenodd" d="M61.9255 116.33C61.9448 116.414 60.8348 116.82 59.2937 117.003C57.7622 117.212 55.8157 117.151 54.3614 116.868C51.35 116.347 49.3455 114.866 49.4871 114.66C49.6351 114.377 51.6524 115.439 54.5127 115.967C55.8929 116.25 57.7365 116.443 59.2454 116.421C60.748 116.421 61.9062 116.237 61.9255 116.33Z" fill="#F2E9DD"/>
<path fill-rule="evenodd" clip-rule="evenodd" d="M25.9387 124.267C25.8293 124.225 26.1703 123.259 26.2829 121.966C26.4341 120.675 26.3247 119.079 26.0384 117.904C25.5365 115.481 24.4587 113.784 24.7032 113.601C24.893 113.418 26.3891 115.02 26.9328 117.695C27.2288 118.976 27.2031 120.723 26.862 122.052C26.5564 123.401 25.9966 124.299 25.9387 124.267Z" fill="#F2E9DD"/>
<path fill-rule="evenodd" clip-rule="evenodd" d="M25.6333 103.106C25.4306 103.119 23.9345 81.2917 23.1045 67.7197C22.2615 53.8581 21.8786 42.8577 22.1553 42.8448C22.4449 42.8255 23.1913 53.5813 24.0118 67.5298C24.8097 81.1179 25.7974 103.096 25.6333 103.106Z" fill="#F2E9DD"/>
<path fill-rule="evenodd" clip-rule="evenodd" d="M80.117 235.089C80.0398 235.176 78.4278 235.253 77.72 235.91C76.9543 236.418 76.4974 237.033 76.2207 236.946C75.944 236.885 76.1531 235.826 77.2245 235.14C77.7168 234.799 78.5083 234.609 79.1228 234.687C79.7502 234.741 80.1427 235.024 80.117 235.089Z" fill="#F2E9DD"/>
<path fill-rule="evenodd" clip-rule="evenodd" d="M82.98 235.035C83.054 235.221 81.4099 236.142 80.3514 236.618C79.2704 237.104 78.3051 237.22 78.2022 236.962C78.096 236.692 78.9036 236.235 80.0039 235.772C81.0721 235.321 82.9157 234.883 82.98 235.035Z" fill="#F2E9DD"/>
<path fill-rule="evenodd" clip-rule="evenodd" d="M71.4688 239.167C71.4688 239.167 69.5415 239.035 66.4368 238.263C63.3416 237.493 59.1204 235.907 54.7737 233.271C50.4463 230.629 46.0835 226.85 42.686 222.354C39.2273 217.887 36.9526 212.709 35.479 208.142C32.5898 198.754 30.7366 190.215 29.1568 184.094C28.4361 181.04 27.857 178.568 27.4484 176.833C27.0688 175.115 26.8886 174.162 26.9561 174.146C27.0269 174.127 27.3261 175.028 27.8088 176.688C28.2785 178.375 28.9477 180.785 29.7778 183.788C31.4927 189.79 33.4456 198.316 36.2898 207.675C37.7408 212.203 39.8933 217.308 43.2458 221.743C46.5179 226.223 50.7745 230.017 55.0086 232.73C59.262 235.424 63.4221 237.104 66.4882 237.976C68.0294 238.382 69.2648 238.713 70.1335 238.861C70.999 239.038 71.4688 239.167 71.4688 239.167Z" fill="#F2E9DD"/>
<path fill-rule="evenodd" clip-rule="evenodd" d="M20.9648 197.965C21.0291 198.071 19.5298 198.982 17.7892 200.446C16.0261 201.882 14.0571 203.887 12.7315 205.57C9.95168 208.952 8.39124 212.097 8.11132 211.965C7.87002 211.881 9.09906 208.534 11.9979 205.019C13.3718 203.294 15.5049 201.318 17.4192 199.996C18.3652 199.32 19.2499 198.802 19.8902 198.451C20.5433 198.116 20.9455 197.929 20.9648 197.965Z" fill="#F2E9DD"/>
<path fill-rule="evenodd" clip-rule="evenodd" d="M13.97 196.803C14.0568 196.803 14.1855 197.547 13.9442 198.506C13.7351 199.468 13.1334 200.578 12.4739 201.261C11.129 202.751 9.41736 202.876 9.39805 202.612C9.30796 202.313 10.6303 201.904 11.8047 200.636C12.387 200.051 13.0273 199.156 13.3876 198.329C13.7737 197.511 13.8767 196.797 13.97 196.803Z" fill="#F2E9DD"/>
<path fill-rule="evenodd" clip-rule="evenodd" d="M14.0858 123.118C14.1695 123.186 13.1946 124.509 12.0202 126.298C10.8298 128.078 9.45599 130.337 8.47791 132.107C6.44452 135.702 4.98703 138.644 4.71677 138.531C4.46259 138.428 5.56938 135.351 7.6639 131.686C9.61042 128.039 13.9185 122.964 14.0858 123.118Z" fill="#F2E9DD"/>
<path fill-rule="evenodd" clip-rule="evenodd" d="M9.35693 126.031C9.5178 126.153 8.67484 127.685 8.06354 128.576C7.44258 129.484 6.72188 130.031 6.49989 129.867C6.26823 129.69 6.68006 128.934 7.32675 128.036C7.95736 127.16 9.22502 125.931 9.35693 126.031Z" fill="#F2E9DD"/>
<path fill-rule="evenodd" clip-rule="evenodd" d="M83.4179 118.635C83.4919 118.657 83.1541 119.706 82.1439 120.707C81.1819 121.74 79.5764 122.606 78.2444 122.87C75.4388 123.546 73.3604 122.159 73.5502 121.962C73.666 121.66 75.545 122.558 78.032 121.979C79.2321 121.76 80.725 121.11 81.7449 120.282C82.8002 119.491 83.3279 118.58 83.4179 118.635Z" fill="#F2E9DD"/>
<path fill-rule="evenodd" clip-rule="evenodd" d="M84.9008 123.163C84.8751 123.288 82.5618 123.761 81.426 124.637C80.2131 125.39 79.3701 126.191 79.1288 126.024C78.8971 125.876 79.5278 124.711 80.9466 123.858C82.3044 122.876 84.9458 122.912 84.9008 123.163Z" fill="#F2E9DD"/>
<path fill-rule="evenodd" clip-rule="evenodd" d="M89.7435 198.702C89.6309 198.754 89.2641 197.991 88.418 197.386C87.6104 196.749 86.3942 196.324 85.4547 196.272C83.505 196.041 82.1376 196.942 81.951 196.707C81.7097 196.549 83.1672 195.078 85.5384 195.361C86.6452 195.435 88.0222 196.082 88.804 196.948C89.6341 197.785 89.8014 198.696 89.7435 198.702Z" fill="#F2E9DD"/>
<path fill-rule="evenodd" clip-rule="evenodd" d="M89.7368 196.765C89.6499 196.852 88.8456 196.028 87.5329 195.394C86.2491 194.721 84.4989 194.296 83.1508 194.274C80.3774 194.113 78.3279 195.13 78.1863 194.856C78.0094 194.663 80.0782 193.176 83.1733 193.36C84.6533 193.392 86.5419 194.003 87.816 194.885C89.1287 195.725 89.785 196.736 89.7368 196.765Z" fill="#F2E9DD"/>
<path fill-rule="evenodd" clip-rule="evenodd" d="M145.031 231.523C144.989 231.642 143.747 231.246 142.084 231.163C140.42 231.037 138.371 231.266 136.881 231.707C133.792 232.511 131.714 234.072 131.521 233.824C131.328 233.657 133.274 231.69 136.617 230.828C138.216 230.368 140.42 230.268 142.135 230.58C142.994 230.718 143.728 230.947 144.243 231.134C144.748 231.343 145.044 231.484 145.031 231.523Z" fill="#F2E9DD"/>
<path fill-rule="evenodd" clip-rule="evenodd" d="M142.26 226.444C142.254 226.557 141.163 226.576 139.764 226.773C138.358 226.95 136.662 227.326 135.401 227.728C132.811 228.498 130.848 229.418 130.697 229.164C130.552 228.935 132.377 227.651 135.124 226.856C137.791 225.917 142.302 226.193 142.26 226.444Z" fill="#F2E9DD"/>
<path fill-rule="evenodd" clip-rule="evenodd" d="M141.28 224.603C141.215 224.7 138.165 223.918 136.27 224.256C134.346 224.417 132.863 224.896 132.734 224.629C132.605 224.391 134.053 223.506 136.183 223.345C138.307 223.017 141.421 224.378 141.28 224.603Z" fill="#F2E9DD"/>
<path fill-rule="evenodd" clip-rule="evenodd" d="M36.7436 110.997C36.7629 110.888 38.037 111.007 39.7003 111.039C41.367 111.088 43.4197 111.033 44.9833 110.901C48.175 110.672 50.7006 110.299 50.7682 110.582C50.8357 110.849 48.3777 111.596 45.0702 111.812C41.8367 112.146 36.6921 111.219 36.7436 110.997Z" fill="#F2E9DD"/>
<path fill-rule="evenodd" clip-rule="evenodd" d="M41.7943 106.15C41.7685 106.105 42.2029 105.784 42.9397 105.275C43.6925 104.783 44.7607 104.123 46.0187 103.463C48.5251 102.108 51.81 100.779 54.4193 100.042C59.7473 98.4553 64.2034 98.5293 64.1971 98.7739C64.2259 99.0989 59.9758 99.3789 54.7153 100.911C52.1543 101.613 48.8661 102.794 46.2986 103.975C45.0084 104.551 43.8984 105.121 43.0973 105.526C42.3058 105.944 41.8168 106.183 41.7943 106.15Z" fill="#F2E9DD"/>
<path fill-rule="evenodd" clip-rule="evenodd" d="M42.6439 107.132C42.5989 107.058 43.7507 106.16 45.4591 105.291C47.1579 104.4 49.4069 103.583 51.1925 103.196C54.8475 102.331 57.8493 102.791 57.8171 103.042C57.8107 103.36 54.9697 103.277 51.4177 104.081C49.6868 104.442 47.4636 105.102 45.7197 105.816C43.9663 106.508 42.6954 107.216 42.6439 107.132Z" fill="#F2E9DD"/>
<path fill-rule="evenodd" clip-rule="evenodd" d="M42.1125 106.524C42.0417 106.453 43.3222 104.989 45.0435 103.103C46.8099 101.214 48.9527 98.9254 50.5935 97.1746C52.2505 95.3755 54.0715 93.8211 55.751 93.3962C57.453 92.9328 58.4569 93.6183 58.3796 93.6891C58.3346 93.8726 57.3951 93.4928 55.9988 94.0335C54.5799 94.5291 52.968 95.9677 51.2788 97.7797C49.5929 99.5144 47.3311 101.729 45.4747 103.496C44.5513 104.358 43.7309 105.127 43.1195 105.694C42.5179 106.238 42.1415 106.553 42.1125 106.524Z" fill="#F2E9DD"/>
<path fill-rule="evenodd" clip-rule="evenodd" d="M41.868 106.35C41.8262 106.331 41.9678 105.768 42.2541 104.85C42.5469 103.936 42.978 102.662 43.5861 101.255C44.7508 98.4457 46.9451 95.0954 49.6541 93.6181C52.3085 92.054 55.2813 91.877 57.1732 92.511C59.1004 93.1418 59.85 94.2135 59.7696 94.265C59.657 94.4131 58.8012 93.5988 57.038 93.1836C55.3038 92.7492 52.6398 92.9616 50.156 94.3841C47.6883 95.6779 45.4393 98.7772 44.1266 101.481C42.7818 104.191 41.9678 106.389 41.868 106.35Z" fill="#F2E9DD"/>
<path fill-rule="evenodd" clip-rule="evenodd" d="M49.6968 97.4511C49.6196 97.4222 49.9124 96.4631 50.7424 95.4622C51.5404 94.4387 52.8724 93.4539 54.0338 92.9969C56.4405 91.9477 58.5543 92.6268 58.4578 92.8681C58.4256 93.1868 56.5563 92.9228 54.3942 93.8369C53.3421 94.2359 52.0584 95.0116 51.18 95.8516C50.2727 96.6658 49.7837 97.4994 49.6968 97.4511Z" fill="#F2E9DD"/>
<path fill-rule="evenodd" clip-rule="evenodd" d="M48.2907 197.369C48.3036 197.289 49.0436 197.482 50.2372 197.334C51.4341 197.205 53.0042 196.542 54.5357 195.4C56.0832 194.283 57.6211 192.767 59.2395 191.348C60.8546 189.903 62.6724 188.705 64.3423 187.865C67.7495 186.118 71.1953 185.468 73.6373 185.381C76.0986 185.268 77.5818 185.622 77.569 185.732C77.6237 186.086 71.5492 185.265 64.8152 188.651C63.2001 189.459 61.4273 190.559 59.809 191.927C58.1713 193.285 56.5562 194.775 54.896 195.86C53.2616 196.974 51.5435 197.591 50.2758 197.627C49.005 197.682 48.2907 197.369 48.2907 197.369Z" fill="#F2E9DD"/>
<path fill-rule="evenodd" clip-rule="evenodd" d="M47.6822 195.596C47.4956 195.448 50.2529 191.937 52.3185 190.07C54.3776 188.116 56.3467 186.987 56.5043 187.206C56.6845 187.447 55.005 188.821 52.9555 190.727C51.9774 191.637 50.6905 192.835 49.5901 193.861C48.538 194.862 47.7466 195.651 47.6822 195.596Z" fill="#F2E9DD"/>
<path fill-rule="evenodd" clip-rule="evenodd" d="M46.9615 194.238C46.8456 194.074 48.3224 192.719 49.3005 191.966C50.2979 191.193 51.2567 190.817 51.4175 191.042C51.5881 191.28 50.8609 191.95 49.841 192.703C48.8436 193.436 47.058 194.373 46.9615 194.238Z" fill="#F2E9DD"/>
<path fill-rule="evenodd" clip-rule="evenodd" d="M87.1438 245.304C87.1052 245.253 87.6554 244.87 88.3536 244.046C89.0582 243.225 89.8207 241.922 90.5993 240.377C91.3811 238.851 92.3142 237.052 93.7749 235.691C95.1938 234.307 96.8797 233.306 98.35 232.543C101.381 231.024 104.128 229.898 105.933 228.758C107.745 227.638 108.662 226.673 108.787 226.782C108.881 226.853 108.128 227.992 106.355 229.293C104.595 230.609 101.812 231.851 98.8198 233.329C97.3751 234.069 95.7471 234.992 94.3733 236.244C92.9641 237.464 91.9957 239.125 91.127 240.631C90.2615 242.144 89.3864 243.457 88.5756 244.236C87.7712 245.027 87.1438 245.304 87.1438 245.304Z" fill="#F2E9DD"/>
<path fill-rule="evenodd" clip-rule="evenodd" d="M97.3429 239.556C97.2528 239.376 98.9902 238.233 100.12 237.615C101.268 236.985 102.311 236.743 102.433 236.991C102.565 237.252 101.712 237.821 100.541 238.43C99.3988 239.022 97.4169 239.704 97.3429 239.556Z" fill="#F2E9DD"/>
<path fill-rule="evenodd" clip-rule="evenodd" d="M92.2464 243.389C92.0887 243.138 96.844 240.602 100.197 240.116C103.559 239.437 106.284 239.91 106.252 240.161C106.239 240.477 103.649 240.383 100.393 241.008C98.8034 241.288 96.7507 241.799 95.1259 242.366C93.4947 242.91 92.2914 243.473 92.2464 243.389Z" fill="#F2E9DD"/>
<path fill-rule="evenodd" clip-rule="evenodd" d="M85.2256 243.994C85.1774 243.975 85.4026 243.318 85.808 242.237C86.252 241.175 86.9147 239.704 87.8478 238.124C89.6592 234.938 92.5806 231.391 95.2221 229.109C97.8796 226.724 100.637 225.051 102.706 224.066C104.787 223.078 106.158 222.721 106.197 222.827C106.357 223.152 101.136 225.048 95.8784 229.753C93.282 231.964 90.3091 235.347 88.3626 238.404C87.3652 239.917 86.6155 241.333 86.0782 242.353C85.5827 243.386 85.2642 244.01 85.2256 243.994Z" fill="#F2E9DD"/>
<path fill-rule="evenodd" clip-rule="evenodd" d="M88.4374 241.455C88.2218 241.365 89.1388 239.157 90.0783 237.986C90.9856 236.766 92.0666 236.148 92.2404 236.354C92.443 236.573 91.6837 237.403 90.799 238.549C89.8981 239.624 88.5661 241.507 88.4374 241.455Z" fill="#F2E9DD"/>
<path fill-rule="evenodd" clip-rule="evenodd" d="M84.2411 237.577C84.2411 237.577 84.0609 236.64 84.2636 235.089C84.476 233.544 85.2192 231.433 86.593 229.367C89.3117 225.16 94.2279 221.407 97.7348 218.427C101.364 215.396 104.672 212.731 107.088 210.854C109.504 208.975 111.032 207.881 111.122 207.99C111.216 208.099 109.864 209.351 107.574 211.334C105.238 213.304 102.024 216.01 98.388 219.074C94.8456 222.067 89.9005 225.669 87.0982 229.659C85.6793 231.623 84.8685 233.631 84.5564 235.127C84.254 236.63 84.3119 237.577 84.2411 237.577Z" fill="#F2E9DD"/>
<path fill-rule="evenodd" clip-rule="evenodd" d="M89.8883 253.489C90.0138 253.45 90.7152 255.793 92.163 258.619C93.5594 261.467 95.7375 264.737 97.7066 266.993C101.629 271.698 105.737 274.415 105.547 274.685C105.451 274.901 101.095 272.493 97.0438 267.624C95.0329 265.31 92.903 261.869 91.645 258.889C90.9919 257.412 90.5479 256.057 90.2519 255.082C89.9881 254.097 89.8465 253.501 89.8883 253.489Z" fill="#F2E9DD"/>
<path fill-rule="evenodd" clip-rule="evenodd" d="M87.9413 251.513C88.025 251.448 89.2894 253.012 90.9689 255.03C92.6451 257.051 94.7557 259.52 96.3966 261.39C99.7298 265.22 102.362 268.274 102.159 268.474C101.953 268.67 99.0896 265.918 95.7306 262.024C94.093 260.135 92.0692 257.557 90.5216 255.404C89.7463 254.335 89.0867 253.37 88.6234 252.671C88.1697 251.973 87.9091 251.535 87.9413 251.513Z" fill="#F2E9DD"/>
<path fill-rule="evenodd" clip-rule="evenodd" d="M82.913 232.579C82.868 232.698 81.9382 232.341 80.7027 232.424C79.4736 232.453 78.0162 232.936 77.0638 233.557C75.024 234.738 74.2261 236.525 73.9429 236.415C73.6695 236.396 74.2132 234.149 76.578 232.778C77.6655 232.083 79.3707 231.681 80.7123 231.839C82.0669 231.942 82.9484 232.534 82.913 232.579Z" fill="#F2E9DD"/>
<path fill-rule="evenodd" clip-rule="evenodd" d="M79.007 253.077C78.9909 253.151 77.778 252.958 76.4106 252.14C75.0207 251.371 73.5664 249.961 72.7685 248.658C71.0021 245.996 71.266 243.322 71.5137 243.373C71.8419 243.338 71.9287 245.691 73.5278 248.153C74.2517 249.36 75.4936 250.76 76.7194 251.645C77.9195 252.571 79.0424 252.977 79.007 253.077Z" fill="#F2E9DD"/>
<path fill-rule="evenodd" clip-rule="evenodd" d="M20.8044 193.955C20.9009 193.996 20.2156 195.789 19.2729 198.119C18.282 200.469 17.0819 203.317 16.1649 205.493C15.663 206.6 15.1868 207.642 14.7525 208.602C14.3439 209.528 13.8323 210.475 13.1985 211.028C12.6033 211.62 11.8408 211.91 11.3292 211.775C10.8305 211.643 10.6986 211.373 10.734 211.34C10.7887 211.228 11.6992 211.81 12.6837 210.581C13.6457 209.535 14.2409 207.353 15.3091 205.161C16.2775 202.982 17.616 200.163 18.7292 197.897C19.289 196.787 19.7877 195.799 20.1577 195.065C20.5277 194.357 20.769 193.935 20.8044 193.955Z" fill="#F2E9DD"/>
<path fill-rule="evenodd" clip-rule="evenodd" d="M18.0791 196.037C18.2979 196.159 15.1256 201.592 12.6192 204.611C10.145 207.752 7.69659 209.799 7.51642 209.609C7.29764 209.393 9.40503 207.16 11.8856 204.064C13.105 202.567 14.6655 200.578 15.8849 198.93C17.1107 197.286 18.0019 195.992 18.0791 196.037Z" fill="#F2E9DD"/>
<path fill-rule="evenodd" clip-rule="evenodd" d="M15.0868 198.071C15.267 198.174 14.5527 199.912 14.0186 200.942C13.4749 201.991 12.7928 202.68 12.5547 202.545C12.3005 202.4 12.648 201.54 13.2207 200.498C13.7773 199.481 14.9452 197.991 15.0868 198.071Z" fill="#F2E9DD"/>
<path fill-rule="evenodd" clip-rule="evenodd" d="M24.0057 196.189C24.0701 196.153 24.6074 197.18 24.6524 198.68C24.749 200.166 24.2824 202.03 23.5585 203.266C22.13 205.94 19.6333 206.684 19.6011 206.42C19.4435 206.137 21.4479 205.216 22.7542 202.834C23.4234 201.724 23.98 200.076 24.0669 198.686C24.2052 197.286 23.8996 196.214 24.0057 196.189Z" fill="#F2E9DD"/>
<path fill-rule="evenodd" clip-rule="evenodd" d="M15.4441 122.973C15.5246 122.996 15.1642 124.624 14.2666 126.619C13.4043 128.624 11.9662 130.948 10.6245 132.541C7.92832 135.879 4.86858 137.504 4.75276 137.285C4.56615 137.018 7.2591 135.196 9.90058 131.984C11.2101 130.453 12.7222 128.274 13.7357 126.378C14.7781 124.499 15.3508 122.938 15.4441 122.973Z" fill="#F2E9DD"/>
<path fill-rule="evenodd" clip-rule="evenodd" d="M15.7691 120.331C15.8398 120.414 14.7942 121.412 13.5137 122.786C12.2171 124.154 10.6985 125.911 9.59811 127.305C7.32342 130.128 5.6375 132.47 5.38654 132.316C5.14845 132.178 6.51585 129.635 8.86776 126.751C11.0813 123.855 15.6372 120.151 15.7691 120.331Z" fill="#F2E9DD"/>
<path fill-rule="evenodd" clip-rule="evenodd" d="M11.2643 122.21C11.4381 122.313 10.9555 123.594 10.5661 124.338C10.1672 125.094 9.60414 125.548 9.36606 125.403C9.11832 125.255 9.35319 124.621 9.77789 123.874C10.1897 123.144 11.126 122.123 11.2643 122.21Z" fill="#F2E9DD"/>
<path fill-rule="evenodd" clip-rule="evenodd" d="M71.8317 172.626C71.806 172.739 70.9341 172.607 69.8241 172.707C68.7108 172.778 67.3788 173.099 66.4233 173.499C64.451 174.252 63.1222 175.343 62.9067 175.13C62.7007 174.963 63.8719 173.476 66.0854 172.649C67.1375 172.221 68.6368 172.012 69.8176 172.124C71.0081 172.205 71.851 172.562 71.8317 172.626Z" fill="#F2E9DD"/>
<path fill-rule="evenodd" clip-rule="evenodd" d="M68.0062 174.532C67.9515 174.625 65.4709 174.525 64.1453 175.246C62.7651 175.803 61.8127 176.559 61.5907 176.366C61.372 176.205 62.1731 175.034 63.8043 174.4C64.5765 174.071 65.6929 173.933 66.5584 174.055C67.4335 174.149 68.0287 174.464 68.0062 174.532Z" fill="#F2E9DD"/>
<path fill-rule="evenodd" clip-rule="evenodd" d="M66.1048 177.019C66.0759 177.148 62.7459 177.254 60.8283 177.959C58.8496 178.535 57.3374 179.218 57.1798 178.967C57.0286 178.741 58.4217 177.682 60.5677 177.084C62.6558 176.356 66.1595 176.784 66.1048 177.019Z" fill="#F2E9DD"/>
</svg>
