<svg width="215" height="262" viewBox="0 0 215 262" fill="none" xmlns="http://www.w3.org/2000/svg">
<path fill-rule="evenodd" clip-rule="evenodd" d="M69.3951 32.1036C64.8082 30.4407 60.2513 29.6454 55.7423 27.48C52.6321 25.9868 51.6753 24.5636 47.8127 24.7706C41.1516 25.1298 29.561 30.9899 24.6685 35.5263C15.0298 44.4659 7.51274 55.5364 16.6945 67.674C20.1309 72.2213 23.419 79.728 29.0738 82.151C36.7324 85.435 43.5124 78.132 49.443 74.6831C60.7118 68.1219 73.8004 52.8194 68.4248 38.9716C68.252 38.5242 67.8247 38.7136 67.9606 39.154C72.9817 55.2477 54.0255 68.034 42.9675 74.8397C38.2683 77.732 33.1367 83.881 26.8731 78.965C26.0503 78.319 20.7413 70.7489 20.0495 69.4848C16.6745 66.6208 15.9876 62.5848 17.9824 57.369C14.5859 51.4579 15.0652 47.4391 19.4242 45.3043C19.5493 45.0588 21.2286 43.4337 21.5407 43.1463C26.9715 38.146 30.3378 34.8244 37.1239 31.7483C44.8985 28.2198 48.6361 28.1106 57.2656 31.2916C61.4308 32.8259 65.1497 33.0086 69.4229 34.242C70.6422 34.5965 70.2598 32.4179 69.3951 32.1036Z" fill="#F2E9DD"/>
<path fill-rule="evenodd" clip-rule="evenodd" d="M69.3446 34.652C69.4984 33.5583 69.7052 32.5892 70.2092 31.5887C70.2369 31.5339 70.1571 31.4021 70.1068 31.4791C69.5205 32.4243 69.3335 33.4376 69.1643 34.5266C69.1466 34.6362 69.3203 34.8086 69.3446 34.652Z" fill="#F2E9DD"/>
<path fill-rule="evenodd" clip-rule="evenodd" d="M38.1713 81.1701C39.7193 87.1491 40.8935 92.1471 48.0788 91.3881C56.2805 90.5191 60.6303 82.7891 64.8461 76.6502C67.9747 72.0952 68.7291 67.5968 71.1585 62.9235C72.4143 60.5081 74.4094 58.8002 75.0814 55.8839C76.9128 47.9139 70.2466 40.9774 68.8349 33.6266C68.6503 32.6756 67.4221 32.4171 67.5922 33.6069C68.3082 38.6653 71.3148 42.0813 72.5715 46.9598C75.1532 56.9934 71.2795 56.7171 68.0443 63.6218C65.6735 68.675 64.8731 71.893 61.5644 76.5731C60.3143 78.3381 58.8318 80.8541 57.5604 82.3491C51.8646 89.0401 43.2217 90.6251 39.6458 80.9081C39.265 79.8721 37.8414 79.8921 38.1713 81.1701Z" fill="#F2E9DD"/>
<path fill-rule="evenodd" clip-rule="evenodd" d="M20.8673 38.5082C12.4943 27.9037 25.213 21.7728 32.9942 19.4741C40.7592 17.178 46.2052 17.6505 53.308 21.7855C59.741 25.5304 65.133 29.5584 68.7811 36.3235C69.1915 37.0878 69.7433 36.2996 69.4186 35.6923C63.6602 24.8836 51.5019 14.5466 38.5319 15.7523C32.0935 16.3515 21.5232 18.6891 18.2787 24.7082C15.3427 30.1529 16.5999 35.2269 20.3405 39.5583C21.0122 40.3424 21.2884 39.0421 20.8673 38.5082Z" fill="#F2E9DD"/>
<path fill-rule="evenodd" clip-rule="evenodd" d="M64.9978 26.7323C69.6764 25.265 72.94 27.0513 77.4572 27.9711C78.5674 28.1979 79.8985 28.0029 80.9431 28.3398C86.1442 30.0117 84.4611 35.263 84.1421 39.418C84.0334 40.8554 84.3369 42.3493 84.2473 43.7178C83.9031 49.0355 76.7495 50.0098 72.7908 51.5122C72.1655 51.751 72.7101 53.1177 73.3518 52.9141C76.8539 51.7904 84.4911 50.4822 85.8492 46.2885C86.5837 44.0218 86.3616 41.1282 86.9359 38.7904C87.412 36.8633 87.7872 35.4507 87.3323 33.4191C86.4497 29.466 84.3617 26.4542 80.4132 25.7354C74.7838 24.7131 69.8574 23.0696 64.4708 25.4036C63.8858 25.6583 64.3924 26.9225 64.9978 26.7323Z" fill="#F2E9DD"/>
<path fill-rule="evenodd" clip-rule="evenodd" d="M120.764 62.4342C118.282 60.5709 115.792 61.4358 112.829 61.3298C108.027 61.1577 104.601 59.7301 99.7666 60.5173C90.8108 61.9712 83.5365 65.5442 80.4468 74.3034C80.3623 74.5476 80.6739 75.1563 80.9011 74.7974C83.7327 70.3113 86.0828 67.7098 91.0815 65.8286C94.93 64.3808 99.4831 63.0562 103.597 63.0546C106.265 63.0503 108.748 64.1855 111.396 64.2572C114.505 64.3401 117.499 62.9757 120.635 63.9171C121.535 64.1875 121.168 62.7374 120.764 62.4342Z" fill="#F2E9DD"/>
<path fill-rule="evenodd" clip-rule="evenodd" d="M76.7022 82.7388C77.9735 91.4878 85.2127 95.8058 93.5108 92.2818C98.1882 90.2928 102.817 88.2198 105.64 83.9048C107.732 80.7088 109.214 77.0428 111.25 73.7992C114.465 68.6802 118.077 67.2341 123.537 65.4496C124.064 65.2783 123.608 64.0949 123.069 64.2707C114.703 67.0267 111.98 69.5948 107.572 77.1778C104.642 82.2118 102.237 85.3048 96.796 88.5748C89.6698 92.8618 78.8878 93.2868 77.13 82.7448C77.0732 82.4158 76.6408 82.3328 76.7022 82.7388Z" fill="#F2E9DD"/>
<path fill-rule="evenodd" clip-rule="evenodd" d="M87.8307 93.2631C87.3347 99.2171 85.2262 104.135 92.3988 107.496C98.3457 110.281 107.909 109.89 112.027 104.542C114.582 101.226 113.932 100.575 117.795 98.0851C121.259 95.8491 123.681 96.6881 127.114 95.1751C129.875 93.9591 130.938 92.9671 131.809 89.9771C132.637 87.1301 131.941 83.4581 131.239 80.6591C130.024 75.8274 122.168 66.7371 127.038 63.5272C127.512 63.2141 126.931 62.1286 126.4 62.2705C114.003 65.5772 143.993 87.3741 120.727 94.1181C114.843 95.8221 114.87 94.9891 111.493 100.281C109.11 104.014 106.487 105.556 101.822 105.803C97.1269 106.051 96.0544 105.028 92.5779 101.594C88.0424 97.1181 89.4724 97.9021 88.8769 93.4651C88.7914 92.8271 87.9084 92.3891 87.8307 93.2631Z" fill="#F2E9DD"/>
<path fill-rule="evenodd" clip-rule="evenodd" d="M85.9986 43.3975C107.606 40.0256 126.219 60.5871 137.395 77.0862C142.642 84.8302 150.484 93.8912 153.697 102.482C157.888 113.701 161.889 127.338 164.997 138.875C165.278 139.911 166.728 140.258 166.419 138.897C164.204 129.167 159.967 120.166 157.386 110.523C156.535 107.358 155.699 101.136 153.969 97.6822C149.332 88.4182 140.866 78.7742 134.509 70.3574C123.625 55.9537 105.545 35.8368 85.5939 42.0471C85.041 42.2217 85.476 43.478 85.9986 43.3975Z" fill="#F2E9DD"/>
<path fill-rule="evenodd" clip-rule="evenodd" d="M83.22 26.4931C83.0454 26.5682 82.8658 26.6485 82.6912 26.7236C82.1224 26.9757 82.4312 27.836 82.7162 28.1697C85.4487 31.3647 88.5387 31.5266 92.4564 32.9022C99.3141 35.3122 106.343 38.3418 112.451 42.2553C118.882 46.375 123.24 52.6298 129.29 56.9221C131.878 58.7564 138.261 61.2189 139.247 63.5169C139.534 64.1997 140.51 64.2396 140.267 63.3343C137.798 54.086 134.526 46.1414 142.723 37.1357C142.074 37.8467 150.638 28.0081 152.196 33.9763C153.662 39.5667 148.714 38.5594 145.534 41.9492C142.667 45.0069 142.181 48.1288 142.124 51.9533C142.017 58.7447 141.201 65.7338 141.35 72.705C141.366 73.4407 142.502 74.1829 142.497 73.1241C142.464 66.8821 144.015 60.228 144.434 54.1033C145.093 44.5809 147.232 45.8986 153.1 40.115C157.626 35.6559 153.886 41.4848 156.607 37.5818C156.805 37.2993 156.59 36.7851 156.394 36.5726C154.737 34.7949 152.681 33.0926 151.693 30.8639C151.612 30.6813 151.415 30.3732 151.167 30.3967C144.495 31.0139 136.656 38.2287 135.475 44.897C134.584 49.9061 138.704 54.7625 137.973 59.4241C137.5 62.4346 141.046 60.8278 138.487 60.6992C131.324 60.345 122.306 47.0278 117.403 43.0517C114.074 40.3491 110.01 38.3103 106.231 36.3823C103.62 35.0508 86.2433 26.1511 83.9567 27.9431C84.4378 27.5656 83.839 26.219 83.22 26.4931Z" fill="#F2E9DD"/>
<path fill-rule="evenodd" clip-rule="evenodd" d="M140.805 69.32C140.593 69.2202 140.378 69.1214 140.162 69.0197C139.741 68.8188 139.577 69.422 139.655 69.7056C143.748 84.6292 155.378 97.0572 161.399 111.156C164.42 118.219 164.881 127.522 172.533 131.093C173.169 131.393 173.425 130.484 173.305 130.048C170.395 119.721 164.696 104.17 177.701 97.8582C178.314 97.5582 177.786 96.2372 177.133 96.4382C173.401 97.5782 169.949 101.038 168.502 104.716C165.631 112.01 171.363 117.649 169.747 124.025C168.74 128 166.363 119.833 165.274 117.312C163.557 113.339 162.511 109.168 160.442 105.329C157.926 100.664 154.736 96.3372 152.189 91.6702C150.644 88.8372 143.288 70.9807 140.94 70.5538C141.58 70.6699 141.138 69.478 140.805 69.32Z" fill="#F2E9DD"/>
<path fill-rule="evenodd" clip-rule="evenodd" d="M167.907 147.953C160.878 141.851 151.49 132.886 141.829 133.28C138.326 133.422 135.228 135.2 131.385 135.042C128.542 134.926 125.953 134.043 123.028 134.355C120.672 134.608 117.951 135.174 115.944 136.423C111.511 139.182 107.396 145.528 107.027 150.734C106.765 154.505 107.548 156.747 110.862 158.79C112.502 159.798 114.747 160.291 116.652 160.216C119.943 160.087 125.119 155.02 127.36 155.215C131.68 155.594 134.029 161.447 139.7 161.304C148.539 161.081 153.878 151.81 160.909 147.867C161.694 147.429 160.956 145.578 160.155 145.981C151.673 150.249 138.827 169.945 128.653 153.077C128.466 152.766 128.093 152.52 127.759 152.767C125.905 154.179 123.985 155.498 122.001 156.725C116.211 160.444 112.191 156.941 109.942 146.221C110.716 143.923 113.694 140.721 115.685 139.399C122.303 135.009 129.999 138.227 137.205 137.772C143.085 137.4 145.999 136.134 151.994 138.892C154.046 139.834 156.794 141.869 158.474 142.901C161.517 144.769 164.932 146.482 167.769 148.636C168.175 148.945 168.149 148.162 167.907 147.953Z" fill="#F2E9DD"/>
<path fill-rule="evenodd" clip-rule="evenodd" d="M116.679 157.738C113.754 162.979 109.672 166.889 112.276 173.327C114.852 179.69 120.75 182.113 126.945 180.478C135.414 178.24 147.717 178.205 154.93 172.355C162.565 166.167 154.783 154.444 161.735 147.671C162.434 146.993 161.348 144.962 160.523 145.735C158.401 147.72 157.193 151.236 156.696 154.098C156.358 156.081 156.938 158.182 156.728 160.152C155.636 170.309 152.518 171.238 145.862 173.435C141.191 174.979 135.736 175.574 130.819 176.426C123.447 177.698 112.761 172.599 115.246 163.246C115.668 161.655 117.129 160.293 117.675 158.618C117.835 158.133 117.064 157.053 116.679 157.738Z" fill="#F2E9DD"/>
<path fill-rule="evenodd" clip-rule="evenodd" d="M129.368 181.303C138.908 190.881 153.248 191.814 162.033 180.434C164.566 177.15 167.37 172.572 167.371 168.291C167.366 160.096 158.148 152.832 167.067 145.604C167.762 145.038 166.779 143.164 165.947 143.816C161.008 147.68 159.811 153.52 162.186 159.065C165.785 167.465 165.034 175.007 157.795 181.546C149.174 189.332 138.038 187.276 129.721 180.255C129.12 179.747 129.024 180.957 129.368 181.303Z" fill="#F2E9DD"/>
<path fill-rule="evenodd" clip-rule="evenodd" d="M164.296 149.69C167.081 148.891 169.944 151.512 172.535 149.587C174.675 148.001 174.166 144.891 173.449 142.688C172.616 140.145 170.992 137.95 168.588 136.686C166.919 135.804 165.371 137.923 164.962 139.448C164.892 139.704 165.074 140.11 165.34 140.197C166.868 140.701 166.933 138.257 168.255 138.316C168.736 138.344 169.827 139.398 170.204 139.749C171.297 140.761 171.95 142.153 172.311 143.588C173.13 146.843 171.547 148.941 168.197 148.254C166.453 147.899 165.491 147.665 163.766 148.363C163.176 148.602 163.688 149.864 164.296 149.69Z" fill="#F2E9DD"/>
<path fill-rule="evenodd" clip-rule="evenodd" d="M169.889 147.544C174.742 162.018 180.496 173.388 187.098 186.832C195.717 204.383 203.373 227.83 200.192 247.364C200.12 247.826 200.827 248.659 201.016 247.94C205.382 231.314 198.467 214.546 193.789 198.768C188.501 180.927 177.325 164.716 170.564 147.273C170.317 146.634 169.677 146.905 169.889 147.544Z" fill="#F2E9DD"/>
<path fill-rule="evenodd" clip-rule="evenodd" d="M169.509 130.203C174.099 138.703 179.515 145.914 182.672 155.316C185.763 164.512 187.445 173.767 190.872 182.924C198.094 202.204 210.035 218.368 197.987 239.298C197.807 239.609 198.308 240.487 198.6 240.101C207.851 227.848 205.528 209.814 198.992 196.66C192.731 184.061 189.161 171.898 185.181 158.326C181.885 147.078 175.935 139.361 170.177 129.544C169.713 128.755 169.169 129.574 169.509 130.203Z" fill="#F2E9DD"/>
<path fill-rule="evenodd" clip-rule="evenodd" d="M177.38 97.0092C182.305 95.9652 172.801 114.078 172.701 116.185C172.379 123.046 173.369 129.314 174.297 136.147C174.396 136.859 175.594 137.414 175.511 136.384C175.088 131.172 175.145 126.256 174.932 121.138C174.795 117.808 174.426 115.59 175.936 112.27C177.414 109.028 178.961 106.676 180.001 103.17C180.763 100.618 181.352 94.5062 177.012 96.0912C176.592 96.2442 176.962 97.0952 177.38 97.0092Z" fill="#F2E9DD"/>
<path fill-rule="evenodd" clip-rule="evenodd" d="M175.128 134.473C178.13 129.217 186.395 123.577 186.257 116.736C186.225 115.337 185.761 114.012 184.969 112.865C183.727 111.08 182.008 109.775 180.803 107.85C179.877 106.36 175.445 99.5079 177.194 97.9599C177.586 97.6119 177.109 96.4819 176.556 96.7039C176.39 96.7719 176.226 96.8399 176.061 96.9039C175.775 97.0209 175.769 97.3939 175.804 97.6449C176.643 103.471 179.272 107.127 182.242 112.036C185.567 117.531 184.75 120.02 180.707 124.894C178.213 127.895 176.312 130.245 174.522 133.819C174.35 134.161 174.867 134.934 175.128 134.473Z" fill="#F2E9DD"/>
<path fill-rule="evenodd" clip-rule="evenodd" d="M141.329 67.9108C140.926 68.4547 140.504 68.982 140.058 69.4907C139.727 69.8846 140.095 71.0352 140.719 70.8006C144.363 69.4217 145.431 65.0472 147.903 62.4793C150.517 59.7662 154.365 57.5567 155.459 53.66C156.188 51.0626 154.986 49.3216 154.005 46.9532C152.185 42.5649 152.351 39.9017 153.762 35.5647C153.781 35.5132 154.305 32.9571 154.388 32.875C154.692 32.5665 154.333 31.6182 153.849 31.8114C153.691 31.8768 153.53 31.9402 153.369 32.0067C153.249 32.0544 153.159 32.198 153.142 32.3207C152.748 35.1066 150.721 37.3685 150.446 40.2441C150.102 43.8419 152.011 45.2865 153.223 48.4822C155.624 54.8072 149.832 57.2158 146.406 61.0608C144.034 63.7221 143.081 67.326 140.058 69.4907C140.341 69.8661 140.625 70.2416 140.911 70.616C141.098 69.8807 141.409 69.2095 141.849 68.593C142.002 68.3303 141.582 67.5867 141.329 67.9108Z" fill="#F2E9DD"/>
<path fill-rule="evenodd" clip-rule="evenodd" d="M65.9399 34.7681C65.9384 34.7927 65.6924 34.8049 65.2466 34.8055C64.7883 34.8004 64.1436 34.7923 63.3472 34.7822C61.732 34.7942 59.4859 34.8171 56.9477 35.0512C51.8677 35.4454 45.6814 36.7613 41.1367 38.3677C31.7552 41.4589 25.3038 46.0757 25.1212 45.7693C25.0552 45.6736 26.547 44.4407 29.276 42.7868C32 41.1381 35.9892 39.1164 40.7544 37.5312C45.3696 35.9021 51.702 34.6933 56.8601 34.4727C59.4417 34.3186 61.7168 34.4017 63.3414 34.4891C64.1471 34.5611 64.7904 34.6211 65.249 34.6639C65.6984 34.71 65.942 34.7467 65.9399 34.7681Z" fill="#F2E9DD"/>
<path fill-rule="evenodd" clip-rule="evenodd" d="M64.8094 37.2991C64.811 37.3501 64.0243 37.4496 62.7265 37.5773C61.4268 37.7366 59.6127 37.9528 57.5812 38.332C53.5105 39.0419 48.5821 40.4371 44.9534 41.8857C37.4761 44.717 32.1725 48.2834 31.9931 48.0032C31.9234 47.8986 33.1444 46.9069 35.3447 45.5486C37.5431 44.1944 40.7463 42.5054 44.5572 41.0578C48.2424 39.595 53.2973 38.3005 57.4552 37.7609C59.5271 37.4628 61.3709 37.3454 62.6903 37.2852C63.3396 37.2779 63.8687 37.2704 64.2442 37.2651C64.6117 37.2661 64.8086 37.2789 64.8094 37.2991Z" fill="#F2E9DD"/>
<path fill-rule="evenodd" clip-rule="evenodd" d="M65.7129 36.9532C65.7464 37.0713 63.366 37.7961 60.4055 39.1309C57.4323 40.4222 53.9198 42.3599 51.3835 44.0796C46.1447 47.5156 42.581 51.0271 42.3566 50.8014C42.1651 50.6459 45.4469 46.8647 50.8306 43.3476C53.416 41.6027 57.0706 39.7429 60.1566 38.5984C61.6944 38.0075 63.0821 37.5856 64.0807 37.308C65.0901 37.0504 65.7014 36.9129 65.7129 36.9532Z" fill="#F2E9DD"/>
<path fill-rule="evenodd" clip-rule="evenodd" d="M63.2997 38.7785C63.5213 38.9504 57.9433 45.5431 53.7704 48.9476C49.6231 52.5417 45.8098 54.6767 45.6762 54.4551C45.5016 54.1972 48.9956 51.8305 53.1363 48.2834C55.1691 46.5753 57.7472 44.2462 59.7527 42.2702C60.7369 41.2874 61.6125 40.41 62.2557 39.7664C62.8767 39.1276 63.2682 38.749 63.2997 38.7785Z" fill="#F2E9DD"/>
<path fill-rule="evenodd" clip-rule="evenodd" d="M66.4427 36.5319C66.4901 36.5486 66.2366 37.3085 65.7856 38.5536C65.2995 39.7877 64.5881 41.4966 63.6235 43.3647C61.7461 47.1296 58.8358 51.487 56.2138 54.512C53.581 57.6372 50.8454 60.0968 48.7614 61.7037C46.6713 63.313 45.2585 64.1115 45.1911 64.0129C44.974 63.733 50.2241 60.1796 55.469 53.9747C58.0655 51.0106 61.0615 46.7828 63.0881 43.1238C64.1267 41.3073 64.9291 39.6401 65.5103 38.4498C65.7877 37.856 66.0078 37.3762 66.1683 37.0318C66.3273 36.7017 66.4232 36.5254 66.4427 36.5319Z" fill="#F2E9DD"/>
<path fill-rule="evenodd" clip-rule="evenodd" d="M55.3272 25.4917C55.2833 25.5492 54.4443 24.9061 52.9422 24.0386C51.4401 23.1712 49.2446 22.1181 46.6115 21.3748C41.368 19.746 34.3667 20.0392 29.6048 22.0591C24.6746 23.9492 20.9547 27.0485 18.6926 29.5727C16.3974 32.1093 15.3916 33.996 15.239 33.9085C15.1747 33.8739 15.3836 33.3915 15.8193 32.5399C16.3008 31.7195 17.0108 30.5156 18.1249 29.1894C20.2945 26.5175 24.0476 23.2206 29.1803 21.2382C31.6594 20.2708 34.7038 19.588 37.8158 19.5221C40.9244 19.4471 44.0682 19.9392 46.7348 20.8005C49.41 21.6482 51.6123 22.8121 53.0802 23.7815C54.5552 24.7517 55.3272 25.4917 55.3272 25.4917Z" fill="#F2E9DD"/>
<path fill-rule="evenodd" clip-rule="evenodd" d="M52.0565 24.3777C52.03 24.5283 48.9911 23.7364 44.9316 23.8105C40.888 23.7791 35.93 24.715 32.3769 26.1082C24.9714 28.7446 20.4578 33.2847 20.2385 32.9987C20.1615 32.9208 21.1517 31.723 23.154 30.136C25.1524 28.5573 28.2047 26.6462 31.9927 25.2758C35.6393 23.8479 40.7789 23.0129 44.907 23.2258C49.0528 23.3291 52.0565 24.3777 52.0565 24.3777Z" fill="#F2E9DD"/>
<path fill-rule="evenodd" clip-rule="evenodd" d="M68.1678 40.0449C68.1953 40.0451 68.195 40.3404 68.1773 40.8756C68.1456 41.4194 68.1033 42.1937 68.0498 43.1506C67.9119 45.0828 67.6693 47.7781 67.2183 50.8184C66.3886 56.8997 64.37 64.3555 61.5235 69.5233C58.7364 74.8511 55.0014 78.8999 51.8976 81.2179C50.3667 82.4099 48.9869 83.1589 48.0429 83.6669C47.0697 84.1239 46.518 84.3389 46.4882 84.2779C46.3964 84.1129 48.5035 83.1319 51.4071 80.7369C54.316 78.3749 57.8864 74.4283 60.6604 69.1946C63.4756 64.1551 65.6236 56.8264 66.6336 50.7778C67.1738 47.7559 67.5155 45.0685 67.7543 43.1401C67.8688 42.1811 67.9671 41.41 68.0335 40.8671C68.1001 40.3344 68.1475 40.0457 68.1678 40.0449Z" fill="#F2E9DD"/>
<path fill-rule="evenodd" clip-rule="evenodd" d="M62.7591 59.3822C62.8076 59.402 62.5581 60.0986 62.1149 61.2447C61.6428 62.3775 60.9492 63.9494 60.0273 65.6643C58.2229 69.1172 55.4645 73.1162 53.0062 75.8883C50.5358 78.758 47.9787 81.014 46.0348 82.49C44.0826 83.962 42.7714 84.692 42.704 84.593C42.4922 84.318 47.3448 81.026 52.2711 75.3405C54.7078 72.6211 57.5459 68.7539 59.4995 65.4069C60.4965 63.7465 61.2792 62.2205 61.8423 61.1295C62.3776 60.0283 62.7219 59.3651 62.7591 59.3822Z" fill="#F2E9DD"/>
<path fill-rule="evenodd" clip-rule="evenodd" d="M69.5037 30.6188C69.4546 30.5511 69.9005 30.1249 70.679 29.9941C71.4451 29.8301 72.4582 30.0174 73.1136 30.4059C74.572 31.1832 74.6936 32.6862 74.4074 32.6825C74.1111 32.7718 73.7692 31.8036 72.6597 31.199C72.1482 30.8841 71.3878 30.61 70.724 30.5781C70.0621 30.5146 69.5463 30.7059 69.5037 30.6188Z" fill="#F2E9DD"/>
<path fill-rule="evenodd" clip-rule="evenodd" d="M70.0828 32.247C70.0054 31.9737 72.4673 31.6168 73.9064 32.3051C75.3964 32.8715 76.0894 34.0184 75.8821 34.1811C75.6633 34.3962 74.8487 33.6616 73.5622 33.1535C72.3594 32.5287 70.1224 32.3353 70.0828 32.247Z" fill="#F2E9DD"/>
<path fill-rule="evenodd" clip-rule="evenodd" d="M71.45 35.7489C71.5313 35.5609 72.9749 35.9283 73.8256 36.2513C74.703 36.5815 75.2796 37.1091 75.1679 37.3633C75.0506 37.63 74.3391 37.451 73.469 37.094C72.6256 36.7443 71.3817 35.8978 71.45 35.7489Z" fill="#F2E9DD"/>
<path fill-rule="evenodd" clip-rule="evenodd" d="M123.271 63.7603C123.294 63.7758 123.171 63.9999 122.933 64.3937C122.681 64.7962 122.327 65.3599 121.889 66.0577C120.982 67.4616 119.696 69.4075 118.17 71.5733C115.144 75.9152 111.048 81.0828 107.382 84.5668C103.686 88.1758 99.8307 90.8348 96.8481 92.3318C95.3445 93.0608 94.122 93.6138 93.2323 93.8888C92.3538 94.1948 91.8645 94.3278 91.8399 94.2618C91.7686 94.0788 93.6284 93.3748 96.4536 91.7678C99.2833 90.1728 102.999 87.5448 106.673 83.9788C110.309 80.5608 114.493 75.5112 117.671 71.2641C119.241 69.1406 120.633 67.2614 121.637 65.9042C122.132 65.233 122.534 64.6962 122.814 64.3142C123.096 63.9453 123.256 63.7486 123.271 63.7603Z" fill="#F2E9DD"/>
<path fill-rule="evenodd" clip-rule="evenodd" d="M121.66 70.7701C121.705 70.791 121.385 71.5002 120.821 72.6533C120.233 73.7981 119.377 75.3754 118.274 77.092C116.114 80.55 112.935 84.516 110.171 87.24C107.39 90.06 104.582 92.258 102.46 93.68C100.335 95.103 98.9241 95.795 98.8627 95.694C98.6668 95.406 103.928 92.243 109.473 86.644C112.212 83.971 115.461 80.14 117.767 76.7996C118.942 75.1384 119.883 73.6122 120.562 72.5194C120.889 71.976 121.152 71.5385 121.343 71.2206C121.531 70.9211 121.645 70.7584 121.66 70.7701Z" fill="#F2E9DD"/>
<path fill-rule="evenodd" clip-rule="evenodd" d="M124.749 67.8493C124.797 67.8589 124.738 68.3853 124.599 69.2504C124.44 70.1161 124.193 71.3198 123.81 72.6563C123.078 75.3445 121.793 78.57 120.539 80.906C118.039 85.743 114.935 88.809 114.765 88.636C114.509 88.428 117.216 85.262 119.706 80.522C120.955 78.236 122.345 75.1184 123.246 72.505C124.178 69.9008 124.651 67.8271 124.749 67.8493Z" fill="#F2E9DD"/>
<path fill-rule="evenodd" clip-rule="evenodd" d="M113.333 66.8688C113.335 66.9197 112.623 67.0462 111.445 67.2189C110.252 67.4072 108.615 67.6644 106.762 67.9531C103.044 68.5596 98.4766 69.4743 95.0072 70.2975C87.9073 71.9351 82.3578 73.5709 82.2628 73.2869C82.1729 73.0353 87.5319 71.0617 94.7316 69.4249C98.2356 68.6026 102.874 67.8128 106.652 67.3794C108.538 67.1537 110.208 67.0116 111.402 66.926C112.604 66.8544 113.326 66.8304 113.333 66.8688Z" fill="#F2E9DD"/>
<path fill-rule="evenodd" clip-rule="evenodd" d="M109.557 64.6068C109.534 64.7287 107.762 64.3458 105.419 64.3118C103.081 64.2348 100.204 64.5536 98.0728 65.1001C93.6802 66.1078 90.5525 67.9542 90.3897 67.6816C90.2326 67.4893 93.2173 65.2668 97.8244 64.2174C100.036 63.658 103.049 63.464 105.436 63.7287C106.633 63.8376 107.67 64.0535 108.404 64.2277C109.137 64.4263 109.566 64.5658 109.557 64.6068Z" fill="#F2E9DD"/>
<path fill-rule="evenodd" clip-rule="evenodd" d="M109.157 69.0186C109.178 69.1309 107.127 69.5414 104.499 70.2724C101.866 70.9812 98.667 72.0337 96.2633 72.9732C91.3427 74.8426 87.5883 76.7017 87.4431 76.4398C87.3102 76.211 90.8582 74.0268 95.8942 72.1352C98.3344 71.1925 101.632 70.2507 104.342 69.7095C105.695 69.4271 106.898 69.2384 107.759 69.1252C108.627 69.023 109.152 68.976 109.157 69.0186Z" fill="#F2E9DD"/>
<path fill-rule="evenodd" clip-rule="evenodd" d="M158.975 152.783C158.998 152.874 157.707 152.642 156.061 153.699C154.375 154.667 152.761 156.913 150.341 158.899C147.943 160.863 144.82 162.714 141.324 163.252C139.592 163.524 137.795 163.442 136.156 162.982C134.508 162.536 133.094 161.732 131.804 161.074C126.656 157.955 120.901 159.09 117.724 160.999C114.405 162.886 113.257 165.127 113.084 164.975C113.039 164.947 113.264 164.397 113.908 163.534C114.544 162.666 115.632 161.494 117.301 160.459C118.949 159.416 121.186 158.518 123.821 158.285C126.439 158.025 129.486 158.69 132.121 160.208C133.43 160.88 134.787 161.66 136.299 162.109C137.805 162.563 139.47 162.676 141.113 162.462C144.43 162.042 147.525 160.328 149.934 158.477C152.354 156.629 154.083 154.388 155.895 153.455C156.768 152.949 157.58 152.771 158.126 152.734C158.68 152.693 158.975 152.783 158.975 152.783Z" fill="#F2E9DD"/>
<path fill-rule="evenodd" clip-rule="evenodd" d="M155.429 154.657C155.429 154.657 155.358 155.744 154.516 157.306C153.665 158.85 151.905 160.728 149.394 162.01C146.917 163.343 143.767 164.045 140.697 164.178C137.615 164.353 134.592 164.197 131.996 164.247C126.683 164.171 122.04 165.577 119.343 167.641C116.608 169.675 115.946 171.843 115.769 171.733C115.719 171.721 115.806 171.187 116.248 170.323C116.679 169.46 117.504 168.279 118.865 167.156C121.543 164.848 126.443 163.244 131.877 163.333C137.101 163.253 144.122 164.106 149.089 161.509C151.565 160.35 153.336 158.619 154.256 157.169C155.163 155.7 155.357 154.632 155.429 154.657Z" fill="#F2E9DD"/>
<path fill-rule="evenodd" clip-rule="evenodd" d="M154.812 156.705C154.812 156.705 154.941 157.33 154.719 158.353C154.507 159.372 153.791 160.716 152.595 161.877C150.216 164.272 146.016 165.456 142.943 165.525C139.792 165.718 137.018 165.686 135.047 165.961C133.071 166.202 131.897 166.6 131.841 166.456C131.785 166.343 132.883 165.713 134.885 165.3C136.88 164.852 139.715 164.789 142.826 164.617C145.85 164.556 149.774 163.599 152.181 161.464C153.37 160.432 154.132 159.23 154.438 158.279C154.744 157.328 154.748 156.698 154.812 156.705Z" fill="#F2E9DD"/>
<path fill-rule="evenodd" clip-rule="evenodd" d="M155.974 159.45C156.016 159.479 155.654 160.004 155.019 160.854C154.352 161.675 153.368 162.795 152.09 163.894C149.586 166.154 145.87 168.246 142.796 169.201C139.675 170.252 136.699 170.535 134.589 170.463C132.465 170.389 131.203 170.04 131.221 169.93C131.223 169.566 136.315 170.416 142.453 168.35C145.44 167.448 149.11 165.545 151.694 163.464C154.339 161.443 155.88 159.364 155.974 159.45Z" fill="#F2E9DD"/>
<path fill-rule="evenodd" clip-rule="evenodd" d="M161.369 154.466C161.419 154.471 161.362 155.426 161.231 156.999C161.086 158.587 160.885 160.776 160.655 163.254C160.529 164.498 160.397 165.817 160.262 167.165C160.116 168.5 160.053 169.941 159.485 171.315C158.262 174.133 155.391 175.404 153.252 176.29C148.703 177.994 144.596 179.376 141.618 180.357C138.639 181.328 136.793 181.848 136.751 181.716C136.704 181.579 138.44 180.846 141.326 179.738C144.249 178.654 148.272 177.165 152.827 175.476C154.947 174.614 157.595 173.454 158.711 171.06C159.253 169.884 159.366 168.496 159.548 167.145C159.73 165.794 159.903 164.476 160.069 163.231C160.413 160.752 160.716 158.563 160.938 156.977C161.059 156.201 161.156 155.575 161.229 155.132C161.301 154.697 161.351 154.462 161.369 154.466Z" fill="#F2E9DD"/>
<path fill-rule="evenodd" clip-rule="evenodd" d="M160.361 158.955C160.361 158.955 160.858 159.612 161.356 160.872C161.856 162.125 162.325 163.994 162.342 166.157C162.379 168.312 161.917 170.749 160.918 172.939C159.926 175.143 158.359 177.032 156.727 178.314C153.384 180.985 149.445 181.783 146.758 181.681C144.02 181.598 142.485 180.835 142.531 180.746C142.575 180.569 144.11 181.074 146.695 181.001C149.238 180.947 152.913 180.14 156.101 177.643C157.648 176.448 159.155 174.719 160.156 172.652C161.167 170.595 161.697 168.277 161.755 166.185C161.833 164.09 161.482 162.247 161.084 160.98C160.684 159.707 160.309 158.981 160.361 158.955Z" fill="#F2E9DD"/>
<path fill-rule="evenodd" clip-rule="evenodd" d="M124.6 143.332C124.579 143.127 131.655 142.127 136.061 141.608C140.565 141.078 144.163 140.945 144.194 141.221C144.225 141.509 140.739 142.009 136.204 142.513C131.788 143.004 124.616 143.494 124.6 143.332Z" fill="#F2E9DD"/>
<path fill-rule="evenodd" clip-rule="evenodd" d="M129.069 147.194C129.015 147.132 129.771 146.378 131.023 145.773C132.256 145.137 133.964 144.71 135.299 144.682C138.075 144.544 140.017 145.801 139.871 146.01C139.752 146.308 137.892 145.494 135.342 145.596C134.111 145.606 132.505 145.865 131.26 146.31C130.001 146.718 129.127 147.276 129.069 147.194Z" fill="#F2E9DD"/>
<path fill-rule="evenodd" clip-rule="evenodd" d="M133.98 149.462C133.932 149.39 134.832 148.624 136.213 147.916C137.576 147.187 139.423 146.568 140.885 146.328C143.89 145.769 146.284 146.46 146.223 146.703C146.182 147.02 143.922 146.725 141.056 147.225C139.664 147.439 137.868 147.899 136.461 148.445C135.052 148.968 134.03 149.542 133.98 149.462Z" fill="#F2E9DD"/>
<path fill-rule="evenodd" clip-rule="evenodd" d="M164.961 129.507C165.079 129.508 165.094 130.532 165.439 131.784C165.746 133.047 166.403 134.506 167.08 135.508C168.394 137.605 169.994 138.821 169.828 139.078C169.714 139.316 167.754 138.333 166.314 136.015C165.591 134.917 165.008 133.269 164.866 131.904C164.683 130.534 164.896 129.497 164.961 129.507Z" fill="#F2E9DD"/>
<path fill-rule="evenodd" clip-rule="evenodd" d="M172.606 149.242C172.791 149.159 181.784 169.104 187.281 181.541C192.891 194.244 197.075 204.425 196.82 204.534C196.555 204.652 192.115 194.827 186.496 182.034C181.023 169.571 172.455 149.308 172.606 149.242Z" fill="#F2E9DD"/>
<path fill-rule="evenodd" clip-rule="evenodd" d="M75.6299 44.4377C75.672 44.3294 77.1565 43.6965 77.5919 42.8348C78.133 42.0918 78.3477 41.3566 78.6373 41.3418C78.918 41.303 79.0901 42.3685 78.3239 43.3837C77.981 43.8748 77.3049 44.328 76.7019 44.4693C76.0946 44.6361 75.6281 44.507 75.6299 44.4377Z" fill="#F2E9DD"/>
<path fill-rule="evenodd" clip-rule="evenodd" d="M72.9653 45.485C72.831 45.3357 74.0525 43.901 74.8793 43.0864C75.724 42.2548 76.5887 41.8106 76.7747 42.0162C76.9683 42.2328 76.37 42.942 75.4994 43.7592C74.6546 44.553 73.0783 45.6045 72.9653 45.485Z" fill="#F2E9DD"/>
<path fill-rule="evenodd" clip-rule="evenodd" d="M82.3213 37.6078C82.3213 37.6078 84.1741 37.0614 87.3538 36.7061C90.5232 36.3511 95.0327 36.371 100.025 37.331C105.001 38.3038 110.405 40.3295 115.154 43.3637C119.95 46.3495 123.884 50.4138 126.853 54.1834C132.826 61.981 137.533 69.3423 141.142 74.5324C142.88 77.1459 144.282 79.2619 145.269 80.7459C146.222 82.2259 146.722 83.0559 146.665 83.0949C146.605 83.1369 146.011 82.3969 144.981 81.0069C143.954 79.5889 142.489 77.5619 140.666 75.035C136.972 70.0035 132.176 62.689 126.255 54.9028C123.32 51.1617 119.527 47.1242 114.842 44.1317C110.216 41.0689 104.906 38.9913 99.9925 37.9197C95.0679 36.8729 90.5832 36.7442 87.4051 36.9926C85.8191 37.1482 84.5455 37.267 83.6795 37.4302C82.8065 37.5652 82.3213 37.6078 82.3213 37.6078Z" fill="#F2E9DD"/>
<path fill-rule="evenodd" clip-rule="evenodd" d="M144 58.6783C143.903 58.6011 144.992 57.2258 146.115 55.2476C147.269 53.2887 148.418 50.7242 149.075 48.6851C150.506 44.547 150.875 41.0563 151.184 41.0827C151.439 41.0772 151.45 44.6428 149.954 48.946C149.266 51.0411 147.953 53.6356 146.618 55.5414C145.966 56.504 145.317 57.2975 144.839 57.849C144.343 58.39 144.03 58.7048 144 58.6783Z" fill="#F2E9DD"/>
<path fill-rule="evenodd" clip-rule="evenodd" d="M150.962 57.3356C150.88 57.3658 150.501 56.7134 150.394 55.7303C150.256 54.7553 150.434 53.505 150.815 52.636C151.558 50.7712 153.119 50.0584 153.229 50.2991C153.417 50.5484 152.319 51.3914 151.659 52.9887C151.317 53.7404 151.028 54.8019 150.977 55.7027C150.9 56.6034 151.052 57.3091 150.962 57.3356Z" fill="#F2E9DD"/>
<path fill-rule="evenodd" clip-rule="evenodd" d="M176.474 126.464C176.372 126.429 176.826 124.85 177.305 122.764C177.803 120.681 178.305 118.085 178.607 116.086C179.263 112.008 179.607 108.743 179.9 108.755C180.174 108.763 180.206 112.033 179.517 116.198C178.959 120.294 176.685 126.55 176.474 126.464Z" fill="#F2E9DD"/>
<path fill-rule="evenodd" clip-rule="evenodd" d="M179.896 122.088C179.703 122.029 179.96 120.3 180.223 119.251C180.49 118.184 180.976 117.421 181.241 117.497C181.52 117.583 181.396 118.435 181.102 119.502C180.815 120.542 180.054 122.136 179.896 122.088Z" fill="#F2E9DD"/>
<path fill-rule="evenodd" clip-rule="evenodd" d="M113.027 154.774C112.95 154.778 112.902 153.677 113.501 152.387C114.044 151.084 115.248 149.714 116.405 149.004C118.801 147.395 121.232 147.972 121.122 148.222C121.119 148.546 119.045 148.358 116.914 149.766C115.865 150.388 114.692 151.517 114.023 152.647C113.309 153.756 113.131 154.794 113.027 154.774Z" fill="#F2E9DD"/>
<path fill-rule="evenodd" clip-rule="evenodd" d="M110.062 151.044C110.042 150.917 112.047 149.669 112.807 148.453C113.683 147.326 114.194 146.281 114.479 146.354C114.747 146.412 114.561 147.724 113.527 149.017C112.596 150.41 110.107 151.295 110.062 151.044Z" fill="#F2E9DD"/>
<path fill-rule="evenodd" clip-rule="evenodd" d="M79.2568 81.9019C79.3445 81.8149 79.9536 82.4019 80.9573 82.6749C81.9361 82.9919 83.2241 82.9669 84.1229 82.6889C86.0315 82.2279 87.0002 80.9079 87.2569 81.0629C87.538 81.1269 86.6828 83.0129 84.3611 83.5719C83.2976 83.8879 81.7816 83.7599 80.7475 83.2199C79.6783 82.7239 79.2047 81.9279 79.2568 81.9019Z" fill="#F2E9DD"/>
<path fill-rule="evenodd" clip-rule="evenodd" d="M79.9365 83.7168C79.9877 83.6048 81.0283 84.0978 82.4796 84.2358C83.9171 84.4198 85.7059 84.2098 86.9777 83.7618C89.634 82.9488 91.2019 81.2828 91.4298 81.4898C91.6629 81.6088 90.2402 83.7228 87.2744 84.6268C85.8755 85.1108 83.8921 85.1948 82.3909 84.8108C80.8681 84.4798 79.9013 83.7598 79.9365 83.7168Z" fill="#F2E9DD"/>
<path fill-rule="evenodd" clip-rule="evenodd" d="M16.0068 70.3526C16.0046 70.2265 17.3067 70.1658 18.8954 69.6659C20.4987 69.2052 22.3408 68.2783 23.5842 67.347C26.2004 65.5186 27.6064 63.3324 27.8736 63.4976C28.1128 63.5874 26.9714 66.108 24.1371 68.079C22.7978 69.0665 20.7661 69.9264 19.0497 70.23C18.1961 70.3989 17.4289 70.4397 16.8813 70.4437C16.335 70.4232 16.0082 70.3933 16.0068 70.3526Z" fill="#F2E9DD"/>
<path fill-rule="evenodd" clip-rule="evenodd" d="M20.3699 74.1511C20.3368 74.0433 21.3527 73.646 22.5967 72.9753C23.8534 72.3205 25.3123 71.3779 26.3549 70.5621C28.5159 68.9404 30.036 67.3949 30.2661 67.5807C30.4813 67.7446 29.2174 69.5829 26.9176 71.2836C24.7436 73.0921 20.418 74.401 20.3699 74.1511Z" fill="#F2E9DD"/>
<path fill-rule="evenodd" clip-rule="evenodd" d="M21.9303 75.5357C21.957 75.4228 25.0887 75.0955 26.748 74.1198C28.496 73.2999 29.72 72.3346 29.9335 72.5403C30.137 72.7188 29.0872 74.0521 27.1462 74.9435C25.2693 75.9897 21.8759 75.7962 21.9303 75.5357Z" fill="#F2E9DD"/>
<path fill-rule="evenodd" clip-rule="evenodd" d="M159.445 145.706C159.465 145.815 158.229 146.146 156.658 146.694C155.079 147.229 153.173 147.994 151.753 148.661C148.84 149.985 146.602 151.213 146.44 150.971C146.284 150.744 148.329 149.19 151.355 147.837C154.27 146.399 159.416 145.479 159.445 145.706Z" fill="#F2E9DD"/>
<path fill-rule="evenodd" clip-rule="evenodd" d="M156.395 152.007C156.435 152.04 156.139 152.493 155.625 153.226C155.091 153.949 154.318 154.939 153.368 155.995C151.49 158.137 148.872 160.525 146.681 162.124C142.238 165.464 138.034 166.944 137.955 166.712C137.815 166.418 141.702 164.677 146.102 161.412C148.259 159.864 150.931 157.613 152.928 155.613C153.937 154.624 154.78 153.704 155.39 153.045C155.987 152.378 156.362 151.984 156.395 152.007Z" fill="#F2E9DD"/>
<path fill-rule="evenodd" clip-rule="evenodd" d="M155.256 151.381C155.324 151.435 154.557 152.677 153.257 154.086C151.974 155.513 150.15 157.061 148.61 158.044C145.484 160.127 142.509 160.739 142.452 160.492C142.347 160.191 145.04 159.282 148.091 157.293C149.588 156.353 151.444 154.961 152.83 153.685C154.234 152.427 155.179 151.321 155.256 151.381Z" fill="#F2E9DD"/>
<path fill-rule="evenodd" clip-rule="evenodd" d="M155.966 151.767C156.057 151.809 155.365 153.627 154.407 155.994C153.408 158.379 152.194 161.27 151.265 163.482C150.337 165.745 149.17 167.836 147.743 168.818C146.308 169.844 145.129 169.55 145.176 169.457C145.155 169.27 146.168 169.299 147.289 168.306C148.447 167.348 149.458 165.439 150.412 163.153C151.389 160.94 152.74 158.078 153.866 155.776C154.432 154.646 154.934 153.639 155.31 152.896C155.685 152.176 155.928 151.75 155.966 151.767Z" fill="#F2E9DD"/>
<path fill-rule="evenodd" clip-rule="evenodd" d="M156.256 151.845C156.302 151.848 156.365 152.426 156.415 153.385C156.459 154.344 156.498 155.689 156.417 157.219C156.301 160.258 155.409 164.163 153.383 166.49C151.438 168.879 148.712 170.079 146.718 170.142C144.691 170.221 143.616 169.476 143.673 169.4C143.728 169.222 144.813 169.688 146.611 169.464C148.388 169.269 150.812 168.143 152.646 165.946C154.51 163.875 155.541 160.187 155.831 157.196C156.15 154.187 156.149 151.843 156.256 151.845Z" fill="#F2E9DD"/>
<path fill-rule="evenodd" clip-rule="evenodd" d="M152.01 162.911C152.092 162.911 152.151 163.912 151.721 165.139C151.329 166.376 150.422 167.763 149.492 168.595C147.601 170.415 145.383 170.514 145.389 170.254C145.309 169.944 147.153 169.541 148.862 167.933C149.71 167.193 150.644 166.019 151.175 164.926C151.743 163.847 151.912 162.896 152.01 162.911Z" fill="#F2E9DD"/>
<path fill-rule="evenodd" clip-rule="evenodd" d="M118.586 68.7379C118.602 68.8178 117.841 68.8939 116.774 69.4478C115.696 69.9847 114.455 71.1523 113.416 72.756C112.353 74.3412 111.438 76.2973 110.415 78.1909C109.403 80.1069 108.115 81.8619 106.841 83.2299C104.254 86.0529 101.249 87.8609 98.9898 88.7919C96.7212 89.7529 95.2075 89.9369 95.1815 89.8299C95.0071 89.5169 100.988 88.1738 106.125 82.6578C107.358 81.3388 108.637 79.6909 109.679 77.8459C110.742 76.0027 111.739 74.0439 112.918 72.4497C114.063 70.8373 115.459 69.6606 116.636 69.1866C117.808 68.6934 118.586 68.7379 118.586 68.7379Z" fill="#F2E9DD"/>
<path fill-rule="evenodd" clip-rule="evenodd" d="M119.773 70.1891C120 70.263 118.635 74.5139 117.348 76.9823C116.096 79.5299 114.643 81.2739 114.419 81.1239C114.166 80.9599 115.263 79.0869 116.522 76.5883C117.123 75.3942 117.913 73.8242 118.588 72.479C119.226 71.1747 119.694 70.1602 119.773 70.1891Z" fill="#F2E9DD"/>
<path fill-rule="evenodd" clip-rule="evenodd" d="M120.921 71.2122C121.086 71.3258 120.173 73.1097 119.518 74.1559C118.851 75.2269 118.083 75.9133 117.854 75.758C117.611 75.594 118.06 74.7135 118.755 73.6528C119.435 72.618 120.783 71.119 120.921 71.2122Z" fill="#F2E9DD"/>
<path fill-rule="evenodd" clip-rule="evenodd" d="M65.4903 37.3037C65.5444 37.3386 65.1617 37.889 64.7936 38.9042C64.4183 39.9187 64.1565 41.406 63.9637 43.1251C63.7611 44.8273 63.5118 46.8385 62.6156 48.6229C61.7664 50.4138 60.5337 51.9384 59.4204 53.1649C57.1069 55.643 54.9223 57.6545 53.6262 59.3503C52.3172 61.0303 51.7932 62.2544 51.6375 62.1954C51.5254 62.1615 51.8351 60.8315 53.0452 58.9959C54.2376 57.1498 56.4151 55.0174 58.7069 52.5919C59.804 51.3956 61.0092 49.9634 61.862 48.3119C62.7592 46.6783 63.0898 44.7845 63.3805 43.0702C63.666 41.351 64.03 39.8155 64.5194 38.8034C64.9983 37.7814 65.4903 37.3037 65.4903 37.3037Z" fill="#F2E9DD"/>
<path fill-rule="evenodd" clip-rule="evenodd" d="M57.926 46.2392C58.0731 46.3768 56.8414 48.0522 55.9974 49.0242C55.1398 50.015 54.2463 50.6038 54.0455 50.414C53.8312 50.2154 54.4325 49.3849 55.3191 48.4073C56.1841 47.4549 57.8051 46.1261 57.926 46.2392Z" fill="#F2E9DD"/>
<path fill-rule="evenodd" clip-rule="evenodd" d="M61.3722 40.8731C61.6073 41.0537 58.0305 45.085 55.0561 46.7063C52.1399 48.5121 49.4203 49.016 49.3632 48.7695C49.2656 48.4693 51.7264 47.6562 54.5622 45.9387C55.955 45.1235 57.7017 43.93 59.0282 42.8339C60.3685 41.7568 61.3009 40.8103 61.3722 40.8731Z" fill="#F2E9DD"/>
<path fill-rule="evenodd" clip-rule="evenodd" d="M67.7439 37.8652C67.7958 37.8665 67.813 38.5604 67.8089 39.7153C67.7619 40.8655 67.6518 42.475 67.3265 44.281C66.736 47.8982 65.2301 52.2394 63.5468 55.2973C61.8843 58.4574 59.8809 60.9853 58.2837 62.628C56.6754 64.2782 55.5146 65.0897 55.4414 65.0035C55.1776 64.7547 59.4145 61.1617 62.7076 54.922C64.3732 51.9461 65.9845 47.741 66.7464 44.1975C67.1556 42.4324 67.3661 40.844 67.5152 39.7006C67.6205 38.5597 67.7021 37.8635 67.7439 37.8652Z" fill="#F2E9DD"/>
<path fill-rule="evenodd" clip-rule="evenodd" d="M65.616 41.3623C65.8495 41.3718 65.7574 43.7607 65.2839 45.1858C64.8573 46.6449 64.0586 47.6002 63.824 47.4674C63.5579 47.3327 63.9811 46.2902 64.4123 44.9083C64.8832 43.5872 65.4774 41.3587 65.616 41.3623Z" fill="#F2E9DD"/>
<path fill-rule="evenodd" clip-rule="evenodd" d="M70.8977 43.54C70.8977 43.54 71.3923 44.3555 71.7416 45.8804C72.0797 47.4027 72.1169 49.6406 71.5473 52.0556C70.4608 56.9449 67.1562 62.1728 64.9043 66.1864C62.5557 70.2909 60.3812 73.9395 58.7681 76.5389C57.1561 79.1412 56.1037 80.6982 55.9812 80.6272C55.8556 80.5572 56.6873 78.9132 58.1458 76.2582C59.651 73.5992 61.7235 69.9439 64.067 65.807C66.3476 61.769 69.7319 56.6728 70.9718 51.9567C71.6195 49.6226 71.6814 47.4577 71.4537 45.946C71.2147 44.4317 70.8313 43.5646 70.8977 43.54Z" fill="#F2E9DD"/>
<path fill-rule="evenodd" clip-rule="evenodd" d="M60.0716 30.5841C59.9674 30.6639 58.4951 28.711 56.1551 26.565C53.8555 24.38 50.6763 22.0715 48.0456 20.6408C42.7323 17.5928 37.9356 16.4746 38.0196 16.1551C38.0351 15.9194 42.9567 16.6618 48.4477 19.8189C51.1377 21.2894 54.331 23.7746 56.5468 26.1314C57.6728 27.2894 58.5602 28.4054 59.1768 29.2168C59.7666 30.0485 60.1064 30.5575 60.0716 30.5841Z" fill="#F2E9DD"/>
<path fill-rule="evenodd" clip-rule="evenodd" d="M62.5835 31.7605C62.5274 31.8499 60.798 30.823 58.5217 29.515C56.2472 28.2028 53.41 26.6222 51.2213 25.4395C46.7644 23.0076 43.2348 21.059 43.3555 20.8014C43.4803 20.5458 47.1219 22.1301 51.6253 24.6135C53.8177 25.8154 56.6115 27.5288 58.8112 29.0095C59.9097 29.7417 60.8638 30.4176 61.5411 30.9113C62.2092 31.4084 62.6058 31.7282 62.5835 31.7605Z" fill="#F2E9DD"/>
<path fill-rule="evenodd" clip-rule="evenodd" d="M73.8811 47.7642C73.8819 47.6369 74.8779 47.6485 76.0072 47.1405C77.1495 46.686 78.3482 45.7266 79.0251 44.813C80.527 42.9963 80.654 41.0441 80.9575 41.0483C81.2207 40.9713 81.492 43.2666 79.7514 45.3744C78.9735 46.4043 77.5146 47.3744 76.2018 47.693C74.896 48.0674 73.8635 47.8187 73.8811 47.7642Z" fill="#F2E9DD"/>
<path fill-rule="evenodd" clip-rule="evenodd" d="M70.4171 27.1873C70.4064 27.1123 71.6108 26.8716 73.1771 27.1626C74.7478 27.4005 76.6014 28.2166 77.8028 29.1612C80.3844 31.0426 81.0669 33.6419 80.8167 33.6798C80.5214 33.8271 79.6219 31.6515 77.2665 29.899C76.1681 29.0191 74.5169 28.1383 73.0599 27.7347C71.6124 27.2829 70.4186 27.2931 70.4171 27.1873Z" fill="#F2E9DD"/>
<path fill-rule="evenodd" clip-rule="evenodd" d="M145.545 62.3826C145.44 62.3769 145.459 60.4578 145.533 57.9453C145.645 55.3979 145.78 52.3101 145.883 49.9514C145.969 48.7388 146.053 47.5956 146.127 46.5453C146.188 45.5342 146.338 44.4691 146.74 43.7297C147.092 42.9675 147.706 42.4308 148.233 42.3797C148.746 42.33 148.964 42.5376 148.942 42.5801C148.93 42.7047 147.874 42.4751 147.378 43.9702C146.84 45.2854 147.041 47.5382 146.801 49.9646C146.651 52.3443 146.376 55.453 146.12 57.9645C145.981 59.2002 145.857 60.3 145.765 61.1166C145.665 61.9092 145.585 62.3884 145.545 62.3826Z" fill="#F2E9DD"/>
<path fill-rule="evenodd" clip-rule="evenodd" d="M147.376 59.4823C147.128 59.4437 148.214 53.247 149.514 49.545C150.742 45.7396 152.326 42.9691 152.56 43.0845C152.841 43.2106 151.641 46.0375 150.392 49.803C149.769 51.6301 148.998 54.0376 148.427 56.0066C147.85 57.9748 147.464 59.4977 147.376 59.4823Z" fill="#F2E9DD"/>
<path fill-rule="evenodd" clip-rule="evenodd" d="M149.474 56.535C149.269 56.501 149.334 54.6232 149.477 53.4719C149.622 52.2991 150.022 51.4162 150.292 51.4601C150.581 51.5075 150.554 52.434 150.38 53.6109C150.211 54.7579 149.634 56.5612 149.474 56.535Z" fill="#F2E9DD"/>
<path fill-rule="evenodd" clip-rule="evenodd" d="M141.766 61.4012C141.718 61.4567 140.857 60.681 140.294 59.2904C139.686 57.9299 139.476 56.0205 139.725 54.61C140.134 51.6057 142.217 50.0405 142.339 50.2768C142.585 50.4875 141.026 52.0475 140.629 54.7347C140.387 56.0085 140.439 57.747 140.841 59.0808C141.198 60.4415 141.857 61.3401 141.766 61.4012Z" fill="#F2E9DD"/>
<path fill-rule="evenodd" clip-rule="evenodd" d="M175.251 127.071C175.168 127.078 174.94 125.426 175.087 123.243C175.199 121.063 175.739 118.384 176.443 116.424C177.811 112.358 180.114 109.77 180.299 109.935C180.567 110.12 178.675 112.765 177.316 116.695C176.62 118.586 175.96 121.155 175.669 123.285C175.345 125.409 175.351 127.072 175.251 127.071Z" fill="#F2E9DD"/>
<path fill-rule="evenodd" clip-rule="evenodd" d="M175.865 129.661C175.77 129.608 176.403 128.309 177.126 126.575C177.866 124.842 178.679 122.666 179.226 120.977C180.378 117.539 181.144 114.756 181.433 114.814C181.704 114.861 181.306 117.72 180.104 121.242C179.035 124.727 176.052 129.785 175.865 129.661Z" fill="#F2E9DD"/>
<path fill-rule="evenodd" clip-rule="evenodd" d="M179.435 126.333C179.236 126.297 179.243 124.928 179.35 124.096C179.461 123.248 179.831 122.627 180.105 122.68C180.388 122.732 180.389 123.408 180.25 124.256C180.118 125.084 179.595 126.366 179.435 126.333Z" fill="#F2E9DD"/>
<path fill-rule="evenodd" clip-rule="evenodd" d="M105.117 100.123C105.102 100.008 105.965 99.8288 106.971 99.3488C107.99 98.8958 109.127 98.1308 109.884 97.4238C111.472 96.0328 112.338 94.5478 112.614 94.6718C112.865 94.7568 112.284 96.5578 110.496 98.1038C109.659 98.8708 108.326 99.5878 107.18 99.8928C106.035 100.232 105.121 100.19 105.117 100.123Z" fill="#F2E9DD"/>
<path fill-rule="evenodd" clip-rule="evenodd" d="M108.042 97.006C108.061 96.899 110.421 96.1301 111.413 94.9941C112.514 93.9921 113.144 92.9511 113.419 93.0551C113.68 93.1301 113.336 94.507 112.027 95.669C111.417 96.245 110.419 96.763 109.565 96.949C108.712 97.166 108.044 97.077 108.042 97.006Z" fill="#F2E9DD"/>
<path fill-rule="evenodd" clip-rule="evenodd" d="M108.959 94.0119C108.941 93.8819 112.027 92.6239 113.579 91.2959C115.234 90.0679 116.415 88.9029 116.65 89.0829C116.87 89.2419 115.932 90.7189 114.128 92.0269C112.423 93.4349 108.989 94.2519 108.959 94.0119Z" fill="#F2E9DD"/>
</svg>
