<svg width="124" height="152" viewBox="0 0 124 152" fill="none" xmlns="http://www.w3.org/2000/svg">
<path fill-rule="evenodd" clip-rule="evenodd" d="M67.6154 108.157C65.9624 104.306 63.7814 100.974 62.4905 96.8818C61.5997 94.0595 61.9321 92.6351 59.529 90.3196C55.3835 86.3278 44.8768 82.4032 39.1442 81.937C27.8488 81.0199 16.4613 82.67 14.2283 95.4627C13.3897 100.253 10.6024 106.658 12.4051 111.621C14.8459 118.344 23.4295 118.404 29.0888 120.152C39.8471 123.469 57.1754 122.889 62.7238 111.509C62.9036 111.141 62.533 110.981 62.3359 111.321C55.166 123.774 35.9681 119.203 25.18 116.16C20.5952 114.867 13.7073 115.181 13.1146 108.395C13.0366 107.504 14.6751 99.7883 15.0633 98.6227C14.8791 94.8423 17.014 92.0801 21.469 90.3276C23.189 84.7752 25.9992 82.7581 29.9071 84.2739C30.1352 84.2111 32.1457 84.3319 32.5101 84.3628C38.8513 84.9006 42.9218 85.1057 48.8499 87.6083C55.6444 90.4731 57.9124 92.7662 60.989 100.042C62.4746 103.553 64.5479 106.003 66.2864 109.408C66.7809 110.382 67.9264 108.883 67.6154 108.157Z" fill="#F2E9DD"/>
<path fill-rule="evenodd" clip-rule="evenodd" d="M65.9829 109.596C66.7614 109.062 67.4927 108.633 68.4187 108.373C68.4695 108.359 68.5054 108.233 68.4274 108.245C67.4878 108.421 66.7403 108.888 65.9556 109.41C65.8763 109.462 65.8701 109.671 65.9829 109.596Z" fill="#F2E9DD"/>
<path fill-rule="evenodd" clip-rule="evenodd" d="M18.3756 116.79C15.5253 121.216 13.0718 124.841 17.7776 128.932C23.1502 133.601 30.5725 131.882 36.9152 130.996C41.6216 130.34 44.8955 128.22 49.2649 127.054C51.5233 126.452 53.7717 126.724 56.0018 125.464C62.0932 122.019 62.5344 113.814 66.328 108.682C66.8177 108.017 66.2576 107.093 65.6092 107.887C62.8484 111.258 62.4685 115.124 60.139 118.732C55.346 126.15 53.2405 123.549 46.9931 125.494C42.4191 126.916 39.9238 128.268 35.0327 128.883C33.187 129.114 30.7315 129.631 29.0433 129.692C21.4823 129.963 15.3995 125.43 19.408 117.568C19.8357 116.73 18.9856 115.844 18.3756 116.79Z" fill="#F2E9DD"/>
<path fill-rule="evenodd" clip-rule="evenodd" d="M35.0322 81.2619C36.7766 69.8637 48.1173 74.3432 54.142 77.9218C60.1555 81.4917 63.0629 85.1974 64.641 92.0612C66.0704 98.2777 66.7092 104.001 64.5999 110.205C64.3605 110.905 65.1811 110.798 65.3721 110.243C68.7834 100.375 68.1322 86.7452 59.7419 79.2648C55.5765 75.552 47.8862 70.2377 42.1905 71.666C37.0377 72.9574 34.5854 76.678 34.0616 81.5358C33.9636 82.4117 34.9441 81.8354 35.0322 81.2619Z" fill="#F2E9DD"/>
<path fill-rule="evenodd" clip-rule="evenodd" d="M68.4072 102.285C72.0833 104.387 72.8798 107.475 74.9592 110.854C75.4697 111.685 76.3757 112.411 76.7784 113.264C78.787 117.508 74.4931 119.477 71.6915 121.674C70.7234 122.435 69.9622 123.488 69.0485 124.222C65.5007 127.074 60.6784 123.126 57.4038 121.498C56.8858 121.241 56.3464 122.374 56.8521 122.661C59.6197 124.22 64.9365 128.279 68.3739 126.715C70.232 125.87 71.9217 124.06 73.7303 123.073C75.2228 122.261 76.3322 121.682 77.3426 120.223C79.3101 117.385 79.9762 114.331 78.105 111.427C75.4357 107.288 73.5708 103.234 68.9329 101.186C68.4285 100.964 67.9313 102.013 68.4072 102.285Z" fill="#F2E9DD"/>
<path fill-rule="evenodd" clip-rule="evenodd" d="M63.9064 107.517C63.8901 107.53 63.7376 107.382 63.4749 107.101C63.2085 106.809 62.8342 106.398 62.3719 105.89C61.4139 104.879 60.078 103.476 58.4371 102.012C55.2 99.0366 50.732 95.8963 47.0473 93.9584C39.5824 89.8284 32.8819 88.4259 32.9672 88.1339C32.9885 88.0371 34.642 88.266 37.2882 89.0319C39.9282 89.7976 43.5474 91.1456 47.3486 93.2347C51.0891 95.2039 55.5756 98.4982 58.7495 101.622C60.3656 103.161 61.652 104.643 62.5529 105.718C62.9817 106.267 63.3225 106.707 63.5654 107.021C63.8009 107.331 63.9211 107.506 63.9064 107.517Z" fill="#F2E9DD"/>
<path fill-rule="evenodd" clip-rule="evenodd" d="M61.649 108.264C61.6179 108.294 61.0924 107.856 60.2484 107.111C59.3833 106.384 58.1799 105.365 56.746 104.303C53.9041 102.147 50.1265 99.8454 47.08 98.3939C40.8991 95.3143 35.5347 94.0291 35.6054 93.7543C35.6302 93.6501 36.9726 93.8474 39.1218 94.4506C41.2672 95.0549 44.2146 96.0994 47.3677 97.6664C50.4563 99.1453 54.2451 101.585 57.0311 103.894C58.4378 105.029 59.5966 106.123 60.4108 106.92C60.7975 107.325 61.1135 107.654 61.3378 107.888C61.5534 108.12 61.6613 108.252 61.649 108.264Z" fill="#F2E9DD"/>
<path fill-rule="evenodd" clip-rule="evenodd" d="M62.3984 108.635C62.3438 108.724 60.4872 107.642 57.9055 106.546C55.3436 105.417 52.0578 104.321 49.4835 103.714C44.2394 102.395 39.9334 102.175 39.9433 101.903C39.9285 101.693 44.2383 101.579 49.6187 102.943C52.2377 103.566 55.5581 104.797 58.0939 106.082C59.3705 106.71 60.4525 107.341 61.2147 107.811C61.9708 108.298 62.4169 108.604 62.3984 108.635Z" fill="#F2E9DD"/>
<path fill-rule="evenodd" clip-rule="evenodd" d="M59.8288 108.166C59.851 108.405 52.4215 108.693 47.8243 108.027C43.1229 107.487 39.536 106.315 39.5967 106.103C39.6563 105.844 43.2011 106.681 47.869 107.244C50.1397 107.54 53.1219 107.821 55.5451 107.945C56.7424 107.998 57.8096 108.044 58.593 108.078C59.3602 108.101 59.8288 108.129 59.8288 108.166Z" fill="#F2E9DD"/>
<path fill-rule="evenodd" clip-rule="evenodd" d="M63.093 108.851C63.1103 108.891 62.4831 109.169 61.4344 109.604C60.3721 110.009 58.8784 110.547 57.1356 111.017C53.6624 112.006 49.2088 112.686 45.763 112.779C42.2477 112.923 39.0908 112.618 36.8535 112.232C34.6113 111.843 33.2777 111.413 33.3 111.314C33.3484 111.015 38.6731 112.274 45.6627 112C49.0552 111.926 53.4778 111.375 56.9721 110.541C58.726 110.147 60.247 109.691 61.3378 109.37C61.8745 109.202 62.3059 109.064 62.617 108.967C62.9182 108.876 63.0855 108.835 63.093 108.851Z" fill="#F2E9DD"/>
<path fill-rule="evenodd" clip-rule="evenodd" d="M63.4977 95.4733C63.4358 95.4788 63.3466 94.5787 63.0085 93.1312C62.6703 91.6837 62.0409 89.6919 60.9592 87.6031C58.8985 83.3577 54.5943 79.1134 50.5216 77.2773C46.4316 75.2601 42.293 74.7037 39.3739 74.7345C36.4277 74.7515 34.6489 75.2063 34.6142 75.0596C34.5981 74.9991 35.0245 74.8523 35.8166 74.6356C36.6161 74.4656 37.7912 74.2185 39.2811 74.1554C42.2385 73.9811 46.5209 74.4444 50.7882 76.5359C52.8556 77.5404 55.0765 79.0656 56.9491 80.9892C58.8254 82.9056 60.3658 85.1714 61.393 87.3494C62.4339 89.5251 62.9975 91.585 63.2514 93.0698C63.509 94.5595 63.4977 95.4733 63.4977 95.4733Z" fill="#F2E9DD"/>
<path fill-rule="evenodd" clip-rule="evenodd" d="M62.2729 92.7681C62.1626 92.8383 60.8726 90.4657 58.4374 87.9494C56.0777 85.3822 52.5716 82.7969 49.6044 81.361C43.5884 78.2142 38.0763 77.989 38.1272 77.6857C38.1309 77.5923 39.4671 77.5252 41.6436 77.8715C43.8127 78.2203 46.8109 79.0415 49.902 80.6385C52.946 82.1133 56.4955 84.8713 58.7907 87.5964C61.1651 90.2695 62.2729 92.7681 62.2729 92.7681Z" fill="#F2E9DD"/>
<path fill-rule="evenodd" clip-rule="evenodd" d="M61.8969 111.966C61.913 111.984 61.7271 112.154 61.38 112.452C61.0192 112.745 60.5072 113.166 59.8738 113.684C58.5771 114.712 56.7387 116.115 54.5607 117.585C50.2468 120.572 44.3687 123.602 39.4427 124.79C34.4511 126.107 29.7063 126.09 26.4217 125.471C24.7707 125.194 23.4879 124.756 22.6129 124.454C21.7527 124.104 21.2929 123.881 21.3138 123.827C21.3636 123.673 23.2202 124.436 26.4354 124.884C29.6333 125.354 34.2169 125.328 39.1416 124.056C43.9684 122.922 49.8428 120.047 54.2422 117.193C56.4611 115.79 58.3528 114.454 59.7065 113.492C60.3771 113.01 60.9201 112.628 61.3006 112.356C61.675 112.091 61.8845 111.954 61.8969 111.966Z" fill="#F2E9DD"/>
<path fill-rule="evenodd" clip-rule="evenodd" d="M46.5501 119.716C46.5662 119.758 45.9812 120.003 44.9994 120.385C44.009 120.741 42.612 121.211 40.9907 121.619C37.7567 122.475 33.618 123.044 30.4275 123.094C27.1688 123.192 24.2449 122.882 22.1725 122.509C20.0976 122.128 18.8669 121.722 18.8892 121.623C18.9376 121.331 23.8644 122.49 30.3396 122.314C33.4842 122.281 37.587 121.838 40.842 121.138C42.4733 120.808 43.8938 120.421 44.9115 120.147C45.9192 119.848 46.539 119.683 46.5501 119.716Z" fill="#F2E9DD"/>
<path fill-rule="evenodd" clip-rule="evenodd" d="M68.6136 107.368C68.6272 107.298 69.1577 107.333 69.6981 107.748C70.2521 108.137 70.7304 108.883 70.8716 109.521C71.2408 110.889 70.3668 111.833 70.2007 111.65C69.9702 111.515 70.3781 110.741 70.1056 109.692C70.0028 109.188 69.7277 108.551 69.3571 108.114C69.0077 107.66 68.5838 107.445 68.6136 107.368Z" fill="#F2E9DD"/>
<path fill-rule="evenodd" clip-rule="evenodd" d="M67.9308 108.673C68.0572 108.466 69.7303 109.812 70.1442 111.117C70.6646 112.383 70.3508 113.482 70.1265 113.445C69.8624 113.431 69.8452 112.494 69.4078 111.389C69.0932 110.271 67.8985 108.749 67.9308 108.673Z" fill="#F2E9DD"/>
<path fill-rule="evenodd" clip-rule="evenodd" d="M66.5317 111.556C66.6978 111.499 67.3162 112.621 67.6136 113.344C67.9221 114.087 67.9294 114.755 67.7038 114.832C67.4671 114.911 67.161 114.36 66.8735 113.605C66.5972 112.872 66.3979 111.599 66.5317 111.556Z" fill="#F2E9DD"/>
<path fill-rule="evenodd" clip-rule="evenodd" d="M63.5245 119.206C63.6175 119.17 64.8891 119.74 65.6874 119.518C66.4733 119.43 67.0621 119.141 67.2418 119.315C67.4314 119.469 66.8623 120.193 65.7728 120.296C65.2621 120.363 64.5792 120.198 64.1355 119.9C63.6732 119.613 63.4799 119.245 63.5245 119.206Z" fill="#F2E9DD"/>
<path fill-rule="evenodd" clip-rule="evenodd" d="M61.2977 118.129C61.3126 117.959 62.9338 117.901 63.9329 117.952C64.953 118.004 65.7413 118.293 65.7214 118.529C65.699 118.776 64.9008 118.808 63.8745 118.731C62.878 118.657 61.289 118.27 61.2977 118.129Z" fill="#F2E9DD"/>
<path fill-rule="evenodd" clip-rule="evenodd" d="M12.1388 96.5749C12.2169 96.5007 13.0212 97.2865 14.2705 97.9995C15.5037 98.7443 17.1708 99.3706 18.4883 99.617C21.1779 100.211 23.3806 99.8357 23.4338 100.099C23.5181 100.302 21.2609 101.037 18.3531 100.388C16.9438 100.114 15.2074 99.3291 14.0065 98.4223C13.3979 97.9817 12.9208 97.5216 12.5961 97.1787C12.2875 96.8224 12.114 96.5992 12.1388 96.5749Z" fill="#F2E9DD"/>
<path fill-rule="evenodd" clip-rule="evenodd" d="M12.3168 101.518C12.3651 101.434 13.2129 101.845 14.3668 102.243C15.5182 102.657 16.9696 103.033 18.0963 103.219C20.3881 103.645 22.2548 103.712 22.2733 103.964C22.2968 104.194 20.3966 104.458 17.9735 103.99C15.5565 103.663 12.1879 101.692 12.3168 101.518Z" fill="#F2E9DD"/>
<path fill-rule="evenodd" clip-rule="evenodd" d="M12.3635 103.3C12.4503 103.252 14.4989 105.038 16.0891 105.52C17.6334 106.149 18.9609 106.364 18.9571 106.617C18.9645 106.848 17.5081 106.956 15.8051 106.247C14.0427 105.667 12.1676 103.417 12.3635 103.3Z" fill="#F2E9DD"/>
<path fill-rule="evenodd" clip-rule="evenodd" d="M62.0461 108.696C62.056 108.75 61.4846 108.827 60.6293 109.18C59.7703 109.529 58.6807 110.223 57.4857 111.093C56.2956 111.948 54.8837 112.951 53.2338 113.416C51.6075 113.914 49.923 114.017 48.4964 114.023C45.5761 113.995 43.0253 113.779 41.1958 113.94C39.3687 114.085 38.2903 114.461 38.2358 114.328C38.1912 114.238 39.2101 113.666 41.0768 113.369C42.9399 113.056 45.5626 113.198 48.437 113.243C49.8352 113.244 51.4453 113.177 52.986 112.762C54.5417 112.384 55.9276 111.5 57.1771 110.694C58.4266 109.882 59.6067 109.225 60.5314 108.949C61.4561 108.662 62.0461 108.696 62.0461 108.696Z" fill="#F2E9DD"/>
<path fill-rule="evenodd" clip-rule="evenodd" d="M51.9738 109.085C51.9737 109.257 50.195 109.447 49.0869 109.476C47.959 109.507 47.0628 109.284 47.0641 109.048C47.0629 108.798 47.9392 108.698 49.0759 108.692C50.184 108.688 51.9738 108.943 51.9738 109.085Z" fill="#F2E9DD"/>
<path fill-rule="evenodd" clip-rule="evenodd" d="M57.3771 108.16C57.4019 108.412 52.7612 108.484 49.9911 107.545C47.1391 106.749 45.2218 105.325 45.3433 105.147C45.4747 104.912 47.4342 105.994 50.1833 106.79C51.5157 107.198 53.2943 107.61 54.7643 107.814C56.2306 108.037 57.3747 108.079 57.3771 108.16Z" fill="#F2E9DD"/>
<path fill-rule="evenodd" clip-rule="evenodd" d="M63.0189 110.44C63.0487 110.474 62.6222 110.885 61.8933 111.549C61.1421 112.183 60.0648 113.043 58.7372 113.88C56.1142 115.595 52.4971 117.151 49.5829 117.855C46.6167 118.63 43.8476 118.826 41.8744 118.767C39.8899 118.706 38.6963 118.443 38.7075 118.347C38.7088 118.037 43.4622 118.634 49.3252 117.109C52.1774 116.442 55.7709 115.031 58.4485 113.466C59.7996 112.705 60.9227 111.921 61.7297 111.356C62.5095 110.763 62.9954 110.413 63.0189 110.44Z" fill="#F2E9DD"/>
<path fill-rule="evenodd" clip-rule="evenodd" d="M59.5674 111.117C59.6987 111.27 58.1417 112.591 56.9666 113.115C55.7977 113.688 54.7267 113.736 54.6722 113.511C54.6004 113.266 55.5052 112.931 56.6283 112.405C57.7365 111.94 59.488 111.028 59.5674 111.117Z" fill="#F2E9DD"/>
<path fill-rule="evenodd" clip-rule="evenodd" d="M61.3058 115.704C61.3058 115.704 61.0838 116.486 60.33 117.587C59.5713 118.678 58.1853 119.993 56.3309 121.028C52.6158 123.165 47.3825 124.098 43.5325 124.995C39.5684 125.883 35.9936 126.618 33.4092 127.101C30.8235 127.587 29.2245 127.822 29.1973 127.704C29.1675 127.584 30.6909 127.16 33.2196 126.547C35.778 125.961 39.2971 125.158 43.2785 124.248C47.1607 123.356 52.3581 122.548 56.0545 120.608C57.904 119.669 59.3023 118.459 60.1193 117.443C60.9313 116.418 61.2512 115.676 61.3058 115.704Z" fill="#F2E9DD"/>
<path fill-rule="evenodd" clip-rule="evenodd" d="M63.085 101.402C62.9734 101.382 63.3356 99.3273 63.3088 96.6137C63.3302 93.9031 62.9118 90.5667 62.2639 88.0827C61.0549 82.9743 58.9359 79.3052 59.1863 79.1737C59.3437 79.0475 61.7726 82.5784 63.0175 87.8619C63.6753 90.4062 63.9909 93.8534 63.812 96.6104C63.7461 97.9884 63.5662 99.1919 63.4186 100.049C63.2424 100.901 63.1221 101.409 63.085 101.402Z" fill="#F2E9DD"/>
<path fill-rule="evenodd" clip-rule="evenodd" d="M63.8239 103.664C63.7346 103.681 63.363 101.998 62.8465 99.8079C62.3337 97.6169 61.6585 94.9162 61.1147 92.854C60.0221 88.6409 59.171 85.2914 59.4041 85.2188C59.6383 85.1499 60.7844 88.3599 61.8721 92.6319C62.406 94.7076 62.972 97.4576 63.3349 99.6987C63.5206 100.814 63.6568 101.805 63.7447 102.517C63.8252 103.225 63.8573 103.66 63.8239 103.664Z" fill="#F2E9DD"/>
<path fill-rule="evenodd" clip-rule="evenodd" d="M60.4038 120.023C60.4844 119.95 61.0632 120.584 62.0473 121.003C63.0053 121.461 64.3142 121.663 65.2872 121.562C67.3138 121.461 68.6167 120.414 68.7927 120.608C68.9959 120.729 67.7116 122.225 65.3615 122.344C64.2558 122.448 62.7871 122.088 61.8142 121.445C60.8103 120.838 60.3592 120.043 60.4038 120.023Z" fill="#F2E9DD"/>
<path fill-rule="evenodd" clip-rule="evenodd" d="M71.3095 105.964C71.3504 105.914 72.2105 106.534 72.9491 107.689C73.7236 108.817 74.301 110.456 74.4136 111.759C74.7491 114.472 73.5155 116.402 73.3445 116.266C73.078 116.165 73.9174 114.342 73.6339 111.846C73.5411 110.646 73.1236 109.097 72.5202 107.945C71.9527 106.772 71.2438 106.026 71.3095 105.964Z" fill="#F2E9DD"/>
<path fill-rule="evenodd" clip-rule="evenodd" d="M119.435 7.76703C118.246 5.94228 116.381 5.90403 114.44 5.11428C111.295 3.83403 109.372 2.06553 105.969 1.40628C99.6667 0.182277 93.9585 0.756028 89.7515 5.74653C89.6353 5.88603 89.6923 6.36078 89.9314 6.18078C92.9153 3.92853 95.1157 2.79453 98.8968 2.77653C101.808 2.76303 105.156 3.00153 107.887 4.00053C109.659 4.64628 111.028 5.99403 112.768 6.68478C114.812 7.49478 117.135 7.32828 118.984 8.70753C119.515 9.10353 119.629 8.06403 119.435 7.76703Z" fill="#F2E9DD"/>
<path fill-rule="evenodd" clip-rule="evenodd" d="M85.1889 10.3656C83.8792 16.4091 87.6216 20.9991 93.9971 20.7066C97.5914 20.5401 101.174 20.3061 104.11 18.1641C106.286 16.5779 108.172 14.5349 110.322 12.9036C113.716 10.3296 116.47 10.2599 120.533 10.4174C120.925 10.4331 120.914 9.54661 120.513 9.53086C114.281 9.30361 111.841 10.3251 107.049 14.2244C103.864 16.8119 101.507 18.2541 97.0903 19.0754C91.3047 20.1531 84.0432 17.8109 85.4713 10.4736C85.5146 10.2441 85.2481 10.0844 85.1889 10.3656Z" fill="#F2E9DD"/>
<path fill-rule="evenodd" clip-rule="evenodd" d="M89.9859 19.9686C88.191 23.7509 85.5807 26.4621 89.5144 30.4086C92.7762 33.6801 99.22 35.7479 103.27 33.2436C105.782 31.6911 105.511 31.1061 108.689 30.4131C111.538 29.7899 112.939 30.9284 115.59 30.7709C117.722 30.6449 118.672 30.2534 119.987 28.5051C121.237 26.8401 121.679 24.2639 121.902 22.2591C122.285 18.7964 119.308 10.9281 123.33 10.0079C123.722 9.91788 123.604 9.06513 123.216 9.02913C114.174 8.18313 128.715 29.7606 111.611 28.5254C107.286 28.2126 107.509 27.6726 103.965 30.3209C101.464 32.1884 99.343 32.5619 96.186 31.5899C93.0085 30.6111 92.5484 29.6796 91.0861 26.5836C89.1773 22.5471 89.9335 23.4089 90.6305 20.3556C90.7308 19.9169 90.2524 19.4151 89.9859 19.9686Z" fill="#F2E9DD"/>
<path fill-rule="evenodd" clip-rule="evenodd" d="M120.772 9.24508C120.784 9.26083 120.647 9.37783 120.392 9.57808C120.126 9.78058 119.752 10.0641 119.29 10.4151C118.342 11.1148 117.01 12.0778 115.463 13.1263C112.386 15.2368 108.395 17.6286 105.104 19.0213C101.762 20.4883 98.5481 21.2938 96.1997 21.5503C95.0221 21.6628 94.0746 21.7281 93.4163 21.6921C92.758 21.6786 92.4004 21.6471 92.4004 21.5976C92.3981 21.4603 93.8058 21.4513 96.0767 21.0846C98.3477 20.7268 101.461 19.9078 104.778 18.4633C108.033 17.1066 112.053 14.8138 115.208 12.8023C116.773 11.7921 118.16 10.8988 119.16 10.2531C119.654 9.93358 120.053 9.67933 120.333 9.49708C120.611 9.32383 120.766 9.23383 120.772 9.24508Z" fill="#F2E9DD"/>
<path fill-rule="evenodd" clip-rule="evenodd" d="M117.977 13.4483C118.002 13.4731 117.615 13.8601 116.957 14.4788C116.285 15.0863 115.328 15.9121 114.173 16.7693C111.889 18.5108 108.802 20.3378 106.297 21.4516C103.757 22.6238 101.352 23.3821 99.5933 23.7983C97.8325 24.2146 96.7255 24.3248 96.7096 24.2438C96.6504 24.0076 100.921 23.2133 105.98 20.8913C108.456 19.8046 111.556 18.0833 113.909 16.4543C115.098 15.6511 116.098 14.8793 116.818 14.3281C117.169 14.0513 117.451 13.8286 117.656 13.6666C117.854 13.5158 117.97 13.4371 117.977 13.4483Z" fill="#F2E9DD"/>
<path fill-rule="evenodd" clip-rule="evenodd" d="M120.747 12.285C120.777 12.303 120.608 12.6338 120.303 13.167C119.984 13.6958 119.524 14.4248 118.941 15.2078C117.793 16.7918 116.146 18.594 114.738 19.8203C111.889 22.383 109.074 23.6385 109.003 23.4833C108.885 23.2853 111.461 21.8678 114.281 19.3658C115.672 18.171 117.362 16.4655 118.604 14.9715C119.863 13.491 120.688 12.2468 120.747 12.285Z" fill="#F2E9DD"/>
<path fill-rule="evenodd" clip-rule="evenodd" d="M113.411 8.86726C113.399 8.90101 112.896 8.81101 112.071 8.63776C111.233 8.47126 110.083 8.24176 108.782 7.98076C106.165 7.47451 102.908 6.96376 100.402 6.66001C95.2865 6.00751 91.2002 5.73076 91.207 5.52151C91.2093 5.33476 95.2524 5.34376 100.434 6.02101C102.963 6.33376 106.236 6.94351 108.851 7.57801C110.158 7.88851 111.302 8.20126 112.115 8.43526C112.93 8.68051 113.415 8.84026 113.411 8.86726Z" fill="#F2E9DD"/>
<path fill-rule="evenodd" clip-rule="evenodd" d="M111.46 6.46651C111.415 6.54076 110.333 5.85901 108.786 5.26726C107.253 4.64851 105.265 4.15801 103.716 3.99826C100.552 3.59101 98.0214 4.04101 97.9804 3.82276C97.9235 3.65851 100.452 2.92726 103.768 3.35926C105.374 3.53026 107.422 4.13551 108.941 4.88926C109.709 5.25151 110.344 5.64526 110.788 5.93776C111.226 6.24601 111.476 6.44176 111.46 6.46651Z" fill="#F2E9DD"/>
<path fill-rule="evenodd" clip-rule="evenodd" d="M110.11 9.2611C110.096 9.33985 108.634 9.11035 106.709 8.9506C104.787 8.7751 102.404 8.68735 100.577 8.71885C96.851 8.7481 93.9013 9.0541 93.8694 8.8471C93.8375 8.66485 96.7303 8.0956 100.539 8.07985C102.391 8.0551 104.812 8.2396 106.743 8.54335C107.711 8.68735 108.557 8.8561 109.156 8.9911C109.757 9.1351 110.117 9.23185 110.11 9.2611Z" fill="#F2E9DD"/>
<path fill-rule="evenodd" clip-rule="evenodd" d="M87.0904 10.4378C87.1701 10.4018 87.4297 10.935 88.0288 11.358C88.6005 11.8035 89.4615 12.1005 90.1266 12.1365C91.507 12.2985 92.475 11.6685 92.6071 11.8328C92.778 11.943 91.7461 12.9713 90.0674 12.7733C89.2839 12.7215 88.309 12.2693 87.7555 11.664C87.1678 11.079 87.0494 10.4423 87.0904 10.4378Z" fill="#F2E9DD"/>
<path fill-rule="evenodd" clip-rule="evenodd" d="M87.0955 11.7925C87.157 11.7318 87.7265 12.3078 88.6558 12.751C89.5646 13.2213 90.8037 13.5183 91.7581 13.534C93.7216 13.6465 95.1725 12.9355 95.2727 13.1268C95.398 13.2618 93.9334 14.3013 91.7422 14.173C90.6944 14.1505 89.3573 13.723 88.4553 13.1065C87.526 12.5193 87.0613 11.8128 87.0955 11.7925Z" fill="#F2E9DD"/>
<path fill-rule="evenodd" clip-rule="evenodd" d="M116.438 11.3691C116.429 11.4253 115.905 11.2903 115.06 11.3938C114.213 11.4838 113.101 11.9473 112.017 12.7461C110.921 13.5268 109.832 14.5866 108.687 15.5788C107.543 16.5891 106.256 17.4261 105.074 18.0133C102.662 19.2351 100.222 19.6896 98.4937 19.7503C96.7512 19.8291 95.7011 19.5816 95.7102 19.5051C95.6715 19.2576 99.9719 19.8313 104.739 17.4643C105.883 16.8996 107.138 16.1301 108.284 15.1738C109.443 14.2243 110.586 13.1826 111.762 12.4243C112.919 11.6458 114.135 11.2138 115.033 11.1891C115.932 11.1508 116.438 11.3691 116.438 11.3691Z" fill="#F2E9DD"/>
<path fill-rule="evenodd" clip-rule="evenodd" d="M116.868 12.6088C117 12.7123 115.048 15.1671 113.586 16.4721C112.128 17.8378 110.734 18.6276 110.623 18.4746C110.495 18.3058 111.684 17.3451 113.135 16.0131C113.828 15.3763 114.739 14.5393 115.518 13.8216C116.262 13.1218 116.823 12.5706 116.868 12.6088Z" fill="#F2E9DD"/>
<path fill-rule="evenodd" clip-rule="evenodd" d="M117.378 13.5585C117.46 13.6732 116.415 14.6205 115.722 15.147C115.016 15.687 114.338 15.9502 114.224 15.7927C114.103 15.6262 114.618 15.1582 115.34 14.6317C116.046 14.1187 117.31 13.464 117.378 13.5585Z" fill="#F2E9DD"/>
<path fill-rule="evenodd" clip-rule="evenodd" d="M99.7717 28.6673C99.7899 28.5885 100.407 28.6808 101.193 28.611C101.981 28.5615 102.924 28.3365 103.601 28.0575C104.997 27.531 105.938 26.7683 106.09 26.9168C106.236 27.0338 105.407 28.0733 103.84 28.6515C103.095 28.9508 102.034 29.097 101.198 29.0183C100.355 28.962 99.758 28.7123 99.7717 28.6673Z" fill="#F2E9DD"/>
<path fill-rule="evenodd" clip-rule="evenodd" d="M102.48 27.3353C102.519 27.27 104.275 27.3398 105.213 26.8358C106.19 26.4465 106.865 25.9178 107.022 26.0528C107.177 26.1653 106.61 26.9843 105.455 27.4275C104.908 27.657 104.118 27.7538 103.505 27.6683C102.885 27.603 102.464 27.3825 102.48 27.3353Z" fill="#F2E9DD"/>
<path fill-rule="evenodd" clip-rule="evenodd" d="M103.826 25.5959C103.846 25.5059 106.204 25.4317 107.561 24.9389C108.962 24.5362 110.033 24.0592 110.144 24.2347C110.251 24.3922 109.265 25.1324 107.746 25.5509C106.267 26.0594 103.787 25.7602 103.826 25.5959Z" fill="#F2E9DD"/>
</svg>
