<svg width="14" height="15" viewBox="0 0 14 15" fill="none" xmlns="http://www.w3.org/2000/svg">
<path d="M13.2997 1.20997C12.9097 0.819971 12.2797 0.819971 11.8897 1.20997L6.99973 6.08997L2.10973 1.19997C1.71973 0.809971 1.08973 0.809971 0.699727 1.19997C0.309727 1.58997 0.309727 2.21997 0.699727 2.60997L5.58973 7.49997L0.699727 12.39C0.309727 12.78 0.309727 13.41 0.699727 13.8C1.08973 14.19 1.71973 14.19 2.10973 13.8L6.99973 8.90997L11.8897 13.8C12.2797 14.19 12.9097 14.19 13.2997 13.8C13.6897 13.41 13.6897 12.78 13.2997 12.39L8.40973 7.49997L13.2997 2.60997C13.6797 2.22997 13.6797 1.58997 13.2997 1.20997Z" fill="white"/>
</svg>
