<svg width="198" height="418" viewBox="0 0 198 418" fill="none" xmlns="http://www.w3.org/2000/svg">
<path fill-rule="evenodd" clip-rule="evenodd" d="M102.039 56.4459C101.248 57.3421 98.3778 54.7813 97.9042 54.371C97.3 53.8452 96.7724 53.4069 96.415 52.6578C95.5426 50.8139 97.2668 49.3926 99.0575 49.1544C101.601 48.8136 104.151 50.2112 106.683 49.7415C108.24 49.45 109.195 48.7283 110.641 50.0119C111.491 50.7678 111.628 50.9888 110.76 51.8474C109.69 52.9056 107.849 53.6896 106.535 54.4292C105.721 54.8911 103.09 56.6267 101.949 56.3102C101.571 56.2065 101.252 56.7873 101.355 57.1074C101.41 57.2781 101.463 57.4271 101.536 57.5869C101.586 57.7056 101.727 57.802 101.859 57.7967C104.225 57.6636 106.554 56.0012 108.485 54.7537C109.589 54.042 112.649 52.7054 112.778 51.0955C112.87 49.9346 111.077 48.3176 110.224 47.8134C109.441 47.3494 109.514 47.5886 108.78 47.665C107.81 47.771 107.041 48.4151 106.009 48.4794C105.061 48.537 104.122 48.2129 103.213 48.0152C99.7098 47.2531 94.5302 46.7642 94.5544 51.8776C94.5657 54.6462 99.3552 59.5784 102.168 57.6316C102.472 57.4243 102.573 57.0026 102.455 56.6682C102.428 56.5937 102.403 56.517 102.376 56.4424C102.322 56.2826 102.116 56.357 102.039 56.4459Z" fill="#B08D6A"/>
<path fill-rule="evenodd" clip-rule="evenodd" d="M103.585 46.9881C100.3 42.4095 100.929 36.9962 98.5754 32.1737C97.8422 30.6758 97.1526 29.9768 96.1384 28.6956C92.4256 23.987 90.525 21.6972 88.9244 15.7359C89.1799 16.6768 88.5784 11.8638 88.5001 13.2155C88.2252 12.4273 87.9898 11.6267 87.7948 10.8115C86.8799 8.33513 88.5916 6.42332 92.9333 5.08017C94.1986 5.75234 93.3418 8.34031 95.6505 8.57594C97.2044 8.73134 98.3961 6.48206 99.3545 5.77764C106.921 0.224038 108.93 13.2117 108.738 18.0995C108.572 22.3865 108.445 22.9712 110.223 27.1505C111.992 31.3075 112.461 43.995 109.449 48.1948C108.919 48.9344 109.63 49.901 110.281 49.0011C113.139 45.0292 112.744 38.5336 112.95 33.939C113.084 30.8994 112.064 28.8798 111.163 26.1193C109.736 21.7449 110.661 18.1567 110.397 13.7944C110.146 9.65895 107.527 3.90485 103.651 2.16594C102.139 1.48487 101.567 1.49184 100.153 1.60396C99.7025 1.64109 99.365 3.0762 98.956 3.25223C88.452 7.82041 96.4155 4.21927 93.9625 2.52777C91.3074 0.695885 91.0371 -0.936939 87.8445 2.53277C85.0879 5.52399 85.472 8.24644 86.2933 11.8728C87.665 17.933 88.6201 23.2534 92.7102 28.3186C96.1046 32.5239 97.4316 35.3372 98.9116 40.5383C99.7255 43.3862 100.907 45.7743 102.841 47.978C103.228 48.4201 103.85 47.3553 103.585 46.9881Z" fill="#B08D6A"/>
<path fill-rule="evenodd" clip-rule="evenodd" d="M86.1577 3.3261C81.1014 6.33603 76.6297 3.28085 74.2873 9.68762C72.1907 15.4225 73.9376 21.1051 76.6742 26.2468C78.513 29.7053 80.4506 33.2423 82.6238 36.5013C84.2364 38.9178 84.9482 42.9676 86.8689 44.9652C88.6504 46.8172 94.5354 49.6099 96.9322 49.9433C97.4821 50.0217 97.9191 48.726 97.3455 48.5348C89.4301 45.8793 85.8299 38.8288 81.8687 32.0219C78.8857 26.8952 74.2578 20.5383 75.0871 14.3493C74.4907 10.3323 76.5836 7.65257 81.3633 6.30908C82.0223 6.39123 82.6698 6.36301 83.3025 6.22573C85.8917 4.65413 84.1449 6.27953 86.4526 4.18599C86.7619 3.90209 86.7189 2.99522 86.1577 3.3261Z" fill="#B08D6A"/>
<path fill-rule="evenodd" clip-rule="evenodd" d="M112.16 50.4693C114.735 46.4256 118.455 42.6479 118.654 37.5177C118.822 33.1969 115.957 29.6444 115.93 25.3526C115.901 20.989 118.008 15.9889 116.172 11.7851C114.317 7.54215 110.25 3.29369 105.552 4.3998C105.027 4.52456 104.727 5.95175 105.402 5.84771C113.065 4.67062 115.307 15.3378 115.086 20.6775C114.971 23.4642 114.299 26.2013 114.866 28.9848C115.311 31.1846 116.577 33.0595 116.997 35.2589C118.102 41.038 114.042 45.2083 111.652 49.9731C111.418 50.4417 111.781 51.0639 112.16 50.4693Z" fill="#B08D6A"/>
<path fill-rule="evenodd" clip-rule="evenodd" d="M133.572 103.479C133.596 103.352 133.611 103.235 133.621 103.104C133.651 102.782 133.334 102.715 133.139 102.915C129.538 106.608 124.164 119.462 132.203 121.109C135.78 121.841 140.572 119.498 142.71 116.673C143.406 115.751 143.842 114.779 144.06 113.652C144.428 111.75 144.265 109.893 145.074 108.034C145.705 106.583 146.939 105.298 147.695 103.891C148.069 103.197 147.479 102.287 146.949 103.163C145.792 105.079 143.991 106.922 143.257 109.068C143.082 109.583 143.138 110.158 142.989 110.675C141.967 114.238 141.503 116.946 137.936 118.454C133.231 120.441 129.285 119.39 129.81 112.907C130.066 109.747 133.025 106.601 132.987 103.597C132.992 104.105 133.505 103.812 133.572 103.479Z" fill="#B08D6A"/>
<path fill-rule="evenodd" clip-rule="evenodd" d="M134.769 105.328C134.365 105.026 134.157 104.606 134.136 104.073C133.979 104.247 133.824 104.421 133.666 104.595C136.373 104.524 139.447 104.989 142.067 104.248C143.126 103.95 145.82 102.913 145.148 101.332C145.106 101.238 144.993 101.199 144.898 101.235C144.259 101.488 143.806 102.102 143.16 102.408C142.361 102.784 141.466 102.993 140.591 103.068C138.271 103.265 136.002 102.685 133.774 103.586C133.505 103.694 133.252 104.175 133.436 104.446C133.766 104.927 134.088 105.31 134.556 105.671C134.717 105.794 134.887 105.449 134.769 105.328Z" fill="#B08D6A"/>
<path fill-rule="evenodd" clip-rule="evenodd" d="M141.312 102.807C141.924 97.4545 144.884 92.9138 145.337 87.3945C145.731 82.6208 145.601 77.339 144.871 72.6117C144.135 67.8292 141.716 62.3464 137.227 59.9537C134.458 58.4746 128.794 58.1274 126.126 60.1486C120.564 64.3672 127.473 75.2758 128.375 79.6878C129.717 86.2445 130.054 92.5576 130.357 99.2019C130.477 101.85 130.42 103.828 132.829 105.248C133.17 105.447 133.578 104.904 133.663 104.657C133.74 104.439 133.795 104.243 133.83 104.018C134.005 102.923 132.944 103.239 132.714 104.042C133.277 102.06 131.55 98.2218 131.569 95.8717C131.582 94.1473 132.317 92.1992 132.206 90.4776C132.039 87.8226 131.039 85.7091 130.41 83.1498C129.674 80.166 129.421 77.0897 128.447 74.1509C127.989 72.7711 127.012 71.5267 126.731 70.0819C125.991 66.2813 127.554 61.4138 131.859 60.7093C138.147 59.6843 142.698 68.7251 143.415 73.6418C143.803 76.2844 143.811 79.4368 144.037 82.1532C144.495 87.7077 143.328 92.6017 141.59 97.8206C140.976 99.6639 140.622 100.95 140.652 102.94C140.66 103.492 141.265 103.206 141.312 102.807Z" fill="#B08D6A"/>
<path fill-rule="evenodd" clip-rule="evenodd" d="M131.719 55.4335C138.221 55.1681 116.437 51.7067 142.065 50.0422C149.608 49.5528 152.561 55.5978 152.492 61.8905C152.447 66.0356 153.463 67.9323 154.423 71.7359C156.779 81.0795 148.823 84.2618 145.915 91.9628C144.589 95.477 142.988 98.4928 142.36 102.216C142.157 103.433 143.469 103.173 143.645 102.184C145.218 93.2755 151.704 87.6445 155.888 80.1584C159.983 72.8329 154.311 69.6264 153.832 61.3965C153.416 54.2671 153.911 49.8442 145.125 48.4311C137.651 47.2273 136.001 51.2802 131.203 55.5675C130.951 55.791 130.827 56.5247 131.295 56.5605C131.461 56.5725 131.572 56.4901 131.71 56.4135C131.97 56.2646 132.207 55.4147 131.719 55.4335Z" fill="#B08D6A"/>
<path fill-rule="evenodd" clip-rule="evenodd" d="M142.84 103.795C147.38 104.031 151.813 99.3241 154.504 96.0572C157.972 91.8439 159.347 86.5147 162.064 81.856C163.658 79.1163 166.864 76.6861 167.736 73.5982C169.861 66.0715 161.625 51.5479 152.967 54.8829C152.369 55.1116 152.093 56.6462 152.955 56.3839C157.87 54.8997 165.19 63.6286 166.186 67.2414C167.466 71.8945 164.807 74.85 162.784 78.5035C158.171 86.8347 153.682 100.989 143.051 102.729C142.632 102.798 142.267 103.765 142.84 103.795Z" fill="#B08D6A"/>
<path fill-rule="evenodd" clip-rule="evenodd" d="M76.6903 119.881C74.3825 125.867 76.8566 136.07 85.0243 134.773C88.2665 134.257 90.7676 130.757 91.9681 127.91C92.7019 126.172 93.0019 124.081 92.9266 122.197C92.8652 120.645 92.6644 120.157 93.2508 118.512C93.4498 117.958 93.646 117.611 93.8087 116.967C94.1256 115.7 92.7486 116.033 92.4718 116.998C92.0406 118.499 91.1753 119.177 91.234 120.823C91.3878 125.021 90.7854 131.279 85.7874 132.733C79.0558 134.698 75.7507 125.216 77.2722 119.983C77.4132 119.491 76.8465 119.472 76.6903 119.881Z" fill="#B08D6A"/>
<path fill-rule="evenodd" clip-rule="evenodd" d="M77.6115 120.632C82.3617 114.093 91.3708 122.755 96.9942 116.191C98.7088 114.191 98.4619 112.001 99.0105 109.563C100.053 104.917 105.216 101.346 105.787 96.8229C106.109 94.2602 105.1 91.607 105.074 89.0223C105.057 86.9185 106.86 82.4101 105.171 80.1042C102.862 76.9489 97.9036 78.6549 95.8053 80.9526C95.5664 81.2134 95.6994 81.8311 96.0705 81.4756C104.13 73.798 104.787 90.0619 104.107 94.8052C103.506 98.9986 100.041 101.336 98.5405 105.246C96.998 109.275 98.3551 114.33 93.0492 116.623C90.7493 117.62 87.8821 116.242 85.6557 116.249C81.7128 116.262 79.1539 116.665 77.2543 120.283C77.0768 120.618 77.3227 121.03 77.6115 120.632Z" fill="#B08D6A"/>
<path fill-rule="evenodd" clip-rule="evenodd" d="M89.9237 117.6C87.611 115.456 89.2836 104.292 90.3262 101.795C91.3776 99.284 93.6133 97.205 94.7549 94.7236C96.351 91.2626 99.7255 82.4154 97.9144 78.8473C95.5154 74.1192 85.5335 74.9458 82.6237 78.5266C79.2593 82.6678 85.0013 83.1929 84.6256 88.0721C84.5521 89.0302 85.6224 88.3544 85.6745 87.6853C85.801 86.0559 85.0124 84.8274 85.0295 83.5081C84.7307 83.203 84.4318 82.8979 84.1339 82.5906C84.339 78.568 86.0032 76.9131 89.1211 77.6263C91.9761 77.4035 90.8537 77.6328 92.8484 78.0633C98.2777 79.2375 95.719 82.9053 94.8836 86.6206C94.0808 90.1833 93.8903 92.1841 92.0617 95.571C89.0908 101.065 88.0273 103.191 87.6363 109.335C87.4655 112.035 85.6363 117.993 89.5969 118.433C89.9326 118.469 90.1453 117.807 89.9237 117.6Z" fill="#B08D6A"/>
<path fill-rule="evenodd" clip-rule="evenodd" d="M79.409 118.659C79.4693 115.219 77.3653 112.886 76.3803 109.655C74.9542 104.977 76.0901 100.46 75.4584 95.769C75.1797 93.6923 74.7992 92.9731 73.5304 91.2814C70.7429 87.5582 68.2077 85.8612 71.3909 80.7656C73.805 76.9023 79.9537 76.7994 82.3624 80.4265C82.8083 81.0968 83.4896 79.954 83.2551 79.4519C79.544 71.5054 67.0292 77.8753 67.363 85.4556C67.4456 87.3655 68.218 88.9142 69.3716 90.4598C70.1252 91.4705 71.6208 92.2159 72.3041 93.2682C74.0861 96.0092 73.6516 98.1261 73.6944 100.926C73.7326 103.524 73.6773 106.075 74.216 108.612C75.0194 112.432 77.9882 115.311 78.6218 119.082C78.7324 119.741 79.4038 119.029 79.409 118.659Z" fill="#B08D6A"/>
<path fill-rule="evenodd" clip-rule="evenodd" d="M83.3302 83.2151C86.4975 92.0404 81.8674 98.6317 80.3183 106.939C79.3805 111.969 81.9646 114.547 83.3462 119.16C83.575 119.927 84.3372 119.137 84.3135 118.642C84.2029 116.203 82.6966 114.812 82.1243 112.443C80.8768 107.266 83.1168 103.09 84.4969 98.2929C86.0194 93.0075 86.1979 87.4625 84.1751 82.2915C83.9134 81.6222 83.1526 82.7157 83.3302 83.2151Z" fill="#B08D6A"/>
<path fill-rule="evenodd" clip-rule="evenodd" d="M148.386 184.544C143.416 183.964 138.93 185.175 135.66 189.047C134.272 190.691 132.927 192.439 132.581 194.585C132.394 195.748 131.87 197.377 131.859 198.545C131.832 201.58 136.274 204.079 138.96 203.944C143.809 203.695 145.695 197.183 150.043 196.301C150.825 196.14 151.199 194.061 150.26 194.225C144.377 195.244 141.339 205.968 134.64 199.808C132.771 198.088 134.361 193.638 135.428 191.761C138.044 187.154 143.172 185.427 148.178 185.595C148.634 185.61 148.92 184.605 148.386 184.544Z" fill="#B08D6A"/>
<path fill-rule="evenodd" clip-rule="evenodd" d="M153.535 188.053C152.303 181.166 161.276 183.251 164.77 182.595C168.714 181.857 171.608 180.477 174.615 177.924C176.948 175.946 180.951 171.122 184.055 171.028C187.409 170.922 196.046 174.72 192.927 179.331C192.614 179.795 192.992 180.769 193.5 180.121C199.557 172.35 185.396 166.343 179.333 170.736C174.783 174.033 173.149 178.037 167.218 179.909C163.64 181.036 158.031 179.374 154.922 181.078C152.166 182.588 151.396 186.161 152.627 188.863C152.942 189.557 153.604 188.448 153.535 188.053Z" fill="#B08D6A"/>
<path fill-rule="evenodd" clip-rule="evenodd" d="M192.208 180.007C189.093 184.601 183.595 187.652 178.256 188.017C175.357 188.213 172.835 188.56 170.28 190.012C167.817 191.41 165.726 193.992 162.901 194.745C159.194 195.733 156.479 195.02 154.712 191.579C154.753 191.657 153.559 188.628 153.433 188.96C153.798 187.998 152.827 187.046 152.235 188.179C151.245 190.067 152.799 193.424 153.799 194.921C156.681 199.241 160.896 198.113 164.808 195.998C167.863 194.346 170.311 191.8 173.708 190.853C176.698 190.017 179.939 190.6 182.891 189.732C186.929 188.546 190.783 184.163 192.889 180.668C193.268 180.039 192.726 179.244 192.208 180.007Z" fill="#B08D6A"/>
<path fill-rule="evenodd" clip-rule="evenodd" d="M194.347 179.153C194.306 179.099 194.273 179.04 194.248 178.979C193.934 178.241 193.101 179.399 193.235 179.885C195.885 189.463 188.282 195.61 179.844 195.7C176.975 195.732 176.58 195.228 173.589 196.314C169.545 197.782 166.389 200.236 161.737 199.798C159.792 199.613 152.472 196.738 152.893 194.254C153.077 193.164 151.963 193.093 151.611 194.034C150.1 198.09 156.458 200.203 159.322 201.219C166.861 203.892 170.578 197.616 178.013 197.669C183.481 197.707 189.056 197.173 192.84 192.562C194.308 190.772 195.355 188.533 195.623 186.217C195.732 185.287 195.847 183.378 195.467 182.401C193.22 176.616 195.961 182.593 193.5 180.281C194.014 180.764 194.61 179.574 194.347 179.153Z" fill="#B08D6A"/>
<path fill-rule="evenodd" clip-rule="evenodd" d="M181.825 170.741C183.745 167.326 181.796 161.635 178.913 159.117C174.916 155.623 168.986 160.214 165.706 162.919C162.373 165.67 159.338 168.935 156.243 171.945C153.907 174.224 149.899 176.575 148.309 179.546C146.185 183.508 149.373 186.36 152.147 188.97C152.925 189.703 153.85 187.817 153.264 187.156C150.528 184.08 150.349 181.377 152.595 177.876C154.582 174.772 158.749 171.863 161.442 169.28C164.558 166.292 167.685 162.665 171.887 161.248C177.147 159.478 182.598 165.024 181.235 170.508C181.123 170.957 181.599 171.141 181.825 170.741Z" fill="#B08D6A"/>
<path fill-rule="evenodd" clip-rule="evenodd" d="M84.5158 172.7C80.2595 169.007 79.578 164.522 77.2999 159.826C75.3191 155.746 71.7552 153.761 67.9057 151.64C61.2784 147.992 58.704 151.271 51.5421 151.789C49.5707 151.93 47.7171 150.425 45.699 152.582C41.481 157.097 51.9126 162.642 54.6984 164.407C59.9741 167.745 63.7931 171.481 69.9711 173.307C74.605 174.68 78.8367 175.265 83.5234 175.547C83.67 175.556 83.761 175.233 83.5908 175.211C76.3922 174.337 67.3236 172.423 61.4905 167.827C58.483 165.454 55.1919 163.592 52.0907 161.234C50.9098 160.337 44.7494 155.534 46.5636 153.391C46.9418 152.944 49.8302 153.081 50.2669 153.628C50.3854 153.773 50.5882 153.742 50.7386 153.711C59.9742 151.819 69.835 151.838 75.3994 160.983C78.4783 166.045 78.4025 170.38 83.7822 173.891C84.3637 174.271 84.972 173.095 84.5158 172.7Z" fill="#B08D6A"/>
<path fill-rule="evenodd" clip-rule="evenodd" d="M49.7674 160.204C43.9409 154.859 31.1604 161.115 37.1183 168.084C39.2681 170.603 43.3786 171.401 46.2164 172.73C49.8464 174.426 51.7663 177.892 55.0869 179.54C58.1632 181.067 62.9892 179.231 66.2004 178.807C71.1679 178.152 76.1777 176.995 81.112 176.4C81.7573 176.32 82.1279 174.825 81.4067 174.91C76.8619 175.432 72.4932 176.563 67.8934 177.027C65.7645 177.242 63.1937 178.112 61.0711 177.973C39.9299 176.602 57.5797 176.079 51.9518 173.02C48.7326 171.275 44.5706 170.687 41.5926 168.582C33.3882 162.778 42.4146 157.772 49.2927 161.157C49.7035 161.359 50.0491 160.462 49.7674 160.204Z" fill="#B08D6A"/>
<path fill-rule="evenodd" clip-rule="evenodd" d="M41.0906 170.633C39.5063 173.659 36.4551 177.475 38.4203 181.085C41.8537 187.385 53.7142 184.3 58.9645 185.436C65.5938 186.867 68.9529 187.42 74.4766 182.83C77.0029 180.731 80.8994 176.879 84.0362 175.918C84.7484 175.698 84.9954 173.945 84.0477 174.229C78.1342 176.011 74.9417 182.696 69.2167 184.594C64.1411 186.277 59.0302 182.728 54.004 182.27C50.5702 181.956 45.3848 184.458 42.3771 181.616C37.4617 176.976 40.4023 174.964 41.9202 171.175C42.189 170.505 41.5004 169.854 41.0906 170.633Z" fill="#B08D6A"/>
<path fill-rule="evenodd" clip-rule="evenodd" d="M84.046 173.602C83.9969 173.568 83.9488 173.532 83.8997 173.498C83.3908 173.147 82.8377 174.217 83.2457 174.557C86.5143 177.275 90.887 177.319 94.0679 180.145C96.1338 181.979 96.8499 185.53 94.7349 187.855C93.3019 189.43 90.9054 188.651 89.0522 188.336C86.1104 187.831 85.1181 187.218 83.3224 184.967C82.838 184.357 82.6761 183.865 81.9665 183.426C81.1854 182.945 80.1007 183.066 79.2687 182.755C78.1123 182.332 77.1603 181.385 75.9717 181.07C74.781 180.753 74.1382 180.921 73.004 181.435C72.71 181.57 72.3419 182.488 72.8972 182.466C75.671 182.368 80.5713 184.73 82.3085 186.738C83.8087 188.469 83.4203 188.959 85.9456 189.708C88.5634 190.488 93.3923 192.092 95.4016 189.918C96.2339 189.018 97.5182 185.953 97.8689 184.637C98.2962 183.026 97.9911 182.26 97.2486 180.803C94.8118 176.014 88.4257 175.152 83.8042 173.437C83.6887 173.836 83.5701 174.237 83.4546 174.637C83.5156 174.636 83.5778 174.639 83.6388 174.638C84.0158 174.639 84.3929 173.843 84.046 173.602Z" fill="#B08D6A"/>
<path fill-rule="evenodd" clip-rule="evenodd" d="M135.765 244.336C135.995 241.916 135.237 239.612 136.542 237.344C137.679 235.375 139.443 234.554 141.549 235.485C142.357 235.84 143.113 233.969 142.282 233.617C139.796 232.568 137.603 233.574 136.096 235.703C134.19 238.396 134.02 241.652 135.063 244.713C135.259 245.288 135.734 244.666 135.765 244.336Z" fill="#B08D6A"/>
<path fill-rule="evenodd" clip-rule="evenodd" d="M134.71 242.588C134.887 246.002 135.789 252.584 140.809 250.92C142.699 250.296 143.933 248.553 144.637 246.768C145.048 245.715 146.272 242.105 145.064 241.304C144.83 241.15 144.579 241.29 144.45 241.52C143.835 242.619 144.106 244.031 143.804 245.249C143.384 246.945 142.449 248.809 140.619 249.292C136.479 250.38 136.37 244.69 135.608 242.109C135.399 241.401 134.687 242.128 134.71 242.588Z" fill="#B08D6A"/>
<path fill-rule="evenodd" clip-rule="evenodd" d="M143.952 233.919C143.27 231.408 153.928 226.937 155.872 226.217C159.289 224.952 162.899 224.553 166.245 223.05C168.342 222.11 170.266 220.833 172.31 219.805C173.935 218.988 175.748 217.314 177.879 217.928C180.296 218.626 182.172 222.849 183.093 224.935C183.383 225.587 184.081 224.51 183.909 224.042C182.75 220.899 180.809 215.941 176.587 216.014C173.744 216.065 171.169 218.856 168.739 220.062C159.656 224.563 150.276 225.176 142.765 232.784C142.408 233.143 142.251 233.918 142.745 234.218C142.971 234.355 143.197 234.495 143.422 234.632C143.745 234.829 144.011 234.141 143.952 233.919Z" fill="#B08D6A"/>
<path fill-rule="evenodd" clip-rule="evenodd" d="M142.166 238.048C146.771 239.058 146.104 245.175 151.57 242.432C153.512 241.459 155.235 239.249 156.967 238.042C160.046 235.895 163.591 234.069 167.432 233.911C175.196 233.591 181.239 233.108 184.761 225.515C185.057 224.88 184.36 224.279 183.974 225.002C179.047 234.185 169.981 230.247 161.878 233.433C157.796 235.038 154.761 238.007 150.687 239.247C144.178 241.229 149.03 238.872 144.596 237.364C143.003 236.824 144.124 236.667 142.331 237.231C142.1 237.303 141.811 237.97 142.166 238.048Z" fill="#B08D6A"/>
<path fill-rule="evenodd" clip-rule="evenodd" d="M144.181 246.547C147.202 248.67 150.488 249.259 153.695 250.888C156.768 252.448 158.794 255.048 162.467 255.362C168.072 255.843 174.015 249.704 177.849 246.272C185.738 239.206 191.835 233.854 183.938 223.827C183.486 223.254 182.706 224.63 183.119 225.16C185.67 227.992 186.767 231.516 186.411 235.733C185.387 237.376 184.074 238.622 182.475 239.471C182.024 239.959 181.559 240.546 181.117 241.025C177.771 244.646 173.987 247.627 169.956 250.438C164.474 254.26 161.652 253.168 156.115 249.95C152.487 247.843 148.38 247.636 144.734 245.435C144.303 245.174 143.796 246.277 144.181 246.547Z" fill="#B08D6A"/>
<path fill-rule="evenodd" clip-rule="evenodd" d="M71.5467 270.09C70.9403 272.226 73.003 273.88 74.9067 274.27C77.7016 274.842 80.4094 272.737 82.375 270.943C84.3273 269.161 86.0429 266.494 86.6334 263.881C86.8126 263.092 86.9564 262.142 86.5677 261.38C86.1899 260.635 85.216 260.437 84.8722 259.743C84.3794 258.74 83.1854 260.405 83.5649 261.177C83.9431 261.945 84.7183 261.92 85.1167 262.597C85.9725 264.054 83.4594 267.62 82.5458 268.625C81.3343 269.957 79.6702 271.197 78.029 271.939C76.3519 272.697 72.5306 272.339 72.2679 269.823C72.2071 269.228 71.6184 269.838 71.5467 270.09Z" fill="#B08D6A"/>
<path fill-rule="evenodd" clip-rule="evenodd" d="M78.7572 259.768C76.4958 256.111 75.685 253.161 74.8885 248.949C74.5806 247.324 74.1106 246.486 73.8559 244.691C73.4395 241.725 74.3913 239.256 74.3864 236.385C74.3768 232.86 73.1138 229.143 70.422 226.733C64.8639 221.76 53.6007 214.08 49.7711 224.147C49.5282 224.781 50.1074 225.341 50.5405 224.65C54.6871 218.029 60.5042 222.814 65.0085 225.867C70.9607 229.903 72.2175 233.059 72.0639 240.682C71.9139 247.977 73.8717 254.619 78.194 260.517C78.4523 260.869 78.9376 260.06 78.7572 259.768Z" fill="#B08D6A"/>
<path fill-rule="evenodd" clip-rule="evenodd" d="M53.0719 222.6C60.4823 219.637 69.6574 222.878 74.5091 229.01C79.7794 235.676 91.2459 253.585 81.4021 260.733C80.7147 261.232 80.742 263.148 81.7584 262.431C91.5988 255.498 84.3395 240.897 79.4707 233.157C73.6106 223.837 64.1309 216.958 53.0768 222.025C52.8569 222.127 52.7568 222.729 53.0719 222.6Z" fill="#B08D6A"/>
<path fill-rule="evenodd" clip-rule="evenodd" d="M53.6179 221.208C50.9483 224.331 46.7483 227.657 47.3087 232.273C47.8941 237.105 52.8326 241.101 55.3815 245.022C58.542 249.883 58.4874 256.638 63.2209 260.431C67.751 264.062 72.4018 261.314 77.3145 263.383C78.0248 263.682 78.6675 262.067 77.9521 261.755C75.9974 260.904 74.744 260.68 72.5512 260.551C63.9293 260.051 62.1067 258.071 60.2913 249.311C59.2543 244.304 57.3437 244.558 54.1528 240.282C53.3406 239.192 52.4269 237.483 51.8292 236.34C49.2712 231.464 50.8813 226.22 54.1018 221.876C54.39 221.486 54.0661 220.682 53.6179 221.208Z" fill="#B08D6A"/>
<path fill-rule="evenodd" clip-rule="evenodd" d="M50.1896 232.127C50.2843 232.327 50.3749 232.531 50.4696 232.732C50.5039 232.807 50.5872 232.684 50.5639 232.627C50.4774 232.419 50.391 232.212 50.3032 232.001C50.2682 231.915 50.1588 232.056 50.1896 232.127Z" fill="#B08D6A"/>
<path fill-rule="evenodd" clip-rule="evenodd" d="M49.7886 235.838C43.8414 232.81 37.7244 234.944 34.9826 241.291C32.4222 247.213 37.4995 249.468 42.6139 251.723C49.2195 254.64 48.7703 259.894 52.0391 264.893C53.2522 266.749 54.6369 267.682 56.8001 268.408C65.0924 271.177 71.9285 265.316 79.4235 262.897C80.1042 262.677 80.3779 260.999 79.4357 261.251C74.3468 262.615 69.6022 265.993 64.4693 266.935C56.7111 268.362 55.0748 264.335 52.1122 257.655C50.9564 255.043 51.787 254.467 49.5331 252.44C47.5015 250.612 44.2327 250.671 42.0131 249.152C41.1107 248.664 40.2096 248.18 39.3063 247.694C40.7383 238.098 44.0845 234.527 49.3384 236.983C49.8589 237.162 50.2722 236.086 49.7886 235.838Z" fill="#B08D6A"/>
<path fill-rule="evenodd" clip-rule="evenodd" d="M39.6536 248.536C37.7991 252.31 36.6808 255.714 39.2674 259.695C40.5176 261.619 42.55 262.393 44.2585 263.729C47.6711 266.399 49.1509 270.83 52.4989 273.246C63.1262 280.914 72.4677 265.877 81.3896 263.552C81.9874 263.398 82.1914 261.954 81.3999 262.161C78.9813 262.795 75.9497 263.914 73.8366 265.269C68.6801 268.58 65.0957 274.685 57.8353 273.45C52.7099 272.575 51.649 267.419 48.3455 264.251C47.3808 263.328 46.057 262.776 44.9259 262.024C39.6282 258.499 38.3146 254.727 40.2553 248.773C40.4471 248.192 39.9188 247.993 39.6536 248.536Z" fill="#B08D6A"/>
<path fill-rule="evenodd" clip-rule="evenodd" d="M29.0024 346.242C28.8897 344.103 28.7198 345.153 28.4136 346.451C28.0951 347.809 27.7691 349.436 27.7885 350.832C27.8254 353.659 28.9735 355.286 31.7287 356.003C39.0752 357.904 42.7532 347.803 44.5074 342.713C44.8163 341.822 43.8957 341.44 43.5614 342.341C41.8823 346.864 38.2806 357.599 31.2205 354.014C28.2093 352.483 29.0703 349.609 29.4433 346.836C29.5413 346.102 30.1455 344.748 29.6599 344.053C29.607 343.978 29.5423 343.937 29.4442 343.97C28.55 344.29 28.6423 345.6 28.7244 346.389C28.7466 346.612 29.0098 346.388 29.0024 346.242Z" fill="#B08D6A"/>
<path fill-rule="evenodd" clip-rule="evenodd" d="M32.4239 342.247C32.3716 342.214 32.3175 342.186 32.2593 342.161C32.1276 342.43 31.9947 342.696 31.8627 342.96C34.0724 343.631 36.2942 343.121 38.4807 342.588C40.8734 342.009 41.9378 341.46 43.2646 339.41C43.3467 339.284 43.3189 338.943 43.1054 339.093C42.4627 339.542 42.0094 340.124 41.3271 340.536C40.3724 341.113 39.273 341.294 38.1937 341.565C36.1357 342.081 34.2258 342.295 32.114 342.106C31.7831 342.077 31.5078 342.882 31.8627 342.96C31.9733 342.985 32.0892 342.992 32.2004 343.01C32.5237 343.056 32.6953 342.398 32.4239 342.247Z" fill="#B08D6A"/>
<path fill-rule="evenodd" clip-rule="evenodd" d="M41.3007 342.01C51.5113 336.754 55.0032 325.34 60.8787 316.021C63.5096 311.843 68.8989 302.319 63.8627 297.979C49.611 285.687 34.285 334.327 33.3592 340.77C33.1819 342.007 34.4559 341.73 34.6505 340.742C35.6907 335.48 52.0988 288.092 62.7234 298.55C66.9422 302.701 60.5116 313.941 58.2006 317.616C52.9412 325.978 49.5244 335.478 41.2365 341.329C41.0376 341.47 40.9412 342.194 41.3007 342.01Z" fill="#B08D6A"/>
<path fill-rule="evenodd" clip-rule="evenodd" d="M50.6636 302.761C51.9297 299.269 50.4379 295.136 46.4578 294.015C40.4198 292.314 38.2886 297.986 35.4275 301.677C30.817 307.62 32.3758 307.833 32.3699 316.315C32.3668 321.876 29.4111 326.969 29.5521 332.369C29.668 336.77 32.742 338.277 33.2897 342.666C33.4323 343.813 34.7106 342.505 34.6193 341.725C34.0244 336.564 30.8668 332.93 31.9798 327.082C32.7258 323.166 33.8196 319.821 33.8464 315.77C33.8702 311.79 32.5051 308.178 34.6068 304.618C34.8382 304.225 36.8875 302.012 37.4765 301.49C37.7582 300.983 38.038 300.481 38.3178 299.979C40.1046 295.77 43.9855 296.657 49.9659 302.639C49.8524 303.234 50.4802 303.272 50.6636 302.761Z" fill="#B08D6A"/>
<path fill-rule="evenodd" clip-rule="evenodd" d="M33.8366 299.848C34.0164 299.765 34.1357 299.707 34.2917 299.594C34.5258 299.426 34.9139 298.547 34.4182 298.447C27.7497 297.084 23.0519 308.449 23.268 313.765C23.503 319.518 27.8321 325.488 28.7825 331.302C29.3297 334.652 28.0747 341.86 31.0885 344.03C31.7424 344.5 32.4812 343.07 31.9349 342.664C29.198 340.613 31.1019 334.032 30.8438 331.386C30.6472 329.365 29.8392 327.907 29.1064 326.032C28.1503 323.591 27.0233 320.954 26.3135 318.417C23.4682 308.218 26.7282 305.961 33.6517 298.971C33.4586 299.167 33.3296 300.075 33.8366 299.848Z" fill="#B08D6A"/>
<path fill-rule="evenodd" clip-rule="evenodd" d="M113.65 315.001C110.401 316.68 108.375 318.75 106.883 322.078C106.12 323.777 104.95 326.603 106.661 328.122C108.865 330.078 113.565 327.596 115.599 326.471C119.879 324.105 121.691 320.03 125.192 316.862C125.595 316.491 125.454 315.21 124.807 315.74C123.325 316.949 122.214 318.386 121.068 319.9C118.951 322.699 116.537 324.763 113.214 325.997C112.293 326.338 111.251 326.77 110.287 326.944C107.072 327.519 107.06 325.267 107.806 322.843C108.734 319.829 111.204 317.825 113.765 316.215C114.159 315.967 114.27 314.682 113.65 315.001Z" fill="#B08D6A"/>
<path fill-rule="evenodd" clip-rule="evenodd" d="M115.033 315.037C114.9 316.914 121.15 317.403 122.733 317.364C131.038 317.156 136.531 307.75 143.381 304.44C150.56 300.973 156.56 297.495 159.072 289.643C160.854 284.074 161.563 277.687 154.803 274.85C151.286 273.373 148.858 275.295 145.92 276.801C140.534 279.567 137.278 277.983 132.888 281.898C129.728 284.714 125.932 286.915 123.686 290.562C119.568 297.245 115.312 307.955 113.214 315.648C113.024 316.339 113.844 316.401 114.041 315.79C115.762 310.491 119.011 305.194 121.246 300.034C122.809 296.425 124.092 291.534 127.134 288.697C128.619 287.318 130.833 286.701 132.373 285.297C133.271 284.478 133.779 283.146 134.817 282.46C138.197 280.232 140.334 281.45 144.105 280.431C148.363 279.28 150.849 274.795 155.733 277.201C167.022 282.766 152.347 297.497 145.418 301.096C140.64 303.582 136.323 305.281 132.28 308.772C128.658 311.901 128.334 314.697 124.235 315.412C125.268 315.232 115.921 314.933 115.907 314.714C115.862 313.882 115.072 314.5 115.033 315.037Z" fill="#B08D6A"/>
<path fill-rule="evenodd" clip-rule="evenodd" d="M123.317 318.755C130.424 315.748 137.288 315.899 144.495 313.752C149.108 312.378 151.446 310.821 153.671 306.723C156.142 302.174 166.779 290.333 159.872 285.625C159.338 285.258 158.746 286.402 159.192 286.727C164.58 290.632 157.174 297.458 154.982 301.47C153.795 303.647 152.968 306.258 151.304 308.074C146.844 312.946 140.51 312.441 134.481 313.244C130.736 313.74 126.743 315.858 123.326 317.461C122.832 317.694 122.621 319.05 123.317 318.755Z" fill="#B08D6A"/>
<path fill-rule="evenodd" clip-rule="evenodd" d="M33.7248 356.041C31.9027 358.479 31.8768 359.581 33.7021 362.018C35.8862 364.944 37.1369 367.607 36.7339 371.404C36.5465 373.184 35.9603 378.959 33.8888 379.4C33.3934 379.506 33.1347 380.829 33.7482 380.731C37.4442 380.158 37.4612 374.276 37.8988 371.374C38.2462 369.076 38.1889 367.018 37.3712 364.812C36.3933 362.172 32.9145 359.54 34.3732 356.675C34.6861 356.063 34.2618 355.323 33.7248 356.041Z" fill="#B08D6A"/>
<path fill-rule="evenodd" clip-rule="evenodd" d="M34.9414 357.455C35.362 360.103 35.9829 361.949 37.1393 364.403C37.7301 365.657 38.3491 366.925 38.7712 368.247C39.2644 369.789 39.9625 373.131 38.2122 374.17C38.0466 374.269 37.9144 374.614 38.0296 374.792C38.1331 374.959 38.1661 375.013 38.3283 375.128C38.6044 375.318 38.8486 375.12 39.0171 374.883C40.5954 372.68 40.6525 370.257 39.798 367.756C39.1191 365.772 38.1462 363.941 37.283 362.037C36.5314 360.376 36.2372 358.593 35.49 356.966C35.2944 356.54 34.9022 357.222 34.9414 357.455Z" fill="#B08D6A"/>
<path fill-rule="evenodd" clip-rule="evenodd" d="M108.182 326.662C101.551 328.501 94.6295 329.286 87.8629 330.4C82.8716 331.225 78.9671 335.703 77.051 340.119C76.7075 340.91 77.5478 341.665 78.0321 340.758C79.9645 337.143 82.8611 333.544 87.0231 332.534C89.1861 332.006 91.5748 331.933 93.7876 331.519C98.744 330.595 103.404 329.637 108.172 327.914C108.674 327.729 108.901 326.464 108.182 326.662Z" fill="#B08D6A"/>
<path fill-rule="evenodd" clip-rule="evenodd" d="M105.035 327.867C100.688 330.345 96.1902 332.139 91.3461 333.347C88.3875 334.086 84.7621 335.538 82.5506 337.704C82.3499 337.899 82.3603 338.507 82.7521 338.284C86.2791 336.295 90.1186 335.117 93.9739 333.965C97.9898 332.77 101.651 330.826 105.192 328.621C105.517 328.42 105.518 327.59 105.035 327.867Z" fill="#B08D6A"/>
<path fill-rule="evenodd" clip-rule="evenodd" d="M79.15 273.951C86.0838 272.96 76.9849 285.496 76.4512 288.244C76.0549 290.295 76.4589 293.522 76.8565 295.535C77.5096 298.822 82.1323 302.753 81.0514 306.061C80.7132 307.103 81.7689 307.553 82.1561 306.494C82.8795 304.531 82.6949 303.741 81.873 301.902C80.1851 298.136 78.138 295.04 78.1633 290.649C78.1985 284.58 83.2816 279.632 83.1378 272.992C83.1324 272.76 83.0632 272.435 82.806 272.351C81.484 271.927 80.5708 272.022 79.2847 272.647C78.9395 272.815 78.4593 274.051 79.15 273.951Z" fill="#B08D6A"/>
<path fill-rule="evenodd" clip-rule="evenodd" d="M135.788 248.436C130.44 251.036 126.255 252.609 121.438 256.091C116.162 259.905 116.247 262.668 112.019 267.796C108.95 271.516 104.525 273.433 101.287 276.986C100.382 277.977 92.0198 293.795 90.2027 294.246C89.639 294.389 89.3473 295.609 90.0487 295.722C90.1734 295.745 90.2989 295.766 90.4255 295.785C90.6735 295.829 90.8991 295.531 91.018 295.368C94.1271 291.137 96.4295 286.349 99.5135 282.084C103.314 276.832 107.651 274.973 111.693 270.771C115.538 266.779 117.218 261.513 121.804 257.835C126.218 254.289 131.272 252.676 135.905 249.633C136.272 249.392 136.428 248.125 135.788 248.436Z" fill="#B08D6A"/>
<path fill-rule="evenodd" clip-rule="evenodd" d="M97.9528 185.553C96.7783 186.934 96.5317 187.244 96.3514 189.133C96.1792 190.947 98.1682 194.004 99.1621 195.973C101.295 200.199 102.733 204.196 103.912 208.822C105.528 215.179 108.827 221.666 109.71 228.048C110.846 236.237 106.796 242.02 102.766 248.213C102.394 248.782 102.938 249.52 103.385 248.816C109.148 239.763 113.023 234.389 110.039 223.958C108.198 217.532 106.335 211.173 104.562 204.72C103.116 199.451 95.9176 190.96 98.1841 185.774C98.2561 185.61 98.1156 185.361 97.9528 185.553Z" fill="#B08D6A"/>
<path fill-rule="evenodd" clip-rule="evenodd" d="M133.841 199.871C130.97 202.376 128.284 205.162 126.082 208.281C120.908 215.609 120.966 225.418 114.878 231.62C108.501 238.12 104.338 245.129 100.312 253.557C99.734 254.767 101.051 255.242 101.631 254.075C105.673 245.912 112.323 238.618 117.923 231.804C120.817 228.28 121.466 224.468 122.657 220.29C124.746 212.949 128.882 206.403 134.147 200.761C134.424 200.467 134.355 199.42 133.841 199.871Z" fill="#B08D6A"/>
<path fill-rule="evenodd" clip-rule="evenodd" d="M104.566 247.1C98.6361 261.281 91.519 274.416 87.7909 289.23C85.085 299.986 85.2519 297.991 81.0986 304.395C79.7352 306.501 78.4248 310.549 77.804 312.965C75.4538 322.098 75.5442 331.535 72.1884 340.501C65.6156 358.059 51.9893 371.815 35.5119 379.661C22.2918 385.958 13.8965 404.983 6.0278 416.356C5.64553 416.908 6.11346 418.065 6.70592 417.296C13.1788 408.914 18.7653 399.924 25.1214 391.456C31.3661 383.133 38.9587 382.288 46.5618 376.81C57.515 368.918 67.526 355.838 72.6754 343.43C75.4045 336.857 76.6542 329.719 77.705 322.721C79.0074 314.022 81.2528 308.93 85.8548 301.228C88.4383 296.905 87.301 300.686 89.3796 295.076C91.9392 288.159 91.1967 279.845 94.1975 272.563C97.698 264.074 102.15 256.05 105.077 247.302C105.238 246.819 104.766 246.625 104.566 247.1Z" fill="#B08D6A"/>
<path fill-rule="evenodd" clip-rule="evenodd" d="M132.71 119.373C131.808 127.81 124.391 130.161 121.538 137.018C119.216 142.592 118.721 150.375 116.919 156.381C115.516 161.044 114.068 166.691 112.038 171.183C111.836 171.633 112.302 172.042 112.593 171.545C117.798 162.622 119.142 151.061 122.309 141.296C125.201 132.372 133.869 129.36 133.381 119.238C133.354 118.681 132.757 118.96 132.71 119.373Z" fill="#B08D6A"/>
<path fill-rule="evenodd" clip-rule="evenodd" d="M86.5401 135.421C83.2566 136.204 82.4548 140.366 83.524 143.385C85.1905 148.073 91.5244 150.451 95.0409 153.426C98.3487 156.226 98.0113 158.927 99.4251 162.368C100.562 165.138 101.993 165.574 104.82 166.858C106.531 167.631 112.122 171.36 113.575 168.915C113.681 168.738 113.735 168.115 113.354 168.276C111.877 168.902 102.929 164.375 102.047 163.25C100.283 160.999 100.958 156.926 99.1192 154.282C97.7035 152.244 96.1837 151.312 94.145 149.908C92.1758 148.552 79.3495 140.294 86.5323 136.699C86.9796 136.476 87.3263 135.232 86.5401 135.421Z" fill="#B08D6A"/>
<path fill-rule="evenodd" clip-rule="evenodd" d="M103.827 58.0635C107.157 66.7595 110.278 74.7239 114.193 83.1516C119.681 94.979 112.014 107.427 110.142 119.441C108.585 129.429 108.747 135.956 110.957 145.66C112.983 154.57 111.526 164.401 111.238 173.436C111.206 174.451 112.346 173.916 112.438 173.197C113.343 166.133 113.991 158.357 113.732 151.262C113.527 145.619 110.741 140.596 110.318 135.001C109.855 128.83 111.301 121.909 112.574 115.838C115.142 103.566 120.842 97.5482 116.823 85.3109C115.104 80.0698 111.754 75.598 109.574 70.5375C107.686 66.1616 106.719 61.4139 104.669 57.1412C104.347 56.4651 103.643 57.5853 103.827 58.0635Z" fill="#B08D6A"/>
<path fill-rule="evenodd" clip-rule="evenodd" d="M111.761 170.267C106.662 176.819 109.16 182.51 110.673 189.782C112.221 197.208 110.641 206.65 109.858 214.24C109.422 218.453 109.92 224.108 107.793 227.839C107.308 228.693 108.064 229.802 108.715 228.734C112.533 222.447 111.364 214.533 111.899 207.319C112.285 202.096 113.401 196.919 112.766 191.678C111.87 184.285 107.374 178.976 112.206 170.882C112.416 170.527 112.163 169.751 111.761 170.267Z" fill="#B08D6A"/>
<path fill-rule="evenodd" clip-rule="evenodd" d="M104.632 55.1292C104.554 54.9459 104.454 54.7748 104.334 54.616C104.07 54.2334 103.73 54.7863 103.717 55.0551C103.52 58.7808 106.125 63.0073 107.935 66.0897C112.192 73.3271 116.354 78.7547 117.737 87.3013C120.447 104.028 114.444 119.955 116.612 136.702C118.092 148.146 116.034 157.275 114.46 168.549C113.464 175.678 114.625 180.835 114.673 187.999C114.702 192.247 113.725 196.444 113.899 200.67C114.081 205.093 115.392 209.118 114.585 213.618C113.7 218.536 111.354 222.958 112.447 228.089C112.67 229.132 113.807 228.052 113.756 227.384C113.279 221.046 116.714 215.666 116.787 209.449C116.883 201.393 116.695 192.482 116.105 184.351C115.452 175.304 115.706 167.067 117.562 158.15C119.587 148.442 118.984 144.301 117.969 134.554C116.359 119.057 121.376 104.319 119.297 88.828C118.636 83.9055 117.39 79.1826 115.188 74.7511C112.415 69.1617 107.313 59.8465 104.173 55.7378C104.402 56.0398 104.746 55.3538 104.632 55.1292Z" fill="#B08D6A"/>
<path fill-rule="evenodd" clip-rule="evenodd" d="M111.096 233.586C111.165 233.616 111.225 233.462 111.156 233.432C111.088 233.404 111.029 233.558 111.096 233.586Z" fill="#B08D6A"/>
<path fill-rule="evenodd" clip-rule="evenodd" d="M106.694 225.059C107.541 226.41 101.268 242.008 101.047 242.608C98.1157 250.597 94.9215 258.289 92.4091 266.441C88.5395 279.009 80.9987 291.315 79.0938 304.372C78.9216 305.553 80.1645 305.3 80.3327 304.342C82.6007 291.556 89.8545 279.294 93.5942 266.771C95.8885 259.081 98.6866 251.829 101.556 244.365C103.97 238.075 104.981 231.422 107.448 225.197C107.518 225.024 107.521 224.785 107.34 224.682C107.236 224.623 107.134 224.564 107.032 224.505C106.79 224.372 106.591 224.895 106.694 225.059Z" fill="#B08D6A"/>
<path fill-rule="evenodd" clip-rule="evenodd" d="M79.3445 301.131C79.3865 301.056 79.4253 300.983 79.4672 300.908C79.6675 300.539 79.4324 299.693 78.9953 300.256C75.4481 304.8 72.1698 310.623 70.7824 316.258C69.1443 322.922 70.662 329.431 68.9574 336.378C65.8619 348.987 56.5348 360.849 45.489 367.376C39.4307 370.956 32.6071 373.214 26.7258 377.119C16.7277 383.757 8.04952 395.462 3.53353 406.527C0.799502 413.225 0.370681 420.356 10.4964 416.367C10.9806 416.175 11.2411 414.961 10.5058 415.129C-9.36041 419.721 21.6434 383.175 24.7223 380.847C34.1267 373.727 46.0083 370.799 54.8152 362.673C62.6646 355.432 68.0813 345.461 70.8025 335.239C71.9369 330.983 71.6297 327.57 71.7812 323.211C72.0744 314.692 75.7624 308.503 78.7505 300.744C78.565 301.222 79.0434 301.69 79.3445 301.131Z" fill="#B08D6A"/>
<path fill-rule="evenodd" clip-rule="evenodd" d="M98.9142 49.3765C99.0026 49.3795 99.0036 49.9601 99.2187 50.6334C99.4287 51.3126 99.9265 52.0099 100.433 52.4365C101.44 53.3217 102.41 53.962 102.29 54.1649C102.201 54.333 101.114 53.9706 99.9627 52.9456C99.3958 52.4565 98.8754 51.5307 98.7907 50.7355C98.6887 49.9436 98.8669 49.3698 98.9142 49.3765Z" fill="#B08D6A"/>
<path fill-rule="evenodd" clip-rule="evenodd" d="M103.124 47.4054C103.21 47.4151 103.167 48.0802 103.291 48.9154C103.4 49.7526 103.718 50.733 104.082 51.4293C104.788 52.8604 105.585 53.9161 105.41 54.0692C105.271 54.2058 104.233 53.3259 103.46 51.7347C103.073 50.9734 102.827 49.8489 102.852 48.9496C102.859 48.0481 103.072 47.3968 103.124 47.4054Z" fill="#B08D6A"/>
<path fill-rule="evenodd" clip-rule="evenodd" d="M101.7 50.3276C101.796 50.3735 101.805 51.8753 102.301 52.6403C102.699 53.4488 103.077 54.13 102.907 54.2719C102.752 54.4019 102.13 53.8924 101.67 52.9289C101.441 52.4657 101.326 51.7661 101.398 51.2265C101.458 50.6822 101.647 50.3158 101.7 50.3276Z" fill="#B08D6A"/>
<path fill-rule="evenodd" clip-rule="evenodd" d="M135.026 106.573C135.11 106.603 134.63 108.039 134.193 109.957C133.735 111.871 133.383 114.276 133.339 116.127C133.175 119.909 133.779 122.893 133.538 122.939C133.366 122.996 132.471 120.058 132.646 116.134C132.699 114.228 133.166 111.769 133.761 109.859C134.048 108.902 134.356 108.076 134.592 107.49C134.837 106.907 134.996 106.563 135.026 106.573Z" fill="#B08D6A"/>
<path fill-rule="evenodd" clip-rule="evenodd" d="M137.828 106.47C137.909 106.496 137.679 107.381 137.496 108.549C137.303 109.717 137.189 111.165 137.216 112.273C137.235 114.536 137.528 116.334 137.306 116.385C137.115 116.437 136.53 114.68 136.524 112.296C136.403 109.937 137.67 106.393 137.828 106.47Z" fill="#B08D6A"/>
<path fill-rule="evenodd" clip-rule="evenodd" d="M149.166 188.483C149.236 188.554 148.775 188.928 148.623 189.571C148.449 190.204 148.698 191.005 149.041 191.518C149.696 192.62 150.635 193.133 150.555 193.34C150.521 193.547 149.247 193.227 148.451 191.874C148.048 191.264 147.83 190.178 148.207 189.425C148.554 188.671 149.161 188.449 149.166 188.483Z" fill="#B08D6A"/>
<path fill-rule="evenodd" clip-rule="evenodd" d="M148.218 187.583C148.258 187.668 147.632 187.858 147.29 188.466C146.929 189.053 147.126 189.964 147.453 190.515C148.105 191.686 149.23 192.096 149.166 192.304C149.185 192.518 147.705 192.367 146.849 190.849C146.448 190.166 146.304 188.94 146.925 188.217C147.523 187.522 148.23 187.548 148.218 187.583Z" fill="#B08D6A"/>
<path fill-rule="evenodd" clip-rule="evenodd" d="M144.731 185.364C144.824 185.382 144.652 186.272 144.759 187.417C144.839 188.561 145.26 189.917 145.776 190.859C146.781 192.809 148.012 194.134 147.835 194.302C147.719 194.441 146.252 193.307 145.165 191.185C144.619 190.169 144.26 188.652 144.317 187.439C144.346 186.217 144.69 185.349 144.731 185.364Z" fill="#B08D6A"/>
<path fill-rule="evenodd" clip-rule="evenodd" d="M142.561 187.452C142.642 187.496 142.367 187.987 142.339 188.65C142.291 189.314 142.586 190.073 142.975 190.548C143.723 191.554 144.666 192.088 144.569 192.295C144.517 192.479 143.331 192.19 142.418 190.957C141.959 190.387 141.689 189.353 141.899 188.592C142.087 187.825 142.531 187.421 142.561 187.452Z" fill="#B08D6A"/>
<path fill-rule="evenodd" clip-rule="evenodd" d="M139.981 187.492C140.073 187.523 139.812 188.244 139.849 189.19C139.864 190.138 140.28 191.231 140.801 191.941C141.822 193.425 143.058 194.312 142.919 194.512C142.838 194.673 141.386 194.017 140.235 192.333C139.658 191.536 139.273 190.219 139.408 189.184C139.51 188.14 139.948 187.47 139.981 187.492Z" fill="#B08D6A"/>
<path fill-rule="evenodd" clip-rule="evenodd" d="M138.295 189.749C138.38 189.785 138.11 190.365 138.086 191.141C138.04 191.916 138.316 192.826 138.696 193.439C139.425 194.716 140.345 195.562 140.195 195.744C140.092 195.902 138.934 195.262 138.094 193.779C137.672 193.079 137.445 191.945 137.646 191.09C137.824 190.229 138.261 189.722 138.295 189.749Z" fill="#B08D6A"/>
<path fill-rule="evenodd" clip-rule="evenodd" d="M137.273 192.504C137.421 192.458 138.172 194.103 138.563 195.148C138.959 196.217 139.07 197.134 138.872 197.204C138.665 197.275 138.291 196.464 137.909 195.38C137.537 194.321 137.155 192.539 137.273 192.504Z" fill="#B08D6A"/>
<path fill-rule="evenodd" clip-rule="evenodd" d="M137.688 194.382C137.799 194.426 137.699 196.072 137.916 197.062C138.068 198.073 138.136 198.92 137.927 198.979C137.725 199.039 137.376 198.257 137.231 197.149C137.023 196.051 137.534 194.322 137.688 194.382Z" fill="#B08D6A"/>
<path fill-rule="evenodd" clip-rule="evenodd" d="M77.3356 121.175C77.3496 121.023 79.9659 121.097 81.5844 121.225C83.2368 121.353 84.5246 121.671 84.5024 121.88C84.4818 122.098 83.1917 122.062 81.5325 121.912C79.9138 121.767 77.3239 121.297 77.3356 121.175Z" fill="#B08D6A"/>
<path fill-rule="evenodd" clip-rule="evenodd" d="M77.3573 122.933C77.4163 122.869 77.9658 123.324 78.7614 123.746C79.5524 124.179 80.604 124.5 81.4234 124.502C83.0974 124.56 84.4089 123.975 84.5087 124.202C84.615 124.344 83.3599 125.259 81.4021 125.192C80.4592 125.183 79.2916 124.705 78.5312 124.124C77.7563 123.552 77.3215 122.969 77.3573 122.933Z" fill="#B08D6A"/>
<path fill-rule="evenodd" clip-rule="evenodd" d="M78.1913 127.137C78.2372 126.99 79.8235 127.307 80.7857 127.577C81.7669 127.853 82.4767 128.278 82.4135 128.478C82.3466 128.688 81.5642 128.535 80.5817 128.238C79.6279 127.947 78.1521 127.255 78.1913 127.137Z" fill="#B08D6A"/>
<path fill-rule="evenodd" clip-rule="evenodd" d="M78.7365 128.442C78.8086 128.396 79.0888 128.765 79.5465 129.1C79.995 129.444 80.6188 129.704 81.1183 129.745C82.1218 129.88 82.9666 129.571 83.0685 129.78C83.1841 129.931 82.3424 130.603 81.0204 130.429C80.3886 130.364 79.648 129.918 79.245 129.421C78.8253 128.933 78.69 128.465 78.7365 128.442Z" fill="#B08D6A"/>
<path fill-rule="evenodd" clip-rule="evenodd" d="M84.5929 7.44028C84.676 7.46218 84.3109 8.44261 84.144 10.1367C83.9661 11.8131 83.9811 14.2219 84.7539 16.7915C86.1703 22.0186 90.283 27.4123 93.2299 31.5718C96.3217 35.7817 98.6936 40.0289 99.2761 43.4519C99.61 45.1405 99.5879 46.5343 99.5625 47.4783C99.473 48.4244 99.3934 48.9394 99.343 48.934C99.1751 48.9319 99.4969 46.8758 98.787 43.6365C98.1341 40.3684 95.8195 36.2982 92.7265 32.0536C89.7985 27.8994 85.6816 22.3589 84.3397 16.9548C83.6027 14.3001 83.6671 11.8217 83.9208 10.1219C84.0476 9.26277 84.2107 8.59297 84.3641 8.14062C84.4987 7.68296 84.5785 7.43696 84.5929 7.44028Z" fill="#B08D6A"/>
<path fill-rule="evenodd" clip-rule="evenodd" d="M82.4826 7.40246C82.5341 7.41883 82.2128 8.37025 81.928 9.99365C81.645 11.6126 81.4391 13.9259 81.7789 16.5031C82.102 19.0759 82.9807 21.8825 84.5146 24.3108C85.9731 26.7864 87.7038 29.0601 89.1697 31.0668C92.223 35.1049 94.5712 39.1891 95.19 42.5009C95.5022 44.1408 95.5423 45.4869 95.4705 46.4034C95.3792 47.3224 95.3027 47.8176 95.25 47.8113C95.0744 47.8086 95.4146 45.8155 94.7086 42.686C94.0015 39.5402 91.733 35.6239 88.6689 31.5549C87.2125 29.5444 85.4806 27.2359 84.023 24.6894C82.4761 22.1792 81.6102 19.2356 81.346 16.5979C81.0581 13.9476 81.3474 11.5928 81.7073 9.9667C82.0709 8.3316 82.4826 7.40246 82.4826 7.40246Z" fill="#B08D6A"/>
<path fill-rule="evenodd" clip-rule="evenodd" d="M89.0893 38.0029C89.2238 37.9276 90.8658 40.6756 91.8157 42.423C92.789 44.2092 93.3662 45.7206 93.1762 45.8147C92.9812 45.9147 92.1692 44.5602 91.2115 42.7621C90.2829 41.0079 88.9822 38.0633 89.0893 38.0029Z" fill="#B08D6A"/>
<path fill-rule="evenodd" clip-rule="evenodd" d="M105.011 47.8807C104.909 47.8405 105.679 46.205 106.095 43.9171C106.553 41.6385 106.488 38.7524 106.029 36.6101C105.156 32.2158 103.592 28.9333 103.849 28.8304C103.94 28.7896 104.394 29.553 104.976 30.8952C105.549 32.2358 106.283 34.1564 106.701 36.4419C107.171 38.6522 107.138 41.6787 106.532 43.9899C106.246 45.1514 105.87 46.1325 105.568 46.8179C105.244 47.4939 105.039 47.8952 105.011 47.8807Z" fill="#B08D6A"/>
<path fill-rule="evenodd" clip-rule="evenodd" d="M110.332 44.0717C110.35 44.0585 110.575 44.364 110.602 44.9844C110.608 45.2901 110.529 45.6766 110.299 46.0305C110.182 46.2135 110.052 46.3724 109.866 46.5447C109.63 46.7617 109.364 46.9349 109.068 47.1242C108.857 47.3331 108.92 47.0511 108.909 46.8961L108.904 46.3614L108.887 45.5237C108.859 45.0265 108.831 44.5163 108.804 44.0115C108.725 43.0002 108.611 42 108.501 41.1334C108.02 37.5948 107.807 34.7336 108.04 34.7129C108.235 34.6947 108.714 37.4229 109.184 41.0201C109.29 41.8956 109.381 42.9148 109.414 43.952C109.432 44.4683 109.435 44.9921 109.421 45.5029C109.423 46.1237 109.351 46.2777 109.399 46.3693C109.47 46.3386 109.547 46.2943 109.626 46.2379C109.754 46.1413 109.913 45.9816 110.017 45.8485C110.246 45.5654 110.348 45.2494 110.38 44.9782C110.432 44.4279 110.285 44.0812 110.332 44.0717Z" fill="#B08D6A"/>
<path fill-rule="evenodd" clip-rule="evenodd" d="M94.4492 7.72729C94.5458 7.72314 94.5726 9.1137 94.9627 10.8629C95.3207 12.6196 96.0759 14.7044 96.8255 16.2198C98.3237 19.3345 99.8851 21.6345 99.6871 21.7728C99.541 21.888 97.7555 19.7759 96.2148 16.543C95.4502 14.9818 94.7625 12.7803 94.5308 10.9554C94.4003 10.0434 94.3723 9.23249 94.3736 8.65282C94.3924 8.07527 94.4176 7.72718 94.4492 7.72729Z" fill="#B08D6A"/>
<path fill-rule="evenodd" clip-rule="evenodd" d="M96.8724 9.66994C97.0128 9.56815 98.7233 12.1155 99.2225 14.0003C99.8048 15.8883 99.6068 17.4744 99.4146 17.4674C99.1788 17.4763 99.0957 16.0066 98.5615 14.2048C98.124 12.4304 96.7879 9.72668 96.8724 9.66994Z" fill="#B08D6A"/>
<path fill-rule="evenodd" clip-rule="evenodd" d="M137.396 103.414C137.359 103.414 137.332 102.872 137.314 101.979C137.293 101.07 137.267 99.828 137.238 98.4257C137.175 95.5983 137.031 92.1041 136.852 89.4336C136.525 83.9739 136.091 79.6587 136.31 79.6269C136.515 79.5972 137.225 83.8148 137.541 89.3384C137.708 92.0303 137.752 95.554 137.681 98.3988C137.647 99.8217 137.59 101.079 137.538 101.975C137.479 102.873 137.429 103.417 137.396 103.414Z" fill="#B08D6A"/>
<path fill-rule="evenodd" clip-rule="evenodd" d="M139.717 83.0576C139.755 83.0551 139.807 83.4962 139.861 84.2312C139.907 84.9811 139.967 85.9979 140.035 87.1472C140.152 89.4699 140.237 92.346 140.229 94.558C140.239 99.0721 139.761 102.634 139.556 102.614C139.331 102.596 139.524 99.1167 139.538 94.5945C139.554 92.4015 139.575 89.5305 139.595 87.176C139.612 86.0201 139.627 84.995 139.639 84.2404C139.66 83.5058 139.685 83.0574 139.717 83.0576Z" fill="#B08D6A"/>
<path fill-rule="evenodd" clip-rule="evenodd" d="M147.466 67.1734C147.504 67.1632 147.657 67.6838 147.887 68.5533C148.097 69.4275 148.346 70.6608 148.497 72.0803C148.835 74.9202 148.622 78.5097 147.933 81.1498C147.297 83.865 146.251 86.1494 145.39 87.7124C144.522 89.2803 143.84 90.1431 143.766 90.099C143.502 89.9638 145.934 86.3695 147.248 81.0356C147.937 78.4641 148.256 74.9668 148.059 72.1438C147.979 70.7306 147.804 69.4914 147.671 68.6046C147.518 67.7201 147.436 67.1819 147.466 67.1734Z" fill="#B08D6A"/>
<path fill-rule="evenodd" clip-rule="evenodd" d="M151.177 69.0092C151.214 69.0013 151.317 69.3977 151.463 70.0581C151.592 70.7241 151.744 71.6609 151.825 72.7341C152.012 74.8779 151.838 77.5737 151.349 79.5754C150.431 83.7177 148.353 86.4455 148.228 86.335C147.993 86.2098 149.746 83.4716 150.668 79.4577C151.155 77.516 151.433 74.9006 151.384 72.7728C151.368 70.6429 151.098 69.0209 151.177 69.0092Z" fill="#B08D6A"/>
<path fill-rule="evenodd" clip-rule="evenodd" d="M144.956 100.06C144.956 100.06 145.299 99.0308 146.144 97.4481C146.984 95.8602 148.362 93.7633 150.088 91.5117C153.516 87.0232 157.942 81.5325 160.159 76.6842C161.295 74.2218 162.137 71.7699 162.327 69.4685C162.527 67.1686 162.222 65.0805 161.708 63.419C160.657 60.0734 159.193 58.3706 159.341 58.2825C159.375 58.2573 159.75 58.6446 160.302 59.4517C160.857 60.2575 161.588 61.4963 162.171 63.1839C162.769 64.8573 163.145 67.0094 162.986 69.4003C162.831 71.8061 161.994 74.3602 160.828 76.879C158.561 81.8591 154.007 87.3245 150.465 91.7419C148.684 93.9514 147.25 95.9986 146.345 97.5406C145.888 98.3135 145.551 98.9468 145.323 99.3865C145.101 99.8282 144.956 100.06 144.956 100.06Z" fill="#B08D6A"/>
<path fill-rule="evenodd" clip-rule="evenodd" d="M155.838 57.8372C155.908 57.8217 156.308 59.1453 156.705 60.9158C157.111 62.6847 157.49 64.9041 157.653 66.6235C158.026 70.1431 157.62 72.9445 157.423 72.9247C157.192 72.9093 157.31 70.203 156.967 66.7197C156.819 65.02 156.546 62.8056 156.274 61.0138C156.01 59.2204 155.772 57.8513 155.838 57.8372Z" fill="#B08D6A"/>
<path fill-rule="evenodd" clip-rule="evenodd" d="M164.386 71.907C164.57 71.9898 162.011 77.3006 159.903 80.306C157.828 83.4258 155.754 85.5596 155.605 85.431C155.424 85.2838 157.227 83.0359 159.31 79.9483C160.333 78.4509 161.628 76.4617 162.618 74.8129C163.103 73.9967 163.535 73.2712 163.854 72.7328C164.161 72.2051 164.359 71.8957 164.386 71.907Z" fill="#B08D6A"/>
<path fill-rule="evenodd" clip-rule="evenodd" d="M129.004 62.0984C129.087 62.0832 129.298 62.979 129.68 64.11C130.046 65.2452 130.589 66.6129 131.06 67.6366C131.997 69.7346 132.814 71.3785 132.626 71.4921C132.45 71.6027 131.387 70.1057 130.433 67.9293C129.409 65.8316 128.818 62.115 129.004 62.0984Z" fill="#B08D6A"/>
<path fill-rule="evenodd" clip-rule="evenodd" d="M130.612 60.3879C130.749 60.3452 131.738 62.6707 132.24 64.174C132.757 65.7078 132.831 67.018 132.625 67.0554C132.407 67.098 132.075 65.9138 131.582 64.3903C131.11 62.9047 130.485 60.4267 130.612 60.3879Z" fill="#B08D6A"/>
<path fill-rule="evenodd" clip-rule="evenodd" d="M100.659 79.2341C100.679 79.2352 100.694 79.4499 100.709 79.8411C100.715 80.2417 100.724 80.8075 100.734 81.5107C100.725 82.9254 100.706 84.9247 100.204 87.1451C99.4591 91.8186 94.6351 95.6991 93.8504 99.789C93.0503 103.96 94.3805 107.837 94.3504 110.673C94.3955 112.095 94.2685 113.249 94.0747 114.017C93.8831 114.785 93.7045 115.185 93.6653 115.171C93.5184 115.138 94.0656 113.512 93.8422 110.765C93.7514 109.395 93.463 107.767 93.1893 105.917C92.9323 104.071 92.6942 101.948 93.1554 99.7234C94.0648 95.2244 98.9403 91.5661 99.7654 87.0791C100.329 84.9243 100.427 82.9318 100.51 81.5166C100.549 80.8103 100.58 80.2429 100.6 79.8428C100.623 79.4491 100.644 79.2363 100.659 79.2341Z" fill="#B08D6A"/>
<path fill-rule="evenodd" clip-rule="evenodd" d="M104.383 88.3578C104.417 88.3774 104.181 88.882 103.768 89.7022C103.364 90.5294 102.797 91.6755 102.202 93.0022C100.991 95.6417 99.7043 98.9954 98.8812 101.616C97.1519 106.954 96.2389 111.33 96.0027 111.284C95.9033 111.263 96.0202 110.17 96.3724 108.393C96.7258 106.619 97.3221 104.162 98.2082 101.454C99.0458 98.8054 100.448 95.442 101.791 92.8319C102.455 91.5236 103.095 90.3977 103.569 89.603C104.052 88.812 104.358 88.3421 104.383 88.3578Z" fill="#B08D6A"/>
<path fill-rule="evenodd" clip-rule="evenodd" d="M76.6683 79.7257C76.6683 79.7257 77.3224 80.2647 78.1644 81.3785C79.002 82.4905 80.0048 84.2127 80.5742 86.3695C81.169 88.516 81.3118 91.0473 81.0323 93.4853C80.7771 95.9282 80.2165 98.2821 79.7566 100.309C78.7952 104.43 78.1401 108.219 78.8329 110.847C79.4733 113.474 80.6919 114.765 80.5577 114.846C80.5206 114.877 80.2091 114.596 79.7537 113.98C79.3133 113.359 78.7306 112.381 78.3528 111.035C77.486 108.313 78.0847 104.377 79.0653 100.235C80.0443 96.2158 81.3035 90.8038 80.1567 86.5156C79.6689 84.3904 78.7583 82.6623 77.9895 81.5185C77.2181 80.3685 76.6343 79.7563 76.6683 79.7257Z" fill="#B08D6A"/>
<path fill-rule="evenodd" clip-rule="evenodd" d="M84.8237 113.826C84.7873 113.837 84.6186 113.424 84.3647 112.723C84.1289 112.018 83.8402 111.018 83.6288 109.853C83.1848 107.53 83.2533 104.515 83.897 102.333C84.473 100.081 85.5091 98.2514 86.3444 97.031C87.1838 95.8071 87.8474 95.1764 87.9151 95.2286C88.1728 95.3872 85.7783 98.1194 84.575 102.471C83.9386 104.566 83.7617 107.456 84.0624 109.769C84.3318 112.087 84.9081 113.801 84.8237 113.826Z" fill="#B08D6A"/>
<path fill-rule="evenodd" clip-rule="evenodd" d="M153.314 184.234C153.314 184.234 152.829 183.512 152.984 182.148C153.076 181.478 153.437 180.69 154.116 180.066C154.778 179.432 155.723 178.981 156.714 178.654C160.662 177.346 165.104 174.679 168.227 172.298C174.589 167.387 179.046 162.735 179.253 162.959C179.326 163.035 178.273 164.198 176.438 166.026C174.595 167.843 171.977 170.347 168.702 172.804C165.535 175.216 160.952 177.853 156.888 179.062C154.869 179.555 153.396 180.863 153.207 182.176C152.975 183.447 153.384 184.231 153.314 184.234Z" fill="#B08D6A"/>
<path fill-rule="evenodd" clip-rule="evenodd" d="M174.348 170.963C174.508 171.096 170.644 175.095 167.609 176.817C164.605 178.692 161.86 179.398 161.809 179.221C161.721 178.991 164.262 178.059 167.223 176.243C168.672 175.381 170.488 174.107 171.884 172.977C173.29 171.854 174.296 170.909 174.348 170.963Z" fill="#B08D6A"/>
<path fill-rule="evenodd" clip-rule="evenodd" d="M156.089 193.622C156.036 193.605 156.371 192.387 157.165 190.928C157.944 189.465 159.312 187.841 160.651 186.96C163.379 185.077 166.063 184.943 166.059 185.089C166.14 185.361 163.647 185.765 161.071 187.511C159.801 188.329 158.43 189.783 157.55 191.146C156.658 192.495 156.162 193.655 156.089 193.622Z" fill="#B08D6A"/>
<path fill-rule="evenodd" clip-rule="evenodd" d="M156.993 194.732C156.887 194.622 158.72 192.521 159.916 191.271C161.135 189.992 162.258 189.133 162.406 189.283C162.563 189.436 161.66 190.475 160.418 191.745C159.206 192.984 157.082 194.817 156.993 194.732Z" fill="#B08D6A"/>
<path fill-rule="evenodd" clip-rule="evenodd" d="M191.144 183.294C191.144 183.294 191.059 184.11 190.53 185.354C190.011 186.588 188.963 188.225 187.306 189.606C185.67 191.004 183.515 192.147 181.271 192.904C179.015 193.66 176.695 193.995 174.738 194.372C172.735 194.745 170.873 195.216 169.299 195.923C167.729 196.626 166.487 197.572 165.549 198.473C163.691 200.307 162.811 201.709 162.699 201.622C162.656 201.594 162.83 201.232 163.223 200.616C163.618 200.002 164.228 199.125 165.14 198.153C166.055 197.188 167.317 196.144 168.946 195.371C170.57 194.593 172.495 194.082 174.533 193.705C176.517 193.329 178.809 193.028 181.019 192.338C183.228 191.651 185.359 190.591 186.998 189.29C188.652 188 189.741 186.456 190.323 185.269C190.914 184.078 191.095 183.278 191.144 183.294Z" fill="#B08D6A"/>
<path fill-rule="evenodd" clip-rule="evenodd" d="M76.6188 182.296C76.6131 182.21 77.4351 182.118 78.4598 181.845C79.4911 181.588 80.6934 181.099 81.5446 180.587C83.2899 179.573 84.5571 178.511 84.7166 178.683C84.8528 178.817 83.7812 180.104 81.8951 181.183C80.9867 181.719 79.6496 182.145 78.5514 182.279C77.4563 182.425 76.6179 182.349 76.6188 182.296Z" fill="#B08D6A"/>
<path fill-rule="evenodd" clip-rule="evenodd" d="M80.3604 184.198C80.3334 184.118 81.1079 183.8 82.062 183.281C83.0223 182.773 84.1524 182.062 84.9989 181.479C86.7301 180.298 88.1724 179.415 88.3029 179.594C88.4259 179.759 87.1844 180.848 85.3956 182.047C83.6805 183.308 80.4044 184.388 80.3604 184.198Z" fill="#B08D6A"/>
<path fill-rule="evenodd" clip-rule="evenodd" d="M82.7941 184.976C82.7929 184.892 83.475 184.844 84.3297 184.636C85.1878 184.446 86.2014 184.087 86.955 183.75C88.4993 183.076 89.7316 182.479 89.8497 182.668C89.9559 182.842 88.8768 183.683 87.2327 184.381C86.4383 184.727 85.3217 185.011 84.4019 185.073C83.4854 185.151 82.79 185.03 82.7941 184.976Z" fill="#B08D6A"/>
<path fill-rule="evenodd" clip-rule="evenodd" d="M83.4187 188.38C83.4067 188.296 84.0955 188.151 84.9353 187.816C85.7785 187.498 86.7597 186.977 87.4656 186.509C88.9156 185.577 90.0079 184.704 90.1644 184.865C90.3109 185.006 89.4024 186.106 87.8413 187.089C87.0909 187.575 85.9946 188.037 85.0706 188.234C84.147 188.454 83.4242 188.43 83.4187 188.38Z" fill="#B08D6A"/>
<path fill-rule="evenodd" clip-rule="evenodd" d="M76.1273 175.686C76.1025 175.739 75.3695 175.344 74.0592 174.998C72.7547 174.626 70.8635 174.476 68.7082 174.421C66.5686 174.323 64.0741 174.328 61.7796 173.294C59.5801 172.147 57.8358 170.582 56.1523 169.412C52.7939 166.921 49.8176 164.642 47.6979 162.967C45.576 161.291 44.3106 160.218 44.3702 160.132C44.4365 160.044 45.7806 160.955 47.9538 162.516C50.1196 164.113 53.1116 166.316 56.495 168.805C58.1622 169.976 59.9717 171.605 61.9944 172.714C64.0612 173.732 66.5586 173.82 68.6922 173.977C70.8543 174.103 72.793 174.328 74.1104 174.782C75.4293 175.208 76.1273 175.686 76.1273 175.686Z" fill="#B08D6A"/>
<path fill-rule="evenodd" clip-rule="evenodd" d="M84.9241 173.163C84.9209 173.183 84.713 173.169 84.3313 173.13C83.9515 173.086 83.4035 173.003 82.7249 172.855C81.3731 172.558 79.5003 171.976 77.5757 170.884C75.6467 169.808 73.693 168.24 72.0516 166.431C70.3978 164.633 68.9929 162.694 67.6513 161.138C64.9859 157.883 61.8659 155.689 59.3295 154.772C56.8048 153.815 55.0809 153.876 55.0961 153.726C55.0952 153.679 55.5098 153.621 56.2672 153.657C57.0264 153.689 58.1318 153.833 59.4414 154.268C62.0846 155.069 65.4004 157.292 68.1213 160.629C69.4877 162.214 70.8741 164.171 72.4616 165.97C74.0398 167.779 75.902 169.364 77.763 170.482C79.6173 171.616 81.4433 172.266 82.7663 172.638C83.4339 172.818 83.9726 172.942 84.3472 173.023C84.7215 173.099 84.9252 173.148 84.9241 173.163Z" fill="#B08D6A"/>
<path fill-rule="evenodd" clip-rule="evenodd" d="M76.5912 165.564C76.4852 165.609 75.8246 163.657 74.2964 161.497C72.8165 159.311 70.3655 157.1 68.1879 155.889C63.7917 153.306 59.68 152.604 59.7631 152.325C59.78 152.235 60.7893 152.325 62.4008 152.744C64.005 153.169 66.2389 153.908 68.5027 155.272C70.7495 156.526 73.2467 158.909 74.6528 161.233C76.1117 163.532 76.5912 165.564 76.5912 165.564Z" fill="#B08D6A"/>
<path fill-rule="evenodd" clip-rule="evenodd" d="M76.0598 176.66C76.0676 176.679 75.8717 176.781 75.5105 176.956C75.1411 177.138 74.6174 177.393 73.968 177.708C72.6574 178.34 70.8486 179.267 68.7347 180.211C66.625 181.15 64.1621 182.071 61.611 182.493C59.0702 182.94 56.4686 182.956 54.2727 182.515C52.0228 182.095 50.0165 181.103 48.4455 179.955C46.8595 178.81 45.6219 177.596 44.5356 176.661C42.3935 174.744 40.7871 173.987 40.8397 173.874C40.8598 173.833 41.2842 173.959 41.9947 174.326C42.706 174.691 43.6917 175.32 44.8152 176.222C47.041 177.971 49.9082 180.997 54.3262 181.817C58.5591 182.789 64.3186 181.699 68.5218 179.82C70.6429 178.904 72.515 178.096 73.8659 177.512C75.2151 176.937 76.0598 176.66 76.0598 176.66Z" fill="#B08D6A"/>
<path fill-rule="evenodd" clip-rule="evenodd" d="M69.6712 180.644C69.737 180.783 67.8468 181.715 66.6318 182.227C65.39 182.746 64.3371 182.955 64.2697 182.758C64.2026 182.547 65.13 182.086 66.3687 181.586C67.5714 181.103 69.6182 180.532 69.6712 180.644Z" fill="#B08D6A"/>
<path fill-rule="evenodd" clip-rule="evenodd" d="M144.396 236.154C144.396 236.154 144.969 235.425 146.112 234.413C147.25 233.4 148.989 232.14 151.106 230.968C153.216 229.783 155.673 228.665 158.041 227.473C160.407 226.25 162.741 225.046 164.768 223.997C168.908 221.849 172.739 220.115 175.603 219.131C177.032 218.63 178.208 218.299 179.026 218.097C179.847 217.907 180.304 217.83 180.319 217.882C180.352 218.004 178.61 218.492 175.849 219.587C173.08 220.664 169.328 222.424 165.164 224.573C163.131 225.611 160.787 226.821 158.38 227.99C155.967 229.156 153.486 230.219 151.355 231.337C149.213 232.44 147.449 233.623 146.265 234.575C145.672 235.051 145.205 235.448 144.897 235.733C144.584 236.015 144.407 236.165 144.396 236.154Z" fill="#B08D6A"/>
<path fill-rule="evenodd" clip-rule="evenodd" d="M147.75 236.215C147.596 236.074 150.753 233.167 153.222 232.08C155.665 230.874 157.816 230.558 157.858 230.74C157.925 230.976 155.931 231.54 153.544 232.693C152.377 233.243 150.907 234.073 149.768 234.844C148.622 235.604 147.796 236.269 147.75 236.215Z" fill="#B08D6A"/>
<path fill-rule="evenodd" clip-rule="evenodd" d="M145.49 238.931C145.462 238.808 148.039 237.788 149.611 237.073C151.226 236.373 152.593 235.991 152.675 236.189C152.758 236.387 151.536 237.015 149.888 237.706C148.288 238.412 145.527 239.081 145.49 238.931Z" fill="#B08D6A"/>
<path fill-rule="evenodd" clip-rule="evenodd" d="M145.57 243.73C145.57 243.73 146.48 243.261 148.105 242.79C149.726 242.303 152.057 241.908 154.671 241.43C157.269 240.947 160.206 240.217 162.646 238.68C163.818 237.876 164.801 236.768 165.956 235.891C167.13 234.974 168.485 234.531 169.686 234.113C174.743 232.633 179.43 232.699 182.631 231.849C185.861 231.111 187.6 229.968 187.668 230.094C187.696 230.14 187.286 230.432 186.491 230.904C185.672 231.329 184.444 231.897 182.828 232.333C179.622 233.315 174.915 233.333 169.988 234.739C168.82 235.152 167.509 235.547 166.433 236.368C165.321 237.174 164.326 238.28 163.054 239.145C160.446 240.762 157.437 241.426 154.795 241.857C152.141 242.273 149.811 242.59 148.175 243.004C147.358 243.198 146.705 243.382 146.263 243.531C145.82 243.674 145.574 243.745 145.57 243.73Z" fill="#B08D6A"/>
<path fill-rule="evenodd" clip-rule="evenodd" d="M147.844 244.399C147.862 244.249 150.625 245.393 154.36 245.171C158.122 245.006 162.28 242.689 165.088 240.579C168 238.434 170.399 236.218 172.196 234.692C173.978 233.153 175.131 232.272 175.199 232.351C175.272 232.434 174.264 233.426 172.58 235.039C170.885 236.636 168.534 238.901 165.553 241.096C162.7 243.232 158.343 245.565 154.417 245.612C152.491 245.677 150.818 245.348 149.663 245.028C148.505 244.702 147.844 244.399 147.844 244.399Z" fill="#B08D6A"/>
<path fill-rule="evenodd" clip-rule="evenodd" d="M137.135 242.578C136.972 242.664 136.497 241.412 136.979 240.592C137.442 239.742 138.312 239.805 138.302 240.004C138.36 240.231 137.85 240.407 137.58 240.932C137.232 241.4 137.217 242.541 137.135 242.578Z" fill="#B08D6A"/>
<path fill-rule="evenodd" clip-rule="evenodd" d="M132.119 55.5916C132.145 55.5289 132.982 55.7596 133.988 56.3016C134.995 56.8284 136.138 57.7471 136.776 58.6641C138.153 60.5383 138.083 62.4581 137.912 62.4442C137.658 62.4979 137.456 60.7887 136.226 59.0814C135.654 58.2396 134.671 57.3115 133.764 56.6846C132.862 56.0441 132.088 55.6579 132.119 55.5916Z" fill="#B08D6A"/>
<path fill-rule="evenodd" clip-rule="evenodd" d="M134.727 53.8617C134.816 53.712 138.312 56.3408 139.654 58.7859C141.132 61.1906 141.223 63.4866 141.048 63.4893C140.797 63.5472 140.451 61.4498 139.073 59.1584C138.431 58.0314 137.376 56.6853 136.422 55.667C135.476 54.6438 134.679 53.9181 134.727 53.8617Z" fill="#B08D6A"/>
<path fill-rule="evenodd" clip-rule="evenodd" d="M136.757 51.826C136.865 51.7078 139.972 54.69 141.319 57.0607C142.782 59.4272 143.04 61.6774 142.852 61.6984C142.615 61.7597 142.123 59.7252 140.736 57.4323C140.087 56.3047 139.102 54.9039 138.247 53.8006C137.396 52.6961 136.709 51.8717 136.757 51.826Z" fill="#B08D6A"/>
<path fill-rule="evenodd" clip-rule="evenodd" d="M142.012 52.1489C142.13 52.1433 142.683 54.0213 143.372 54.9894C143.999 56.0127 144.557 56.8303 144.396 56.9814C144.249 57.1251 143.457 56.4807 142.779 55.3463C142.035 54.2446 141.847 52.1455 142.012 52.1489Z" fill="#B08D6A"/>
<path fill-rule="evenodd" clip-rule="evenodd" d="M185.866 178.525C185.968 178.639 185.553 179.269 185.24 179.604C184.921 179.944 184.524 180.054 184.383 179.9C184.232 179.739 184.435 179.423 184.771 179.095C185.097 178.779 185.783 178.434 185.866 178.525Z" fill="#B08D6A"/>
<path fill-rule="evenodd" clip-rule="evenodd" d="M186.386 180.028C186.535 179.985 186.869 180.477 187.003 180.804C187.136 181.14 187.036 181.467 186.834 181.525C186.624 181.586 186.457 181.345 186.338 180.999C186.227 180.668 186.269 180.06 186.386 180.028Z" fill="#B08D6A"/>
<path fill-rule="evenodd" clip-rule="evenodd" d="M83.7286 79.1601C83.7695 79.1192 84.6322 79.9147 85.4582 81.217C86.2982 82.4988 86.9672 84.3812 86.9332 85.8912C86.9444 89.0422 85.1521 90.9702 85.074 90.8424C84.808 90.7226 86.2338 88.7881 86.2423 85.9222C86.2903 84.542 85.7774 82.7649 85.0821 81.4465C84.3992 80.1174 83.6664 79.2077 83.7286 79.1601Z" fill="#B08D6A"/>
<path fill-rule="evenodd" clip-rule="evenodd" d="M87.7329 79.0461C87.8903 78.9541 89.1473 81.2315 89.3883 82.8652C89.7081 84.5057 89.3845 85.82 89.189 85.7958C88.9572 85.7826 88.9895 84.5462 88.7083 82.9958C88.515 81.4745 87.6525 79.0993 87.7329 79.0461Z" fill="#B08D6A"/>
<path fill-rule="evenodd" clip-rule="evenodd" d="M90.8138 80.6751C90.9673 80.6738 91.162 81.6339 91.2055 82.2325C91.2498 82.8418 91.0669 83.3266 90.8601 83.3293C90.6392 83.3339 90.5384 82.859 90.5168 82.246C90.4918 81.6473 90.6887 80.6779 90.8138 80.6751Z" fill="#B08D6A"/>
<path fill-rule="evenodd" clip-rule="evenodd" d="M42.3556 239.894C42.3556 239.894 43.2538 239.602 44.7717 239.806C46.2807 239.974 48.3549 240.804 50.127 242.478C51.9429 244.123 53.1967 246.634 54.08 249.11C54.5475 250.344 54.9935 251.565 55.5695 252.659C56.1001 253.774 56.956 254.667 57.5657 255.593C58.2138 256.523 58.8932 257.415 59.6123 258.232C60.3037 259.058 60.9794 259.828 61.7179 260.442C63.1846 261.695 64.8481 262.342 66.288 262.336C69.2006 262.277 70.8049 261.072 70.8584 261.258C70.8839 261.297 70.5254 261.579 69.7851 261.953C69.0463 262.318 67.8949 262.785 66.3587 262.851C64.8163 262.938 62.9576 262.303 61.3814 261.01C60.5805 260.375 59.8619 259.582 59.1561 258.752C58.4341 257.942 57.7379 257.058 57.0659 256.079C53.675 252.693 53.4416 246.065 49.8481 242.828C48.188 241.151 46.214 240.27 44.7492 240.028C43.2765 239.749 42.3576 239.958 42.3556 239.894Z" fill="#B08D6A"/>
<path fill-rule="evenodd" clip-rule="evenodd" d="M38.8519 241.598C38.857 241.561 39.2022 241.574 39.7777 241.629C40.3476 241.697 41.1417 241.828 42.024 242.076C43.7913 242.545 45.8828 243.623 47.137 244.892C49.8305 247.46 50.1121 250.563 49.9624 250.524C49.6899 250.639 49.1721 247.821 46.6786 245.411C45.5184 244.213 43.5951 243.093 41.9036 242.5C40.2202 241.881 38.8387 241.679 38.8519 241.598Z" fill="#B08D6A"/>
<path fill-rule="evenodd" clip-rule="evenodd" d="M75.0216 231.628C75.0566 231.614 75.3315 232.202 75.725 233.203C76.1131 234.205 76.6166 235.622 77.0345 237.28C77.4502 238.937 77.759 240.842 77.8146 242.741C77.8885 244.652 77.6324 246.515 77.5066 248.105C77.1684 251.309 77.5629 254.358 79.0192 255.817C80.474 257.255 82.0039 257.11 81.9352 257.292C81.9326 257.336 81.6052 257.393 81.0112 257.307C80.4262 257.224 79.5299 256.979 78.6937 256.221C76.9407 254.671 76.4596 251.383 76.814 248.109C76.9444 246.489 77.2266 244.659 77.2022 242.805C77.1937 240.945 76.9563 239.065 76.6114 237.408C76.2644 235.751 75.8358 234.313 75.5168 233.285C75.3583 232.777 75.2302 232.367 75.1369 232.075C75.0498 231.793 75.0089 231.633 75.0216 231.628Z" fill="#B08D6A"/>
<path fill-rule="evenodd" clip-rule="evenodd" d="M81.0984 260.065C80.9439 260.068 80.4431 255.63 80.2126 252.874C79.9738 250.058 80.0039 247.805 80.2125 247.779C80.431 247.755 80.6797 249.941 80.899 252.791C81.0039 254.178 81.0871 255.998 81.1256 257.468C81.1631 258.939 81.1603 260.062 81.0984 260.065Z" fill="#B08D6A"/>
<path fill-rule="evenodd" clip-rule="evenodd" d="M78.5709 261.332C78.5513 261.366 77.9573 261.079 76.989 260.566C76.0248 260.05 74.6761 259.319 73.267 258.28C71.8564 257.252 70.4308 255.845 69.3752 254.198C68.2912 252.55 67.71 250.678 67.2795 249.094C66.3911 245.858 65.8088 242.886 65.3308 240.794C64.8617 238.688 64.4652 237.424 64.5684 237.385C64.6658 237.342 65.2269 238.541 65.8148 240.616C66.4181 242.692 67.0495 245.597 67.9325 248.852C68.3515 250.426 68.8783 252.232 69.8662 253.827C70.8444 255.438 72.1675 256.844 73.5142 257.912C74.8549 258.988 76.1644 259.787 77.0927 260.37C77.5507 260.66 77.9222 260.893 78.1879 261.058C78.4428 261.223 78.5778 261.322 78.5709 261.332Z" fill="#B08D6A"/>
<path fill-rule="evenodd" clip-rule="evenodd" d="M73.209 258.639C73.1983 258.676 72.8692 258.625 72.3258 258.512C71.7872 258.389 71.0411 258.175 70.2198 257.845C68.5752 257.203 66.7055 255.918 65.6486 254.569C63.3956 251.838 63.1212 248.961 63.2665 248.967C63.5378 248.867 64.0648 251.526 66.1589 254.108C67.1412 255.384 68.8373 256.681 70.3882 257.439C71.9303 258.211 73.2311 258.561 73.209 258.639Z" fill="#B08D6A"/>
<path fill-rule="evenodd" clip-rule="evenodd" d="M62.1412 271.145C62.1412 271.145 61.4841 271.591 60.205 271.773C58.9332 272 57.0031 271.473 55.5388 270.007C53.9984 268.61 53.0561 266.481 51.7164 264.789C50.3637 263.064 48.817 261.538 47.3455 260.378C44.3275 258.011 41.1163 256.655 38.787 255.804C36.4379 254.968 34.9501 254.574 34.976 254.456C34.9962 254.364 36.4976 254.582 38.8944 255.298C41.2674 256.032 44.581 257.34 47.7144 259.79C49.2315 260.979 50.8099 262.574 52.1649 264.368C53.545 266.178 54.4036 268.293 55.8225 269.665C57.1791 271.117 58.9334 271.686 60.1732 271.554C61.4174 271.455 62.1246 271.091 62.1412 271.145Z" fill="#B08D6A"/>
<path fill-rule="evenodd" clip-rule="evenodd" d="M73.7513 266.982C73.8387 266.968 73.9831 267.709 74.3143 268.608C74.6292 269.508 75.2774 270.506 76.0404 270.811C77.5892 271.455 79.1558 270.822 79.1954 271.11C79.2276 271.203 78.9073 271.419 78.2974 271.59C77.7051 271.744 76.7381 271.917 75.747 271.44C74.7281 271.003 74.0838 269.714 73.8938 268.743C73.6763 267.749 73.7025 266.985 73.7513 266.982Z" fill="#B08D6A"/>
<path fill-rule="evenodd" clip-rule="evenodd" d="M76.4258 266.179C76.5463 266.156 76.3173 268.681 77.3457 269.546C78.243 270.422 79.5545 270.17 79.5579 270.437C79.5729 270.533 79.3019 270.688 78.7905 270.732C78.3063 270.773 77.464 270.688 76.8513 270.032C76.2197 269.421 76.0333 268.321 76.0952 267.535C76.1505 266.733 76.3728 266.167 76.4258 266.179Z" fill="#B08D6A"/>
<path fill-rule="evenodd" clip-rule="evenodd" d="M79.7057 264.258C79.8187 264.303 78.7438 266.456 78.9222 267.75C78.9918 269.063 80.4518 269.016 80.3843 269.283C80.3846 269.37 80.0911 269.497 79.5664 269.403C79.0436 269.373 78.2522 268.715 78.2373 267.823C78.0866 266.119 79.6086 264.156 79.7057 264.258Z" fill="#B08D6A"/>
<path fill-rule="evenodd" clip-rule="evenodd" d="M115.074 319.96C115.146 320.071 112.703 322.01 111.423 323.434C110.071 324.836 109.072 326.026 108.887 325.907C108.713 325.794 109.491 324.415 110.918 322.961C112.272 321.492 115 319.834 115.074 319.96Z" fill="#B08D6A"/>
<path fill-rule="evenodd" clip-rule="evenodd" d="M121.863 315.165C121.846 315.156 121.92 314.96 122.071 314.607C122.228 314.246 122.452 313.739 122.73 313.109C123.3 311.83 124.091 310.058 124.981 308.054C126.774 304.038 129.493 299.195 132.505 296.179C135.507 293.062 138.89 291.046 141.417 289.921C142.681 289.342 143.749 288.992 144.482 288.76C145.226 288.554 145.641 288.464 145.658 288.517C145.701 288.64 144.121 289.144 141.698 290.358C139.284 291.563 136.025 293.554 133.057 296.602C130.109 299.515 127.316 304.242 125.398 308.211C124.422 310.187 123.558 311.933 122.935 313.193C122.614 313.807 122.352 314.303 122.169 314.651C121.984 314.99 121.876 315.171 121.863 315.165Z" fill="#B08D6A"/>
<path fill-rule="evenodd" clip-rule="evenodd" d="M121.095 313.136C121.133 313.147 120.927 313.29 121.016 313.575C121.115 313.859 121.64 314.004 122.071 313.681C122.92 313.023 123.903 311.773 124.887 310.335C125.861 308.88 126.842 307.162 127.614 305.396C128.333 303.639 129.006 301.688 130.205 300.405C132.477 297.668 135.445 296.338 137.471 295.508C139.541 294.694 140.842 294.31 140.879 294.397C140.926 294.506 139.704 295.052 137.724 295.96C135.778 296.887 132.959 298.209 130.775 300.798C129.637 301.999 128.986 303.76 128.197 305.596C127.362 307.405 126.316 309.109 125.268 310.564C124.196 312.004 123.176 313.199 122.194 313.865C121.676 314.212 120.997 314.008 120.914 313.611C120.85 313.223 121.12 313.126 121.095 313.136Z" fill="#B08D6A"/>
<path fill-rule="evenodd" clip-rule="evenodd" d="M121.994 315.511C121.968 315.466 122.481 315.155 123.263 314.55C124.047 313.954 125.084 313.048 126.119 311.88C128.223 309.575 130.213 306.237 132.161 303.921C134.113 301.532 136.475 299.879 138.365 299.205C140.253 298.491 141.505 298.506 141.509 298.579C141.535 298.716 140.354 298.879 138.608 299.661C136.85 300.411 134.658 301.991 132.724 304.326C130.821 306.553 128.71 309.89 126.462 312.162C125.353 313.312 124.241 314.181 123.399 314.729C122.558 315.279 121.994 315.511 121.994 315.511Z" fill="#B08D6A"/>
<path fill-rule="evenodd" clip-rule="evenodd" d="M117.507 315.232C117.469 315.197 117.977 314.641 118.635 313.604C119.308 312.574 120.014 311.009 120.575 309.143C121.152 307.284 121.673 305.143 122.53 303.119C123.356 301.088 124.532 299.233 125.706 297.765C128.116 294.739 131.052 292.793 133.221 291.638C135.416 290.502 136.872 290.068 136.902 290.149C136.955 290.266 135.601 290.852 133.521 292.06C131.465 293.286 128.658 295.206 126.291 298.143C125.139 299.562 123.974 301.343 123.115 303.308C122.237 305.264 121.654 307.382 121.005 309.25C120.375 311.124 119.575 312.712 118.827 313.719C118.089 314.738 117.507 315.232 117.507 315.232Z" fill="#B08D6A"/>
<path fill-rule="evenodd" clip-rule="evenodd" d="M132.928 311.314C132.917 311.278 133.576 311.009 134.673 310.595C135.765 310.163 137.283 309.549 138.96 308.762C142.33 307.213 146.254 304.816 148.942 302.569C154.522 298.065 157.874 293.37 158.095 293.558C158.169 293.61 157.421 294.804 155.95 296.595C154.481 298.38 152.291 300.784 149.431 303.062C146.692 305.346 142.636 307.708 139.173 309.152C137.445 309.892 135.885 310.435 134.758 310.8C134.196 310.969 133.742 311.103 133.422 311.2C133.108 311.287 132.932 311.329 132.928 311.314Z" fill="#B08D6A"/>
<path fill-rule="evenodd" clip-rule="evenodd" d="M139.916 311.746C139.883 311.669 140.937 311.137 142.285 310.391C143.638 309.652 145.271 308.677 146.472 307.861C148.945 306.228 150.754 304.716 150.911 304.877C151.056 305.02 149.431 306.751 146.874 308.421C145.642 309.25 143.925 310.152 142.496 310.78C141.068 311.416 139.937 311.797 139.916 311.746Z" fill="#B08D6A"/>
<path fill-rule="evenodd" clip-rule="evenodd" d="M155.761 279.988C155.84 280.121 153.297 281.733 151.679 282.669C150.024 283.626 148.613 284.19 148.519 284C148.42 283.803 149.669 283.008 151.336 282.068C152.957 281.155 155.698 279.882 155.761 279.988Z" fill="#B08D6A"/>
<path fill-rule="evenodd" clip-rule="evenodd" d="M155.895 277.433C155.974 277.564 154.073 278.948 152.85 279.744C151.601 280.555 150.498 281.014 150.389 280.834C150.273 280.645 151.208 279.96 152.477 279.162C153.711 278.386 155.828 277.328 155.895 277.433Z" fill="#B08D6A"/>
<path fill-rule="evenodd" clip-rule="evenodd" d="M48.2386 300.332C48.2556 300.342 48.1479 300.561 47.9379 300.947C47.7215 301.336 47.4091 301.89 47.0239 302.58C46.2569 303.977 45.1857 305.921 44.0572 308.17C41.7698 312.654 39.2997 318.374 37.6525 322.852C35.9366 327.413 34.5874 331.566 33.6337 334.572C32.681 337.576 32.109 339.424 31.9993 339.397C31.9472 339.382 32.0265 338.912 32.2153 338.068C32.3984 337.22 32.7121 336.004 33.1199 334.496C33.9519 331.478 35.2302 327.306 36.9713 322.698C38.6333 318.196 41.2202 312.462 43.6466 308.005C44.8413 305.768 45.9879 303.845 46.8266 302.478C47.2557 301.81 47.6016 301.27 47.844 300.894C48.0876 300.522 48.2261 300.324 48.2386 300.332Z" fill="#B08D6A"/>
<path fill-rule="evenodd" clip-rule="evenodd" d="M46.2209 296.714C46.2966 296.772 45.0608 298.249 43.7028 300.354C42.3239 302.44 40.8994 305.193 40.0847 307.411C38.3433 311.913 37.818 315.756 37.5646 315.713C37.4678 315.699 37.4938 314.747 37.7574 313.199C38.0201 311.653 38.5183 309.511 39.4239 307.202C40.2628 304.938 41.8146 302.165 43.3268 300.12C44.0724 299.094 44.7929 298.234 45.3223 297.634C45.8642 297.041 46.2 296.695 46.2209 296.714Z" fill="#B08D6A"/>
<path fill-rule="evenodd" clip-rule="evenodd" d="M32.594 301.686C32.6991 301.743 31.2391 303.521 30.4394 306.317C29.5503 309.095 29.8023 312.745 30.6287 315.351C31.4026 318.037 32.5371 320.305 33.2775 321.98C34.037 323.647 34.4367 324.709 34.3393 324.753C34.2409 324.798 33.6981 323.845 32.8362 322.245C31.9938 320.643 30.7847 318.383 29.9779 315.594C29.1267 312.909 28.9575 309.043 30.0097 306.21C30.9717 303.347 32.594 301.686 32.594 301.686Z" fill="#B08D6A"/>
<path fill-rule="evenodd" clip-rule="evenodd" d="M60.1391 299.703C60.1957 299.769 59.5125 300.384 58.7492 301.289C57.9789 302.186 57.1758 303.399 56.733 304.407C55.779 306.443 55.498 308.258 55.2606 308.226C55.0732 308.227 55.0629 306.321 56.1024 304.126C56.5814 303.056 57.5258 301.821 58.4236 300.991C59.3131 300.15 60.1069 299.661 60.1391 299.703Z" fill="#B08D6A"/>
<path fill-rule="evenodd" clip-rule="evenodd" d="M61.5898 301.132C61.7063 301.231 60.2165 303.286 59.2325 304.515C58.2251 305.769 57.2614 306.624 57.0999 306.487C56.9317 306.348 57.6627 305.332 58.6921 304.082C59.6944 302.866 61.4932 301.054 61.5898 301.132Z" fill="#B08D6A"/>
<path fill-rule="evenodd" clip-rule="evenodd" d="M38.0678 341.325C38.0338 341.305 38.242 340.873 38.6133 340.172C38.9769 339.452 39.4706 338.473 40.0289 337.366C41.1316 335.121 42.3488 332.279 43.163 330.055C44.8651 325.534 45.9097 321.835 46.1344 321.89C46.3256 321.931 45.5708 325.662 43.8245 330.257C42.9931 332.502 41.6658 335.343 40.4311 337.551C39.8214 338.655 39.2374 339.604 38.8078 340.28C38.3698 340.945 38.095 341.341 38.0678 341.325Z" fill="#B08D6A"/>
<path fill-rule="evenodd" clip-rule="evenodd" d="M41.0837 339.374C41.0173 339.324 41.6084 338.402 42.2925 337.153C42.9878 335.908 43.7568 334.324 44.2714 333.082C45.3506 330.562 46.0659 328.492 46.2843 328.549C46.4803 328.597 46.0422 330.742 44.9166 333.335C43.9017 335.923 41.2162 339.485 41.0837 339.374Z" fill="#B08D6A"/>
<path fill-rule="evenodd" clip-rule="evenodd" d="M34.3803 345.407C34.4212 345.498 33.4603 345.782 32.5881 346.62C31.653 347.414 31.3133 348.948 31.6724 349.975C31.9724 351.029 32.8146 351.679 33.4494 352.057C34.0923 352.441 34.5505 352.618 34.5197 352.729C34.5008 352.824 34.001 352.827 33.2406 352.528C32.5097 352.247 31.4028 351.531 31.0141 350.186C30.8244 349.552 30.8177 348.784 31.0411 348.053C31.2722 347.322 31.7615 346.692 32.291 346.292C32.8152 345.88 33.3529 345.655 33.7393 345.533C34.1275 345.406 34.3731 345.38 34.3803 345.407Z" fill="#B08D6A"/>
<path fill-rule="evenodd" clip-rule="evenodd" d="M38.0272 343.496C38.0968 343.544 37.5992 344.363 37.0578 345.48C36.504 346.59 35.9321 348.005 35.5989 349.123C34.8832 351.388 34.5717 353.269 34.3449 353.25C34.1447 353.237 34.1705 351.302 34.9337 348.93C35.5778 346.553 37.8956 343.383 38.0272 343.496Z" fill="#B08D6A"/>
<path fill-rule="evenodd" clip-rule="evenodd" d="M38.8771 345.239C39.0075 345.318 38.3619 346.739 37.8923 347.586C37.4137 348.447 36.8474 349.016 36.6714 348.908C36.483 348.791 36.7998 348.089 37.2962 347.235C37.7842 346.401 38.7694 345.175 38.8771 345.239Z" fill="#B08D6A"/>
<path fill-rule="evenodd" clip-rule="evenodd" d="M40.1261 374.949C40.1307 374.969 39.8196 375.076 39.2462 375.254C38.6721 375.421 37.846 375.698 36.8224 376.056C34.7802 376.779 31.9796 377.951 29.0413 379.713C26.0938 381.453 23.0605 383.829 20.3934 386.508C17.729 389.192 15.4395 392.164 13.6242 394.855C9.92082 400.359 7.29613 405.732 5.32479 409.552C4.3357 411.451 3.53956 412.986 2.9763 414.068C2.4036 415.122 2.0639 415.691 2.01779 415.669C1.96815 415.643 2.21314 415.042 2.70176 413.968C3.205 412.885 3.92509 411.337 4.8189 409.413C6.66819 405.576 9.21801 400.174 12.9772 394.574C14.8125 391.855 17.1522 388.852 19.8852 386.149C22.6217 383.45 25.7411 381.075 28.7657 379.365C31.7799 377.629 34.6482 376.51 36.7327 375.85C38.8225 375.189 40.1261 374.949 40.1261 374.949Z" fill="#B08D6A"/>
<path fill-rule="evenodd" clip-rule="evenodd" d="M146.287 244.264C146.324 244.221 147.081 244.935 148.534 245.813C149.956 246.694 152.294 247.551 154.942 247.098C157.592 246.718 160.327 245.408 162.958 244.025C165.609 242.644 168.253 241.332 170.575 240.237C175.317 237.994 179.794 236.43 183.12 235.72C184.776 235.344 186.137 235.157 187.075 235.058C188.019 234.978 188.537 234.961 188.544 235.014C188.56 235.153 186.536 235.356 183.315 236.203C180.084 237.006 175.712 238.59 170.958 240.82C168.645 241.904 165.982 243.193 163.31 244.535C160.649 245.884 157.81 247.195 155.05 247.531C152.267 247.946 149.833 246.974 148.431 246.007C146.986 245.048 146.287 244.264 146.287 244.264Z" fill="#B08D6A"/>
<path fill-rule="evenodd" clip-rule="evenodd" d="M136.546 237.053C136.633 237.034 137.349 238.126 137.982 238.026C138.533 238.058 139.043 237.674 139.211 237.826C139.376 237.898 139.024 238.728 137.925 238.714C137.4 238.702 136.88 238.245 136.689 237.833C136.481 237.413 136.493 237.065 136.546 237.053Z" fill="#B08D6A"/>
<path fill-rule="evenodd" clip-rule="evenodd" d="M139.186 242.03C139.046 241.937 139.825 240.811 140.7 240.512C141.555 240.173 142.261 240.47 142.228 240.662C142.214 240.894 141.609 240.903 140.939 241.161C140.272 241.348 139.274 242.091 139.186 242.03Z" fill="#B08D6A"/>
<path fill-rule="evenodd" clip-rule="evenodd" d="M93.7595 180.389C93.894 180.464 93.5734 181.408 93.3035 181.961C93.0298 182.524 92.6257 182.858 92.4453 182.747C92.259 182.632 92.4127 182.167 92.7046 181.617C92.9877 181.082 93.649 180.332 93.7595 180.389Z" fill="#B08D6A"/>
<path fill-rule="evenodd" clip-rule="evenodd" d="M93.7742 180.398C93.9487 180.384 94.1146 181.72 94.0242 182.537C93.9576 183.366 93.6817 183.977 93.4753 183.954C93.2546 183.927 93.2499 183.274 93.3384 182.462C93.4436 181.673 93.6696 180.415 93.7742 180.398Z" fill="#B08D6A"/>
<path fill-rule="evenodd" clip-rule="evenodd" d="M54.0136 172.3C54.0503 172.212 55.5952 172.878 57.6967 173.494C59.7897 174.129 62.4432 174.655 64.5014 174.859C68.6946 175.323 72.0713 175.214 72.0809 175.461C72.0994 175.643 68.7686 176.037 64.4607 175.551C62.3624 175.335 59.6623 174.695 57.5763 173.918C56.5297 173.541 55.6343 173.143 55.0012 172.842C54.3729 172.53 54 172.326 54.0136 172.3Z" fill="#B08D6A"/>
<path fill-rule="evenodd" clip-rule="evenodd" d="M64.9092 163.875C64.9844 163.809 66.3279 165.442 68.3799 167.265C70.4094 169.111 73.2168 171.039 75.5791 172.093C80.3607 174.374 84.6536 174.714 84.604 174.989C84.5966 175.075 83.5453 175.092 81.8443 174.803C80.1487 174.515 77.7854 173.926 75.3261 172.738C72.9007 171.652 70.0643 169.58 68.0949 167.604C67.0983 166.626 66.2954 165.695 65.74 165.015C65.1988 164.321 64.8845 163.896 64.9092 163.875Z" fill="#B08D6A"/>
<path fill-rule="evenodd" clip-rule="evenodd" d="M68.9207 157.582C69.0453 157.455 72.06 160.437 73.6473 162.551C75.3116 164.675 76.2574 166.608 76.0844 166.712C75.8895 166.83 74.7441 165.109 73.1127 162.988C72.3207 161.974 71.2848 160.644 70.4139 159.523C69.5533 158.441 68.8734 157.625 68.9207 157.582Z" fill="#B08D6A"/>
<path fill-rule="evenodd" clip-rule="evenodd" d="M149.777 186.116C149.858 186.149 149.719 186.579 149.739 187.12C149.746 187.664 149.949 188.284 150.216 188.703C150.723 189.57 151.361 190.168 151.23 190.353C151.132 190.523 150.241 190.127 149.615 189.04C149.299 188.531 149.153 187.699 149.299 187.083C149.425 186.458 149.735 186.09 149.777 186.116Z" fill="#B08D6A"/>
<path fill-rule="evenodd" clip-rule="evenodd" d="M180.406 167.538C180.449 167.662 178.565 168.705 177.542 169.538C176.469 170.339 175.592 170.975 175.439 170.82C175.289 170.673 175.982 169.817 177.132 168.983C178.235 168.117 180.36 167.398 180.406 167.538Z" fill="#B08D6A"/>
<path fill-rule="evenodd" clip-rule="evenodd" d="M154.701 193.135C154.58 193.04 156 191.068 156.942 189.89C157.907 188.685 158.838 187.871 158.996 188.009C159.164 188.151 158.47 189.122 157.487 190.317C156.531 191.479 154.801 193.209 154.701 193.135Z" fill="#B08D6A"/>
<path fill-rule="evenodd" clip-rule="evenodd" d="M132.876 61.3322C133.028 61.3092 133.378 62.4215 133.517 63.1261C133.66 63.8455 133.557 64.446 133.349 64.477C133.133 64.5075 132.957 63.9613 132.835 63.2349C132.716 62.5281 132.754 61.3522 132.876 61.3322Z" fill="#B08D6A"/>
<path fill-rule="evenodd" clip-rule="evenodd" d="M146.265 85.2776C146.227 85.2801 146.171 84.824 146.107 84.0721C146.045 83.3048 145.96 82.2613 145.862 81.0835C145.672 78.7067 145.395 75.7735 145.152 73.5245C144.675 68.9376 144.282 65.3016 144.497 65.2657C144.707 65.2324 145.371 68.7743 145.835 73.4133C146.072 75.6704 146.244 78.6388 146.302 81.0394C146.334 82.2422 146.338 83.2988 146.33 84.0575C146.316 84.8167 146.294 85.2768 146.265 85.2776Z" fill="#B08D6A"/>
<path fill-rule="evenodd" clip-rule="evenodd" d="M91.2986 76.9841C91.462 76.9342 92.2388 79.3313 92.4272 80.8954C92.6577 82.4851 92.4647 83.7648 92.2607 83.7607C92.0354 83.7635 91.9473 82.5501 91.7419 80.9948C91.5816 79.4768 91.196 77.0148 91.2986 76.9841Z" fill="#B08D6A"/>
<path fill-rule="evenodd" clip-rule="evenodd" d="M76.8914 177.524C76.9152 177.556 76.5746 177.845 76.0159 178.314C75.4385 178.796 74.6576 179.449 73.7741 180.182C71.9778 181.649 69.6572 183.429 67.4528 184.155C65.2141 184.906 62.9925 184.52 61.6544 183.883C60.2846 183.246 59.6696 182.539 59.7267 182.479C59.8036 182.371 60.5023 182.91 61.8161 183.392C63.1096 183.878 65.1145 184.184 67.2056 183.508C69.2267 182.879 71.6196 181.203 73.4894 179.843C74.4304 179.174 75.2631 178.58 75.8772 178.142C76.4873 177.726 76.8756 177.499 76.8914 177.524Z" fill="#B08D6A"/>
<path fill-rule="evenodd" clip-rule="evenodd" d="M81.4691 261.763C81.4691 261.763 81.071 261.224 81.008 260.145C80.9469 259.062 81.365 257.642 81.607 256.014C82.1821 252.767 82.5705 248.697 82.3177 245.6C81.9603 239.192 78.9688 234.85 79.2139 234.75C79.2803 234.699 80.0854 235.681 80.9985 237.547C81.8963 239.413 82.7885 242.225 83.0013 245.492C83.2585 248.673 82.7596 252.817 82.0475 256.07C81.7309 257.707 81.2444 259.113 81.2295 260.133C81.2107 261.161 81.5195 261.75 81.4691 261.763Z" fill="#B08D6A"/>
<path fill-rule="evenodd" clip-rule="evenodd" d="M81.4255 259.97C81.3546 259.919 81.9131 259.03 82.492 257.805C83.0866 256.586 83.6322 255.001 83.7392 253.757C84.0632 251.2 83.0966 249.267 83.3354 249.169C83.4587 249.039 84.7786 250.979 84.4293 253.815C84.2271 256.634 81.516 260.087 81.4255 259.97Z" fill="#B08D6A"/>
<path fill-rule="evenodd" clip-rule="evenodd" d="M79.0045 261.177C78.8573 261.208 79.5064 258.392 78.0537 255.189C77.3572 253.603 76.2088 252.02 74.9787 250.538C74.3728 249.853 73.6274 248.967 73.5038 247.944C73.3597 246.958 73.3715 246.09 73.3092 245.254C73.1305 241.874 72.971 238.856 72.8516 236.633C72.7086 234.447 72.5966 233.102 72.7034 233.086C72.9543 233.042 73.7542 238.305 73.9977 245.153C74.0504 245.975 74.0441 246.911 74.1529 247.774C74.2437 248.662 74.7726 249.335 75.4225 250.11C76.6372 251.642 77.7814 253.31 78.4491 254.988C79.1368 256.657 79.2883 258.272 79.2385 259.393C79.1914 260.52 79.0045 261.177 79.0045 261.177Z" fill="#B08D6A"/>
<path fill-rule="evenodd" clip-rule="evenodd" d="M74.7758 264.49C74.7936 264.53 74.3836 264.758 73.7108 265.147C73.0269 265.551 72.0994 266.094 71.0504 266.713C68.9537 267.985 66.3154 269.555 64.1771 270.525C62.0873 271.586 59.5787 272.158 58.1163 271.071C56.7447 270.006 56.8316 268.821 56.8766 268.859C57.0206 268.779 57.1738 269.838 58.3667 270.62C59.5707 271.437 61.7531 270.958 63.8443 269.918C65.9687 268.968 68.6281 267.505 70.8133 266.336C71.9085 265.758 72.89 265.274 73.6041 264.95C74.3196 264.628 74.7654 264.465 74.7758 264.49Z" fill="#B08D6A"/>
<path fill-rule="evenodd" clip-rule="evenodd" d="M38.9966 253.376C39.0057 253.198 42.2904 253.665 44.0548 254.856C45.8924 255.966 46.7223 257.51 46.564 257.605C46.3716 257.761 45.4012 256.501 43.7016 255.451C42.8902 254.922 41.7324 254.377 40.7482 254.021C39.7668 253.658 38.9805 253.446 38.9966 253.376Z" fill="#B08D6A"/>
<path fill-rule="evenodd" clip-rule="evenodd" d="M35.5611 340.283C35.4926 340.252 35.9054 339.052 36.483 337.491C37.0642 335.934 37.8103 334.017 38.4033 332.557C39.6147 329.578 40.7762 327.3 40.9699 327.379C41.1725 327.461 40.292 329.805 39.0509 332.798C38.4458 334.255 37.6028 336.139 36.8978 337.652C36.1896 339.166 35.6194 340.308 35.5611 340.283Z" fill="#B08D6A"/>
<path fill-rule="evenodd" clip-rule="evenodd" d="M137.33 287.083C137.337 287.102 137.149 287.191 136.799 287.347C136.437 287.498 135.931 287.712 135.301 287.98C134.032 288.52 132.244 289.252 130.352 290.321C128.466 291.381 126.491 292.853 125.032 294.717C123.582 296.595 122.884 298.893 122.154 300.836C120.718 304.818 119.377 308.368 118.372 310.914C117.365 313.463 116.694 315.008 116.595 314.975C116.49 314.941 116.982 313.371 117.864 310.806C118.782 308.236 120.048 304.686 121.48 300.671C122.209 298.754 122.944 296.376 124.506 294.393C126.07 292.443 128.148 290.978 130.107 289.951C134.072 287.956 137.33 287.083 137.33 287.083Z" fill="#B08D6A"/>
<path fill-rule="evenodd" clip-rule="evenodd" d="M157.042 246.908C157.016 246.757 158.586 246.31 159.577 246.112C160.586 245.907 161.422 245.963 161.452 246.168C161.485 246.385 160.713 246.609 159.696 246.793C158.706 246.972 157.065 247.031 157.042 246.908Z" fill="#B08D6A"/>
<path fill-rule="evenodd" clip-rule="evenodd" d="M101.876 245.538C102.036 245.592 101.083 248.601 100.256 250.387C99.4397 252.219 98.4862 253.514 98.3083 253.41C98.1126 253.298 98.7935 251.918 99.623 250.11C100.458 248.364 101.772 245.505 101.876 245.538Z" fill="#B08D6A"/>
<path fill-rule="evenodd" clip-rule="evenodd" d="M83.7005 186.313C83.6411 186.172 85.3313 185.346 86.419 184.904C87.5291 184.453 88.4726 184.304 88.5295 184.508C88.5912 184.718 87.7605 185.126 86.6544 185.554C85.5802 185.97 83.7504 186.426 83.7005 186.313Z" fill="#B08D6A"/>
<path fill-rule="evenodd" clip-rule="evenodd" d="M89.524 187.69C89.4874 187.564 91.2985 186.688 92.3375 186.017C93.4185 185.373 94.3294 184.925 94.4573 185.098C94.5851 185.27 93.8294 185.957 92.6871 186.616C91.5824 187.298 89.5603 187.829 89.524 187.69Z" fill="#B08D6A"/>
<path fill-rule="evenodd" clip-rule="evenodd" d="M140.879 107.385C140.839 107.386 140.793 107.156 140.746 106.773C140.724 106.626 140.7 106.463 140.676 106.281C140.633 106.208 140.683 105.883 140.54 106.166C140.277 106.565 139.988 107.002 139.709 107.428C139.353 107.998 139.005 108.553 138.707 109.032C137.52 111.025 136.647 112.661 136.445 112.577C136.251 112.498 136.863 110.743 138.107 108.69C138.409 108.192 138.786 107.633 139.195 107.088L139.826 106.29C140.143 105.912 140.457 105.543 140.757 105.187L140.971 104.942C141.045 104.846 140.993 105.128 141.007 105.194C141.004 105.42 141.004 105.641 141.001 105.848C140.987 106.188 140.977 106.495 140.967 106.763C140.939 107.149 140.908 107.384 140.879 107.385Z" fill="#B08D6A"/>
<path fill-rule="evenodd" clip-rule="evenodd" d="M114.35 113.534C114.371 113.535 114.373 113.723 114.362 114.064C114.356 114.404 114.324 114.899 114.274 115.514C114.171 116.742 113.971 118.459 113.598 120.38C113.228 122.305 112.679 124.437 111.943 126.48C111.2 128.528 110.28 130.454 109.897 132.215C109.108 135.831 110.292 139.167 111.037 141.427C111.851 143.716 112.35 145.139 112.24 145.18C112.149 145.215 111.504 143.902 110.576 141.658C109.73 139.445 108.386 136.057 109.206 132.133C109.613 130.263 110.575 128.315 111.347 126.324C112.116 124.322 112.722 122.224 113.157 120.324C113.596 118.422 113.874 116.722 114.052 115.497C114.137 114.892 114.206 114.402 114.255 114.055C114.301 113.719 114.335 113.533 114.35 113.534Z" fill="#B08D6A"/>
<path fill-rule="evenodd" clip-rule="evenodd" d="M112.337 177.28C112.487 177.311 112.2 179.572 111.941 180.964C111.679 182.383 111.261 183.46 111.055 183.416C110.841 183.365 110.979 182.25 111.263 180.829C111.54 179.442 112.217 177.251 112.337 177.28Z" fill="#B08D6A"/>
<path fill-rule="evenodd" clip-rule="evenodd" d="M79.4619 264.675C79.6118 264.651 79.8785 265.114 79.967 265.417C80.0568 265.724 79.915 266.005 79.7071 266.041C79.4907 266.079 79.358 265.85 79.2863 265.537C79.2182 265.229 79.3392 264.697 79.4619 264.675Z" fill="#B08D6A"/>
<path fill-rule="evenodd" clip-rule="evenodd" d="M59.7998 310.939C59.829 310.969 59.4301 311.416 58.7829 312.164C58.1322 312.909 57.2381 313.962 56.2851 315.199C54.3578 317.661 52.296 320.931 50.9306 323.555C49.5271 326.214 48.4445 328.749 47.2729 330.374C46.1277 332.018 45.1316 332.762 45.0763 332.699C44.9831 332.607 45.8152 331.77 46.8149 330.134C47.8474 328.514 48.849 326.008 50.2926 323.279C51.6824 320.628 53.8658 317.351 55.9231 314.943C56.9419 313.732 57.9008 312.719 58.6144 312.02C59.3244 311.316 59.7998 310.939 59.7998 310.939Z" fill="#B08D6A"/>
<path fill-rule="evenodd" clip-rule="evenodd" d="M82.5394 5.22606C82.5756 5.2466 82.2298 5.85536 81.6388 6.84622C81.0644 7.84144 80.2248 9.2288 79.9558 11.0277C79.5794 12.7998 79.4083 14.8297 79.5925 16.8114C79.7639 18.7982 80.2662 20.7132 80.8444 22.3226C82.0551 25.6065 83.6393 28.3539 84.7365 30.3532C85.8528 32.3446 86.5169 33.5867 86.4247 33.6428C86.3325 33.699 85.5357 32.5778 84.3219 30.6614C83.1304 28.7359 81.465 26.0123 80.2166 22.6176C79.6247 20.9655 79.1251 18.9751 78.987 16.9153C78.8326 14.8565 79.0681 12.7613 79.519 10.9626C79.8611 9.11533 80.8067 7.68291 81.4452 6.73578C81.7773 6.26628 82.0432 5.885 82.2304 5.61564C82.4205 5.35806 82.5269 5.21819 82.5394 5.22606Z" fill="#B08D6A"/>
<path fill-rule="evenodd" clip-rule="evenodd" d="M110.359 7.46486C110.378 7.47018 110.337 7.71911 110.246 8.16626C110.159 8.61212 110.045 9.26563 109.941 10.0819C109.745 11.7136 109.664 14.0242 110.044 16.5998C110.695 21.7975 113.383 27.7312 115.078 32.4083C115.499 33.6217 115.912 34.7582 116.198 35.9782C116.442 37.202 116.394 38.4318 116.036 39.5415C115.611 40.6816 114.927 41.4302 114.426 42.2691C113.88 43.0784 113.343 43.8043 112.839 44.455C111.828 45.7566 110.966 46.7576 110.358 47.4434C109.752 48.1247 109.399 48.4823 109.359 48.4525C109.259 48.376 110.476 46.818 112.382 44.2071C113.282 42.9138 114.489 41.2562 115.383 39.4328C115.706 38.4769 115.763 37.3325 115.546 36.2235C115.308 35.1213 114.866 33.9224 114.459 32.7332C112.805 28.097 110.15 22.0271 109.611 16.7023C109.288 14.0663 109.444 11.7083 109.72 10.0626C110.005 8.413 110.359 7.46486 110.359 7.46486Z" fill="#B08D6A"/>
<path fill-rule="evenodd" clip-rule="evenodd" d="M112.039 9.44761C112.106 9.45196 111.978 10.4082 112.034 11.9853C112.071 13.5593 112.316 15.7515 112.898 18.18C114.038 23.0373 116.454 28.8014 117.142 33.5979C117.518 36.0507 117.195 38.4991 116.333 40.4599C115.511 42.4508 114.267 43.9474 113.176 45.0919C112.067 46.2289 111.062 47.0191 110.357 47.5425C109.646 48.0531 109.232 48.3036 109.202 48.2674C109.109 48.1515 110.663 47.0464 112.753 44.7927C113.762 43.6481 114.928 42.1948 115.69 40.3081C116.482 38.4445 116.824 36.1516 116.472 33.7855C115.84 29.1205 113.511 23.2799 112.477 18.3219C111.95 15.8398 111.772 13.5973 111.812 11.9998C111.832 10.397 112.039 9.44761 112.039 9.44761Z" fill="#B08D6A"/>
</svg>
