<svg width="279" height="365" viewBox="0 0 279 365" fill="none" xmlns="http://www.w3.org/2000/svg">
<path fill-rule="evenodd" clip-rule="evenodd" d="M35.4334 49.9708C41.2659 70.4885 49.4846 89.9895 54.3605 110.919C60.4811 137.179 64.5571 163.37 64.5019 190.283C64.4665 208.08 68.0883 226.65 76.0254 242.755C80.732 252.311 86.8241 264.461 93.4774 272.749C96.8341 276.926 100.542 281.533 105.772 283.019C106.829 283.322 106.225 281.329 105.399 281.094C95.6201 278.304 89.6392 263.062 84.8922 255.045C78.0344 243.458 73.3336 232.83 70.0557 219.745C65.0641 199.808 69.2271 180.442 65.8043 160.507C62.0976 138.918 58.9424 116.952 53.017 95.8277C48.5989 80.0811 41.3685 65.6969 36.457 49.9839C36.2806 49.4092 35.201 49.1513 35.4334 49.9708Z" fill="#B08D6A"/>
<path fill-rule="evenodd" clip-rule="evenodd" d="M101.592 281.351C95.4202 274.39 86.7065 269.03 79.7567 262.688C67.417 251.432 56.2315 239.814 47.0366 225.759C38.83 213.211 31.7324 200.218 31.9101 184.808C32.0305 174.178 34.3593 163.669 34.8133 153.033C35.6363 133.701 37.4691 114.358 38.6828 94.9791C39.9961 74.0721 37.1714 62.218 26.5484 44.4441C25.8452 43.2724 24.6329 44.0382 25.3132 45.2128C33.5566 59.4547 38.0363 72.1386 37.1138 88.8155C36.4499 100.816 35.3899 112.706 34.3453 124.621C32.5892 144.65 29.0768 165.792 29.3179 185.911C29.5487 205.123 40.5182 221.484 51.8224 236.358C65.9197 254.911 84.887 266.145 100.936 282.274C101.709 283.05 102.176 282.009 101.592 281.351Z" fill="#B08D6A"/>
<path fill-rule="evenodd" clip-rule="evenodd" d="M104.342 281.568C89.7689 250.451 101.271 213.178 88.0618 181.434C82.2556 167.481 76.8524 153.323 70.8618 139.432C69.3587 135.951 55.2343 102.172 55.477 101.928C55.7978 101.612 55.1342 100.663 54.7589 100.976C54.5004 101.187 54.2407 101.403 53.9837 101.618C53.7932 101.772 53.7983 102.026 53.8837 102.243C57.2401 110.74 62.0247 117.852 64.669 126.782C65.6765 130.187 66.5542 132.982 67.8282 136.271C74.001 152.216 81.2938 167.776 87.3813 183.725C99.1504 214.569 86.6317 252.844 103.616 281.833C103.902 282.326 104.631 282.185 104.342 281.568Z" fill="#B08D6A"/>
<path fill-rule="evenodd" clip-rule="evenodd" d="M27.8264 25.1993C32.0746 70.8188 67.0889 102.631 104.706 123.526C125.013 134.81 140.456 149.323 164.377 151.756C176.653 153.007 187.065 153.312 199.243 150.1C210.221 147.208 217.876 144.403 228.806 149.194C229.983 149.707 229.661 147.76 228.851 147.399C215.247 141.302 207.749 146.166 193.073 149.082C168.075 154.045 144.04 146.589 123.31 132.817C103.825 119.872 82.3865 109.521 65.2948 93.3233C47.6021 76.5581 31.9144 49.833 28.904 25.388C28.8205 24.7201 27.7395 24.2627 27.8264 25.1993Z" fill="#B08D6A"/>
<path fill-rule="evenodd" clip-rule="evenodd" d="M221.33 144.34C216.016 137.117 203.304 135.465 194.966 133.319C186.373 131.104 177.333 130.927 168.802 128.524C159.771 125.977 151.813 120.797 143.474 116.689C125.021 107.595 107.411 98.1175 89.6628 87.6769C72.8035 77.761 47.9295 61.2408 37.9227 44.7179C37.1512 43.4422 35.871 44.2656 36.5805 45.5495C44.9746 60.7291 57.4454 66.2558 70.7766 76.795C85.6292 88.5344 102.537 98.58 119.009 107.855C128.337 113.107 138.718 116.323 148.21 121.275C153.957 124.268 159.89 128.093 166.058 130.075C174.172 132.677 183.221 132.451 191.521 134.114C198.449 135.506 216.209 138.867 220.833 144.815C221.188 145.271 221.642 144.769 221.33 144.34Z" fill="#B08D6A"/>
<path fill-rule="evenodd" clip-rule="evenodd" d="M215.125 143.933C217.62 143.436 220.115 142.938 222.612 142.439C223.137 142.44 222.77 141.619 222.636 141.445C217.977 135.383 211.633 133.048 205.425 128.72C196.759 122.682 188.205 116.13 180.246 109.208C165.023 95.9607 149.05 80.188 131.521 70.1073C118.275 62.4917 104.428 59.7113 89.8487 56.4091C80.1761 54.2175 70.5342 51.9586 60.874 49.8477C52.9537 48.1193 35.5182 43.5585 30.8491 34.951C30.0866 33.5471 28.6699 34.4612 29.4118 35.8421C35.3875 46.9817 49.7616 50.5628 61.3486 52.3279C81.4992 55.3972 104.366 60.1733 122.965 68.4576C143.986 77.8236 162.31 96.242 179.652 111.185C187.132 117.633 195.135 123.549 203.22 129.233C207.878 132.508 224.166 139.033 215.023 143.771C214.951 143.81 215.048 143.964 215.125 143.933Z" fill="#B08D6A"/>
<path fill-rule="evenodd" clip-rule="evenodd" d="M62.9624 94.0732C73.0089 113.67 86.9174 132.183 101.112 149.061C117.856 168.964 132.203 189.279 151.794 206.583C167.429 220.394 186.771 236.276 208.195 238.003C220.572 239.001 232.9 238.815 245.242 240.305C257.394 241.769 266.723 247.776 278.4 241.972C279.527 241.409 278.041 238.954 276.868 239.511C264.87 245.2 246.684 238.142 233.552 236.853C223.49 235.864 212.419 236.805 202.634 234.876C180.76 230.568 159.978 211.545 144.039 197.271C127.396 182.363 114.592 162.895 100.219 145.755C86.6692 129.597 74.5107 111.633 63.3846 93.8109C63.1345 93.4096 62.7529 93.6692 62.9624 94.0732Z" fill="#B08D6A"/>
<path fill-rule="evenodd" clip-rule="evenodd" d="M273.987 246.403C268.189 249.729 261.73 251.573 255.538 253.901C248.18 256.665 240.988 261.841 233.255 263.162C217.553 265.839 198.158 253.787 182.731 249.939C142.943 240.026 127.4 194.863 108.684 163.248C108.211 162.443 107.423 162.963 107.849 163.764C111.841 171.226 113.962 179.41 118.157 186.812C123.951 197.032 130.26 206.408 136.692 216.183C145.395 229.409 159.703 245.947 175.301 250.903C185.407 254.113 195.665 256.058 205.688 259.706C212.698 262.258 220.254 265.758 227.811 266.115C237.769 266.581 243.881 260.831 252.619 257.435C260.468 254.387 267.624 252.522 274.584 247.37C274.99 247.068 274.429 246.15 273.987 246.403Z" fill="#B08D6A"/>
<path fill-rule="evenodd" clip-rule="evenodd" d="M276.547 246.153C272.378 247.677 267.968 253.709 264.302 256.656C259.16 260.787 254.082 265.964 248.287 269.099C234.223 276.706 222.887 278.116 207.8 274.058C197.537 271.299 184.385 268.29 175.431 262.389C169.277 258.339 166.598 251.794 161.83 246.556C158.029 242.384 153.584 239.828 150.602 234.681C150.301 234.163 149.536 234.314 149.839 234.962C152.04 239.618 153.832 241.284 157.273 244.857C161.939 249.701 166.111 257.427 171.276 261.863C177.388 267.115 180.647 266.734 187.655 269.242C196.623 272.452 204.691 276.076 214.223 278.297C226.25 281.097 236.72 277.414 247.639 272C256.321 267.691 274.464 255.783 277.484 245.655C277.617 245.2 276.915 244.161 276.465 244.718C276.312 244.906 276.16 245.094 276.007 245.283C275.79 245.554 276.19 246.282 276.547 246.153Z" fill="#B08D6A"/>
<path fill-rule="evenodd" clip-rule="evenodd" d="M182.976 360.676C173.976 335.121 154.312 314.036 143.754 289.01C138.793 277.253 135.886 264.702 130.815 253.027C125.193 240.08 119.977 228.184 116.861 214.185C114.193 202.189 113.01 189.816 108.672 178.251C104.448 166.995 96.9362 157.205 91.6284 146.4C79.6806 122.101 63.6927 99.9395 49.7168 76.7701C49.0278 75.6287 47.8709 76.369 48.5156 77.5188C62.4123 102.376 78.1523 125.802 91.3972 150.979C97.4538 162.49 105.006 172.347 108.583 185.021C112.954 200.496 114.469 216.643 119.211 232.08C122.234 241.911 127.772 250.37 131.235 259.993C135.02 270.498 138.217 281.191 142.823 291.407C153.744 315.628 170.989 336.646 182.039 360.823C182.338 361.48 183.286 361.556 182.976 360.676Z" fill="#B08D6A"/>
<path fill-rule="evenodd" clip-rule="evenodd" d="M184.987 362.07C172.442 340.801 175.874 319.582 173.852 296.004C172.361 278.631 169.365 262.104 160.962 246.677C160.192 245.266 158.774 246.185 159.516 247.577C172.624 272.188 171.79 298.493 172.391 325.427C172.713 339.864 177.02 350.312 184.531 362.352C184.799 362.778 185.241 362.501 184.987 362.07Z" fill="#B08D6A"/>
<path fill-rule="evenodd" clip-rule="evenodd" d="M183.56 364.508C181.774 344.989 187.274 327.423 187.893 308.277C188.441 291.357 182.255 274.368 174.157 259.805C173.45 258.531 172.177 259.36 172.851 260.62C184.175 281.827 187.78 302.849 183.711 326.368C181.498 339.154 181.428 351.41 183.035 364.416C183.077 364.744 183.604 364.964 183.56 364.508Z" fill="#B08D6A"/>
<path fill-rule="evenodd" clip-rule="evenodd" d="M31.2574 48.6489C26.3528 39.8741 22.09 30.7323 16.7431 22.2037C14.7608 19.0426 12.6678 15.9324 10.3702 12.9884C9.60402 12.0084 4.14457 7.08921 4.14 6.00573C4.1053 -2.75458 20.3912 16.346 17.4529 13.2867C18.1063 13.9674 19.3338 13.9028 19.9342 14.5233C24.9276 19.678 25.703 21.2115 28.0263 26.2072C29.7672 29.9498 28.492 28.756 30.4866 32.416C30.9152 33.2044 31.9239 32.9591 31.5866 32.0151C29.7874 26.9782 30.0449 18.7983 26.1223 14.5498C23.3467 11.5459 20.2967 11.9901 16.7895 9.27245C13.173 6.46446 6.38286 -2.63545 0.947155 2.51967C0.785235 2.67467 0.773995 3.12767 0.827446 3.31417C2.49169 9.40063 9.98092 14.7887 13.4319 19.8312C19.8061 29.1442 25.0609 39.2315 30.8263 48.92C31.0732 49.3337 31.4922 49.0661 31.2574 48.6489Z" fill="#B08D6A"/>
<path fill-rule="evenodd" clip-rule="evenodd" d="M99.4551 273.792C99.4551 273.792 99.0791 273.296 98.4388 272.351C97.8075 271.397 96.8945 270.018 95.7564 268.305C93.4987 264.849 90.3659 260.012 87.0571 254.37C83.7503 248.729 80.2951 242.251 77.5101 235.562C74.6933 228.885 72.4587 222.061 70.917 216.04C67.7128 203.738 66.7498 192.318 66.6197 184.13C66.5931 180.033 66.7171 176.73 66.8825 174.453C66.9827 173.333 67.0573 172.456 67.1147 171.842C67.1775 171.25 67.2281 170.935 67.2597 170.941C67.2951 170.941 67.3095 171.253 67.3075 171.841C67.2929 172.444 67.2739 173.302 67.2476 174.411C67.1922 176.647 67.1556 179.896 67.2596 183.933C67.5264 191.994 68.5165 203.276 71.6889 215.589C73.207 221.583 75.3892 228.394 78.1399 235.079C80.8605 241.778 84.2342 248.297 87.4758 253.993C90.719 259.692 93.7819 264.601 95.971 268.126C97.0646 269.883 97.9403 271.294 98.5486 272.269C99.1502 273.244 99.4551 273.792 99.4551 273.792Z" fill="#B08D6A"/>
<path fill-rule="evenodd" clip-rule="evenodd" d="M98.7059 268.061C98.7059 268.061 91.8928 258.324 86.0164 243.959C79.9246 229.699 74.9891 211.125 71.7295 196.834C68.3942 182.229 65.6483 169.098 63.6425 159.634C62.6737 154.904 61.8891 151.084 61.3485 148.431C61.1001 147.119 60.9095 146.095 60.7728 145.385C60.6547 144.688 60.6065 144.319 60.6371 144.312C60.6721 144.305 60.7813 144.652 60.9588 145.325C61.128 146.013 61.3734 147.004 61.6875 148.285C62.2853 150.879 63.1474 154.621 64.2203 159.284C66.3107 168.635 69.2203 181.655 72.5049 196.353C75.7483 210.647 80.5378 229.272 86.473 243.623C89.3737 250.814 92.3884 256.967 94.7924 261.234C95.9306 263.408 96.9929 265.064 97.6664 266.239C98.3542 267.403 98.7059 268.061 98.7059 268.061Z" fill="#B08D6A"/>
<path fill-rule="evenodd" clip-rule="evenodd" d="M93.6095 253.096C93.6095 253.096 93.3924 252.362 93.0556 251.007C92.7266 249.647 92.2475 247.679 91.6526 245.227C90.4328 240.321 88.7331 233.475 86.8039 225.713C82.8769 210.197 77.6493 191.102 73.3637 176.543C69.0252 161.667 64.9159 148.4 61.9153 138.846C60.4142 134.077 59.2012 130.228 58.3619 127.558C57.9619 126.232 57.6498 125.2 57.4341 124.486C57.2325 123.779 57.1391 123.405 57.1697 123.397C57.2042 123.384 57.3514 123.73 57.6063 124.403C57.8586 125.094 58.2168 126.086 58.6831 127.369C59.6063 129.954 60.8875 133.728 62.4536 138.435C65.5724 147.849 69.7463 161.029 74.1057 176.012C78.3916 190.595 83.5199 209.809 87.3041 225.439C89.2136 233.252 90.7984 240.165 91.9129 245.12C92.4514 247.601 92.8845 249.592 93.1859 250.965C93.4763 252.338 93.6095 253.096 93.6095 253.096Z" fill="#B08D6A"/>
<path fill-rule="evenodd" clip-rule="evenodd" d="M93.2649 241.407C93.2649 241.407 93.1504 240.782 93.0003 239.637C92.8581 238.486 92.6539 236.824 92.3945 234.752C91.8029 230.615 90.9382 224.842 89.5772 218.362C86.9895 205.381 82.403 189.635 78.3424 177.759C74.2602 165.608 70.221 154.844 67.3457 147.069C65.9173 143.189 64.7667 140.055 63.9647 137.873C63.5885 136.797 63.2976 135.956 63.0918 135.367C62.903 134.789 62.8168 134.481 62.8486 134.469C62.8804 134.458 63.0204 134.737 63.2651 135.279C63.5033 135.845 63.8419 136.648 64.2818 137.683C65.13 139.806 66.3541 142.861 67.8751 146.666C70.8638 154.311 74.9722 164.996 79.0774 177.246C83.1419 189.158 87.6519 205.037 90.0946 218.142C92.708 231.221 93.2649 241.407 93.2649 241.407Z" fill="#B08D6A"/>
<path fill-rule="evenodd" clip-rule="evenodd" d="M79.5031 222.02C79.3146 222.064 75.7251 207.756 73.5842 198.839C71.4002 189.729 69.9334 182.455 70.1859 182.394C70.4546 182.331 72.2294 189.382 74.4025 198.551C76.5174 207.483 79.6541 221.984 79.5031 222.02Z" fill="#B08D6A"/>
<path fill-rule="evenodd" clip-rule="evenodd" d="M44.3798 121.105C44.5694 121.135 41.2758 145.01 39.1328 159.839C36.9428 174.976 34.9397 186.935 34.6833 186.9C34.4129 186.858 36.0299 175.091 38.2596 159.86C40.4308 145.025 44.2264 121.084 44.3798 121.105Z" fill="#B08D6A"/>
<path fill-rule="evenodd" clip-rule="evenodd" d="M48.8263 220.028C48.808 220.039 48.6567 219.871 48.3929 219.549C48.1267 219.209 47.7562 218.735 47.2941 218.153C46.4069 216.931 45.1956 215.2 43.9978 213.128C41.5363 209.015 39.182 203.524 37.9514 199.137C36.6299 194.673 36.0228 190.527 35.8188 187.533C35.6158 184.535 35.7498 182.695 35.8558 182.696C36.2069 182.665 36.129 189.913 38.755 198.812C39.9471 203.151 42.1544 208.637 44.4562 212.82C45.5763 214.927 46.704 216.707 47.5149 217.984C47.9293 218.605 48.2637 219.108 48.4986 219.465C48.7263 219.816 48.843 220.015 48.8263 220.028Z" fill="#B08D6A"/>
<path fill-rule="evenodd" clip-rule="evenodd" d="M50.0847 215.129C50.0445 215.156 49.6671 214.64 49.0672 213.769C48.4882 212.886 47.7036 211.636 46.9168 210.155C45.3093 207.213 43.7222 203.355 42.8412 200.292C41.9008 197.175 41.4091 194.283 41.208 192.19C41.006 190.102 41.0562 188.807 41.1727 188.801C41.491 188.769 41.802 193.792 43.6477 199.989C44.5016 203.013 45.9451 206.877 47.3952 209.881C48.1012 211.392 48.8033 212.687 49.2987 213.619C49.8165 214.541 50.1145 215.107 50.0847 215.129Z" fill="#B08D6A"/>
<path fill-rule="evenodd" clip-rule="evenodd" d="M52.6838 212.525C52.6278 212.579 51.6743 211.8 50.7363 210.493C49.7701 209.209 48.8687 207.401 48.442 205.923C47.4869 202.888 47.9909 200.339 48.2222 200.386C48.5272 200.396 48.3818 202.766 49.2617 205.655C49.6522 207.06 50.3901 208.84 51.189 210.181C51.9608 211.541 52.7514 212.46 52.6838 212.525Z" fill="#B08D6A"/>
<path fill-rule="evenodd" clip-rule="evenodd" d="M185.989 305.285C185.968 305.29 185.892 305.06 185.779 304.635C185.669 304.197 185.515 303.581 185.323 302.819C184.929 301.265 184.386 299.116 183.766 296.683C182.497 291.812 180.727 285.844 179.221 281.317C177.703 276.687 176.243 272.572 175.184 269.606C174.123 266.638 173.484 264.81 173.612 264.759C173.729 264.708 174.563 266.418 175.757 269.308C176.948 272.2 178.489 276.278 180.009 280.959C181.515 285.511 183.177 291.563 184.291 296.511C184.857 298.98 185.296 301.172 185.589 302.746C185.725 303.527 185.834 304.16 185.909 304.604C185.981 305.043 186.009 305.283 185.989 305.285Z" fill="#B08D6A"/>
<path fill-rule="evenodd" clip-rule="evenodd" d="M180.738 345.218C180.738 345.218 180.898 344.804 181.247 344.082C181.556 343.341 182.027 342.27 182.418 340.873C183.255 338.095 183.768 334.043 183.627 329.447C183.355 320.247 181.698 308.932 179.667 300.447C177.644 291.766 175.113 284.176 173.072 278.788C172.068 276.089 171.185 273.937 170.584 272.448C169.976 270.961 169.672 270.127 169.73 270.1C169.79 270.072 170.203 270.838 170.898 272.26C171.589 273.685 172.552 275.776 173.62 278.435C175.787 283.733 178.428 291.295 180.465 300.083C182.506 308.626 184.064 320.055 184.177 329.36C184.239 334.012 183.633 338.134 182.691 340.93C181.78 343.744 180.738 345.218 180.738 345.218Z" fill="#B08D6A"/>
<path fill-rule="evenodd" clip-rule="evenodd" d="M179.542 344.829C179.518 344.829 179.501 344.586 179.494 344.137C179.49 343.675 179.486 343.03 179.483 342.231C179.477 340.6 179.47 338.347 179.459 335.795C179.424 330.673 179.23 324.344 178.964 319.498C178.675 314.561 178.415 310.151 178.222 306.918C178.019 303.723 177.922 301.752 178.058 301.738C178.186 301.723 178.503 303.631 178.853 306.79C179.204 309.95 179.58 314.366 179.821 319.36C180.075 324.226 180.142 330.602 180.01 335.752C179.952 338.331 179.849 340.599 179.762 342.225C179.704 343.029 179.661 343.68 179.628 344.138C179.59 344.586 179.564 344.83 179.542 344.829Z" fill="#B08D6A"/>
<path fill-rule="evenodd" clip-rule="evenodd" d="M254.51 259.533C254.51 259.533 252.857 260.966 249.918 263.075C246.956 265.098 242.701 268.04 237.079 269.519C234.291 270.259 231.123 270.456 228.045 269.676C224.925 268.966 222.209 267.175 219.149 266.55C213.048 265.125 206.715 265.789 201.286 265.207C190.161 264.323 180.525 261.221 173.972 258.319C170.681 256.873 168.128 255.496 166.402 254.497C165.535 253.998 164.886 253.575 164.445 253.293C164.004 253.008 163.783 252.842 163.799 252.815C163.838 252.75 164.794 253.246 166.526 254.153C168.273 255.038 170.813 256.307 174.074 257.669C180.573 260.387 190.061 263.401 201.143 264.331C206.495 264.944 212.842 264.291 219.159 265.767C222.35 266.435 225.125 268.261 228.074 268.995C231.026 269.789 234.098 269.687 236.85 269.011C242.398 267.663 246.718 264.812 249.734 262.863C251.22 261.827 252.409 260.994 253.236 260.42C254.047 259.834 254.51 259.533 254.51 259.533Z" fill="#B08D6A"/>
<path fill-rule="evenodd" clip-rule="evenodd" d="M229.296 271.45C229.296 271.474 228.934 271.504 228.271 271.536C227.594 271.561 226.632 271.6 225.433 271.648C223.025 271.676 219.656 271.668 215.842 271.405C208.212 270.965 198.836 269.428 191.832 267.512C184.658 265.64 178.435 263.255 174.074 261.285C171.901 260.285 170.161 259.449 168.997 258.802C167.823 258.174 167.191 257.8 167.223 257.74C167.297 257.591 169.872 258.85 174.229 260.652C178.583 262.454 184.748 264.754 191.914 266.641C198.87 268.571 208.194 270.241 215.815 270.851C219.623 271.199 222.998 271.302 225.414 271.37C226.617 271.384 227.586 271.394 228.262 271.4C228.931 271.415 229.296 271.45 229.296 271.45Z" fill="#B08D6A"/>
<path fill-rule="evenodd" clip-rule="evenodd" d="M257.155 257.133C257.155 257.133 255.532 258.707 252.299 260.549C249.101 262.409 244.144 264.302 238.264 264.877C226.544 265.999 211.94 264.782 201.053 262.366C189.918 259.984 180.3 256.39 173.662 253.25C170.324 251.712 167.711 250.31 165.935 249.298C164.163 248.277 163.208 247.686 163.238 247.63C163.273 247.57 164.268 248.043 166.058 248.952C167.851 249.848 170.455 251.15 173.775 252.6C180.373 255.559 189.889 259.062 201.019 261.483C211.828 263.916 226.408 265.271 238.104 264.342C243.955 263.861 248.895 262.094 252.141 260.322C253.774 259.453 255.018 258.633 255.858 258.048C256.697 257.459 257.155 257.133 257.155 257.133Z" fill="#B08D6A"/>
<path fill-rule="evenodd" clip-rule="evenodd" d="M121.462 178.451C121.481 178.436 121.696 178.682 122.077 179.144C122.454 179.618 122.996 180.294 123.666 181.13C125.001 182.844 126.853 185.221 128.953 187.912C133.126 193.352 138.279 200.062 142.224 205.204C146.231 210.468 150.145 214.911 153.354 217.709C156.547 220.531 158.83 221.856 158.744 221.995C158.711 222.053 158.127 221.77 157.106 221.183C156.1 220.565 154.665 219.62 153.012 218.262C149.685 215.575 145.657 211.154 141.62 205.833C137.681 200.66 132.63 193.83 128.551 188.293C126.527 185.521 124.743 183.073 123.455 181.314C122.827 180.432 122.324 179.726 121.97 179.231C121.628 178.74 121.448 178.463 121.462 178.451Z" fill="#B08D6A"/>
<path fill-rule="evenodd" clip-rule="evenodd" d="M177.676 234.993C177.584 235.202 172.89 233.084 170.211 231.313C167.44 229.572 165.574 227.745 165.733 227.549C165.912 227.328 167.925 228.826 170.655 230.574C171.981 231.436 173.723 232.545 175.163 233.409C176.594 234.283 177.71 234.92 177.676 234.993Z" fill="#B08D6A"/>
<path fill-rule="evenodd" clip-rule="evenodd" d="M225.516 245.612C225.466 245.796 222.285 245.21 220.33 244.75C218.332 244.28 216.819 243.645 216.884 243.392C216.953 243.126 218.524 243.412 220.526 243.911C222.475 244.399 225.555 245.463 225.516 245.612Z" fill="#B08D6A"/>
<path fill-rule="evenodd" clip-rule="evenodd" d="M161.58 301.054C161.559 301.066 161.383 300.773 161.075 300.226C160.773 299.669 160.34 298.873 159.799 297.883C158.736 295.872 157.258 293.079 155.583 289.913C152.27 283.534 148.181 275.661 145.049 269.626C141.815 263.489 139.225 257.705 138.343 253.235C137.879 251.012 137.735 249.178 137.763 247.921C137.776 246.659 137.885 245.972 137.937 245.977C138.131 245.972 137.9 248.698 138.947 252.989C139.93 257.301 142.506 262.924 145.755 269.112C148.808 275.198 152.805 283.153 156.045 289.606C157.63 292.839 159.029 295.689 160.038 297.739C160.525 298.764 160.92 299.586 161.195 300.159C161.46 300.731 161.58 301.054 161.58 301.054Z" fill="#B08D6A"/>
<path fill-rule="evenodd" clip-rule="evenodd" d="M154.774 277.835C154.734 277.863 154.343 277.365 153.719 276.519C153.103 275.669 152.266 274.467 151.352 273.075C149.517 270.302 147.405 266.764 145.913 263.982C142.829 258.309 141.045 253.502 141.271 253.407C141.539 253.289 143.588 257.837 146.643 263.521C148.114 266.297 150.113 269.892 151.806 272.759C152.65 274.182 153.397 275.44 153.945 276.359C154.49 277.261 154.806 277.817 154.774 277.835Z" fill="#B08D6A"/>
<path fill-rule="evenodd" clip-rule="evenodd" d="M145.79 280.024C145.772 280.034 145.606 279.752 145.325 279.226C145.046 278.686 144.649 277.922 144.155 276.968C143.186 275.035 141.865 272.322 140.456 269.203C137.606 262.977 134.44 255.109 132.297 248.974C130.076 242.723 128.386 237.017 127.297 232.871C126.759 230.797 126.347 229.116 126.106 227.947C125.855 226.78 125.747 226.13 125.812 226.115C125.955 226.078 126.669 228.547 127.887 232.601C129.108 236.656 130.852 242.291 133.067 248.567C135.19 254.693 138.236 262.614 140.934 268.929C142.308 272.065 143.523 274.837 144.396 276.833C144.837 277.818 145.197 278.608 145.445 279.162C145.686 279.709 145.81 280.016 145.79 280.024Z" fill="#B08D6A"/>
<path fill-rule="evenodd" clip-rule="evenodd" d="M123.36 223.164C123.174 223.207 121.115 215.314 119.932 210.385C118.722 205.353 118.031 201.303 118.285 201.245C118.551 201.183 119.57 205.073 120.758 210.142C121.921 215.082 123.51 223.132 123.36 223.164Z" fill="#B08D6A"/>
<path fill-rule="evenodd" clip-rule="evenodd" d="M145.714 228.87C145.897 228.815 147.747 234.209 148.802 237.592C149.88 241.043 150.476 243.856 150.224 243.93C149.962 244.01 149.047 241.354 147.989 237.87C146.955 234.481 145.568 228.914 145.714 228.87Z" fill="#B08D6A"/>
<path fill-rule="evenodd" clip-rule="evenodd" d="M141.095 221.123C141.198 221.119 141.355 222.51 141.629 224.314C141.892 226.124 142.286 228.342 142.641 230.032C143.342 233.482 143.957 236.214 143.699 236.295C143.446 236.374 142.495 233.759 141.804 230.229C141.041 226.793 140.898 221.123 141.095 221.123Z" fill="#B08D6A"/>
<path fill-rule="evenodd" clip-rule="evenodd" d="M135.111 216.293C135.333 216.198 137.402 221.33 138.058 224.722C138.827 228.158 138.787 230.969 138.539 230.984C138.252 231.009 137.952 228.331 137.221 224.93C136.878 223.272 136.382 221.114 135.909 219.378C135.446 217.64 135.03 216.323 135.111 216.293Z" fill="#B08D6A"/>
<path fill-rule="evenodd" clip-rule="evenodd" d="M125.886 198.756C125.989 198.752 126.169 200.397 126.484 202.542C126.791 204.681 127.251 207.317 127.665 209.324C128.485 213.418 129.235 216.654 128.973 216.734C128.725 216.809 127.639 213.701 126.827 209.525C126.42 207.494 126.08 204.8 125.938 202.617C125.863 201.526 125.835 200.558 125.83 199.869C125.83 199.176 125.848 198.758 125.886 198.756Z" fill="#B08D6A"/>
<path fill-rule="evenodd" clip-rule="evenodd" d="M112.592 178.311C112.637 178.298 112.839 178.844 113.144 179.757C113.443 180.671 113.84 181.956 114.256 183.423C115.097 186.353 116.016 190.013 116.621 192.841C117.884 198.615 118.349 203.284 118.1 203.321C117.817 203.365 117.025 198.864 115.791 193.073C115.182 190.268 114.381 186.594 113.729 183.586C113.394 182.106 113.097 180.801 112.879 179.839C112.666 178.896 112.553 178.323 112.592 178.311Z" fill="#B08D6A"/>
<path fill-rule="evenodd" clip-rule="evenodd" d="M155.969 244.78C156.025 244.726 156.992 245.64 157.914 247.119C158.862 248.575 159.707 250.592 160.07 252.213C160.898 255.551 160.213 258.27 159.987 258.209C159.68 258.183 159.997 255.62 159.237 252.433C158.908 250.882 158.221 248.907 157.442 247.404C156.695 245.882 155.894 244.838 155.969 244.78Z" fill="#B08D6A"/>
<path fill-rule="evenodd" clip-rule="evenodd" d="M131.078 211.348C131.286 211.23 132.313 213.335 132.344 214.822C132.465 216.318 131.928 217.432 131.686 217.36C131.408 217.295 131.572 216.235 131.485 214.873C131.491 213.545 130.984 211.41 131.078 211.348Z" fill="#B08D6A"/>
<path fill-rule="evenodd" clip-rule="evenodd" d="M44.0046 55.6263C44.0046 55.6263 44.147 55.8624 44.3897 56.3348C44.6246 56.8118 45.0135 57.497 45.5344 58.3646C46.5945 60.0892 48.3446 62.473 50.9299 65.0755C53.4989 67.6982 56.9074 70.481 60.7652 73.5619C64.6131 76.6556 68.8832 80.0845 73.4179 83.7304C82.5247 90.972 92.5248 99.3262 102.753 107.107C107.887 110.963 113.17 114.562 118.514 117.599C123.849 120.657 129.288 123.019 134.462 124.883C139.746 126.798 145.002 128.364 150.074 129.877C155.15 131.359 160.036 132.787 164.684 134.145C173.997 136.784 182.451 138.785 189.611 140.047C196.776 141.298 202.626 141.837 206.665 142.058C208.685 142.188 210.255 142.221 211.319 142.249C212.383 142.284 212.943 142.321 212.944 142.352C212.946 142.386 212.398 142.416 211.351 142.441C210.303 142.471 208.757 142.501 206.758 142.426C202.766 142.32 196.962 141.888 189.83 140.73C175.54 138.421 156.167 132.915 134.584 125.845C129.374 123.978 123.848 121.618 118.464 118.524C113.061 115.47 107.737 111.832 102.579 107.933C92.3042 100.075 82.3345 91.6288 73.2332 84.2889C68.7057 80.5896 64.4471 77.1083 60.6042 73.9694C56.7593 70.8388 53.3452 67.9926 50.775 65.3143C48.1928 62.6572 46.4562 60.2127 45.426 58.4495C44.4008 56.6763 44.0046 55.6263 44.0046 55.6263Z" fill="#B08D6A"/>
<path fill-rule="evenodd" clip-rule="evenodd" d="M36.3361 44.3572C36.3361 44.3572 36.4313 44.6387 36.5799 45.184C36.7321 45.7237 36.9178 46.5354 37.2721 47.5503C37.9179 49.5923 39.0464 52.521 40.9807 55.8931C44.743 62.714 52.146 70.9016 62.0417 78.2416C71.8281 85.6705 83.6571 93.0404 93.323 102.786C103.102 112.265 112.357 122.221 122.422 128.186C127.455 131.335 132.743 133.775 138.018 135.59C143.28 137.437 148.498 138.808 153.535 139.711C163.59 141.65 172.813 142.127 180.506 142.417C188.212 142.658 194.437 142.603 198.734 142.582C200.873 142.572 202.536 142.568 203.675 142.562C204.803 142.567 205.398 142.617 205.398 142.617C205.398 142.652 204.82 142.697 203.714 142.754C202.594 142.797 200.961 142.861 198.855 142.943C194.628 143.071 188.485 143.222 180.837 143.07C173.197 142.864 164.011 142.46 153.898 140.608C143.835 138.769 132.694 135.526 122.369 129.166C112.124 123.188 102.793 113.126 93.0618 103.597C83.4732 93.8094 71.7239 86.354 61.8809 78.8107C51.9476 71.3592 44.4981 63.0268 40.7711 56.0867C38.8561 52.6575 37.757 49.6834 37.1485 47.6089C36.5249 45.5327 36.3361 44.3572 36.3361 44.3572Z" fill="#B08D6A"/>
<path fill-rule="evenodd" clip-rule="evenodd" d="M49.6339 69.1769C49.6339 69.1769 51.1288 69.788 53.3335 71.2893C55.5266 72.8008 58.3385 75.2806 61.1337 78.4312C63.966 81.5493 66.8685 85.2588 70.037 88.6257C73.1713 92.0301 76.8063 94.8097 80.0539 97.086C86.7543 101.641 93.0387 105.453 97.0207 108.96C99.0501 110.659 100.513 112.22 101.485 113.322C102.415 114.462 102.898 115.109 102.85 115.153C102.7 115.286 100.771 112.754 96.7024 109.53C92.723 106.201 86.4911 102.502 79.6941 97.8847C76.4222 95.591 72.7141 92.7349 69.5681 89.2389C66.3837 85.7971 63.5352 82.0241 60.7699 78.8525C58.0443 75.647 55.3197 73.1123 53.1895 71.5286C52.1154 70.7543 51.2348 70.1475 50.5951 69.7891C49.9665 69.4136 49.6339 69.1769 49.6339 69.1769Z" fill="#B08D6A"/>
<path fill-rule="evenodd" clip-rule="evenodd" d="M155.156 98.8887C155.156 98.8887 154.739 98.6522 154.017 98.1704C153.292 97.6793 152.248 96.9749 150.947 96.0953C148.339 94.3322 144.684 91.8949 140.494 89.1994C132.123 83.7886 121.504 77.5205 113.198 73.0139C104.716 68.4487 97.0561 64.3421 91.3735 61.8881C88.5113 60.7033 86.0522 60.1918 84.3407 60.0491C82.624 59.9094 81.6675 60.0221 81.6589 59.9358C81.6539 59.9035 81.8841 59.8525 82.3316 59.7826C82.7795 59.7195 83.4493 59.663 84.3133 59.6856C86.0424 59.709 88.5568 60.1352 91.4759 61.2374C97.2642 63.5484 104.877 67.5563 113.446 72.1686C121.772 76.6914 132.393 83.106 140.721 88.6895C144.891 91.4706 148.513 94.0012 151.083 95.8538C152.358 96.7841 153.38 97.5361 154.09 98.0568C154.79 98.5768 155.156 98.8887 155.156 98.8887Z" fill="#B08D6A"/>
<path fill-rule="evenodd" clip-rule="evenodd" d="M108.719 74.8962C108.704 74.9408 108.079 74.7456 107.061 74.3886C106.024 74.0314 104.606 73.5441 103.008 72.9902C99.7805 71.89 95.7555 70.6228 92.6486 69.7331C86.3169 67.8788 81.2474 66.5687 81.3079 66.3011C81.3585 66.0464 86.4317 66.9923 92.8342 68.8893C95.9519 69.7973 99.9736 71.1964 103.166 72.4647C104.765 73.0918 106.163 73.6865 107.154 74.1296C108.143 74.5742 108.733 74.86 108.719 74.8962Z" fill="#B08D6A"/>
<path fill-rule="evenodd" clip-rule="evenodd" d="M65.1386 57.7969C65.0622 57.9719 61.3152 56.5975 59.0277 55.6546C56.6925 54.6906 54.9476 53.6782 55.0495 53.439C55.1598 53.1843 57.0053 53.8598 59.348 54.8546C61.6291 55.8223 65.1996 57.6556 65.1386 57.7969Z" fill="#B08D6A"/>
<path fill-rule="evenodd" clip-rule="evenodd" d="M174.415 115.897C174.314 115.957 173.443 114.536 171.949 112.971C170.495 111.383 168.409 109.714 166.654 108.701C163.117 106.524 159.844 105.795 159.911 105.503C159.921 105.268 163.355 105.65 167.071 107.946C168.891 109.009 170.987 110.851 172.354 112.596C173.056 113.459 173.58 114.286 173.932 114.884C174.266 115.5 174.449 115.877 174.415 115.897Z" fill="#B08D6A"/>
<path fill-rule="evenodd" clip-rule="evenodd" d="M144.219 85.5463C144.132 85.6254 142.61 83.9934 140.367 82.1525C138.149 80.276 135.196 78.2376 132.802 76.9041C127.951 74.0906 123.706 72.6754 123.799 72.392C123.848 72.1632 128.208 73.2297 133.186 76.1296C135.622 77.4983 138.572 79.693 140.714 81.7201C141.795 82.722 142.679 83.6749 143.295 84.3704C143.895 85.0792 144.246 85.5198 144.219 85.5463Z" fill="#B08D6A"/>
<path fill-rule="evenodd" clip-rule="evenodd" d="M80.7862 61.1593C80.7231 61.2492 79.5005 60.4076 77.7823 59.5482C76.0773 58.6635 73.8722 57.7951 72.1316 57.3039C68.5981 56.2328 65.6526 55.9581 65.6655 55.6693C65.6598 55.4266 68.6703 55.3396 72.3504 56.4687C74.1443 56.9848 76.3802 58.0072 78.0396 59.0594C78.8763 59.5796 79.5728 60.0944 80.0569 60.4811C80.5346 60.875 80.8073 61.1294 80.7862 61.1593Z" fill="#B08D6A"/>
<path fill-rule="evenodd" clip-rule="evenodd" d="M44.6467 109.852C44.4568 109.876 43.2575 102.082 42.6114 97.2244C41.9475 92.2649 41.6937 88.3015 41.9522 88.269C42.2243 88.2355 42.8201 92.0751 43.4592 97.0702C44.0814 101.935 44.8002 109.832 44.6467 109.852Z" fill="#B08D6A"/>
<path fill-rule="evenodd" clip-rule="evenodd" d="M26.097 36.1647C26.0741 36.1676 25.9961 35.9393 25.8724 35.5199C25.7505 35.0855 25.5812 34.475 25.3722 33.7192C24.9731 32.1682 24.4197 30.0261 23.7939 27.5997C23.1834 25.1573 22.5046 22.4316 21.8334 19.7366C21.1418 17.0607 20.6918 14.2637 19.2274 12.5449C17.7873 10.724 15.3114 10.704 13.2818 10.0383C11.2328 9.38748 9.54582 8.40778 8.27973 7.42657C7.01209 6.44274 6.13973 5.47953 5.60546 4.77439C5.06966 4.06665 4.8537 3.62774 4.89745 3.59457C5.03635 3.47813 6.10209 5.08686 8.6031 6.87078C9.85246 7.74584 11.4696 8.63659 13.4208 9.22887C14.3883 9.53507 15.4626 9.6941 16.6057 10.006C17.7328 10.3027 18.9774 10.8888 19.8268 11.9147C21.535 13.9224 21.916 16.8232 22.5579 19.4862C23.1629 22.2061 23.7718 24.9623 24.3203 27.4307C24.8439 29.8926 25.306 32.0708 25.6384 33.6399C25.7921 34.4212 25.9161 35.0443 26.0032 35.4852C26.083 35.9198 26.1168 36.1565 26.097 36.1647Z" fill="#B08D6A"/>
<path fill-rule="evenodd" clip-rule="evenodd" d="M183.035 123.157C183.152 123.046 184.506 125.438 187.528 127.091C190.437 128.87 194.591 129.879 197.73 130.739C200.951 131.583 203.83 132.54 205.778 133.539C207.73 134.527 208.731 135.447 208.678 135.517C208.578 135.664 207.496 134.96 205.554 134.145C203.617 133.313 200.802 132.448 197.561 131.587C194.437 130.715 190.209 129.564 187.262 127.578C185.757 126.65 184.692 125.49 183.979 124.655C183.357 123.734 183.001 123.177 183.035 123.157Z" fill="#B08D6A"/>
<path fill-rule="evenodd" clip-rule="evenodd" d="M269.423 247.872C269.436 247.917 268.741 248.164 267.574 248.541C266.404 248.888 264.753 249.343 262.846 249.712C259.043 250.494 254.22 250.888 250.529 250.745C246.757 250.648 243.403 250.111 241.037 249.548C238.669 248.983 237.274 248.439 237.305 248.33C237.379 248.009 242.985 249.675 250.485 249.882C254.122 250.042 258.903 249.785 262.719 249.172C264.628 248.892 266.3 248.531 267.495 248.275C268.083 248.139 268.561 248.031 268.899 247.955C269.233 247.882 269.415 247.852 269.423 247.872Z" fill="#B08D6A"/>
</svg>
